<?xml version="1.0" encoding="utf-8" standalone="no"?>
<!DOCTYPE svg PUBLIC "-//W3C//DTD SVG 1.1//EN"
  "http://www.w3.org/Graphics/SVG/1.1/DTD/svg11.dtd">
<!-- Created with matplotlib (https://matplotlib.org/) -->
<svg height="648pt" version="1.1" viewBox="0 0 1152 648" width="1152pt" xmlns="http://www.w3.org/2000/svg" xmlns:xlink="http://www.w3.org/1999/xlink">
 <defs>
  <style type="text/css">
*{stroke-linecap:butt;stroke-linejoin:round;white-space:pre;}
  </style>
 </defs>
 <g id="figure_1">
  <g id="patch_1">
   <path d="M 0 648 
L 1152 648 
L 1152 0 
L 0 0 
z
" style="fill:#ffffff;"/>
  </g>
  <g id="axes_1">
   <g id="patch_2">
    <path d="M 144 567 
L 1036.8 567 
L 1036.8 77.76 
L 144 77.76 
z
" style="fill:#ffffff;"/>
   </g>
   <g id="matplotlib.axis_1">
    <g id="xtick_1">
     <g id="line2d_1">
      <defs>
       <path d="M 0 0 
L 0 3.5 
" id="m008f054cb9" style="stroke:#000000;stroke-width:0.8;"/>
      </defs>
      <g>
       <use style="stroke:#000000;stroke-width:0.8;" x="184.581818" xlink:href="#m008f054cb9" y="567"/>
      </g>
     </g>
     <g id="text_1">
      <!-- 2000-01 -->
      <defs>
       <path d="M 19.1875 8.296875 
L 53.609375 8.296875 
L 53.609375 0 
L 7.328125 0 
L 7.328125 8.296875 
Q 12.9375 14.109375 22.625 23.890625 
Q 32.328125 33.6875 34.8125 36.53125 
Q 39.546875 41.84375 41.421875 45.53125 
Q 43.3125 49.21875 43.3125 52.78125 
Q 43.3125 58.59375 39.234375 62.25 
Q 35.15625 65.921875 28.609375 65.921875 
Q 23.96875 65.921875 18.8125 64.3125 
Q 13.671875 62.703125 7.8125 59.421875 
L 7.8125 69.390625 
Q 13.765625 71.78125 18.9375 73 
Q 24.125 74.21875 28.421875 74.21875 
Q 39.75 74.21875 46.484375 68.546875 
Q 53.21875 62.890625 53.21875 53.421875 
Q 53.21875 48.921875 51.53125 44.890625 
Q 49.859375 40.875 45.40625 35.40625 
Q 44.1875 33.984375 37.640625 27.21875 
Q 31.109375 20.453125 19.1875 8.296875 
z
" id="DejaVuSans-50"/>
       <path d="M 31.78125 66.40625 
Q 24.171875 66.40625 20.328125 58.90625 
Q 16.5 51.421875 16.5 36.375 
Q 16.5 21.390625 20.328125 13.890625 
Q 24.171875 6.390625 31.78125 6.390625 
Q 39.453125 6.390625 43.28125 13.890625 
Q 47.125 21.390625 47.125 36.375 
Q 47.125 51.421875 43.28125 58.90625 
Q 39.453125 66.40625 31.78125 66.40625 
z
M 31.78125 74.21875 
Q 44.046875 74.21875 50.515625 64.515625 
Q 56.984375 54.828125 56.984375 36.375 
Q 56.984375 17.96875 50.515625 8.265625 
Q 44.046875 -1.421875 31.78125 -1.421875 
Q 19.53125 -1.421875 13.0625 8.265625 
Q 6.59375 17.96875 6.59375 36.375 
Q 6.59375 54.828125 13.0625 64.515625 
Q 19.53125 74.21875 31.78125 74.21875 
z
" id="DejaVuSans-48"/>
       <path d="M 4.890625 31.390625 
L 31.203125 31.390625 
L 31.203125 23.390625 
L 4.890625 23.390625 
z
" id="DejaVuSans-45"/>
       <path d="M 12.40625 8.296875 
L 28.515625 8.296875 
L 28.515625 63.921875 
L 10.984375 60.40625 
L 10.984375 69.390625 
L 28.421875 72.90625 
L 38.28125 72.90625 
L 38.28125 8.296875 
L 54.390625 8.296875 
L 54.390625 0 
L 12.40625 0 
z
" id="DejaVuSans-49"/>
      </defs>
      <g transform="translate(163.690412 581.598438)scale(0.1 -0.1)">
       <use xlink:href="#DejaVuSans-50"/>
       <use x="63.623047" xlink:href="#DejaVuSans-48"/>
       <use x="127.246094" xlink:href="#DejaVuSans-48"/>
       <use x="190.869141" xlink:href="#DejaVuSans-48"/>
       <use x="254.492188" xlink:href="#DejaVuSans-45"/>
       <use x="290.576172" xlink:href="#DejaVuSans-48"/>
       <use x="354.199219" xlink:href="#DejaVuSans-49"/>
      </g>
     </g>
    </g>
    <g id="xtick_2">
     <g id="line2d_2">
      <g>
       <use style="stroke:#000000;stroke-width:0.8;" x="227.299746" xlink:href="#m008f054cb9" y="567"/>
      </g>
     </g>
     <g id="text_2">
      <!-- 2001-01 -->
      <g transform="translate(206.40834 581.598438)scale(0.1 -0.1)">
       <use xlink:href="#DejaVuSans-50"/>
       <use x="63.623047" xlink:href="#DejaVuSans-48"/>
       <use x="127.246094" xlink:href="#DejaVuSans-48"/>
       <use x="190.869141" xlink:href="#DejaVuSans-49"/>
       <use x="254.492188" xlink:href="#DejaVuSans-45"/>
       <use x="290.576172" xlink:href="#DejaVuSans-48"/>
       <use x="354.199219" xlink:href="#DejaVuSans-49"/>
      </g>
     </g>
    </g>
    <g id="xtick_3">
     <g id="line2d_3">
      <g>
       <use style="stroke:#000000;stroke-width:0.8;" x="269.180068" xlink:href="#m008f054cb9" y="567"/>
      </g>
     </g>
     <g id="text_3">
      <!-- 2002-01 -->
      <g transform="translate(248.288662 581.598438)scale(0.1 -0.1)">
       <use xlink:href="#DejaVuSans-50"/>
       <use x="63.623047" xlink:href="#DejaVuSans-48"/>
       <use x="127.246094" xlink:href="#DejaVuSans-48"/>
       <use x="190.869141" xlink:href="#DejaVuSans-50"/>
       <use x="254.492188" xlink:href="#DejaVuSans-45"/>
       <use x="290.576172" xlink:href="#DejaVuSans-48"/>
       <use x="354.199219" xlink:href="#DejaVuSans-49"/>
      </g>
     </g>
    </g>
    <g id="xtick_4">
     <g id="line2d_4">
      <g>
       <use style="stroke:#000000;stroke-width:0.8;" x="311.06039" xlink:href="#m008f054cb9" y="567"/>
      </g>
     </g>
     <g id="text_4">
      <!-- 2003-01 -->
      <defs>
       <path d="M 40.578125 39.3125 
Q 47.65625 37.796875 51.625 33 
Q 55.609375 28.21875 55.609375 21.1875 
Q 55.609375 10.40625 48.1875 4.484375 
Q 40.765625 -1.421875 27.09375 -1.421875 
Q 22.515625 -1.421875 17.65625 -0.515625 
Q 12.796875 0.390625 7.625 2.203125 
L 7.625 11.71875 
Q 11.71875 9.328125 16.59375 8.109375 
Q 21.484375 6.890625 26.8125 6.890625 
Q 36.078125 6.890625 40.9375 10.546875 
Q 45.796875 14.203125 45.796875 21.1875 
Q 45.796875 27.640625 41.28125 31.265625 
Q 36.765625 34.90625 28.71875 34.90625 
L 20.21875 34.90625 
L 20.21875 43.015625 
L 29.109375 43.015625 
Q 36.375 43.015625 40.234375 45.921875 
Q 44.09375 48.828125 44.09375 54.296875 
Q 44.09375 59.90625 40.109375 62.90625 
Q 36.140625 65.921875 28.71875 65.921875 
Q 24.65625 65.921875 20.015625 65.03125 
Q 15.375 64.15625 9.8125 62.3125 
L 9.8125 71.09375 
Q 15.4375 72.65625 20.34375 73.4375 
Q 25.25 74.21875 29.59375 74.21875 
Q 40.828125 74.21875 47.359375 69.109375 
Q 53.90625 64.015625 53.90625 55.328125 
Q 53.90625 49.265625 50.4375 45.09375 
Q 46.96875 40.921875 40.578125 39.3125 
z
" id="DejaVuSans-51"/>
      </defs>
      <g transform="translate(290.168984 581.598438)scale(0.1 -0.1)">
       <use xlink:href="#DejaVuSans-50"/>
       <use x="63.623047" xlink:href="#DejaVuSans-48"/>
       <use x="127.246094" xlink:href="#DejaVuSans-48"/>
       <use x="190.869141" xlink:href="#DejaVuSans-51"/>
       <use x="254.492188" xlink:href="#DejaVuSans-45"/>
       <use x="290.576172" xlink:href="#DejaVuSans-48"/>
       <use x="354.199219" xlink:href="#DejaVuSans-49"/>
      </g>
     </g>
    </g>
    <g id="xtick_5">
     <g id="line2d_5">
      <g>
       <use style="stroke:#000000;stroke-width:0.8;" x="352.940712" xlink:href="#m008f054cb9" y="567"/>
      </g>
     </g>
     <g id="text_5">
      <!-- 2004-01 -->
      <defs>
       <path d="M 37.796875 64.3125 
L 12.890625 25.390625 
L 37.796875 25.390625 
z
M 35.203125 72.90625 
L 47.609375 72.90625 
L 47.609375 25.390625 
L 58.015625 25.390625 
L 58.015625 17.1875 
L 47.609375 17.1875 
L 47.609375 0 
L 37.796875 0 
L 37.796875 17.1875 
L 4.890625 17.1875 
L 4.890625 26.703125 
z
" id="DejaVuSans-52"/>
      </defs>
      <g transform="translate(332.049305 581.598438)scale(0.1 -0.1)">
       <use xlink:href="#DejaVuSans-50"/>
       <use x="63.623047" xlink:href="#DejaVuSans-48"/>
       <use x="127.246094" xlink:href="#DejaVuSans-48"/>
       <use x="190.869141" xlink:href="#DejaVuSans-52"/>
       <use x="254.492188" xlink:href="#DejaVuSans-45"/>
       <use x="290.576172" xlink:href="#DejaVuSans-48"/>
       <use x="354.199219" xlink:href="#DejaVuSans-49"/>
      </g>
     </g>
    </g>
    <g id="xtick_6">
     <g id="line2d_6">
      <g>
       <use style="stroke:#000000;stroke-width:0.8;" x="394.821033" xlink:href="#m008f054cb9" y="567"/>
      </g>
     </g>
     <g id="text_6">
      <!-- 2005-01 -->
      <defs>
       <path d="M 10.796875 72.90625 
L 49.515625 72.90625 
L 49.515625 64.59375 
L 19.828125 64.59375 
L 19.828125 46.734375 
Q 21.96875 47.46875 24.109375 47.828125 
Q 26.265625 48.1875 28.421875 48.1875 
Q 40.625 48.1875 47.75 41.5 
Q 54.890625 34.8125 54.890625 23.390625 
Q 54.890625 11.625 47.5625 5.09375 
Q 40.234375 -1.421875 26.90625 -1.421875 
Q 22.3125 -1.421875 17.546875 -0.640625 
Q 12.796875 0.140625 7.71875 1.703125 
L 7.71875 11.625 
Q 12.109375 9.234375 16.796875 8.0625 
Q 21.484375 6.890625 26.703125 6.890625 
Q 35.15625 6.890625 40.078125 11.328125 
Q 45.015625 15.765625 45.015625 23.390625 
Q 45.015625 31 40.078125 35.4375 
Q 35.15625 39.890625 26.703125 39.890625 
Q 22.75 39.890625 18.8125 39.015625 
Q 14.890625 38.140625 10.796875 36.28125 
z
" id="DejaVuSans-53"/>
      </defs>
      <g transform="translate(373.929627 581.598438)scale(0.1 -0.1)">
       <use xlink:href="#DejaVuSans-50"/>
       <use x="63.623047" xlink:href="#DejaVuSans-48"/>
       <use x="127.246094" xlink:href="#DejaVuSans-48"/>
       <use x="190.869141" xlink:href="#DejaVuSans-53"/>
       <use x="254.492188" xlink:href="#DejaVuSans-45"/>
       <use x="290.576172" xlink:href="#DejaVuSans-48"/>
       <use x="354.199219" xlink:href="#DejaVuSans-49"/>
      </g>
     </g>
    </g>
    <g id="xtick_7">
     <g id="line2d_7">
      <g>
       <use style="stroke:#000000;stroke-width:0.8;" x="436.701355" xlink:href="#m008f054cb9" y="567"/>
      </g>
     </g>
     <g id="text_7">
      <!-- 2006-01 -->
      <defs>
       <path d="M 33.015625 40.375 
Q 26.375 40.375 22.484375 35.828125 
Q 18.609375 31.296875 18.609375 23.390625 
Q 18.609375 15.53125 22.484375 10.953125 
Q 26.375 6.390625 33.015625 6.390625 
Q 39.65625 6.390625 43.53125 10.953125 
Q 47.40625 15.53125 47.40625 23.390625 
Q 47.40625 31.296875 43.53125 35.828125 
Q 39.65625 40.375 33.015625 40.375 
z
M 52.59375 71.296875 
L 52.59375 62.3125 
Q 48.875 64.0625 45.09375 64.984375 
Q 41.3125 65.921875 37.59375 65.921875 
Q 27.828125 65.921875 22.671875 59.328125 
Q 17.53125 52.734375 16.796875 39.40625 
Q 19.671875 43.65625 24.015625 45.921875 
Q 28.375 48.1875 33.59375 48.1875 
Q 44.578125 48.1875 50.953125 41.515625 
Q 57.328125 34.859375 57.328125 23.390625 
Q 57.328125 12.15625 50.6875 5.359375 
Q 44.046875 -1.421875 33.015625 -1.421875 
Q 20.359375 -1.421875 13.671875 8.265625 
Q 6.984375 17.96875 6.984375 36.375 
Q 6.984375 53.65625 15.1875 63.9375 
Q 23.390625 74.21875 37.203125 74.21875 
Q 40.921875 74.21875 44.703125 73.484375 
Q 48.484375 72.75 52.59375 71.296875 
z
" id="DejaVuSans-54"/>
      </defs>
      <g transform="translate(415.809949 581.598438)scale(0.1 -0.1)">
       <use xlink:href="#DejaVuSans-50"/>
       <use x="63.623047" xlink:href="#DejaVuSans-48"/>
       <use x="127.246094" xlink:href="#DejaVuSans-48"/>
       <use x="190.869141" xlink:href="#DejaVuSans-54"/>
       <use x="254.492188" xlink:href="#DejaVuSans-45"/>
       <use x="290.576172" xlink:href="#DejaVuSans-48"/>
       <use x="354.199219" xlink:href="#DejaVuSans-49"/>
      </g>
     </g>
    </g>
    <g id="xtick_8">
     <g id="line2d_8">
      <g>
       <use style="stroke:#000000;stroke-width:0.8;" x="478.581677" xlink:href="#m008f054cb9" y="567"/>
      </g>
     </g>
     <g id="text_8">
      <!-- 2007-01 -->
      <defs>
       <path d="M 8.203125 72.90625 
L 55.078125 72.90625 
L 55.078125 68.703125 
L 28.609375 0 
L 18.3125 0 
L 43.21875 64.59375 
L 8.203125 64.59375 
z
" id="DejaVuSans-55"/>
      </defs>
      <g transform="translate(457.690271 581.598438)scale(0.1 -0.1)">
       <use xlink:href="#DejaVuSans-50"/>
       <use x="63.623047" xlink:href="#DejaVuSans-48"/>
       <use x="127.246094" xlink:href="#DejaVuSans-48"/>
       <use x="190.869141" xlink:href="#DejaVuSans-55"/>
       <use x="254.492188" xlink:href="#DejaVuSans-45"/>
       <use x="290.576172" xlink:href="#DejaVuSans-48"/>
       <use x="354.199219" xlink:href="#DejaVuSans-49"/>
      </g>
     </g>
    </g>
    <g id="xtick_9">
     <g id="line2d_9">
      <g>
       <use style="stroke:#000000;stroke-width:0.8;" x="520.461999" xlink:href="#m008f054cb9" y="567"/>
      </g>
     </g>
     <g id="text_9">
      <!-- 2008-01 -->
      <defs>
       <path d="M 31.78125 34.625 
Q 24.75 34.625 20.71875 30.859375 
Q 16.703125 27.09375 16.703125 20.515625 
Q 16.703125 13.921875 20.71875 10.15625 
Q 24.75 6.390625 31.78125 6.390625 
Q 38.8125 6.390625 42.859375 10.171875 
Q 46.921875 13.96875 46.921875 20.515625 
Q 46.921875 27.09375 42.890625 30.859375 
Q 38.875 34.625 31.78125 34.625 
z
M 21.921875 38.8125 
Q 15.578125 40.375 12.03125 44.71875 
Q 8.5 49.078125 8.5 55.328125 
Q 8.5 64.0625 14.71875 69.140625 
Q 20.953125 74.21875 31.78125 74.21875 
Q 42.671875 74.21875 48.875 69.140625 
Q 55.078125 64.0625 55.078125 55.328125 
Q 55.078125 49.078125 51.53125 44.71875 
Q 48 40.375 41.703125 38.8125 
Q 48.828125 37.15625 52.796875 32.3125 
Q 56.78125 27.484375 56.78125 20.515625 
Q 56.78125 9.90625 50.3125 4.234375 
Q 43.84375 -1.421875 31.78125 -1.421875 
Q 19.734375 -1.421875 13.25 4.234375 
Q 6.78125 9.90625 6.78125 20.515625 
Q 6.78125 27.484375 10.78125 32.3125 
Q 14.796875 37.15625 21.921875 38.8125 
z
M 18.3125 54.390625 
Q 18.3125 48.734375 21.84375 45.5625 
Q 25.390625 42.390625 31.78125 42.390625 
Q 38.140625 42.390625 41.71875 45.5625 
Q 45.3125 48.734375 45.3125 54.390625 
Q 45.3125 60.0625 41.71875 63.234375 
Q 38.140625 66.40625 31.78125 66.40625 
Q 25.390625 66.40625 21.84375 63.234375 
Q 18.3125 60.0625 18.3125 54.390625 
z
" id="DejaVuSans-56"/>
      </defs>
      <g transform="translate(499.570592 581.598438)scale(0.1 -0.1)">
       <use xlink:href="#DejaVuSans-50"/>
       <use x="63.623047" xlink:href="#DejaVuSans-48"/>
       <use x="127.246094" xlink:href="#DejaVuSans-48"/>
       <use x="190.869141" xlink:href="#DejaVuSans-56"/>
       <use x="254.492188" xlink:href="#DejaVuSans-45"/>
       <use x="290.576172" xlink:href="#DejaVuSans-48"/>
       <use x="354.199219" xlink:href="#DejaVuSans-49"/>
      </g>
     </g>
    </g>
    <g id="xtick_10">
     <g id="line2d_10">
      <g>
       <use style="stroke:#000000;stroke-width:0.8;" x="562.34232" xlink:href="#m008f054cb9" y="567"/>
      </g>
     </g>
     <g id="text_10">
      <!-- 2009-01 -->
      <defs>
       <path d="M 10.984375 1.515625 
L 10.984375 10.5 
Q 14.703125 8.734375 18.5 7.8125 
Q 22.3125 6.890625 25.984375 6.890625 
Q 35.75 6.890625 40.890625 13.453125 
Q 46.046875 20.015625 46.78125 33.40625 
Q 43.953125 29.203125 39.59375 26.953125 
Q 35.25 24.703125 29.984375 24.703125 
Q 19.046875 24.703125 12.671875 31.3125 
Q 6.296875 37.9375 6.296875 49.421875 
Q 6.296875 60.640625 12.9375 67.421875 
Q 19.578125 74.21875 30.609375 74.21875 
Q 43.265625 74.21875 49.921875 64.515625 
Q 56.59375 54.828125 56.59375 36.375 
Q 56.59375 19.140625 48.40625 8.859375 
Q 40.234375 -1.421875 26.421875 -1.421875 
Q 22.703125 -1.421875 18.890625 -0.6875 
Q 15.09375 0.046875 10.984375 1.515625 
z
M 30.609375 32.421875 
Q 37.25 32.421875 41.125 36.953125 
Q 45.015625 41.5 45.015625 49.421875 
Q 45.015625 57.28125 41.125 61.84375 
Q 37.25 66.40625 30.609375 66.40625 
Q 23.96875 66.40625 20.09375 61.84375 
Q 16.21875 57.28125 16.21875 49.421875 
Q 16.21875 41.5 20.09375 36.953125 
Q 23.96875 32.421875 30.609375 32.421875 
z
" id="DejaVuSans-57"/>
      </defs>
      <g transform="translate(541.450914 581.598438)scale(0.1 -0.1)">
       <use xlink:href="#DejaVuSans-50"/>
       <use x="63.623047" xlink:href="#DejaVuSans-48"/>
       <use x="127.246094" xlink:href="#DejaVuSans-48"/>
       <use x="190.869141" xlink:href="#DejaVuSans-57"/>
       <use x="254.492188" xlink:href="#DejaVuSans-45"/>
       <use x="290.576172" xlink:href="#DejaVuSans-48"/>
       <use x="354.199219" xlink:href="#DejaVuSans-49"/>
      </g>
     </g>
    </g>
    <g id="xtick_11">
     <g id="line2d_11">
      <g>
       <use style="stroke:#000000;stroke-width:0.8;" x="604.222642" xlink:href="#m008f054cb9" y="567"/>
      </g>
     </g>
     <g id="text_11">
      <!-- 2010-01 -->
      <g transform="translate(583.331236 581.598438)scale(0.1 -0.1)">
       <use xlink:href="#DejaVuSans-50"/>
       <use x="63.623047" xlink:href="#DejaVuSans-48"/>
       <use x="127.246094" xlink:href="#DejaVuSans-49"/>
       <use x="190.869141" xlink:href="#DejaVuSans-48"/>
       <use x="254.492188" xlink:href="#DejaVuSans-45"/>
       <use x="290.576172" xlink:href="#DejaVuSans-48"/>
       <use x="354.199219" xlink:href="#DejaVuSans-49"/>
      </g>
     </g>
    </g>
    <g id="xtick_12">
     <g id="line2d_12">
      <g>
       <use style="stroke:#000000;stroke-width:0.8;" x="646.102964" xlink:href="#m008f054cb9" y="567"/>
      </g>
     </g>
     <g id="text_12">
      <!-- 2011-01 -->
      <g transform="translate(625.211558 581.598438)scale(0.1 -0.1)">
       <use xlink:href="#DejaVuSans-50"/>
       <use x="63.623047" xlink:href="#DejaVuSans-48"/>
       <use x="127.246094" xlink:href="#DejaVuSans-49"/>
       <use x="190.869141" xlink:href="#DejaVuSans-49"/>
       <use x="254.492188" xlink:href="#DejaVuSans-45"/>
       <use x="290.576172" xlink:href="#DejaVuSans-48"/>
       <use x="354.199219" xlink:href="#DejaVuSans-49"/>
      </g>
     </g>
    </g>
    <g id="xtick_13">
     <g id="line2d_13">
      <g>
       <use style="stroke:#000000;stroke-width:0.8;" x="687.983286" xlink:href="#m008f054cb9" y="567"/>
      </g>
     </g>
     <g id="text_13">
      <!-- 2012-01 -->
      <g transform="translate(667.091879 581.598438)scale(0.1 -0.1)">
       <use xlink:href="#DejaVuSans-50"/>
       <use x="63.623047" xlink:href="#DejaVuSans-48"/>
       <use x="127.246094" xlink:href="#DejaVuSans-49"/>
       <use x="190.869141" xlink:href="#DejaVuSans-50"/>
       <use x="254.492188" xlink:href="#DejaVuSans-45"/>
       <use x="290.576172" xlink:href="#DejaVuSans-48"/>
       <use x="354.199219" xlink:href="#DejaVuSans-49"/>
      </g>
     </g>
    </g>
    <g id="xtick_14">
     <g id="line2d_14">
      <g>
       <use style="stroke:#000000;stroke-width:0.8;" x="729.863607" xlink:href="#m008f054cb9" y="567"/>
      </g>
     </g>
     <g id="text_14">
      <!-- 2013-01 -->
      <g transform="translate(708.972201 581.598438)scale(0.1 -0.1)">
       <use xlink:href="#DejaVuSans-50"/>
       <use x="63.623047" xlink:href="#DejaVuSans-48"/>
       <use x="127.246094" xlink:href="#DejaVuSans-49"/>
       <use x="190.869141" xlink:href="#DejaVuSans-51"/>
       <use x="254.492188" xlink:href="#DejaVuSans-45"/>
       <use x="290.576172" xlink:href="#DejaVuSans-48"/>
       <use x="354.199219" xlink:href="#DejaVuSans-49"/>
      </g>
     </g>
    </g>
    <g id="xtick_15">
     <g id="line2d_15">
      <g>
       <use style="stroke:#000000;stroke-width:0.8;" x="771.743929" xlink:href="#m008f054cb9" y="567"/>
      </g>
     </g>
     <g id="text_15">
      <!-- 2014-01 -->
      <g transform="translate(750.852523 581.598438)scale(0.1 -0.1)">
       <use xlink:href="#DejaVuSans-50"/>
       <use x="63.623047" xlink:href="#DejaVuSans-48"/>
       <use x="127.246094" xlink:href="#DejaVuSans-49"/>
       <use x="190.869141" xlink:href="#DejaVuSans-52"/>
       <use x="254.492188" xlink:href="#DejaVuSans-45"/>
       <use x="290.576172" xlink:href="#DejaVuSans-48"/>
       <use x="354.199219" xlink:href="#DejaVuSans-49"/>
      </g>
     </g>
    </g>
    <g id="xtick_16">
     <g id="line2d_16">
      <g>
       <use style="stroke:#000000;stroke-width:0.8;" x="813.624251" xlink:href="#m008f054cb9" y="567"/>
      </g>
     </g>
     <g id="text_16">
      <!-- 2015-01 -->
      <g transform="translate(792.732845 581.598438)scale(0.1 -0.1)">
       <use xlink:href="#DejaVuSans-50"/>
       <use x="63.623047" xlink:href="#DejaVuSans-48"/>
       <use x="127.246094" xlink:href="#DejaVuSans-49"/>
       <use x="190.869141" xlink:href="#DejaVuSans-53"/>
       <use x="254.492188" xlink:href="#DejaVuSans-45"/>
       <use x="290.576172" xlink:href="#DejaVuSans-48"/>
       <use x="354.199219" xlink:href="#DejaVuSans-49"/>
      </g>
     </g>
    </g>
    <g id="xtick_17">
     <g id="line2d_17">
      <g>
       <use style="stroke:#000000;stroke-width:0.8;" x="855.504573" xlink:href="#m008f054cb9" y="567"/>
      </g>
     </g>
     <g id="text_17">
      <!-- 2016-01 -->
      <g transform="translate(834.613166 581.598438)scale(0.1 -0.1)">
       <use xlink:href="#DejaVuSans-50"/>
       <use x="63.623047" xlink:href="#DejaVuSans-48"/>
       <use x="127.246094" xlink:href="#DejaVuSans-49"/>
       <use x="190.869141" xlink:href="#DejaVuSans-54"/>
       <use x="254.492188" xlink:href="#DejaVuSans-45"/>
       <use x="290.576172" xlink:href="#DejaVuSans-48"/>
       <use x="354.199219" xlink:href="#DejaVuSans-49"/>
      </g>
     </g>
    </g>
    <g id="xtick_18">
     <g id="line2d_18">
      <g>
       <use style="stroke:#000000;stroke-width:0.8;" x="897.384894" xlink:href="#m008f054cb9" y="567"/>
      </g>
     </g>
     <g id="text_18">
      <!-- 2017-01 -->
      <g transform="translate(876.493488 581.598438)scale(0.1 -0.1)">
       <use xlink:href="#DejaVuSans-50"/>
       <use x="63.623047" xlink:href="#DejaVuSans-48"/>
       <use x="127.246094" xlink:href="#DejaVuSans-49"/>
       <use x="190.869141" xlink:href="#DejaVuSans-55"/>
       <use x="254.492188" xlink:href="#DejaVuSans-45"/>
       <use x="290.576172" xlink:href="#DejaVuSans-48"/>
       <use x="354.199219" xlink:href="#DejaVuSans-49"/>
      </g>
     </g>
    </g>
    <g id="xtick_19">
     <g id="line2d_19">
      <g>
       <use style="stroke:#000000;stroke-width:0.8;" x="939.265216" xlink:href="#m008f054cb9" y="567"/>
      </g>
     </g>
     <g id="text_19">
      <!-- 2018-01 -->
      <g transform="translate(918.37381 581.598438)scale(0.1 -0.1)">
       <use xlink:href="#DejaVuSans-50"/>
       <use x="63.623047" xlink:href="#DejaVuSans-48"/>
       <use x="127.246094" xlink:href="#DejaVuSans-49"/>
       <use x="190.869141" xlink:href="#DejaVuSans-56"/>
       <use x="254.492188" xlink:href="#DejaVuSans-45"/>
       <use x="290.576172" xlink:href="#DejaVuSans-48"/>
       <use x="354.199219" xlink:href="#DejaVuSans-49"/>
      </g>
     </g>
    </g>
    <g id="xtick_20">
     <g id="line2d_20">
      <g>
       <use style="stroke:#000000;stroke-width:0.8;" x="981.142774" xlink:href="#m008f054cb9" y="567"/>
      </g>
     </g>
    </g>
   </g>
   <g id="matplotlib.axis_2">
    <g id="ytick_1">
     <g id="line2d_21">
      <defs>
       <path d="M 0 0 
L -3.5 0 
" id="m16e897081d" style="stroke:#000000;stroke-width:0.8;"/>
      </defs>
      <g>
       <use style="stroke:#000000;stroke-width:0.8;" x="144" xlink:href="#m16e897081d" y="544.249133"/>
      </g>
     </g>
     <g id="text_20">
      <!-- 0 -->
      <g transform="translate(130.6375 548.048352)scale(0.1 -0.1)">
       <use xlink:href="#DejaVuSans-48"/>
      </g>
     </g>
    </g>
    <g id="ytick_2">
     <g id="line2d_22">
      <g>
       <use style="stroke:#000000;stroke-width:0.8;" x="144" xlink:href="#m16e897081d" y="470.109015"/>
      </g>
     </g>
     <g id="text_21">
      <!-- 2 -->
      <g transform="translate(130.6375 473.908234)scale(0.1 -0.1)">
       <use xlink:href="#DejaVuSans-50"/>
      </g>
     </g>
    </g>
    <g id="ytick_3">
     <g id="line2d_23">
      <g>
       <use style="stroke:#000000;stroke-width:0.8;" x="144" xlink:href="#m16e897081d" y="395.968897"/>
      </g>
     </g>
     <g id="text_22">
      <!-- 4 -->
      <g transform="translate(130.6375 399.768116)scale(0.1 -0.1)">
       <use xlink:href="#DejaVuSans-52"/>
      </g>
     </g>
    </g>
    <g id="ytick_4">
     <g id="line2d_24">
      <g>
       <use style="stroke:#000000;stroke-width:0.8;" x="144" xlink:href="#m16e897081d" y="321.828779"/>
      </g>
     </g>
     <g id="text_23">
      <!-- 6 -->
      <g transform="translate(130.6375 325.627998)scale(0.1 -0.1)">
       <use xlink:href="#DejaVuSans-54"/>
      </g>
     </g>
    </g>
    <g id="ytick_5">
     <g id="line2d_25">
      <g>
       <use style="stroke:#000000;stroke-width:0.8;" x="144" xlink:href="#m16e897081d" y="247.688661"/>
      </g>
     </g>
     <g id="text_24">
      <!-- 8 -->
      <g transform="translate(130.6375 251.48788)scale(0.1 -0.1)">
       <use xlink:href="#DejaVuSans-56"/>
      </g>
     </g>
    </g>
    <g id="ytick_6">
     <g id="line2d_26">
      <g>
       <use style="stroke:#000000;stroke-width:0.8;" x="144" xlink:href="#m16e897081d" y="173.548543"/>
      </g>
     </g>
     <g id="text_25">
      <!-- 10 -->
      <g transform="translate(124.275 177.347762)scale(0.1 -0.1)">
       <use xlink:href="#DejaVuSans-49"/>
       <use x="63.623047" xlink:href="#DejaVuSans-48"/>
      </g>
     </g>
    </g>
    <g id="ytick_7">
     <g id="line2d_27">
      <g>
       <use style="stroke:#000000;stroke-width:0.8;" x="144" xlink:href="#m16e897081d" y="99.408425"/>
      </g>
     </g>
     <g id="text_26">
      <!-- 12 -->
      <g transform="translate(124.275 103.207644)scale(0.1 -0.1)">
       <use xlink:href="#DejaVuSans-49"/>
       <use x="63.623047" xlink:href="#DejaVuSans-50"/>
      </g>
     </g>
    </g>
   </g>
   <g id="line2d_28">
    <path clip-path="url(#p135c81de0b)" d="M 184.581818 542.943894 
L 185.419425 376.765643 
L 186.257031 363.446682 
L 187.094637 378.464957 
L 188.76985 415.84792 
L 189.607457 430.91481 
L 190.445063 442.506203 
L 192.120276 460.59812 
L 192.957883 467.581773 
L 194.633095 478.403265 
L 195.470702 482.84285 
L 197.145915 489.775869 
L 197.983521 492.660851 
L 199.658734 497.24777 
L 201.333947 500.929467 
L 203.00916 503.955747 
L 204.684373 506.480433 
L 206.359585 508.572579 
L 208.034798 510.353403 
L 209.710011 511.885165 
L 212.222831 513.816524 
L 214.73565 515.406566 
L 217.248469 516.734024 
L 220.598895 518.208669 
L 223.949321 519.413673 
L 227.299746 520.412469 
L 227.299746 543.290313 
L 228.137353 420.279 
L 228.974959 407.587624 
L 229.812566 417.388153 
L 231.487779 444.52576 
L 232.325385 455.717305 
L 233.162991 464.478047 
L 234.838204 477.862797 
L 235.675811 483.1767 
L 237.351024 491.173356 
L 238.18863 494.504106 
L 239.863843 499.637731 
L 241.539056 503.579257 
L 243.214269 506.558866 
L 244.889481 508.960727 
L 246.564694 510.935555 
L 248.239907 512.585835 
L 249.91512 513.941253 
L 252.427939 515.588896 
L 254.940759 516.890264 
L 257.453578 517.93258 
L 260.804004 519.022202 
L 264.154429 519.830871 
L 267.504855 520.359592 
L 270.017675 520.605868 
L 270.017675 543.30921 
L 270.855281 422.87482 
L 271.692887 410.054128 
L 272.530494 419.344664 
L 274.205707 445.554405 
L 275.043313 456.396466 
L 275.88092 464.907674 
L 276.718526 471.842998 
L 277.556132 477.845717 
L 278.393739 482.9963 
L 280.068952 490.702663 
L 280.906558 493.903543 
L 282.581771 498.840758 
L 284.256984 502.611113 
L 285.932197 505.438168 
L 287.60741 507.702157 
L 289.282623 509.549959 
L 290.957835 511.081452 
L 292.633048 512.329377 
L 294.308261 513.365378 
L 296.82108 514.618926 
L 299.3339 515.593575 
L 301.846719 516.359878 
L 305.197145 517.129913 
L 308.547571 517.672961 
L 311.897996 518.059671 
L 312.735603 518.099568 
L 312.735603 543.297136 
L 313.573209 414.605887 
L 314.410816 401.050904 
L 315.248422 410.862286 
L 316.923635 438.320633 
L 317.761241 449.633592 
L 318.598848 458.37715 
L 320.274061 471.980459 
L 321.111667 477.190084 
L 322.78688 485.249305 
L 323.624486 488.506429 
L 325.299699 493.558392 
L 326.137306 495.618911 
L 327.812519 498.828875 
L 329.487731 501.349216 
L 331.162944 503.367998 
L 332.838157 505.0106 
L 334.51337 506.302703 
L 336.188583 507.353526 
L 338.701402 508.579736 
L 341.214222 509.485128 
L 343.727041 510.14944 
L 347.077467 510.750136 
L 350.427892 511.117354 
L 352.940712 511.370727 
L 355.453531 511.801593 
L 355.453531 543.110372 
L 356.291137 384.467223 
L 357.128744 369.056285 
L 357.96635 382.055474 
L 359.641563 416.801246 
L 360.47917 430.954291 
L 361.316776 441.871846 
L 362.991989 459.235463 
L 364.667202 471.100208 
L 365.504808 475.98483 
L 367.180021 483.442504 
L 368.017627 486.505459 
L 369.69284 491.272718 
L 371.368053 495.039599 
L 373.043266 498.092005 
L 374.718479 500.578268 
L 376.393692 502.598965 
L 378.068905 504.286867 
L 379.744118 505.710818 
L 381.41933 506.920864 
L 383.93215 508.418198 
L 386.444969 509.622586 
L 388.957788 510.617974 
L 392.308214 511.675509 
L 395.65864 512.495462 
L 398.171459 512.895263 
L 398.171459 543.142257 
L 399.009066 387.33758 
L 399.846672 372.030116 
L 400.684278 384.550981 
L 402.359491 418.226672 
L 403.197098 431.931942 
L 404.034704 442.516894 
L 405.709917 459.322507 
L 407.38513 470.806044 
L 408.222736 475.502277 
L 409.897949 482.678606 
L 410.735556 485.597466 
L 412.410768 490.143984 
L 414.085981 493.720109 
L 415.761194 496.603094 
L 417.436407 498.927187 
L 419.11162 500.800687 
L 420.786833 502.35036 
L 422.462046 503.643192 
L 424.137259 504.72824 
L 426.650078 506.046009 
L 429.162897 507.080134 
L 431.675716 507.910654 
L 435.026142 508.762631 
L 438.376568 509.393691 
L 440.051781 509.640763 
L 440.889387 509.622285 
L 440.889387 543.045462 
L 441.726994 368.975317 
L 442.5646 350.436623 
L 443.402207 362.922271 
L 445.077419 398.146541 
L 445.915026 412.522759 
L 446.752632 423.553511 
L 448.427845 441.007341 
L 449.265452 447.2917 
L 450.940664 457.461734 
L 451.778271 461.263884 
L 453.453484 467.357332 
L 455.128697 471.580956 
L 456.80391 474.746511 
L 458.479122 477.156256 
L 460.154335 478.956453 
L 461.829548 480.27724 
L 463.504761 481.247124 
L 465.179974 481.922875 
L 466.855187 482.429764 
L 468.5304 482.751705 
L 471.043219 482.974882 
L 473.556038 483.032251 
L 476.906464 482.885046 
L 481.932103 482.382856 
L 483.607315 482.148248 
L 483.607315 542.204074 
L 484.444922 236.569832 
L 485.282528 206.279125 
L 486.120135 229.548734 
L 487.795348 292.332838 
L 488.632954 317.49034 
L 489.47056 337.143598 
L 490.308167 353.947103 
L 491.145773 368.091165 
L 492.820986 389.392661 
L 493.658593 397.734112 
L 495.333806 410.765366 
L 496.171412 415.811632 
L 497.846625 423.949791 
L 499.521838 430.27854 
L 501.197051 435.21808 
L 502.872263 439.129544 
L 504.547476 442.282538 
L 506.222689 444.894139 
L 507.897902 447.054797 
L 510.410721 449.78456 
L 512.085934 451.345932 
L 514.598754 453.324541 
L 517.111573 454.95422 
L 522.137211 457.997075 
L 526.325244 460.236987 
L 526.325244 541.596988 
L 527.16285 135.632045 
L 528.000456 99.998182 
L 528.838063 134.069891 
L 530.513276 220.58602 
L 531.350882 254.634575 
L 532.188489 281.852223 
L 533.026095 305.392652 
L 533.863702 324.134498 
L 534.701308 340.204406 
L 535.538914 353.914189 
L 537.214127 375.245412 
L 538.88934 390.608403 
L 540.564553 402.538844 
L 542.239766 411.870567 
L 543.914979 419.341082 
L 545.590192 425.468638 
L 547.265404 430.572669 
L 549.778224 437.025213 
L 551.453437 440.723669 
L 553.12865 443.974759 
L 554.803862 446.857435 
L 557.316682 450.621364 
L 559.829501 453.847625 
L 562.34232 456.648761 
L 564.017533 458.366895 
L 566.530353 462.09241 
L 569.043172 466.277229 
L 569.043172 541.804093 
L 569.880778 168.495154 
L 570.718385 139.881784 
L 571.555991 174.544868 
L 573.231204 258.200903 
L 574.06881 290.662797 
L 575.744023 339.402107 
L 576.58163 357.311244 
L 577.419236 372.794458 
L 578.256843 386.006773 
L 579.932055 406.666422 
L 581.607268 421.626679 
L 583.282481 433.327832 
L 584.957694 442.545234 
L 586.632907 449.970108 
L 588.30812 456.095471 
L 589.983333 461.216412 
L 591.658546 465.587852 
L 593.333758 469.4107 
L 595.008971 472.743912 
L 596.684184 475.676513 
L 598.359397 478.27718 
L 600.872216 481.670454 
L 603.385036 484.573342 
L 605.897855 487.086151 
L 609.248281 489.995219 
L 611.7611 491.960635 
L 611.7611 542.684194 
L 612.598706 296.439461 
L 613.436313 277.751283 
L 614.273919 300.492269 
L 615.949132 355.0989 
L 616.786739 376.01272 
L 618.461951 407.376106 
L 619.299558 419.23921 
L 620.974771 437.866996 
L 621.812377 445.018859 
L 623.48759 456.57444 
L 625.162803 464.989277 
L 626.838016 471.612753 
L 628.513229 476.92143 
L 630.188442 481.179513 
L 631.863654 484.702342 
L 633.538867 487.655332 
L 635.21408 490.160331 
L 636.889293 492.312113 
L 638.564506 494.231678 
L 641.077325 496.682592 
L 643.590145 498.727616 
L 646.102964 500.455842 
L 648.615783 501.932062 
L 651.966209 503.590005 
L 653.641422 504.521568 
L 654.479028 505.073353 
L 654.479028 543.068712 
L 655.316635 358.174866 
L 656.154241 345.16879 
L 656.991847 363.083553 
L 658.66706 405.146149 
L 659.504667 421.108435 
L 661.17988 445.008003 
L 662.017486 454.23193 
L 663.692699 468.405398 
L 664.530305 474.040517 
L 666.205518 482.922582 
L 667.043125 486.460429 
L 668.718338 492.190574 
L 670.39355 496.77296 
L 672.068763 500.500006 
L 673.743976 503.522535 
L 675.419189 506.051619 
L 677.094402 508.195559 
L 678.769615 510.03153 
L 680.444828 511.620653 
L 682.957647 513.65641 
L 685.470466 515.363401 
L 687.983286 516.805352 
L 691.333711 518.40936 
L 694.684137 519.732693 
L 697.196956 520.580723 
L 697.196956 543.535733 
L 698.034563 431.527616 
L 698.872169 423.449547 
L 699.709776 434.140591 
L 701.384989 459.41791 
L 702.222595 469.037421 
L 703.897808 483.392877 
L 704.735414 488.951409 
L 706.410627 497.451671 
L 707.248234 500.841131 
L 708.923446 506.158881 
L 709.761053 508.270774 
L 711.436266 511.663275 
L 713.111479 514.373974 
L 714.786691 516.597678 
L 716.461904 518.400861 
L 718.137117 519.890582 
L 719.81233 521.150066 
L 722.325149 522.704824 
L 724.837969 523.952212 
L 727.350788 524.971765 
L 730.701214 526.073738 
L 734.051639 526.952781 
L 738.239672 527.826804 
L 739.914885 528.128414 
L 739.914885 543.730927 
L 740.752491 467.533824 
L 741.590097 463.112983 
L 742.427704 471.472453 
L 744.102917 490.287063 
L 744.940523 497.404767 
L 745.77813 503.023329 
L 746.615736 507.874475 
L 747.453342 512.004528 
L 749.128555 518.168412 
L 750.803768 522.682947 
L 752.478981 526.143808 
L 754.154194 528.610928 
L 755.829407 530.55929 
L 757.50462 532.136946 
L 759.179833 533.440505 
L 761.692652 535.020153 
L 763.367865 535.885355 
L 765.043078 536.510418 
L 767.555897 537.463642 
L 770.906323 538.478554 
L 775.094355 539.455296 
L 780.119993 540.356213 
L 782.632813 540.723775 
L 782.632813 544.137238 
L 783.470419 527.841478 
L 784.308026 526.883202 
L 785.145632 528.669316 
L 786.820845 532.704158 
L 787.658451 534.237318 
L 789.333664 536.479743 
L 790.171271 537.370588 
L 791.846483 538.689942 
L 793.521696 539.65947 
L 795.196909 540.405419 
L 797.709729 541.154359 
L 801.060154 541.835559 
L 805.248186 542.403478 
L 810.273825 542.829339 
L 817.812283 543.256398 
L 825.350741 543.527068 
L 825.350741 544.225979 
L 826.188347 540.890043 
L 827.025954 540.694655 
L 831.213986 542.458396 
L 833.726805 542.999921 
L 837.077231 543.407743 
L 841.265263 543.67219 
L 848.803721 543.904917 
L 868.068669 544.112444 
L 868.068669 544.244677 
L 868.906276 543.610722 
L 870.581488 543.642771 
L 874.769521 543.949395 
L 880.632766 544.103298 
L 895.709681 544.197169 
L 911.624204 544.132969 
L 917.487449 544.199116 
L 936.752397 544.241921 
L 996.218182 544.249026 
L 996.218182 544.249026 
" style="fill:none;stroke:#1f77b4;stroke-linecap:square;stroke-width:1.5;"/>
   </g>
   <g id="line2d_29">
    <path clip-path="url(#p135c81de0b)" d="M 184.581818 494.98737 
L 185.419425 514.215883 
L 186.257031 526.134941 
L 187.094637 533.375386 
L 187.932244 537.730045 
L 188.76985 540.342813 
L 189.607457 541.908766 
L 190.445063 543.152219 
L 191.28267 543.966645 
L 192.120276 544.326611 
L 193.795489 544.748476 
L 194.633095 544.761818 
L 196.308308 544.651346 
L 199.658734 544.499606 
L 204.684373 544.341938 
L 216.410863 544.243964 
L 227.299746 544.244463 
L 227.299746 525.476572 
L 228.137353 532.156902 
L 228.974959 536.816517 
L 229.812566 539.757161 
L 230.650172 541.549133 
L 231.487779 542.629433 
L 232.325385 543.2783 
L 233.162991 543.76612 
L 234.000598 544.110117 
L 235.675811 544.349532 
L 237.351024 544.462945 
L 240.701449 544.361671 
L 250.752727 544.27493 
L 270.017675 544.2495 
L 270.017675 528.562777 
L 270.855281 534.121912 
L 271.692887 538.020038 
L 272.530494 540.483879 
L 273.3681 541.985781 
L 274.205707 542.891336 
L 275.043313 543.435293 
L 276.718526 544.128259 
L 278.393739 544.328923 
L 280.068952 544.426838 
L 284.256984 544.328942 
L 294.308261 544.268007 
L 312.735603 544.249151 
L 312.735603 527.809364 
L 313.573209 533.626443 
L 314.410816 537.712286 
L 315.248422 540.295976 
L 316.086028 541.872276 
L 316.923635 542.823205 
L 318.598848 543.839933 
L 319.436454 544.133895 
L 321.949274 544.419783 
L 330.325338 544.333371 
L 344.564647 544.247449 
L 355.453531 544.24918 
L 355.453531 523.776619 
L 356.291137 531.05114 
L 357.128744 536.132083 
L 357.96635 539.340192 
L 358.803957 541.29719 
L 359.641563 542.477977 
L 360.47917 543.193462 
L 361.316776 543.758647 
L 362.154382 544.101127 
L 364.667202 544.443027 
L 368.855234 544.370384 
L 374.718479 544.300471 
L 393.983427 544.249313 
L 398.171459 544.252906 
L 398.171459 524.375781 
L 399.009066 531.450245 
L 399.846672 536.378406 
L 400.684278 539.488766 
L 401.521885 541.386308 
L 402.359491 542.531356 
L 403.197098 543.227764 
L 404.034704 543.774746 
L 404.872311 544.103181 
L 407.38513 544.432289 
L 411.573162 544.369182 
L 417.436407 544.299974 
L 438.376568 544.239244 
L 440.889387 544.2459 
L 440.889387 522.333135 
L 441.726994 530.132914 
L 442.5646 535.569725 
L 443.402207 539.000338 
L 444.239813 541.092749 
L 445.077419 542.355259 
L 445.915026 543.124708 
L 446.752632 543.731167 
L 447.590239 544.095919 
L 450.103058 544.46006 
L 454.29109 544.378458 
L 460.154335 544.300298 
L 478.581677 544.240036 
L 483.607315 544.248116 
L 483.607315 504.70135 
L 484.444922 518.851581 
L 485.282528 528.676032 
L 486.120135 534.846693 
L 486.957741 538.599601 
L 487.795348 540.860676 
L 488.632954 542.280069 
L 489.47056 543.351499 
L 490.308167 543.947878 
L 491.98338 544.512545 
L 494.496199 544.549884 
L 496.171412 544.476343 
L 499.521838 544.390808 
L 504.547476 544.27608 
L 517.111573 544.240053 
L 526.325244 544.247257 
L 526.325244 490.007674 
L 527.16285 509.583754 
L 528.000456 523.064141 
L 528.838063 531.480103 
L 529.675669 536.582599 
L 530.513276 539.652394 
L 531.350882 541.623634 
L 532.188489 543.013907 
L 533.863702 544.24497 
L 534.701308 544.483271 
L 536.376521 544.579994 
L 537.214127 544.508446 
L 539.726947 544.527716 
L 543.077372 544.366077 
L 550.61583 544.213545 
L 559.829501 544.169536 
L 569.043172 544.245874 
L 569.043172 493.327546 
L 569.880778 511.831253 
L 570.718385 524.477472 
L 571.555991 532.342509 
L 572.393598 537.103172 
L 573.231204 539.965228 
L 574.06881 541.831756 
L 574.906417 543.130991 
L 576.58163 544.279007 
L 577.419236 544.49244 
L 579.094449 544.576444 
L 580.769662 544.541713 
L 583.282481 544.462586 
L 587.470513 544.307037 
L 600.03461 544.163955 
L 611.7611 544.253105 
L 611.7611 510.089801 
L 612.598706 522.50743 
L 613.436313 530.99632 
L 614.273919 536.270733 
L 615.111526 539.461457 
L 615.949132 541.37916 
L 616.786739 542.668508 
L 617.624345 543.585334 
L 618.461951 544.035561 
L 619.299558 544.348591 
L 620.137164 544.542706 
L 645.265357 544.200102 
L 654.479028 544.243848 
L 654.479028 518.395791 
L 655.316635 527.828553 
L 656.154241 534.251327 
L 656.991847 538.23339 
L 657.829454 540.639961 
L 658.66706 542.085785 
L 659.504667 543.071913 
L 660.342273 543.782205 
L 661.17988 544.140469 
L 662.855093 544.51619 
L 665.367912 544.500461 
L 667.880731 544.428203 
L 697.196956 544.239256 
L 697.196956 528.652212 
L 698.034563 534.341316 
L 698.872169 538.217211 
L 699.709776 540.619963 
L 700.547382 542.071856 
L 701.384989 542.944084 
L 702.222595 543.535952 
L 703.060201 543.965023 
L 704.735414 544.307458 
L 706.410627 544.419737 
L 720.649937 544.264427 
L 739.914885 544.24882 
L 739.914885 533.634816 
L 740.752491 537.509735 
L 741.590097 540.147622 
L 742.427704 541.78196 
L 743.26531 542.769097 
L 744.102917 543.362032 
L 745.77813 544.056259 
L 747.453342 544.286542 
L 749.966162 544.420342 
L 754.9918 544.304452 
L 782.632813 544.247869 
L 782.632813 541.977653 
L 783.470419 542.806968 
L 784.308026 543.371325 
L 785.145632 543.721086 
L 786.820845 544.059258 
L 789.333664 544.241916 
L 796.872122 544.261956 
L 825.350741 544.248908 
L 825.350741 543.784737 
L 827.025954 544.069567 
L 829.538773 544.210288 
L 837.077231 544.253755 
L 899.897714 544.249188 
L 996.218182 544.249133 
L 996.218182 544.249133 
" style="fill:none;stroke:#ff7f0e;stroke-linecap:square;stroke-width:1.5;"/>
   </g>
   <g id="line2d_30">
    <path clip-path="url(#p135c81de0b)" d="M 184.581818 544.233592 
L 203.00916 544.247746 
L 996.218182 544.249133 
L 996.218182 544.249133 
" style="fill:none;stroke:#2ca02c;stroke-linecap:square;stroke-width:1.5;"/>
   </g>
   <g id="line2d_31">
    <path clip-path="url(#p135c81de0b)" d="M 184.581818 544.238694 
L 210.547618 544.248151 
L 996.218182 544.249133 
L 996.218182 544.249133 
" style="fill:none;stroke:#d62728;stroke-linecap:square;stroke-width:1.5;"/>
   </g>
   <g id="line2d_32">
    <path clip-path="url(#p135c81de0b)" d="M 184.581818 544.247213 
L 345.402254 544.24813 
L 996.218182 544.249133 
L 996.218182 544.249133 
" style="fill:none;stroke:#9467bd;stroke-linecap:square;stroke-width:1.5;"/>
   </g>
   <g id="line2d_33">
    <path clip-path="url(#p135c81de0b)" d="M 184.581818 544.248613 
L 634.376474 544.249132 
L 996.218182 544.249133 
L 996.218182 544.249133 
" style="fill:none;stroke:#8c564b;stroke-linecap:square;stroke-width:1.5;"/>
   </g>
   <g id="line2d_34">
    <path clip-path="url(#p135c81de0b)" d="M 184.581818 544.248068 
L 404.872311 544.249128 
L 996.218182 544.249133 
L 996.218182 544.249133 
" style="fill:none;stroke:#e377c2;stroke-linecap:square;stroke-width:1.5;"/>
   </g>
   <g id="patch_3">
    <path d="M 144 567 
L 144 77.76 
" style="fill:none;stroke:#000000;stroke-linecap:square;stroke-linejoin:miter;stroke-width:0.8;"/>
   </g>
   <g id="patch_4">
    <path d="M 1036.8 567 
L 1036.8 77.76 
" style="fill:none;stroke:#000000;stroke-linecap:square;stroke-linejoin:miter;stroke-width:0.8;"/>
   </g>
   <g id="patch_5">
    <path d="M 144 567 
L 1036.8 567 
" style="fill:none;stroke:#000000;stroke-linecap:square;stroke-linejoin:miter;stroke-width:0.8;"/>
   </g>
   <g id="patch_6">
    <path d="M 144 77.76 
L 1036.8 77.76 
" style="fill:none;stroke:#000000;stroke-linecap:square;stroke-linejoin:miter;stroke-width:0.8;"/>
   </g>
   <g id="text_27">
    <!-- Infected curve for all age groups (normalized per 100k) -->
    <defs>
     <path d="M 9.8125 72.90625 
L 19.671875 72.90625 
L 19.671875 0 
L 9.8125 0 
z
" id="DejaVuSans-73"/>
     <path d="M 54.890625 33.015625 
L 54.890625 0 
L 45.90625 0 
L 45.90625 32.71875 
Q 45.90625 40.484375 42.875 44.328125 
Q 39.84375 48.1875 33.796875 48.1875 
Q 26.515625 48.1875 22.3125 43.546875 
Q 18.109375 38.921875 18.109375 30.90625 
L 18.109375 0 
L 9.078125 0 
L 9.078125 54.6875 
L 18.109375 54.6875 
L 18.109375 46.1875 
Q 21.34375 51.125 25.703125 53.5625 
Q 30.078125 56 35.796875 56 
Q 45.21875 56 50.046875 50.171875 
Q 54.890625 44.34375 54.890625 33.015625 
z
" id="DejaVuSans-110"/>
     <path d="M 37.109375 75.984375 
L 37.109375 68.5 
L 28.515625 68.5 
Q 23.6875 68.5 21.796875 66.546875 
Q 19.921875 64.59375 19.921875 59.515625 
L 19.921875 54.6875 
L 34.71875 54.6875 
L 34.71875 47.703125 
L 19.921875 47.703125 
L 19.921875 0 
L 10.890625 0 
L 10.890625 47.703125 
L 2.296875 47.703125 
L 2.296875 54.6875 
L 10.890625 54.6875 
L 10.890625 58.5 
Q 10.890625 67.625 15.140625 71.796875 
Q 19.390625 75.984375 28.609375 75.984375 
z
" id="DejaVuSans-102"/>
     <path d="M 56.203125 29.59375 
L 56.203125 25.203125 
L 14.890625 25.203125 
Q 15.484375 15.921875 20.484375 11.0625 
Q 25.484375 6.203125 34.421875 6.203125 
Q 39.59375 6.203125 44.453125 7.46875 
Q 49.3125 8.734375 54.109375 11.28125 
L 54.109375 2.78125 
Q 49.265625 0.734375 44.1875 -0.34375 
Q 39.109375 -1.421875 33.890625 -1.421875 
Q 20.796875 -1.421875 13.15625 6.1875 
Q 5.515625 13.8125 5.515625 26.8125 
Q 5.515625 40.234375 12.765625 48.109375 
Q 20.015625 56 32.328125 56 
Q 43.359375 56 49.78125 48.890625 
Q 56.203125 41.796875 56.203125 29.59375 
z
M 47.21875 32.234375 
Q 47.125 39.59375 43.09375 43.984375 
Q 39.0625 48.390625 32.421875 48.390625 
Q 24.90625 48.390625 20.390625 44.140625 
Q 15.875 39.890625 15.1875 32.171875 
z
" id="DejaVuSans-101"/>
     <path d="M 48.78125 52.59375 
L 48.78125 44.1875 
Q 44.96875 46.296875 41.140625 47.34375 
Q 37.3125 48.390625 33.40625 48.390625 
Q 24.65625 48.390625 19.8125 42.84375 
Q 14.984375 37.3125 14.984375 27.296875 
Q 14.984375 17.28125 19.8125 11.734375 
Q 24.65625 6.203125 33.40625 6.203125 
Q 37.3125 6.203125 41.140625 7.25 
Q 44.96875 8.296875 48.78125 10.40625 
L 48.78125 2.09375 
Q 45.015625 0.34375 40.984375 -0.53125 
Q 36.96875 -1.421875 32.421875 -1.421875 
Q 20.0625 -1.421875 12.78125 6.34375 
Q 5.515625 14.109375 5.515625 27.296875 
Q 5.515625 40.671875 12.859375 48.328125 
Q 20.21875 56 33.015625 56 
Q 37.15625 56 41.109375 55.140625 
Q 45.0625 54.296875 48.78125 52.59375 
z
" id="DejaVuSans-99"/>
     <path d="M 18.3125 70.21875 
L 18.3125 54.6875 
L 36.8125 54.6875 
L 36.8125 47.703125 
L 18.3125 47.703125 
L 18.3125 18.015625 
Q 18.3125 11.328125 20.140625 9.421875 
Q 21.96875 7.515625 27.59375 7.515625 
L 36.8125 7.515625 
L 36.8125 0 
L 27.59375 0 
Q 17.1875 0 13.234375 3.875 
Q 9.28125 7.765625 9.28125 18.015625 
L 9.28125 47.703125 
L 2.6875 47.703125 
L 2.6875 54.6875 
L 9.28125 54.6875 
L 9.28125 70.21875 
z
" id="DejaVuSans-116"/>
     <path d="M 45.40625 46.390625 
L 45.40625 75.984375 
L 54.390625 75.984375 
L 54.390625 0 
L 45.40625 0 
L 45.40625 8.203125 
Q 42.578125 3.328125 38.25 0.953125 
Q 33.9375 -1.421875 27.875 -1.421875 
Q 17.96875 -1.421875 11.734375 6.484375 
Q 5.515625 14.40625 5.515625 27.296875 
Q 5.515625 40.1875 11.734375 48.09375 
Q 17.96875 56 27.875 56 
Q 33.9375 56 38.25 53.625 
Q 42.578125 51.265625 45.40625 46.390625 
z
M 14.796875 27.296875 
Q 14.796875 17.390625 18.875 11.75 
Q 22.953125 6.109375 30.078125 6.109375 
Q 37.203125 6.109375 41.296875 11.75 
Q 45.40625 17.390625 45.40625 27.296875 
Q 45.40625 37.203125 41.296875 42.84375 
Q 37.203125 48.484375 30.078125 48.484375 
Q 22.953125 48.484375 18.875 42.84375 
Q 14.796875 37.203125 14.796875 27.296875 
z
" id="DejaVuSans-100"/>
     <path id="DejaVuSans-32"/>
     <path d="M 8.5 21.578125 
L 8.5 54.6875 
L 17.484375 54.6875 
L 17.484375 21.921875 
Q 17.484375 14.15625 20.5 10.265625 
Q 23.53125 6.390625 29.59375 6.390625 
Q 36.859375 6.390625 41.078125 11.03125 
Q 45.3125 15.671875 45.3125 23.6875 
L 45.3125 54.6875 
L 54.296875 54.6875 
L 54.296875 0 
L 45.3125 0 
L 45.3125 8.40625 
Q 42.046875 3.421875 37.71875 1 
Q 33.40625 -1.421875 27.6875 -1.421875 
Q 18.265625 -1.421875 13.375 4.4375 
Q 8.5 10.296875 8.5 21.578125 
z
M 31.109375 56 
z
" id="DejaVuSans-117"/>
     <path d="M 41.109375 46.296875 
Q 39.59375 47.171875 37.8125 47.578125 
Q 36.03125 48 33.890625 48 
Q 26.265625 48 22.1875 43.046875 
Q 18.109375 38.09375 18.109375 28.8125 
L 18.109375 0 
L 9.078125 0 
L 9.078125 54.6875 
L 18.109375 54.6875 
L 18.109375 46.1875 
Q 20.953125 51.171875 25.484375 53.578125 
Q 30.03125 56 36.53125 56 
Q 37.453125 56 38.578125 55.875 
Q 39.703125 55.765625 41.0625 55.515625 
z
" id="DejaVuSans-114"/>
     <path d="M 2.984375 54.6875 
L 12.5 54.6875 
L 29.59375 8.796875 
L 46.6875 54.6875 
L 56.203125 54.6875 
L 35.6875 0 
L 23.484375 0 
z
" id="DejaVuSans-118"/>
     <path d="M 30.609375 48.390625 
Q 23.390625 48.390625 19.1875 42.75 
Q 14.984375 37.109375 14.984375 27.296875 
Q 14.984375 17.484375 19.15625 11.84375 
Q 23.34375 6.203125 30.609375 6.203125 
Q 37.796875 6.203125 41.984375 11.859375 
Q 46.1875 17.53125 46.1875 27.296875 
Q 46.1875 37.015625 41.984375 42.703125 
Q 37.796875 48.390625 30.609375 48.390625 
z
M 30.609375 56 
Q 42.328125 56 49.015625 48.375 
Q 55.71875 40.765625 55.71875 27.296875 
Q 55.71875 13.875 49.015625 6.21875 
Q 42.328125 -1.421875 30.609375 -1.421875 
Q 18.84375 -1.421875 12.171875 6.21875 
Q 5.515625 13.875 5.515625 27.296875 
Q 5.515625 40.765625 12.171875 48.375 
Q 18.84375 56 30.609375 56 
z
" id="DejaVuSans-111"/>
     <path d="M 34.28125 27.484375 
Q 23.390625 27.484375 19.1875 25 
Q 14.984375 22.515625 14.984375 16.5 
Q 14.984375 11.71875 18.140625 8.90625 
Q 21.296875 6.109375 26.703125 6.109375 
Q 34.1875 6.109375 38.703125 11.40625 
Q 43.21875 16.703125 43.21875 25.484375 
L 43.21875 27.484375 
z
M 52.203125 31.203125 
L 52.203125 0 
L 43.21875 0 
L 43.21875 8.296875 
Q 40.140625 3.328125 35.546875 0.953125 
Q 30.953125 -1.421875 24.3125 -1.421875 
Q 15.921875 -1.421875 10.953125 3.296875 
Q 6 8.015625 6 15.921875 
Q 6 25.140625 12.171875 29.828125 
Q 18.359375 34.515625 30.609375 34.515625 
L 43.21875 34.515625 
L 43.21875 35.40625 
Q 43.21875 41.609375 39.140625 45 
Q 35.0625 48.390625 27.6875 48.390625 
Q 23 48.390625 18.546875 47.265625 
Q 14.109375 46.140625 10.015625 43.890625 
L 10.015625 52.203125 
Q 14.9375 54.109375 19.578125 55.046875 
Q 24.21875 56 28.609375 56 
Q 40.484375 56 46.34375 49.84375 
Q 52.203125 43.703125 52.203125 31.203125 
z
" id="DejaVuSans-97"/>
     <path d="M 9.421875 75.984375 
L 18.40625 75.984375 
L 18.40625 0 
L 9.421875 0 
z
" id="DejaVuSans-108"/>
     <path d="M 45.40625 27.984375 
Q 45.40625 37.75 41.375 43.109375 
Q 37.359375 48.484375 30.078125 48.484375 
Q 22.859375 48.484375 18.828125 43.109375 
Q 14.796875 37.75 14.796875 27.984375 
Q 14.796875 18.265625 18.828125 12.890625 
Q 22.859375 7.515625 30.078125 7.515625 
Q 37.359375 7.515625 41.375 12.890625 
Q 45.40625 18.265625 45.40625 27.984375 
z
M 54.390625 6.78125 
Q 54.390625 -7.171875 48.1875 -13.984375 
Q 42 -20.796875 29.203125 -20.796875 
Q 24.46875 -20.796875 20.265625 -20.09375 
Q 16.0625 -19.390625 12.109375 -17.921875 
L 12.109375 -9.1875 
Q 16.0625 -11.328125 19.921875 -12.34375 
Q 23.78125 -13.375 27.78125 -13.375 
Q 36.625 -13.375 41.015625 -8.765625 
Q 45.40625 -4.15625 45.40625 5.171875 
L 45.40625 9.625 
Q 42.625 4.78125 38.28125 2.390625 
Q 33.9375 0 27.875 0 
Q 17.828125 0 11.671875 7.65625 
Q 5.515625 15.328125 5.515625 27.984375 
Q 5.515625 40.671875 11.671875 48.328125 
Q 17.828125 56 27.875 56 
Q 33.9375 56 38.28125 53.609375 
Q 42.625 51.21875 45.40625 46.390625 
L 45.40625 54.6875 
L 54.390625 54.6875 
z
" id="DejaVuSans-103"/>
     <path d="M 18.109375 8.203125 
L 18.109375 -20.796875 
L 9.078125 -20.796875 
L 9.078125 54.6875 
L 18.109375 54.6875 
L 18.109375 46.390625 
Q 20.953125 51.265625 25.265625 53.625 
Q 29.59375 56 35.59375 56 
Q 45.5625 56 51.78125 48.09375 
Q 58.015625 40.1875 58.015625 27.296875 
Q 58.015625 14.40625 51.78125 6.484375 
Q 45.5625 -1.421875 35.59375 -1.421875 
Q 29.59375 -1.421875 25.265625 0.953125 
Q 20.953125 3.328125 18.109375 8.203125 
z
M 48.6875 27.296875 
Q 48.6875 37.203125 44.609375 42.84375 
Q 40.53125 48.484375 33.40625 48.484375 
Q 26.265625 48.484375 22.1875 42.84375 
Q 18.109375 37.203125 18.109375 27.296875 
Q 18.109375 17.390625 22.1875 11.75 
Q 26.265625 6.109375 33.40625 6.109375 
Q 40.53125 6.109375 44.609375 11.75 
Q 48.6875 17.390625 48.6875 27.296875 
z
" id="DejaVuSans-112"/>
     <path d="M 44.28125 53.078125 
L 44.28125 44.578125 
Q 40.484375 46.53125 36.375 47.5 
Q 32.28125 48.484375 27.875 48.484375 
Q 21.1875 48.484375 17.84375 46.4375 
Q 14.5 44.390625 14.5 40.28125 
Q 14.5 37.15625 16.890625 35.375 
Q 19.28125 33.59375 26.515625 31.984375 
L 29.59375 31.296875 
Q 39.15625 29.25 43.1875 25.515625 
Q 47.21875 21.78125 47.21875 15.09375 
Q 47.21875 7.46875 41.1875 3.015625 
Q 35.15625 -1.421875 24.609375 -1.421875 
Q 20.21875 -1.421875 15.453125 -0.5625 
Q 10.6875 0.296875 5.421875 2 
L 5.421875 11.28125 
Q 10.40625 8.6875 15.234375 7.390625 
Q 20.0625 6.109375 24.8125 6.109375 
Q 31.15625 6.109375 34.5625 8.28125 
Q 37.984375 10.453125 37.984375 14.40625 
Q 37.984375 18.0625 35.515625 20.015625 
Q 33.0625 21.96875 24.703125 23.78125 
L 21.578125 24.515625 
Q 13.234375 26.265625 9.515625 29.90625 
Q 5.8125 33.546875 5.8125 39.890625 
Q 5.8125 47.609375 11.28125 51.796875 
Q 16.75 56 26.8125 56 
Q 31.78125 56 36.171875 55.265625 
Q 40.578125 54.546875 44.28125 53.078125 
z
" id="DejaVuSans-115"/>
     <path d="M 31 75.875 
Q 24.46875 64.65625 21.28125 53.65625 
Q 18.109375 42.671875 18.109375 31.390625 
Q 18.109375 20.125 21.3125 9.0625 
Q 24.515625 -2 31 -13.1875 
L 23.1875 -13.1875 
Q 15.875 -1.703125 12.234375 9.375 
Q 8.59375 20.453125 8.59375 31.390625 
Q 8.59375 42.28125 12.203125 53.3125 
Q 15.828125 64.359375 23.1875 75.875 
z
" id="DejaVuSans-40"/>
     <path d="M 52 44.1875 
Q 55.375 50.25 60.0625 53.125 
Q 64.75 56 71.09375 56 
Q 79.640625 56 84.28125 50.015625 
Q 88.921875 44.046875 88.921875 33.015625 
L 88.921875 0 
L 79.890625 0 
L 79.890625 32.71875 
Q 79.890625 40.578125 77.09375 44.375 
Q 74.3125 48.1875 68.609375 48.1875 
Q 61.625 48.1875 57.5625 43.546875 
Q 53.515625 38.921875 53.515625 30.90625 
L 53.515625 0 
L 44.484375 0 
L 44.484375 32.71875 
Q 44.484375 40.625 41.703125 44.40625 
Q 38.921875 48.1875 33.109375 48.1875 
Q 26.21875 48.1875 22.15625 43.53125 
Q 18.109375 38.875 18.109375 30.90625 
L 18.109375 0 
L 9.078125 0 
L 9.078125 54.6875 
L 18.109375 54.6875 
L 18.109375 46.1875 
Q 21.1875 51.21875 25.484375 53.609375 
Q 29.78125 56 35.6875 56 
Q 41.65625 56 45.828125 52.96875 
Q 50 49.953125 52 44.1875 
z
" id="DejaVuSans-109"/>
     <path d="M 9.421875 54.6875 
L 18.40625 54.6875 
L 18.40625 0 
L 9.421875 0 
z
M 9.421875 75.984375 
L 18.40625 75.984375 
L 18.40625 64.59375 
L 9.421875 64.59375 
z
" id="DejaVuSans-105"/>
     <path d="M 5.515625 54.6875 
L 48.1875 54.6875 
L 48.1875 46.484375 
L 14.40625 7.171875 
L 48.1875 7.171875 
L 48.1875 0 
L 4.296875 0 
L 4.296875 8.203125 
L 38.09375 47.515625 
L 5.515625 47.515625 
z
" id="DejaVuSans-122"/>
     <path d="M 9.078125 75.984375 
L 18.109375 75.984375 
L 18.109375 31.109375 
L 44.921875 54.6875 
L 56.390625 54.6875 
L 27.390625 29.109375 
L 57.625 0 
L 45.90625 0 
L 18.109375 26.703125 
L 18.109375 0 
L 9.078125 0 
z
" id="DejaVuSans-107"/>
     <path d="M 8.015625 75.875 
L 15.828125 75.875 
Q 23.140625 64.359375 26.78125 53.3125 
Q 30.421875 42.28125 30.421875 31.390625 
Q 30.421875 20.453125 26.78125 9.375 
Q 23.140625 -1.703125 15.828125 -13.1875 
L 8.015625 -13.1875 
Q 14.5 -2 17.703125 9.0625 
Q 20.90625 20.125 20.90625 31.390625 
Q 20.90625 42.671875 17.703125 53.65625 
Q 14.5 64.65625 8.015625 75.875 
z
" id="DejaVuSans-41"/>
    </defs>
    <g transform="translate(340.295625 71.76)scale(0.18 -0.18)">
     <use xlink:href="#DejaVuSans-73"/>
     <use x="29.492188" xlink:href="#DejaVuSans-110"/>
     <use x="92.871094" xlink:href="#DejaVuSans-102"/>
     <use x="128.076172" xlink:href="#DejaVuSans-101"/>
     <use x="189.599609" xlink:href="#DejaVuSans-99"/>
     <use x="244.580078" xlink:href="#DejaVuSans-116"/>
     <use x="283.789062" xlink:href="#DejaVuSans-101"/>
     <use x="345.3125" xlink:href="#DejaVuSans-100"/>
     <use x="408.789062" xlink:href="#DejaVuSans-32"/>
     <use x="440.576172" xlink:href="#DejaVuSans-99"/>
     <use x="495.556641" xlink:href="#DejaVuSans-117"/>
     <use x="558.935547" xlink:href="#DejaVuSans-114"/>
     <use x="600.048828" xlink:href="#DejaVuSans-118"/>
     <use x="659.228516" xlink:href="#DejaVuSans-101"/>
     <use x="720.751953" xlink:href="#DejaVuSans-32"/>
     <use x="752.539062" xlink:href="#DejaVuSans-102"/>
     <use x="787.744141" xlink:href="#DejaVuSans-111"/>
     <use x="848.925781" xlink:href="#DejaVuSans-114"/>
     <use x="890.039062" xlink:href="#DejaVuSans-32"/>
     <use x="921.826172" xlink:href="#DejaVuSans-97"/>
     <use x="983.105469" xlink:href="#DejaVuSans-108"/>
     <use x="1010.888672" xlink:href="#DejaVuSans-108"/>
     <use x="1038.671875" xlink:href="#DejaVuSans-32"/>
     <use x="1070.458984" xlink:href="#DejaVuSans-97"/>
     <use x="1131.738281" xlink:href="#DejaVuSans-103"/>
     <use x="1195.214844" xlink:href="#DejaVuSans-101"/>
     <use x="1256.738281" xlink:href="#DejaVuSans-32"/>
     <use x="1288.525391" xlink:href="#DejaVuSans-103"/>
     <use x="1352.001953" xlink:href="#DejaVuSans-114"/>
     <use x="1393.083984" xlink:href="#DejaVuSans-111"/>
     <use x="1454.265625" xlink:href="#DejaVuSans-117"/>
     <use x="1517.644531" xlink:href="#DejaVuSans-112"/>
     <use x="1581.121094" xlink:href="#DejaVuSans-115"/>
     <use x="1633.220703" xlink:href="#DejaVuSans-32"/>
     <use x="1665.007812" xlink:href="#DejaVuSans-40"/>
     <use x="1704.021484" xlink:href="#DejaVuSans-110"/>
     <use x="1767.400391" xlink:href="#DejaVuSans-111"/>
     <use x="1828.582031" xlink:href="#DejaVuSans-114"/>
     <use x="1869.679688" xlink:href="#DejaVuSans-109"/>
     <use x="1967.091797" xlink:href="#DejaVuSans-97"/>
     <use x="2028.371094" xlink:href="#DejaVuSans-108"/>
     <use x="2056.154297" xlink:href="#DejaVuSans-105"/>
     <use x="2083.9375" xlink:href="#DejaVuSans-122"/>
     <use x="2136.427734" xlink:href="#DejaVuSans-101"/>
     <use x="2197.951172" xlink:href="#DejaVuSans-100"/>
     <use x="2261.427734" xlink:href="#DejaVuSans-32"/>
     <use x="2293.214844" xlink:href="#DejaVuSans-112"/>
     <use x="2356.691406" xlink:href="#DejaVuSans-101"/>
     <use x="2418.214844" xlink:href="#DejaVuSans-114"/>
     <use x="2459.328125" xlink:href="#DejaVuSans-32"/>
     <use x="2491.115234" xlink:href="#DejaVuSans-49"/>
     <use x="2554.738281" xlink:href="#DejaVuSans-48"/>
     <use x="2618.361328" xlink:href="#DejaVuSans-48"/>
     <use x="2681.984375" xlink:href="#DejaVuSans-107"/>
     <use x="2739.894531" xlink:href="#DejaVuSans-41"/>
    </g>
   </g>
   <g id="legend_1">
    <g id="patch_7">
     <path d="M 968.742188 188.506875 
L 1029.8 188.506875 
Q 1031.8 188.506875 1031.8 186.506875 
L 1031.8 84.76 
Q 1031.8 82.76 1029.8 82.76 
L 968.742188 82.76 
Q 966.742188 82.76 966.742188 84.76 
L 966.742188 186.506875 
Q 966.742188 188.506875 968.742188 188.506875 
z
" style="fill:#ffffff;opacity:0.8;stroke:#cccccc;stroke-linejoin:miter;"/>
    </g>
    <g id="line2d_35">
     <path d="M 970.742188 90.858438 
L 990.742188 90.858438 
" style="fill:none;stroke:#1f77b4;stroke-linecap:square;stroke-width:1.5;"/>
    </g>
    <g id="line2d_36"/>
    <g id="text_28">
     <!-- &lt;1 -->
     <defs>
      <path d="M 73.1875 49.21875 
L 22.796875 31.296875 
L 73.1875 13.484375 
L 73.1875 4.59375 
L 10.59375 27.296875 
L 10.59375 35.40625 
L 73.1875 58.109375 
z
" id="DejaVuSans-60"/>
     </defs>
     <g transform="translate(998.742188 94.358438)scale(0.1 -0.1)">
      <use xlink:href="#DejaVuSans-60"/>
      <use x="83.789062" xlink:href="#DejaVuSans-49"/>
     </g>
    </g>
    <g id="line2d_37">
     <path d="M 970.742188 105.536563 
L 990.742188 105.536563 
" style="fill:none;stroke:#ff7f0e;stroke-linecap:square;stroke-width:1.5;"/>
    </g>
    <g id="line2d_38"/>
    <g id="text_29">
     <!-- 1-4 -->
     <g transform="translate(998.742188 109.036563)scale(0.1 -0.1)">
      <use xlink:href="#DejaVuSans-49"/>
      <use x="63.623047" xlink:href="#DejaVuSans-45"/>
      <use x="99.707031" xlink:href="#DejaVuSans-52"/>
     </g>
    </g>
    <g id="line2d_39">
     <path d="M 970.742188 120.214688 
L 990.742188 120.214688 
" style="fill:none;stroke:#2ca02c;stroke-linecap:square;stroke-width:1.5;"/>
    </g>
    <g id="line2d_40"/>
    <g id="text_30">
     <!-- 5-9 -->
     <g transform="translate(998.742188 123.714688)scale(0.1 -0.1)">
      <use xlink:href="#DejaVuSans-53"/>
      <use x="63.623047" xlink:href="#DejaVuSans-45"/>
      <use x="99.707031" xlink:href="#DejaVuSans-57"/>
     </g>
    </g>
    <g id="line2d_41">
     <path d="M 970.742188 134.892813 
L 990.742188 134.892813 
" style="fill:none;stroke:#d62728;stroke-linecap:square;stroke-width:1.5;"/>
    </g>
    <g id="line2d_42"/>
    <g id="text_31">
     <!-- 10-14 -->
     <g transform="translate(998.742188 138.392813)scale(0.1 -0.1)">
      <use xlink:href="#DejaVuSans-49"/>
      <use x="63.623047" xlink:href="#DejaVuSans-48"/>
      <use x="127.246094" xlink:href="#DejaVuSans-45"/>
      <use x="163.330078" xlink:href="#DejaVuSans-49"/>
      <use x="226.953125" xlink:href="#DejaVuSans-52"/>
     </g>
    </g>
    <g id="line2d_43">
     <path d="M 970.742188 149.570938 
L 990.742188 149.570938 
" style="fill:none;stroke:#9467bd;stroke-linecap:square;stroke-width:1.5;"/>
    </g>
    <g id="line2d_44"/>
    <g id="text_32">
     <!-- 15-19 -->
     <g transform="translate(998.742188 153.070938)scale(0.1 -0.1)">
      <use xlink:href="#DejaVuSans-49"/>
      <use x="63.623047" xlink:href="#DejaVuSans-53"/>
      <use x="127.246094" xlink:href="#DejaVuSans-45"/>
      <use x="163.330078" xlink:href="#DejaVuSans-49"/>
      <use x="226.953125" xlink:href="#DejaVuSans-57"/>
     </g>
    </g>
    <g id="line2d_45">
     <path d="M 970.742188 164.249063 
L 990.742188 164.249063 
" style="fill:none;stroke:#8c564b;stroke-linecap:square;stroke-width:1.5;"/>
    </g>
    <g id="line2d_46"/>
    <g id="text_33">
     <!-- 20-29 -->
     <g transform="translate(998.742188 167.749063)scale(0.1 -0.1)">
      <use xlink:href="#DejaVuSans-50"/>
      <use x="63.623047" xlink:href="#DejaVuSans-48"/>
      <use x="127.246094" xlink:href="#DejaVuSans-45"/>
      <use x="163.330078" xlink:href="#DejaVuSans-50"/>
      <use x="226.953125" xlink:href="#DejaVuSans-57"/>
     </g>
    </g>
    <g id="line2d_47">
     <path d="M 970.742188 178.927188 
L 990.742188 178.927188 
" style="fill:none;stroke:#e377c2;stroke-linecap:square;stroke-width:1.5;"/>
    </g>
    <g id="line2d_48"/>
    <g id="text_34">
     <!-- 30+ -->
     <defs>
      <path d="M 46 62.703125 
L 46 35.5 
L 73.1875 35.5 
L 73.1875 27.203125 
L 46 27.203125 
L 46 0 
L 37.796875 0 
L 37.796875 27.203125 
L 10.59375 27.203125 
L 10.59375 35.5 
L 37.796875 35.5 
L 37.796875 62.703125 
z
" id="DejaVuSans-43"/>
     </defs>
     <g transform="translate(998.742188 182.427188)scale(0.1 -0.1)">
      <use xlink:href="#DejaVuSans-51"/>
      <use x="63.623047" xlink:href="#DejaVuSans-48"/>
      <use x="127.246094" xlink:href="#DejaVuSans-43"/>
     </g>
    </g>
   </g>
  </g>
 </g>
 <defs>
  <clipPath id="p135c81de0b">
   <rect height="489.24" width="892.8" x="144" y="77.76"/>
  </clipPath>
 </defs>
</svg>
