<?xml version="1.0" encoding="utf-8" standalone="no"?>
<!DOCTYPE svg PUBLIC "-//W3C//DTD SVG 1.1//EN"
  "http://www.w3.org/Graphics/SVG/1.1/DTD/svg11.dtd">
<!-- Created with matplotlib (https://matplotlib.org/) -->
<svg height="648pt" version="1.1" viewBox="0 0 1152 648" width="1152pt" xmlns="http://www.w3.org/2000/svg" xmlns:xlink="http://www.w3.org/1999/xlink">
 <defs>
  <style type="text/css">
*{stroke-linecap:butt;stroke-linejoin:round;white-space:pre;}
  </style>
 </defs>
 <g id="figure_1">
  <g id="patch_1">
   <path d="M 0 648 
L 1152 648 
L 1152 0 
L 0 0 
z
" style="fill:#ffffff;"/>
  </g>
  <g id="axes_1">
   <g id="patch_2">
    <path d="M 144 567 
L 1036.8 567 
L 1036.8 77.76 
L 144 77.76 
z
" style="fill:#ffffff;"/>
   </g>
   <g id="matplotlib.axis_1">
    <g id="xtick_1">
     <g id="line2d_1">
      <defs>
       <path d="M 0 0 
L 0 3.5 
" id="m176093c026" style="stroke:#000000;stroke-width:0.8;"/>
      </defs>
      <g>
       <use style="stroke:#000000;stroke-width:0.8;" x="144" xlink:href="#m176093c026" y="567"/>
      </g>
     </g>
     <g id="text_1">
      <!-- 1999-01 -->
      <defs>
       <path d="M 12.40625 8.296875 
L 28.515625 8.296875 
L 28.515625 63.921875 
L 10.984375 60.40625 
L 10.984375 69.390625 
L 28.421875 72.90625 
L 38.28125 72.90625 
L 38.28125 8.296875 
L 54.390625 8.296875 
L 54.390625 0 
L 12.40625 0 
z
" id="DejaVuSans-49"/>
       <path d="M 10.984375 1.515625 
L 10.984375 10.5 
Q 14.703125 8.734375 18.5 7.8125 
Q 22.3125 6.890625 25.984375 6.890625 
Q 35.75 6.890625 40.890625 13.453125 
Q 46.046875 20.015625 46.78125 33.40625 
Q 43.953125 29.203125 39.59375 26.953125 
Q 35.25 24.703125 29.984375 24.703125 
Q 19.046875 24.703125 12.671875 31.3125 
Q 6.296875 37.9375 6.296875 49.421875 
Q 6.296875 60.640625 12.9375 67.421875 
Q 19.578125 74.21875 30.609375 74.21875 
Q 43.265625 74.21875 49.921875 64.515625 
Q 56.59375 54.828125 56.59375 36.375 
Q 56.59375 19.140625 48.40625 8.859375 
Q 40.234375 -1.421875 26.421875 -1.421875 
Q 22.703125 -1.421875 18.890625 -0.6875 
Q 15.09375 0.046875 10.984375 1.515625 
z
M 30.609375 32.421875 
Q 37.25 32.421875 41.125 36.953125 
Q 45.015625 41.5 45.015625 49.421875 
Q 45.015625 57.28125 41.125 61.84375 
Q 37.25 66.40625 30.609375 66.40625 
Q 23.96875 66.40625 20.09375 61.84375 
Q 16.21875 57.28125 16.21875 49.421875 
Q 16.21875 41.5 20.09375 36.953125 
Q 23.96875 32.421875 30.609375 32.421875 
z
" id="DejaVuSans-57"/>
       <path d="M 4.890625 31.390625 
L 31.203125 31.390625 
L 31.203125 23.390625 
L 4.890625 23.390625 
z
" id="DejaVuSans-45"/>
       <path d="M 31.78125 66.40625 
Q 24.171875 66.40625 20.328125 58.90625 
Q 16.5 51.421875 16.5 36.375 
Q 16.5 21.390625 20.328125 13.890625 
Q 24.171875 6.390625 31.78125 6.390625 
Q 39.453125 6.390625 43.28125 13.890625 
Q 47.125 21.390625 47.125 36.375 
Q 47.125 51.421875 43.28125 58.90625 
Q 39.453125 66.40625 31.78125 66.40625 
z
M 31.78125 74.21875 
Q 44.046875 74.21875 50.515625 64.515625 
Q 56.984375 54.828125 56.984375 36.375 
Q 56.984375 17.96875 50.515625 8.265625 
Q 44.046875 -1.421875 31.78125 -1.421875 
Q 19.53125 -1.421875 13.0625 8.265625 
Q 6.59375 17.96875 6.59375 36.375 
Q 6.59375 54.828125 13.0625 64.515625 
Q 19.53125 74.21875 31.78125 74.21875 
z
" id="DejaVuSans-48"/>
      </defs>
      <g transform="translate(106.395469 587.677187)scale(0.18 -0.18)">
       <use xlink:href="#DejaVuSans-49"/>
       <use x="63.623047" xlink:href="#DejaVuSans-57"/>
       <use x="127.246094" xlink:href="#DejaVuSans-57"/>
       <use x="190.869141" xlink:href="#DejaVuSans-57"/>
       <use x="254.492188" xlink:href="#DejaVuSans-45"/>
       <use x="290.576172" xlink:href="#DejaVuSans-48"/>
       <use x="354.199219" xlink:href="#DejaVuSans-49"/>
      </g>
     </g>
    </g>
    <g id="xtick_2">
     <g id="line2d_2">
      <g>
       <use style="stroke:#000000;stroke-width:0.8;" x="321.848606" xlink:href="#m176093c026" y="567"/>
      </g>
     </g>
     <g id="text_2">
      <!-- 2003-03 -->
      <defs>
       <path d="M 19.1875 8.296875 
L 53.609375 8.296875 
L 53.609375 0 
L 7.328125 0 
L 7.328125 8.296875 
Q 12.9375 14.109375 22.625 23.890625 
Q 32.328125 33.6875 34.8125 36.53125 
Q 39.546875 41.84375 41.421875 45.53125 
Q 43.3125 49.21875 43.3125 52.78125 
Q 43.3125 58.59375 39.234375 62.25 
Q 35.15625 65.921875 28.609375 65.921875 
Q 23.96875 65.921875 18.8125 64.3125 
Q 13.671875 62.703125 7.8125 59.421875 
L 7.8125 69.390625 
Q 13.765625 71.78125 18.9375 73 
Q 24.125 74.21875 28.421875 74.21875 
Q 39.75 74.21875 46.484375 68.546875 
Q 53.21875 62.890625 53.21875 53.421875 
Q 53.21875 48.921875 51.53125 44.890625 
Q 49.859375 40.875 45.40625 35.40625 
Q 44.1875 33.984375 37.640625 27.21875 
Q 31.109375 20.453125 19.1875 8.296875 
z
" id="DejaVuSans-50"/>
       <path d="M 40.578125 39.3125 
Q 47.65625 37.796875 51.625 33 
Q 55.609375 28.21875 55.609375 21.1875 
Q 55.609375 10.40625 48.1875 4.484375 
Q 40.765625 -1.421875 27.09375 -1.421875 
Q 22.515625 -1.421875 17.65625 -0.515625 
Q 12.796875 0.390625 7.625 2.203125 
L 7.625 11.71875 
Q 11.71875 9.328125 16.59375 8.109375 
Q 21.484375 6.890625 26.8125 6.890625 
Q 36.078125 6.890625 40.9375 10.546875 
Q 45.796875 14.203125 45.796875 21.1875 
Q 45.796875 27.640625 41.28125 31.265625 
Q 36.765625 34.90625 28.71875 34.90625 
L 20.21875 34.90625 
L 20.21875 43.015625 
L 29.109375 43.015625 
Q 36.375 43.015625 40.234375 45.921875 
Q 44.09375 48.828125 44.09375 54.296875 
Q 44.09375 59.90625 40.109375 62.90625 
Q 36.140625 65.921875 28.71875 65.921875 
Q 24.65625 65.921875 20.015625 65.03125 
Q 15.375 64.15625 9.8125 62.3125 
L 9.8125 71.09375 
Q 15.4375 72.65625 20.34375 73.4375 
Q 25.25 74.21875 29.59375 74.21875 
Q 40.828125 74.21875 47.359375 69.109375 
Q 53.90625 64.015625 53.90625 55.328125 
Q 53.90625 49.265625 50.4375 45.09375 
Q 46.96875 40.921875 40.578125 39.3125 
z
" id="DejaVuSans-51"/>
      </defs>
      <g transform="translate(284.244074 587.677187)scale(0.18 -0.18)">
       <use xlink:href="#DejaVuSans-50"/>
       <use x="63.623047" xlink:href="#DejaVuSans-48"/>
       <use x="127.246094" xlink:href="#DejaVuSans-48"/>
       <use x="190.869141" xlink:href="#DejaVuSans-51"/>
       <use x="254.492188" xlink:href="#DejaVuSans-45"/>
       <use x="290.576172" xlink:href="#DejaVuSans-48"/>
       <use x="354.199219" xlink:href="#DejaVuSans-51"/>
      </g>
     </g>
    </g>
    <g id="xtick_3">
     <g id="line2d_3">
      <g>
       <use style="stroke:#000000;stroke-width:0.8;" x="499.697211" xlink:href="#m176093c026" y="567"/>
      </g>
     </g>
     <g id="text_3">
      <!-- 2007-05 -->
      <defs>
       <path d="M 8.203125 72.90625 
L 55.078125 72.90625 
L 55.078125 68.703125 
L 28.609375 0 
L 18.3125 0 
L 43.21875 64.59375 
L 8.203125 64.59375 
z
" id="DejaVuSans-55"/>
       <path d="M 10.796875 72.90625 
L 49.515625 72.90625 
L 49.515625 64.59375 
L 19.828125 64.59375 
L 19.828125 46.734375 
Q 21.96875 47.46875 24.109375 47.828125 
Q 26.265625 48.1875 28.421875 48.1875 
Q 40.625 48.1875 47.75 41.5 
Q 54.890625 34.8125 54.890625 23.390625 
Q 54.890625 11.625 47.5625 5.09375 
Q 40.234375 -1.421875 26.90625 -1.421875 
Q 22.3125 -1.421875 17.546875 -0.640625 
Q 12.796875 0.140625 7.71875 1.703125 
L 7.71875 11.625 
Q 12.109375 9.234375 16.796875 8.0625 
Q 21.484375 6.890625 26.703125 6.890625 
Q 35.15625 6.890625 40.078125 11.328125 
Q 45.015625 15.765625 45.015625 23.390625 
Q 45.015625 31 40.078125 35.4375 
Q 35.15625 39.890625 26.703125 39.890625 
Q 22.75 39.890625 18.8125 39.015625 
Q 14.890625 38.140625 10.796875 36.28125 
z
" id="DejaVuSans-53"/>
      </defs>
      <g transform="translate(462.09268 587.677187)scale(0.18 -0.18)">
       <use xlink:href="#DejaVuSans-50"/>
       <use x="63.623047" xlink:href="#DejaVuSans-48"/>
       <use x="127.246094" xlink:href="#DejaVuSans-48"/>
       <use x="190.869141" xlink:href="#DejaVuSans-55"/>
       <use x="254.492188" xlink:href="#DejaVuSans-45"/>
       <use x="290.576172" xlink:href="#DejaVuSans-48"/>
       <use x="354.199219" xlink:href="#DejaVuSans-53"/>
      </g>
     </g>
    </g>
    <g id="xtick_4">
     <g id="line2d_4">
      <g>
       <use style="stroke:#000000;stroke-width:0.8;" x="677.545817" xlink:href="#m176093c026" y="567"/>
      </g>
     </g>
     <g id="text_4">
      <!-- 2011-07 -->
      <g transform="translate(639.941285 587.677187)scale(0.18 -0.18)">
       <use xlink:href="#DejaVuSans-50"/>
       <use x="63.623047" xlink:href="#DejaVuSans-48"/>
       <use x="127.246094" xlink:href="#DejaVuSans-49"/>
       <use x="190.869141" xlink:href="#DejaVuSans-49"/>
       <use x="254.492188" xlink:href="#DejaVuSans-45"/>
       <use x="290.576172" xlink:href="#DejaVuSans-48"/>
       <use x="354.199219" xlink:href="#DejaVuSans-55"/>
      </g>
     </g>
    </g>
    <g id="xtick_5">
     <g id="line2d_5">
      <g>
       <use style="stroke:#000000;stroke-width:0.8;" x="855.394422" xlink:href="#m176093c026" y="567"/>
      </g>
     </g>
     <g id="text_5">
      <!-- 2015-09 -->
      <g transform="translate(817.789891 587.677187)scale(0.18 -0.18)">
       <use xlink:href="#DejaVuSans-50"/>
       <use x="63.623047" xlink:href="#DejaVuSans-48"/>
       <use x="127.246094" xlink:href="#DejaVuSans-49"/>
       <use x="190.869141" xlink:href="#DejaVuSans-53"/>
       <use x="254.492188" xlink:href="#DejaVuSans-45"/>
       <use x="290.576172" xlink:href="#DejaVuSans-48"/>
       <use x="354.199219" xlink:href="#DejaVuSans-57"/>
      </g>
     </g>
    </g>
    <g id="xtick_6">
     <g id="line2d_6">
      <g>
       <use style="stroke:#000000;stroke-width:0.8;" x="1033.243028" xlink:href="#m176093c026" y="567"/>
      </g>
     </g>
     <g id="text_6">
      <!-- 2019-11 -->
      <g transform="translate(995.638497 587.677187)scale(0.18 -0.18)">
       <use xlink:href="#DejaVuSans-50"/>
       <use x="63.623047" xlink:href="#DejaVuSans-48"/>
       <use x="127.246094" xlink:href="#DejaVuSans-49"/>
       <use x="190.869141" xlink:href="#DejaVuSans-57"/>
       <use x="254.492188" xlink:href="#DejaVuSans-45"/>
       <use x="290.576172" xlink:href="#DejaVuSans-49"/>
       <use x="354.199219" xlink:href="#DejaVuSans-49"/>
      </g>
     </g>
    </g>
   </g>
   <g id="matplotlib.axis_2">
    <g id="ytick_1">
     <g id="line2d_7">
      <defs>
       <path d="M 0 0 
L -3.5 0 
" id="mc7874d76ac" style="stroke:#000000;stroke-width:0.8;"/>
      </defs>
      <g>
       <use style="stroke:#000000;stroke-width:0.8;" x="144" xlink:href="#mc7874d76ac" y="544.761818"/>
      </g>
     </g>
     <g id="text_7">
      <!-- 0 -->
      <g transform="translate(125.5475 551.600412)scale(0.18 -0.18)">
       <use xlink:href="#DejaVuSans-48"/>
      </g>
     </g>
    </g>
    <g id="ytick_2">
     <g id="line2d_8">
      <g>
       <use style="stroke:#000000;stroke-width:0.8;" x="144" xlink:href="#mc7874d76ac" y="478.831953"/>
      </g>
     </g>
     <g id="text_8">
      <!-- 250 -->
      <g transform="translate(102.6425 485.670546)scale(0.18 -0.18)">
       <use xlink:href="#DejaVuSans-50"/>
       <use x="63.623047" xlink:href="#DejaVuSans-53"/>
       <use x="127.246094" xlink:href="#DejaVuSans-48"/>
      </g>
     </g>
    </g>
    <g id="ytick_3">
     <g id="line2d_9">
      <g>
       <use style="stroke:#000000;stroke-width:0.8;" x="144" xlink:href="#mc7874d76ac" y="412.902087"/>
      </g>
     </g>
     <g id="text_9">
      <!-- 500 -->
      <g transform="translate(102.6425 419.740681)scale(0.18 -0.18)">
       <use xlink:href="#DejaVuSans-53"/>
       <use x="63.623047" xlink:href="#DejaVuSans-48"/>
       <use x="127.246094" xlink:href="#DejaVuSans-48"/>
      </g>
     </g>
    </g>
    <g id="ytick_4">
     <g id="line2d_10">
      <g>
       <use style="stroke:#000000;stroke-width:0.8;" x="144" xlink:href="#mc7874d76ac" y="346.972222"/>
      </g>
     </g>
     <g id="text_10">
      <!-- 750 -->
      <g transform="translate(102.6425 353.810815)scale(0.18 -0.18)">
       <use xlink:href="#DejaVuSans-55"/>
       <use x="63.623047" xlink:href="#DejaVuSans-53"/>
       <use x="127.246094" xlink:href="#DejaVuSans-48"/>
      </g>
     </g>
    </g>
    <g id="ytick_5">
     <g id="line2d_11">
      <g>
       <use style="stroke:#000000;stroke-width:0.8;" x="144" xlink:href="#mc7874d76ac" y="281.042356"/>
      </g>
     </g>
     <g id="text_11">
      <!-- 1000 -->
      <g transform="translate(91.19 287.88095)scale(0.18 -0.18)">
       <use xlink:href="#DejaVuSans-49"/>
       <use x="63.623047" xlink:href="#DejaVuSans-48"/>
       <use x="127.246094" xlink:href="#DejaVuSans-48"/>
       <use x="190.869141" xlink:href="#DejaVuSans-48"/>
      </g>
     </g>
    </g>
    <g id="ytick_6">
     <g id="line2d_12">
      <g>
       <use style="stroke:#000000;stroke-width:0.8;" x="144" xlink:href="#mc7874d76ac" y="215.11249"/>
      </g>
     </g>
     <g id="text_12">
      <!-- 1250 -->
      <g transform="translate(91.19 221.951084)scale(0.18 -0.18)">
       <use xlink:href="#DejaVuSans-49"/>
       <use x="63.623047" xlink:href="#DejaVuSans-50"/>
       <use x="127.246094" xlink:href="#DejaVuSans-53"/>
       <use x="190.869141" xlink:href="#DejaVuSans-48"/>
      </g>
     </g>
    </g>
    <g id="ytick_7">
     <g id="line2d_13">
      <g>
       <use style="stroke:#000000;stroke-width:0.8;" x="144" xlink:href="#mc7874d76ac" y="149.182625"/>
      </g>
     </g>
     <g id="text_13">
      <!-- 1500 -->
      <g transform="translate(91.19 156.021219)scale(0.18 -0.18)">
       <use xlink:href="#DejaVuSans-49"/>
       <use x="63.623047" xlink:href="#DejaVuSans-53"/>
       <use x="127.246094" xlink:href="#DejaVuSans-48"/>
       <use x="190.869141" xlink:href="#DejaVuSans-48"/>
      </g>
     </g>
    </g>
    <g id="ytick_8">
     <g id="line2d_14">
      <g>
       <use style="stroke:#000000;stroke-width:0.8;" x="144" xlink:href="#mc7874d76ac" y="83.252759"/>
      </g>
     </g>
     <g id="text_14">
      <!-- 1750 -->
      <g transform="translate(91.19 90.091353)scale(0.18 -0.18)">
       <use xlink:href="#DejaVuSans-49"/>
       <use x="63.623047" xlink:href="#DejaVuSans-55"/>
       <use x="127.246094" xlink:href="#DejaVuSans-53"/>
       <use x="190.869141" xlink:href="#DejaVuSans-48"/>
      </g>
     </g>
    </g>
   </g>
   <g id="line2d_15">
    <path clip-path="url(#p3e8756e5bf)" d="M 144 544.671289 
L 147.556972 544.399703 
L 151.113944 544.399703 
L 161.784861 543.94706 
L 168.898805 543.675474 
L 172.455777 543.494416 
L 176.012749 543.494416 
L 179.569721 543.041773 
L 183.126693 542.045957 
L 186.683665 541.68 
L 190.240637 540.582131 
L 197.354582 539.758729 
L 200.911554 538.569371 
L 204.468526 538.294903 
L 218.696414 538.203414 
L 225.810359 537.928947 
L 232.924303 537.465319 
L 247.152191 536.816239 
L 254.266135 536.723513 
L 264.937052 536.630788 
L 268.494024 535.888983 
L 272.050996 533.433113 
L 279.16494 530.410505 
L 282.721912 529.749309 
L 286.278884 528.143549 
L 300.506773 527.29344 
L 307.620717 524.743114 
L 311.177689 524.459745 
L 314.734661 523.498525 
L 318.291633 521.672209 
L 321.848606 519.173038 
L 325.405578 518.307941 
L 328.96255 516.385502 
L 332.519522 514.655308 
L 336.076494 514.366942 
L 339.633466 513.501844 
L 346.74741 511.387162 
L 353.861355 509.753089 
L 360.975299 509.072639 
L 364.532271 508.392189 
L 368.089243 506.253631 
L 371.646215 504.503902 
L 375.203187 503.434623 
L 378.760159 502.559758 
L 385.874104 502.462551 
L 400.101992 502.365344 
L 403.658964 501.879562 
L 407.215936 501.68525 
L 410.772908 500.907999 
L 414.32988 500.325061 
L 425.000797 500.325061 
L 428.557769 499.936436 
L 432.114741 499.83928 
L 435.671713 499.353498 
L 439.228685 499.159185 
L 442.785657 498.295192 
L 449.899602 493.495231 
L 453.456574 489.079267 
L 457.013546 483.511312 
L 460.570518 479.479345 
L 464.12749 477.271363 
L 471.241434 476.40737 
L 474.798406 476.023373 
L 492.583267 475.455484 
L 496.140239 474.609731 
L 499.697211 472.260415 
L 503.254183 468.407539 
L 506.811155 464.272744 
L 510.368127 458.446442 
L 513.9251 454.687538 
L 517.482072 451.492469 
L 524.596016 446.511921 
L 528.152988 444.500145 
L 531.70996 442.214035 
L 535.266932 439.745037 
L 538.823904 436.635928 
L 542.380876 432.338042 
L 545.937849 428.863156 
L 549.494821 426.668491 
L 553.051793 423.925159 
L 556.608765 422.279161 
L 563.722709 416.609609 
L 567.279681 414.597833 
L 570.836653 411.931298 
L 574.393625 408.642572 
L 577.950598 404.998309 
L 585.064542 392.465596 
L 588.621514 388.021372 
L 592.178486 386.77699 
L 595.735458 385.888145 
L 606.406375 385.443722 
L 617.077291 385.094972 
L 620.634263 384.835106 
L 624.191235 384.315374 
L 627.748207 383.102667 
L 631.305179 382.063204 
L 634.862151 380.677253 
L 638.419124 379.118058 
L 641.976096 378.511704 
L 649.09004 377.905351 
L 656.203984 377.562088 
L 659.760956 376.797002 
L 663.317928 375.691878 
L 670.431873 371.356392 
L 673.988845 370.251268 
L 677.545817 368.551077 
L 688.216733 365.575744 
L 691.773705 363.620525 
L 698.887649 362.354978 
L 702.444622 359.92946 
L 709.558566 354.576593 
L 713.115538 349.725557 
L 720.229482 345.292714 
L 723.786454 342.783557 
L 727.343426 341.278063 
L 730.900398 338.517991 
L 734.457371 334.837895 
L 738.014343 330.655967 
L 741.571315 326.289163 
L 745.128287 322.169537 
L 748.685259 316.978807 
L 752.242231 311.293722 
L 759.356175 306.185385 
L 762.913147 304.867105 
L 766.47012 304.537535 
L 780.698008 304.125572 
L 791.368924 302.331864 
L 794.925896 302.087267 
L 798.482869 302.005735 
L 802.039841 301.761139 
L 805.596813 301.190413 
L 834.05259 300.620422 
L 837.609562 300.620422 
L 841.166534 300.295762 
L 848.280478 299.971101 
L 858.951394 299.971101 
L 866.065339 299.565276 
L 873.179283 299.483908 
L 880.293227 298.5075 
L 894.521116 295.98511 
L 898.078088 295.415539 
L 905.192032 295.090069 
L 915.862948 295.008034 
L 919.41992 294.761927 
L 922.976892 294.269715 
L 930.090837 293.531397 
L 937.204781 293.449361 
L 940.761753 293.285291 
L 944.318725 292.793078 
L 947.875697 291.398477 
L 958.546614 288.506841 
L 965.660558 284.941185 
L 969.21753 282.702285 
L 972.774502 281.541374 
L 976.331474 281.126763 
L 979.888446 280.546307 
L 983.445418 280.380463 
L 987.00239 280.048774 
L 990.559363 279.053707 
L 994.116335 278.39033 
L 997.673307 275.570974 
L 1004.787251 272.337007 
L 1008.344223 270.346874 
L 1011.901195 268.937196 
L 1015.458167 268.439662 
L 1019.015139 267.693362 
L 1022.572112 267.61044 
L 1026.129084 267.361674 
L 1029.686056 266.86414 
L 1033.243028 266.781218 
L 1036.8 266.366607 
L 1036.8 266.366607 
" style="fill:none;stroke:#1f77b4;stroke-linecap:square;stroke-width:3;"/>
   </g>
   <g id="line2d_16">
    <path clip-path="url(#p3e8756e5bf)" d="M 144 544.761818 
L 154.670916 544.761818 
L 165.341833 544.34559 
L 179.569721 544.34559 
L 183.126693 544.068105 
L 186.683665 543.999397 
L 190.240637 543.587147 
L 193.79761 543.518439 
L 197.354582 543.243606 
L 240.038247 543.174897 
L 250.709163 543.038584 
L 261.38008 542.970428 
L 268.494024 542.834115 
L 275.607968 542.360717 
L 282.721912 542.360717 
L 286.278884 542.090203 
L 293.392829 542.022575 
L 296.949801 541.954947 
L 300.506773 541.684433 
L 304.063745 541.143407 
L 307.620717 540.805265 
L 311.177689 540.60238 
L 318.291633 539.858985 
L 321.848606 539.250752 
L 325.405578 539.048008 
L 328.96255 538.710101 
L 332.519522 538.574938 
L 339.633466 537.69638 
L 343.190438 537.426055 
L 350.304382 537.223311 
L 357.418327 537.223311 
L 360.975299 537.087645 
L 378.760159 535.798823 
L 382.317131 535.663157 
L 403.658964 535.595324 
L 407.215936 535.458877 
L 428.557769 535.390653 
L 435.671713 535.322429 
L 439.228685 535.322429 
L 442.785657 535.184661 
L 446.342629 534.564701 
L 449.899602 533.324783 
L 453.456574 532.360402 
L 457.013546 531.189368 
L 460.570518 530.638294 
L 464.12749 530.224987 
L 489.026295 530.155512 
L 492.583267 530.086036 
L 496.140239 529.738658 
L 499.697211 528.974425 
L 503.254183 527.932289 
L 506.811155 526.056446 
L 510.368127 524.319553 
L 513.9251 523.763748 
L 517.482072 522.860564 
L 521.039044 522.165807 
L 524.596016 521.193147 
L 531.70996 519.7259 
L 535.266932 517.070881 
L 538.823904 515.18442 
L 542.380876 512.878746 
L 545.937849 511.062154 
L 549.494821 509.525038 
L 556.608765 507.987921 
L 560.165737 506.380936 
L 563.722709 504.284869 
L 567.279681 503.516311 
L 574.393625 500.280099 
L 577.950598 497.817764 
L 581.50757 493.315208 
L 585.064542 489.234767 
L 588.621514 487.124194 
L 592.178486 486.70208 
L 602.849402 486.279965 
L 617.077291 486.209067 
L 624.191235 485.996372 
L 627.748207 484.861999 
L 631.305179 484.507508 
L 634.862151 483.16044 
L 641.976096 482.238762 
L 649.09004 482.096966 
L 659.760956 481.454184 
L 663.317928 479.232067 
L 666.8749 476.579863 
L 670.431873 474.286065 
L 673.988845 471.275455 
L 677.545817 469.841831 
L 681.102789 469.268382 
L 684.659761 468.408208 
L 691.773705 466.042729 
L 695.330677 464.824148 
L 698.887649 464.386378 
L 702.444622 463.073065 
L 706.001594 461.24902 
L 709.558566 457.16316 
L 713.115538 452.566567 
L 716.67251 448.991439 
L 720.229482 446.656661 
L 723.786454 445.197425 
L 727.343426 443.227457 
L 730.900398 440.892679 
L 734.457371 437.755322 
L 738.014343 432.866882 
L 745.128287 422.033915 
L 748.685259 414.020487 
L 752.242231 404.597289 
L 755.799203 400.219583 
L 762.913147 398.438821 
L 766.47012 398.067829 
L 770.027092 397.845234 
L 773.584064 396.954853 
L 777.141036 396.583861 
L 780.698008 396.509663 
L 784.25498 396.135812 
L 794.925896 395.986272 
L 823.381673 395.911502 
L 830.495618 395.389377 
L 862.508367 394.718074 
L 866.065339 394.419718 
L 869.622311 394.419718 
L 873.179283 394.272682 
L 880.293227 393.022883 
L 883.850199 392.80233 
L 887.407171 392.214189 
L 894.521116 389.788108 
L 901.63506 388.979414 
L 922.976892 388.547506 
L 930.090837 388.045761 
L 933.647809 387.472337 
L 937.204781 387.257304 
L 940.761753 387.185626 
L 947.875697 386.397168 
L 951.432669 386.32549 
L 958.546614 385.700178 
L 965.660558 383.82424 
L 969.21753 382.851531 
L 972.774502 382.712572 
L 976.331474 382.226218 
L 979.888446 381.878822 
L 983.445418 381.809343 
L 987.00239 381.600905 
L 994.116335 381.531426 
L 997.673307 380.697676 
L 1001.230279 380.697676 
L 1008.344223 379.655488 
L 1011.901195 378.543821 
L 1015.458167 377.223716 
L 1019.015139 376.598404 
L 1026.129084 376.320487 
L 1033.243028 375.417257 
L 1036.8 374.930903 
L 1036.8 374.930903 
" style="fill:none;stroke:#ff7f0e;stroke-linecap:square;stroke-width:3;"/>
   </g>
   <g id="line2d_17">
    <path clip-path="url(#p3e8756e5bf)" d="M 144 544.761818 
L 151.113944 544.68892 
L 183.126693 544.616021 
L 204.468526 544.252679 
L 215.139442 544.180011 
L 229.367331 543.962006 
L 247.152191 543.889859 
L 257.823108 543.745565 
L 261.38008 543.745565 
L 264.937052 543.601271 
L 268.494024 543.312684 
L 275.607968 542.531129 
L 289.835857 542.175877 
L 293.392829 541.962726 
L 318.291633 541.398414 
L 321.848606 541.119667 
L 325.405578 541.119667 
L 328.96255 540.771233 
L 336.076494 540.4228 
L 339.633466 540.21374 
L 360.975299 540.145186 
L 375.203187 539.939525 
L 421.443825 539.870972 
L 428.557769 539.803096 
L 439.228685 539.73522 
L 446.342629 539.33193 
L 449.899602 538.726994 
L 453.456574 537.987629 
L 457.013546 536.777758 
L 460.570518 536.105608 
L 464.12749 535.769533 
L 471.241434 535.433458 
L 492.583267 535.366243 
L 499.697211 534.569148 
L 503.254183 533.506354 
L 506.811155 532.842108 
L 510.368127 531.247918 
L 521.039044 530.384398 
L 528.152988 529.722215 
L 531.70996 529.194119 
L 535.266932 528.26995 
L 538.823904 527.147746 
L 542.380876 526.619649 
L 545.937849 525.563457 
L 549.494821 524.639288 
L 553.051793 523.847144 
L 556.608765 522.922975 
L 560.165737 522.394879 
L 563.722709 521.404699 
L 567.279681 520.876602 
L 570.836653 519.889307 
L 574.393625 519.494389 
L 577.950598 518.638733 
L 581.50757 517.05906 
L 585.064542 515.808485 
L 588.621514 514.952829 
L 592.178486 514.75537 
L 617.077291 514.689594 
L 624.191235 514.492265 
L 627.748207 513.966056 
L 631.305179 513.834504 
L 634.862151 511.99277 
L 638.419124 511.663889 
L 645.533068 511.335008 
L 649.09004 511.006127 
L 652.647012 511.006127 
L 656.203984 510.543158 
L 659.760956 510.410881 
L 663.317928 508.559003 
L 666.8749 507.103957 
L 670.431873 505.318218 
L 673.988845 503.863171 
L 677.545817 503.135648 
L 681.102789 502.60654 
L 684.659761 501.482186 
L 688.216733 500.490108 
L 691.773705 500.159416 
L 698.887649 499.162243 
L 702.444622 498.227388 
L 706.001594 497.693185 
L 709.558566 496.825105 
L 716.67251 493.152458 
L 720.229482 491.683399 
L 723.786454 490.414667 
L 727.343426 488.211079 
L 730.900398 487.009122 
L 734.457371 484.605208 
L 738.014343 483.136149 
L 741.571315 480.434423 
L 745.128287 479.083559 
L 748.685259 474.220451 
L 752.242231 468.546825 
L 755.799203 465.439839 
L 759.356175 464.561778 
L 762.913147 463.886346 
L 780.698008 462.603026 
L 784.25498 462.125576 
L 791.368924 461.920954 
L 823.381673 461.852747 
L 830.495618 461.646543 
L 837.609562 461.577808 
L 844.723506 461.509074 
L 851.83745 461.234135 
L 858.951394 461.165401 
L 869.622311 460.959197 
L 873.179283 460.6817 
L 880.293227 459.849209 
L 883.850199 459.641087 
L 887.407171 458.253602 
L 890.964143 456.033627 
L 894.521116 454.229897 
L 898.078088 453.813652 
L 901.63506 453.189284 
L 905.192032 452.981161 
L 908.749004 452.981161 
L 912.305976 452.699227 
L 922.976892 452.628744 
L 926.533865 452.205844 
L 937.204781 452.13536 
L 951.432669 451.219076 
L 954.989641 450.717279 
L 958.546614 449.857056 
L 962.103586 448.495036 
L 965.660558 446.344479 
L 969.21753 444.552347 
L 972.774502 444.05055 
L 979.888446 442.54516 
L 987.00239 442.330104 
L 994.116335 442.258419 
L 1001.230279 441.613251 
L 1008.344223 440.681343 
L 1011.901195 439.319323 
L 1015.458167 438.172359 
L 1019.015139 437.312136 
L 1022.572112 436.738654 
L 1026.129084 436.666969 
L 1029.686056 435.878431 
L 1036.8 435.376634 
L 1036.8 435.376634 
" style="fill:none;stroke:#2ca02c;stroke-linecap:square;stroke-width:3;"/>
   </g>
   <g id="line2d_18">
    <path clip-path="url(#p3e8756e5bf)" d="M 144 544.761818 
L 147.556972 544.693172 
L 151.113944 544.418586 
L 158.227888 544.384263 
L 168.898805 543.869415 
L 176.012749 543.766445 
L 193.79761 543.696956 
L 200.911554 543.557976 
L 215.139442 543.453741 
L 264.937052 542.929792 
L 275.607968 542.190879 
L 293.392829 541.943869 
L 304.063745 541.732146 
L 314.734661 541.484605 
L 332.519522 540.670558 
L 336.076494 540.670558 
L 346.74741 540.352018 
L 357.418327 540.140166 
L 360.975299 540.140166 
L 368.089243 539.92933 
L 392.988048 539.542796 
L 407.215936 539.473953 
L 417.886853 539.370687 
L 432.114741 539.267422 
L 446.342629 538.96281 
L 457.013546 537.452711 
L 460.570518 536.949344 
L 467.684462 536.781555 
L 478.355378 536.647324 
L 496.140239 536.549153 
L 503.254183 536.25464 
L 506.811155 535.731061 
L 510.368127 535.436547 
L 513.9251 534.978415 
L 517.482072 534.683902 
L 524.596016 534.389389 
L 545.937849 532.632827 
L 549.494821 532.121827 
L 556.608765 531.387264 
L 560.165737 530.81239 
L 563.722709 530.652702 
L 570.836653 530.112794 
L 574.393625 529.95527 
L 577.950598 529.640222 
L 585.064542 528.663574 
L 588.621514 528.380031 
L 595.735458 528.096488 
L 609.963347 528.064983 
L 620.634263 527.971209 
L 631.305179 527.783662 
L 638.419124 526.908439 
L 641.976096 526.75215 
L 645.533068 526.470828 
L 649.09004 526.345797 
L 652.647012 526.345797 
L 659.760956 525.975538 
L 663.317928 524.926472 
L 666.8749 524.1551 
L 670.431873 523.538003 
L 681.102789 522.550646 
L 684.659761 522.488937 
L 688.216733 522.242098 
L 698.887649 521.902694 
L 702.444622 521.627744 
L 709.558566 520.650144 
L 713.115538 519.641993 
L 716.67251 519.214293 
L 723.786454 518.083943 
L 727.343426 517.350743 
L 730.900398 516.831393 
L 745.128287 513.506139 
L 748.685259 512.866485 
L 752.242231 510.795227 
L 755.799203 510.155573 
L 759.356175 509.637759 
L 762.913147 509.333162 
L 777.141036 509.059025 
L 780.698008 508.998105 
L 784.25498 508.81593 
L 791.368924 508.603393 
L 794.925896 508.451581 
L 816.267729 508.360493 
L 837.609562 508.269777 
L 841.166534 508.239538 
L 848.280478 508.027866 
L 862.508367 507.846433 
L 869.622311 507.846433 
L 880.293227 506.881991 
L 883.850199 506.429909 
L 887.407171 505.827133 
L 894.521116 503.928388 
L 898.078088 503.777694 
L 901.63506 503.446167 
L 912.305976 503.26538 
L 919.41992 503.235264 
L 922.976892 503.144916 
L 926.533865 502.813641 
L 940.761753 502.331786 
L 944.318725 502.331786 
L 947.875697 502.211323 
L 954.989641 501.638459 
L 958.546614 501.034939 
L 962.103586 500.159834 
L 965.660558 498.771736 
L 972.774502 497.474167 
L 976.331474 496.53871 
L 979.888446 496.176598 
L 983.445418 495.965366 
L 990.559363 495.874837 
L 997.673307 495.754133 
L 1008.344223 494.305684 
L 1015.458167 492.857234 
L 1022.572112 491.891602 
L 1029.686056 491.469137 
L 1036.8 491.318257 
L 1036.8 491.318257 
" style="fill:none;stroke:#d62728;stroke-linecap:square;stroke-width:3;"/>
   </g>
   <g id="line2d_19">
    <path clip-path="url(#p3e8756e5bf)" d="M 144 544.761818 
L 446.342629 544.071779 
L 449.899602 544.009238 
L 457.013546 543.738225 
L 464.12749 543.613142 
L 503.254183 543.461012 
L 521.039044 543.1639 
L 535.266932 542.978338 
L 549.494821 542.621295 
L 577.950598 542.25173 
L 592.178486 542.06095 
L 659.760956 541.622253 
L 666.8749 541.347847 
L 670.431873 541.126984 
L 691.773705 540.792343 
L 702.444622 540.665993 
L 720.229482 540.062233 
L 730.900398 539.810114 
L 752.242231 538.8206 
L 759.356175 538.425835 
L 766.47012 538.327143 
L 883.850199 537.816387 
L 887.407171 537.746017 
L 894.521116 537.419755 
L 958.546614 536.919893 
L 972.774502 535.902297 
L 979.888446 535.70129 
L 1001.230279 535.531691 
L 1022.572112 534.520377 
L 1036.8 534.31937 
L 1036.8 534.31937 
" style="fill:none;stroke:#9467bd;stroke-linecap:square;stroke-width:3;"/>
   </g>
   <g id="line2d_20">
    <path clip-path="url(#p3e8756e5bf)" d="M 144 544.761818 
L 161.784861 544.693581 
L 179.569721 544.352393 
L 183.126693 543.397067 
L 186.683665 543.190497 
L 190.240637 542.708502 
L 222.253386 542.157649 
L 247.152191 542.087681 
L 254.266135 541.947743 
L 257.823108 541.737838 
L 264.937052 541.667869 
L 268.494024 541.5979 
L 272.050996 540.675734 
L 275.607968 540.250118 
L 282.721912 540.250118 
L 286.278884 539.682631 
L 289.835857 539.540759 
L 296.949801 539.469823 
L 300.506773 538.902336 
L 304.063745 538.547657 
L 307.620717 538.405785 
L 311.177689 537.838298 
L 314.734661 537.409443 
L 318.291633 536.551735 
L 321.848606 535.336647 
L 325.405578 534.62189 
L 328.96255 532.763522 
L 332.519522 532.12024 
L 336.076494 531.834337 
L 339.633466 531.334007 
L 346.74741 530.690726 
L 350.304382 529.690066 
L 357.418327 529.475148 
L 360.975299 529.475148 
L 368.089243 528.971387 
L 378.760159 527.316173 
L 382.317131 527.100276 
L 389.431076 527.02831 
L 396.54502 526.956344 
L 400.101992 526.811131 
L 407.215936 526.811131 
L 414.32988 526.520706 
L 421.443825 526.520706 
L 428.557769 526.23028 
L 439.228685 526.157673 
L 442.785657 526.010633 
L 446.342629 525.348949 
L 449.899602 523.510937 
L 453.456574 520.57012 
L 457.013546 518.143945 
L 460.570518 515.864811 
L 464.12749 515.056086 
L 467.684462 514.835525 
L 478.355378 514.762004 
L 485.469323 514.539027 
L 489.026295 514.240112 
L 492.583267 514.165384 
L 496.140239 513.418098 
L 499.697211 511.624613 
L 503.254183 509.009114 
L 506.811155 504.824314 
L 510.368127 501.984629 
L 513.9251 500.41533 
L 517.482072 498.547116 
L 521.039044 497.27673 
L 524.596016 496.604173 
L 528.152988 495.088454 
L 531.70996 494.027451 
L 535.266932 492.132802 
L 538.823904 490.010795 
L 542.380876 486.600426 
L 545.937849 482.507984 
L 549.494821 480.613335 
L 553.051793 479.249188 
L 556.608765 478.036613 
L 560.165737 476.141964 
L 563.722709 474.095743 
L 567.279681 473.034739 
L 570.836653 471.128541 
L 574.393625 467.849882 
L 577.950598 465.409949 
L 581.50757 461.826297 
L 585.064542 456.870184 
L 588.621514 453.591524 
L 592.178486 452.600301 
L 595.735458 452.066566 
L 602.849402 451.837822 
L 620.634263 451.837822 
L 624.191235 451.609581 
L 627.748207 451.153098 
L 631.305179 450.848776 
L 634.862151 449.70757 
L 641.976096 448.490282 
L 652.647012 448.414202 
L 656.203984 448.038206 
L 659.760956 447.812609 
L 663.317928 446.534223 
L 666.8749 444.654243 
L 670.431873 441.796674 
L 673.988845 439.991894 
L 677.545817 438.48791 
L 681.102789 437.284723 
L 684.659761 436.908728 
L 688.216733 436.006337 
L 691.773705 435.254346 
L 695.330677 434.351955 
L 698.887649 433.617132 
L 702.444622 432.514896 
L 706.001594 430.677836 
L 709.558566 427.224164 
L 713.115538 423.035668 
L 716.67251 420.904679 
L 720.229482 418.920655 
L 723.786454 417.304042 
L 730.900398 413.629923 
L 734.457371 410.984557 
L 738.014343 407.530885 
L 741.571315 404.965836 
L 745.128287 401.047011 
L 752.242231 395.133148 
L 755.799203 393.423115 
L 762.913147 391.214323 
L 770.027092 391.000569 
L 773.584064 390.573061 
L 777.141036 390.501809 
L 784.25498 390.080421 
L 798.482869 389.872788 
L 802.039841 389.872788 
L 805.596813 389.734365 
L 826.938645 389.734365 
L 830.495618 389.599362 
L 834.05259 389.599362 
L 841.166534 389.12685 
L 866.065339 389.059348 
L 873.179283 388.993352 
L 876.736255 388.663369 
L 880.293227 388.201392 
L 883.850199 387.937406 
L 894.521116 386.749467 
L 908.749004 386.287491 
L 919.41992 386.222782 
L 926.533865 386.093363 
L 933.647809 385.705108 
L 937.204781 385.640398 
L 940.761753 385.381561 
L 947.875697 384.281504 
L 951.432669 384.152086 
L 954.989641 383.89649 
L 958.546614 383.257501 
L 962.103586 382.426815 
L 965.660558 381.468331 
L 969.21753 380.190352 
L 972.774502 379.359666 
L 976.331474 379.167969 
L 979.888446 378.720677 
L 983.445418 378.720677 
L 987.00239 378.337283 
L 994.116335 378.145586 
L 997.673307 377.3149 
L 1001.230279 376.867607 
L 1008.344223 375.014538 
L 1011.901195 374.31165 
L 1015.458167 373.161469 
L 1019.015139 372.52248 
L 1026.129084 372.330783 
L 1029.686056 372.011289 
L 1036.8 371.94739 
L 1036.8 371.94739 
" style="fill:none;stroke:#8c564b;stroke-linecap:square;stroke-width:3;"/>
   </g>
   <g id="line2d_21">
    <path clip-path="url(#p3e8756e5bf)" d="M 144 544.761818 
L 147.556972 544.761818 
L 161.784861 543.272967 
L 165.341833 542.528541 
L 172.455777 542.528541 
L 176.012749 542.156329 
L 179.569721 542.156329 
L 183.126693 541.411903 
L 186.683665 541.031596 
L 190.240637 539.510367 
L 193.79761 539.13006 
L 200.911554 536.848217 
L 204.468526 536.46791 
L 229.367331 536.46791 
L 232.924303 536.075767 
L 236.481275 536.075767 
L 243.595219 535.291483 
L 268.494024 535.291483 
L 272.050996 533.698563 
L 275.607968 531.707413 
L 279.16494 528.919803 
L 286.278884 526.530423 
L 293.392829 525.733963 
L 296.949801 525.733963 
L 300.506773 525.335733 
L 304.063745 522.548123 
L 307.620717 521.353433 
L 311.177689 520.955203 
L 318.291633 520.955203 
L 321.848606 516.23784 
L 325.405578 515.451613 
L 328.96255 513.092931 
L 332.519522 512.306704 
L 346.74741 507.589341 
L 350.304382 506.803114 
L 353.861355 505.23066 
L 357.418327 504.087668 
L 360.975299 502.182681 
L 364.532271 501.420687 
L 368.089243 499.134703 
L 371.646215 498.753706 
L 375.203187 496.086725 
L 378.760159 495.32473 
L 385.874104 495.32473 
L 389.431076 494.943733 
L 400.101992 494.943733 
L 403.658964 494.572503 
L 410.772908 494.572503 
L 414.32988 494.201273 
L 425.000797 494.201273 
L 432.114741 491.973894 
L 435.671713 491.973894 
L 439.228685 491.231434 
L 442.785657 490.140461 
L 446.342629 487.594857 
L 449.899602 486.140227 
L 453.456574 480.321704 
L 457.013546 471.230262 
L 460.570518 465.048081 
L 467.684462 461.411504 
L 474.798406 460.684189 
L 481.912351 460.684189 
L 496.140239 459.269637 
L 499.697211 455.733258 
L 503.254183 451.843241 
L 506.811155 447.245948 
L 510.368127 441.587741 
L 513.9251 438.051362 
L 517.482072 434.868621 
L 521.039044 428.503139 
L 524.596016 423.905846 
L 528.152988 423.223367 
L 531.70996 418.787253 
L 535.266932 414.009899 
L 538.823904 409.573786 
L 542.380876 404.455193 
L 545.937849 401.725276 
L 549.494821 398.312881 
L 553.051793 394.559246 
L 556.608765 392.511809 
L 560.165737 389.781893 
L 563.722709 385.687019 
L 567.279681 383.639581 
L 570.836653 381.960866 
L 577.950598 373.903033 
L 581.50757 365.845199 
L 585.064542 359.130338 
L 588.621514 356.444393 
L 592.178486 354.765678 
L 595.735458 354.094192 
L 599.29243 354.094192 
L 609.963347 353.086963 
L 613.520319 352.416996 
L 617.077291 351.412045 
L 620.634263 351.077061 
L 624.191235 350.407094 
L 627.748207 349.402144 
L 634.862151 345.382342 
L 638.419124 341.027556 
L 641.976096 340.692572 
L 645.533068 339.687622 
L 656.203984 339.687622 
L 659.760956 338.36321 
L 663.317928 336.376593 
L 666.8749 333.065564 
L 670.431873 329.09233 
L 673.988845 325.781301 
L 677.545817 323.463581 
L 681.102789 322.801375 
L 684.659761 321.476964 
L 688.216733 321.476964 
L 691.773705 320.814758 
L 695.330677 320.483655 
L 698.887649 319.831302 
L 706.001594 306.784231 
L 709.558566 301.89158 
L 713.115538 293.084807 
L 716.67251 285.256564 
L 720.229482 281.016266 
L 723.786454 274.166554 
L 727.343426 270.57861 
L 730.900398 266.012135 
L 734.457371 257.205362 
L 738.014343 249.37712 
L 741.571315 240.523116 
L 745.128287 230.685334 
L 748.685259 221.175477 
L 752.242231 205.1071 
L 755.799203 199.532356 
L 759.356175 195.597243 
L 766.47012 194.285539 
L 773.584064 193.629687 
L 780.698008 193.629687 
L 784.25498 192.286586 
L 787.811952 189.936161 
L 791.368924 188.59306 
L 802.039841 188.59306 
L 805.596813 186.914184 
L 834.05259 186.914184 
L 837.609562 186.575 
L 841.166534 185.557448 
L 844.723506 184.879079 
L 862.508367 184.879079 
L 869.622311 183.524169 
L 873.179283 183.524169 
L 876.736255 181.494543 
L 880.293227 179.803188 
L 883.850199 179.126645 
L 887.407171 178.111832 
L 890.964143 175.743935 
L 894.521116 175.405664 
L 898.078088 175.405664 
L 901.63506 174.390851 
L 912.305976 174.390851 
L 915.862948 174.049611 
L 919.41992 174.049611 
L 922.976892 173.708371 
L 926.533865 173.02589 
L 930.090837 172.002168 
L 933.647809 171.319688 
L 937.204781 171.319688 
L 940.761753 170.978447 
L 944.318725 170.978447 
L 947.875697 164.494879 
L 951.432669 160.399995 
L 954.989641 158.340842 
L 958.546614 155.595305 
L 962.103586 151.133807 
L 965.660558 142.554004 
L 969.21753 138.778891 
L 972.774502 135.690162 
L 976.331474 133.974201 
L 979.888446 133.631009 
L 983.445418 132.944625 
L 987.00239 131.915049 
L 990.559363 130.199088 
L 994.116335 129.855896 
L 997.673307 126.767167 
L 1004.787251 113.725867 
L 1008.344223 108.234793 
L 1015.458167 103.430103 
L 1019.015139 102.057335 
L 1022.572112 101.37095 
L 1026.129084 101.027758 
L 1029.686056 100.341374 
L 1033.243028 100.341374 
L 1036.8 99.998182 
L 1036.8 99.998182 
" style="fill:none;stroke:#e377c2;stroke-linecap:square;stroke-width:3;"/>
   </g>
   <g id="patch_3">
    <path d="M 144 567 
L 144 77.76 
" style="fill:none;stroke:#000000;stroke-linecap:square;stroke-linejoin:miter;stroke-width:0.8;"/>
   </g>
   <g id="patch_4">
    <path d="M 1036.8 567 
L 1036.8 77.76 
" style="fill:none;stroke:#000000;stroke-linecap:square;stroke-linejoin:miter;stroke-width:0.8;"/>
   </g>
   <g id="patch_5">
    <path d="M 144 567 
L 1036.8 567 
" style="fill:none;stroke:#000000;stroke-linecap:square;stroke-linejoin:miter;stroke-width:0.8;"/>
   </g>
   <g id="patch_6">
    <path d="M 144 77.76 
L 1036.8 77.76 
" style="fill:none;stroke:#000000;stroke-linecap:square;stroke-linejoin:miter;stroke-width:0.8;"/>
   </g>
   <g id="text_15">
    <!-- Measles Cumulutative cases Per 100k -->
    <defs>
     <path d="M 9.8125 72.90625 
L 24.515625 72.90625 
L 43.109375 23.296875 
L 61.8125 72.90625 
L 76.515625 72.90625 
L 76.515625 0 
L 66.890625 0 
L 66.890625 64.015625 
L 48.09375 14.015625 
L 38.1875 14.015625 
L 19.390625 64.015625 
L 19.390625 0 
L 9.8125 0 
z
" id="DejaVuSans-77"/>
     <path d="M 56.203125 29.59375 
L 56.203125 25.203125 
L 14.890625 25.203125 
Q 15.484375 15.921875 20.484375 11.0625 
Q 25.484375 6.203125 34.421875 6.203125 
Q 39.59375 6.203125 44.453125 7.46875 
Q 49.3125 8.734375 54.109375 11.28125 
L 54.109375 2.78125 
Q 49.265625 0.734375 44.1875 -0.34375 
Q 39.109375 -1.421875 33.890625 -1.421875 
Q 20.796875 -1.421875 13.15625 6.1875 
Q 5.515625 13.8125 5.515625 26.8125 
Q 5.515625 40.234375 12.765625 48.109375 
Q 20.015625 56 32.328125 56 
Q 43.359375 56 49.78125 48.890625 
Q 56.203125 41.796875 56.203125 29.59375 
z
M 47.21875 32.234375 
Q 47.125 39.59375 43.09375 43.984375 
Q 39.0625 48.390625 32.421875 48.390625 
Q 24.90625 48.390625 20.390625 44.140625 
Q 15.875 39.890625 15.1875 32.171875 
z
" id="DejaVuSans-101"/>
     <path d="M 34.28125 27.484375 
Q 23.390625 27.484375 19.1875 25 
Q 14.984375 22.515625 14.984375 16.5 
Q 14.984375 11.71875 18.140625 8.90625 
Q 21.296875 6.109375 26.703125 6.109375 
Q 34.1875 6.109375 38.703125 11.40625 
Q 43.21875 16.703125 43.21875 25.484375 
L 43.21875 27.484375 
z
M 52.203125 31.203125 
L 52.203125 0 
L 43.21875 0 
L 43.21875 8.296875 
Q 40.140625 3.328125 35.546875 0.953125 
Q 30.953125 -1.421875 24.3125 -1.421875 
Q 15.921875 -1.421875 10.953125 3.296875 
Q 6 8.015625 6 15.921875 
Q 6 25.140625 12.171875 29.828125 
Q 18.359375 34.515625 30.609375 34.515625 
L 43.21875 34.515625 
L 43.21875 35.40625 
Q 43.21875 41.609375 39.140625 45 
Q 35.0625 48.390625 27.6875 48.390625 
Q 23 48.390625 18.546875 47.265625 
Q 14.109375 46.140625 10.015625 43.890625 
L 10.015625 52.203125 
Q 14.9375 54.109375 19.578125 55.046875 
Q 24.21875 56 28.609375 56 
Q 40.484375 56 46.34375 49.84375 
Q 52.203125 43.703125 52.203125 31.203125 
z
" id="DejaVuSans-97"/>
     <path d="M 44.28125 53.078125 
L 44.28125 44.578125 
Q 40.484375 46.53125 36.375 47.5 
Q 32.28125 48.484375 27.875 48.484375 
Q 21.1875 48.484375 17.84375 46.4375 
Q 14.5 44.390625 14.5 40.28125 
Q 14.5 37.15625 16.890625 35.375 
Q 19.28125 33.59375 26.515625 31.984375 
L 29.59375 31.296875 
Q 39.15625 29.25 43.1875 25.515625 
Q 47.21875 21.78125 47.21875 15.09375 
Q 47.21875 7.46875 41.1875 3.015625 
Q 35.15625 -1.421875 24.609375 -1.421875 
Q 20.21875 -1.421875 15.453125 -0.5625 
Q 10.6875 0.296875 5.421875 2 
L 5.421875 11.28125 
Q 10.40625 8.6875 15.234375 7.390625 
Q 20.0625 6.109375 24.8125 6.109375 
Q 31.15625 6.109375 34.5625 8.28125 
Q 37.984375 10.453125 37.984375 14.40625 
Q 37.984375 18.0625 35.515625 20.015625 
Q 33.0625 21.96875 24.703125 23.78125 
L 21.578125 24.515625 
Q 13.234375 26.265625 9.515625 29.90625 
Q 5.8125 33.546875 5.8125 39.890625 
Q 5.8125 47.609375 11.28125 51.796875 
Q 16.75 56 26.8125 56 
Q 31.78125 56 36.171875 55.265625 
Q 40.578125 54.546875 44.28125 53.078125 
z
" id="DejaVuSans-115"/>
     <path d="M 9.421875 75.984375 
L 18.40625 75.984375 
L 18.40625 0 
L 9.421875 0 
z
" id="DejaVuSans-108"/>
     <path id="DejaVuSans-32"/>
     <path d="M 64.40625 67.28125 
L 64.40625 56.890625 
Q 59.421875 61.53125 53.78125 63.8125 
Q 48.140625 66.109375 41.796875 66.109375 
Q 29.296875 66.109375 22.65625 58.46875 
Q 16.015625 50.828125 16.015625 36.375 
Q 16.015625 21.96875 22.65625 14.328125 
Q 29.296875 6.6875 41.796875 6.6875 
Q 48.140625 6.6875 53.78125 8.984375 
Q 59.421875 11.28125 64.40625 15.921875 
L 64.40625 5.609375 
Q 59.234375 2.09375 53.4375 0.328125 
Q 47.65625 -1.421875 41.21875 -1.421875 
Q 24.65625 -1.421875 15.125 8.703125 
Q 5.609375 18.84375 5.609375 36.375 
Q 5.609375 53.953125 15.125 64.078125 
Q 24.65625 74.21875 41.21875 74.21875 
Q 47.75 74.21875 53.53125 72.484375 
Q 59.328125 70.75 64.40625 67.28125 
z
" id="DejaVuSans-67"/>
     <path d="M 8.5 21.578125 
L 8.5 54.6875 
L 17.484375 54.6875 
L 17.484375 21.921875 
Q 17.484375 14.15625 20.5 10.265625 
Q 23.53125 6.390625 29.59375 6.390625 
Q 36.859375 6.390625 41.078125 11.03125 
Q 45.3125 15.671875 45.3125 23.6875 
L 45.3125 54.6875 
L 54.296875 54.6875 
L 54.296875 0 
L 45.3125 0 
L 45.3125 8.40625 
Q 42.046875 3.421875 37.71875 1 
Q 33.40625 -1.421875 27.6875 -1.421875 
Q 18.265625 -1.421875 13.375 4.4375 
Q 8.5 10.296875 8.5 21.578125 
z
M 31.109375 56 
z
" id="DejaVuSans-117"/>
     <path d="M 52 44.1875 
Q 55.375 50.25 60.0625 53.125 
Q 64.75 56 71.09375 56 
Q 79.640625 56 84.28125 50.015625 
Q 88.921875 44.046875 88.921875 33.015625 
L 88.921875 0 
L 79.890625 0 
L 79.890625 32.71875 
Q 79.890625 40.578125 77.09375 44.375 
Q 74.3125 48.1875 68.609375 48.1875 
Q 61.625 48.1875 57.5625 43.546875 
Q 53.515625 38.921875 53.515625 30.90625 
L 53.515625 0 
L 44.484375 0 
L 44.484375 32.71875 
Q 44.484375 40.625 41.703125 44.40625 
Q 38.921875 48.1875 33.109375 48.1875 
Q 26.21875 48.1875 22.15625 43.53125 
Q 18.109375 38.875 18.109375 30.90625 
L 18.109375 0 
L 9.078125 0 
L 9.078125 54.6875 
L 18.109375 54.6875 
L 18.109375 46.1875 
Q 21.1875 51.21875 25.484375 53.609375 
Q 29.78125 56 35.6875 56 
Q 41.65625 56 45.828125 52.96875 
Q 50 49.953125 52 44.1875 
z
" id="DejaVuSans-109"/>
     <path d="M 18.3125 70.21875 
L 18.3125 54.6875 
L 36.8125 54.6875 
L 36.8125 47.703125 
L 18.3125 47.703125 
L 18.3125 18.015625 
Q 18.3125 11.328125 20.140625 9.421875 
Q 21.96875 7.515625 27.59375 7.515625 
L 36.8125 7.515625 
L 36.8125 0 
L 27.59375 0 
Q 17.1875 0 13.234375 3.875 
Q 9.28125 7.765625 9.28125 18.015625 
L 9.28125 47.703125 
L 2.6875 47.703125 
L 2.6875 54.6875 
L 9.28125 54.6875 
L 9.28125 70.21875 
z
" id="DejaVuSans-116"/>
     <path d="M 9.421875 54.6875 
L 18.40625 54.6875 
L 18.40625 0 
L 9.421875 0 
z
M 9.421875 75.984375 
L 18.40625 75.984375 
L 18.40625 64.59375 
L 9.421875 64.59375 
z
" id="DejaVuSans-105"/>
     <path d="M 2.984375 54.6875 
L 12.5 54.6875 
L 29.59375 8.796875 
L 46.6875 54.6875 
L 56.203125 54.6875 
L 35.6875 0 
L 23.484375 0 
z
" id="DejaVuSans-118"/>
     <path d="M 48.78125 52.59375 
L 48.78125 44.1875 
Q 44.96875 46.296875 41.140625 47.34375 
Q 37.3125 48.390625 33.40625 48.390625 
Q 24.65625 48.390625 19.8125 42.84375 
Q 14.984375 37.3125 14.984375 27.296875 
Q 14.984375 17.28125 19.8125 11.734375 
Q 24.65625 6.203125 33.40625 6.203125 
Q 37.3125 6.203125 41.140625 7.25 
Q 44.96875 8.296875 48.78125 10.40625 
L 48.78125 2.09375 
Q 45.015625 0.34375 40.984375 -0.53125 
Q 36.96875 -1.421875 32.421875 -1.421875 
Q 20.0625 -1.421875 12.78125 6.34375 
Q 5.515625 14.109375 5.515625 27.296875 
Q 5.515625 40.671875 12.859375 48.328125 
Q 20.21875 56 33.015625 56 
Q 37.15625 56 41.109375 55.140625 
Q 45.0625 54.296875 48.78125 52.59375 
z
" id="DejaVuSans-99"/>
     <path d="M 19.671875 64.796875 
L 19.671875 37.40625 
L 32.078125 37.40625 
Q 38.96875 37.40625 42.71875 40.96875 
Q 46.484375 44.53125 46.484375 51.125 
Q 46.484375 57.671875 42.71875 61.234375 
Q 38.96875 64.796875 32.078125 64.796875 
z
M 9.8125 72.90625 
L 32.078125 72.90625 
Q 44.34375 72.90625 50.609375 67.359375 
Q 56.890625 61.8125 56.890625 51.125 
Q 56.890625 40.328125 50.609375 34.8125 
Q 44.34375 29.296875 32.078125 29.296875 
L 19.671875 29.296875 
L 19.671875 0 
L 9.8125 0 
z
" id="DejaVuSans-80"/>
     <path d="M 41.109375 46.296875 
Q 39.59375 47.171875 37.8125 47.578125 
Q 36.03125 48 33.890625 48 
Q 26.265625 48 22.1875 43.046875 
Q 18.109375 38.09375 18.109375 28.8125 
L 18.109375 0 
L 9.078125 0 
L 9.078125 54.6875 
L 18.109375 54.6875 
L 18.109375 46.1875 
Q 20.953125 51.171875 25.484375 53.578125 
Q 30.03125 56 36.53125 56 
Q 37.453125 56 38.578125 55.875 
Q 39.703125 55.765625 41.0625 55.515625 
z
" id="DejaVuSans-114"/>
     <path d="M 9.078125 75.984375 
L 18.109375 75.984375 
L 18.109375 31.109375 
L 44.921875 54.6875 
L 56.390625 54.6875 
L 27.390625 29.109375 
L 57.625 0 
L 45.90625 0 
L 18.109375 26.703125 
L 18.109375 0 
L 9.078125 0 
z
" id="DejaVuSans-107"/>
    </defs>
    <g transform="translate(400.729687 71.76)scale(0.2 -0.2)">
     <use xlink:href="#DejaVuSans-77"/>
     <use x="86.279297" xlink:href="#DejaVuSans-101"/>
     <use x="147.802734" xlink:href="#DejaVuSans-97"/>
     <use x="209.082031" xlink:href="#DejaVuSans-115"/>
     <use x="261.181641" xlink:href="#DejaVuSans-108"/>
     <use x="288.964844" xlink:href="#DejaVuSans-101"/>
     <use x="350.488281" xlink:href="#DejaVuSans-115"/>
     <use x="402.587891" xlink:href="#DejaVuSans-32"/>
     <use x="434.375" xlink:href="#DejaVuSans-67"/>
     <use x="504.199219" xlink:href="#DejaVuSans-117"/>
     <use x="567.578125" xlink:href="#DejaVuSans-109"/>
     <use x="664.990234" xlink:href="#DejaVuSans-117"/>
     <use x="728.369141" xlink:href="#DejaVuSans-108"/>
     <use x="756.152344" xlink:href="#DejaVuSans-117"/>
     <use x="819.53125" xlink:href="#DejaVuSans-116"/>
     <use x="858.740234" xlink:href="#DejaVuSans-97"/>
     <use x="920.019531" xlink:href="#DejaVuSans-116"/>
     <use x="959.228516" xlink:href="#DejaVuSans-105"/>
     <use x="987.011719" xlink:href="#DejaVuSans-118"/>
     <use x="1046.191406" xlink:href="#DejaVuSans-101"/>
     <use x="1107.714844" xlink:href="#DejaVuSans-32"/>
     <use x="1139.501953" xlink:href="#DejaVuSans-99"/>
     <use x="1194.482422" xlink:href="#DejaVuSans-97"/>
     <use x="1255.761719" xlink:href="#DejaVuSans-115"/>
     <use x="1307.861328" xlink:href="#DejaVuSans-101"/>
     <use x="1369.384766" xlink:href="#DejaVuSans-115"/>
     <use x="1421.484375" xlink:href="#DejaVuSans-32"/>
     <use x="1453.271484" xlink:href="#DejaVuSans-80"/>
     <use x="1513.527344" xlink:href="#DejaVuSans-101"/>
     <use x="1575.050781" xlink:href="#DejaVuSans-114"/>
     <use x="1616.164062" xlink:href="#DejaVuSans-32"/>
     <use x="1647.951172" xlink:href="#DejaVuSans-49"/>
     <use x="1711.574219" xlink:href="#DejaVuSans-48"/>
     <use x="1775.197266" xlink:href="#DejaVuSans-48"/>
     <use x="1838.820312" xlink:href="#DejaVuSans-107"/>
    </g>
   </g>
   <g id="legend_1">
    <g id="patch_7">
     <path d="M 159.3 290.179062 
L 275.309844 290.179062 
Q 279.109844 290.179062 279.109844 286.379062 
L 279.109844 93.06 
Q 279.109844 89.26 275.309844 89.26 
L 159.3 89.26 
Q 155.5 89.26 155.5 93.06 
L 155.5 286.379062 
Q 155.5 290.179062 159.3 290.179062 
z
" style="fill:#4c4c4c;opacity:0.5;stroke:#4c4c4c;stroke-linejoin:miter;"/>
    </g>
    <g id="patch_8">
     <path d="M 157.3 288.179062 
L 273.309844 288.179062 
Q 277.109844 288.179062 277.109844 284.379062 
L 277.109844 91.06 
Q 277.109844 87.26 273.309844 87.26 
L 157.3 87.26 
Q 153.5 87.26 153.5 91.06 
L 153.5 284.379062 
Q 153.5 288.179062 157.3 288.179062 
z
" style="fill:#ffffff;stroke:#cccccc;stroke-linejoin:miter;"/>
    </g>
    <g id="line2d_22">
     <path d="M 161.1 102.647031 
L 199.1 102.647031 
" style="fill:none;stroke:#1f77b4;stroke-linecap:square;stroke-width:3;"/>
    </g>
    <g id="line2d_23"/>
    <g id="text_16">
     <!-- &lt;1 -->
     <defs>
      <path d="M 73.1875 49.21875 
L 22.796875 31.296875 
L 73.1875 13.484375 
L 73.1875 4.59375 
L 10.59375 27.296875 
L 10.59375 35.40625 
L 73.1875 58.109375 
z
" id="DejaVuSans-60"/>
     </defs>
     <g transform="translate(214.3 109.297031)scale(0.19 -0.19)">
      <use xlink:href="#DejaVuSans-60"/>
      <use x="83.789062" xlink:href="#DejaVuSans-49"/>
     </g>
    </g>
    <g id="line2d_24">
     <path d="M 161.1 130.535469 
L 199.1 130.535469 
" style="fill:none;stroke:#ff7f0e;stroke-linecap:square;stroke-width:3;"/>
    </g>
    <g id="line2d_25"/>
    <g id="text_17">
     <!-- 1-4 -->
     <defs>
      <path d="M 37.796875 64.3125 
L 12.890625 25.390625 
L 37.796875 25.390625 
z
M 35.203125 72.90625 
L 47.609375 72.90625 
L 47.609375 25.390625 
L 58.015625 25.390625 
L 58.015625 17.1875 
L 47.609375 17.1875 
L 47.609375 0 
L 37.796875 0 
L 37.796875 17.1875 
L 4.890625 17.1875 
L 4.890625 26.703125 
z
" id="DejaVuSans-52"/>
     </defs>
     <g transform="translate(214.3 137.185469)scale(0.19 -0.19)">
      <use xlink:href="#DejaVuSans-49"/>
      <use x="63.623047" xlink:href="#DejaVuSans-45"/>
      <use x="99.707031" xlink:href="#DejaVuSans-52"/>
     </g>
    </g>
    <g id="line2d_26">
     <path d="M 161.1 158.423906 
L 199.1 158.423906 
" style="fill:none;stroke:#2ca02c;stroke-linecap:square;stroke-width:3;"/>
    </g>
    <g id="line2d_27"/>
    <g id="text_18">
     <!-- 5-9 -->
     <g transform="translate(214.3 165.073906)scale(0.19 -0.19)">
      <use xlink:href="#DejaVuSans-53"/>
      <use x="63.623047" xlink:href="#DejaVuSans-45"/>
      <use x="99.707031" xlink:href="#DejaVuSans-57"/>
     </g>
    </g>
    <g id="line2d_28">
     <path d="M 161.1 186.312344 
L 199.1 186.312344 
" style="fill:none;stroke:#d62728;stroke-linecap:square;stroke-width:3;"/>
    </g>
    <g id="line2d_29"/>
    <g id="text_19">
     <!-- 10-14 -->
     <g transform="translate(214.3 192.962344)scale(0.19 -0.19)">
      <use xlink:href="#DejaVuSans-49"/>
      <use x="63.623047" xlink:href="#DejaVuSans-48"/>
      <use x="127.246094" xlink:href="#DejaVuSans-45"/>
      <use x="163.330078" xlink:href="#DejaVuSans-49"/>
      <use x="226.953125" xlink:href="#DejaVuSans-52"/>
     </g>
    </g>
    <g id="line2d_30">
     <path d="M 161.1 214.200781 
L 199.1 214.200781 
" style="fill:none;stroke:#9467bd;stroke-linecap:square;stroke-width:3;"/>
    </g>
    <g id="line2d_31"/>
    <g id="text_20">
     <!-- 15-19 -->
     <g transform="translate(214.3 220.850781)scale(0.19 -0.19)">
      <use xlink:href="#DejaVuSans-49"/>
      <use x="63.623047" xlink:href="#DejaVuSans-53"/>
      <use x="127.246094" xlink:href="#DejaVuSans-45"/>
      <use x="163.330078" xlink:href="#DejaVuSans-49"/>
      <use x="226.953125" xlink:href="#DejaVuSans-57"/>
     </g>
    </g>
    <g id="line2d_32">
     <path d="M 161.1 242.089219 
L 199.1 242.089219 
" style="fill:none;stroke:#8c564b;stroke-linecap:square;stroke-width:3;"/>
    </g>
    <g id="line2d_33"/>
    <g id="text_21">
     <!-- 20-29 -->
     <g transform="translate(214.3 248.739219)scale(0.19 -0.19)">
      <use xlink:href="#DejaVuSans-50"/>
      <use x="63.623047" xlink:href="#DejaVuSans-48"/>
      <use x="127.246094" xlink:href="#DejaVuSans-45"/>
      <use x="163.330078" xlink:href="#DejaVuSans-50"/>
      <use x="226.953125" xlink:href="#DejaVuSans-57"/>
     </g>
    </g>
    <g id="line2d_34">
     <path d="M 161.1 269.977656 
L 199.1 269.977656 
" style="fill:none;stroke:#e377c2;stroke-linecap:square;stroke-width:3;"/>
    </g>
    <g id="line2d_35"/>
    <g id="text_22">
     <!-- 30+ -->
     <defs>
      <path d="M 46 62.703125 
L 46 35.5 
L 73.1875 35.5 
L 73.1875 27.203125 
L 46 27.203125 
L 46 0 
L 37.796875 0 
L 37.796875 27.203125 
L 10.59375 27.203125 
L 10.59375 35.5 
L 37.796875 35.5 
L 37.796875 62.703125 
z
" id="DejaVuSans-43"/>
     </defs>
     <g transform="translate(214.3 276.627656)scale(0.19 -0.19)">
      <use xlink:href="#DejaVuSans-51"/>
      <use x="63.623047" xlink:href="#DejaVuSans-48"/>
      <use x="127.246094" xlink:href="#DejaVuSans-43"/>
     </g>
    </g>
   </g>
  </g>
 </g>
 <defs>
  <clipPath id="p3e8756e5bf">
   <rect height="489.24" width="892.8" x="144" y="77.76"/>
  </clipPath>
 </defs>
</svg>
