<?xml version="1.0" encoding="utf-8" standalone="no"?>
<!DOCTYPE svg PUBLIC "-//W3C//DTD SVG 1.1//EN"
  "http://www.w3.org/Graphics/SVG/1.1/DTD/svg11.dtd">
<!-- Created with matplotlib (https://matplotlib.org/) -->
<svg height="648pt" version="1.1" viewBox="0 0 1152 648" width="1152pt" xmlns="http://www.w3.org/2000/svg" xmlns:xlink="http://www.w3.org/1999/xlink">
 <defs>
  <style type="text/css">
*{stroke-linecap:butt;stroke-linejoin:round;white-space:pre;}
  </style>
 </defs>
 <g id="figure_1">
  <g id="patch_1">
   <path d="M 0 648 
L 1152 648 
L 1152 0 
L 0 0 
z
" style="fill:#ffffff;"/>
  </g>
  <g id="axes_1">
   <g id="patch_2">
    <path d="M 144 567 
L 1036.8 567 
L 1036.8 77.76 
L 144 77.76 
z
" style="fill:#ffffff;"/>
   </g>
   <g id="matplotlib.axis_1">
    <g id="xtick_1">
     <g id="line2d_1">
      <defs>
       <path d="M 0 0 
L 0 3.5 
" id="m2aa0637a1a" style="stroke:#000000;stroke-width:0.8;"/>
      </defs>
      <g>
       <use style="stroke:#000000;stroke-width:0.8;" x="184.581818" xlink:href="#m2aa0637a1a" y="567"/>
      </g>
     </g>
     <g id="text_1">
      <!-- 1999-01 -->
      <defs>
       <path d="M 12.40625 8.296875 
L 28.515625 8.296875 
L 28.515625 63.921875 
L 10.984375 60.40625 
L 10.984375 69.390625 
L 28.421875 72.90625 
L 38.28125 72.90625 
L 38.28125 8.296875 
L 54.390625 8.296875 
L 54.390625 0 
L 12.40625 0 
z
" id="DejaVuSans-49"/>
       <path d="M 10.984375 1.515625 
L 10.984375 10.5 
Q 14.703125 8.734375 18.5 7.8125 
Q 22.3125 6.890625 25.984375 6.890625 
Q 35.75 6.890625 40.890625 13.453125 
Q 46.046875 20.015625 46.78125 33.40625 
Q 43.953125 29.203125 39.59375 26.953125 
Q 35.25 24.703125 29.984375 24.703125 
Q 19.046875 24.703125 12.671875 31.3125 
Q 6.296875 37.9375 6.296875 49.421875 
Q 6.296875 60.640625 12.9375 67.421875 
Q 19.578125 74.21875 30.609375 74.21875 
Q 43.265625 74.21875 49.921875 64.515625 
Q 56.59375 54.828125 56.59375 36.375 
Q 56.59375 19.140625 48.40625 8.859375 
Q 40.234375 -1.421875 26.421875 -1.421875 
Q 22.703125 -1.421875 18.890625 -0.6875 
Q 15.09375 0.046875 10.984375 1.515625 
z
M 30.609375 32.421875 
Q 37.25 32.421875 41.125 36.953125 
Q 45.015625 41.5 45.015625 49.421875 
Q 45.015625 57.28125 41.125 61.84375 
Q 37.25 66.40625 30.609375 66.40625 
Q 23.96875 66.40625 20.09375 61.84375 
Q 16.21875 57.28125 16.21875 49.421875 
Q 16.21875 41.5 20.09375 36.953125 
Q 23.96875 32.421875 30.609375 32.421875 
z
" id="DejaVuSans-57"/>
       <path d="M 4.890625 31.390625 
L 31.203125 31.390625 
L 31.203125 23.390625 
L 4.890625 23.390625 
z
" id="DejaVuSans-45"/>
       <path d="M 31.78125 66.40625 
Q 24.171875 66.40625 20.328125 58.90625 
Q 16.5 51.421875 16.5 36.375 
Q 16.5 21.390625 20.328125 13.890625 
Q 24.171875 6.390625 31.78125 6.390625 
Q 39.453125 6.390625 43.28125 13.890625 
Q 47.125 21.390625 47.125 36.375 
Q 47.125 51.421875 43.28125 58.90625 
Q 39.453125 66.40625 31.78125 66.40625 
z
M 31.78125 74.21875 
Q 44.046875 74.21875 50.515625 64.515625 
Q 56.984375 54.828125 56.984375 36.375 
Q 56.984375 17.96875 50.515625 8.265625 
Q 44.046875 -1.421875 31.78125 -1.421875 
Q 19.53125 -1.421875 13.0625 8.265625 
Q 6.59375 17.96875 6.59375 36.375 
Q 6.59375 54.828125 13.0625 64.515625 
Q 19.53125 74.21875 31.78125 74.21875 
z
" id="DejaVuSans-48"/>
      </defs>
      <g transform="translate(146.977287 587.677187)scale(0.18 -0.18)">
       <use xlink:href="#DejaVuSans-49"/>
       <use x="63.623047" xlink:href="#DejaVuSans-57"/>
       <use x="127.246094" xlink:href="#DejaVuSans-57"/>
       <use x="190.869141" xlink:href="#DejaVuSans-57"/>
       <use x="254.492188" xlink:href="#DejaVuSans-45"/>
       <use x="290.576172" xlink:href="#DejaVuSans-48"/>
       <use x="354.199219" xlink:href="#DejaVuSans-49"/>
      </g>
     </g>
    </g>
    <g id="xtick_2">
     <g id="line2d_2">
      <g>
       <use style="stroke:#000000;stroke-width:0.8;" x="284.82376" xlink:href="#m2aa0637a1a" y="567"/>
      </g>
     </g>
     <g id="text_2">
      <!-- 2001-08 -->
      <defs>
       <path d="M 19.1875 8.296875 
L 53.609375 8.296875 
L 53.609375 0 
L 7.328125 0 
L 7.328125 8.296875 
Q 12.9375 14.109375 22.625 23.890625 
Q 32.328125 33.6875 34.8125 36.53125 
Q 39.546875 41.84375 41.421875 45.53125 
Q 43.3125 49.21875 43.3125 52.78125 
Q 43.3125 58.59375 39.234375 62.25 
Q 35.15625 65.921875 28.609375 65.921875 
Q 23.96875 65.921875 18.8125 64.3125 
Q 13.671875 62.703125 7.8125 59.421875 
L 7.8125 69.390625 
Q 13.765625 71.78125 18.9375 73 
Q 24.125 74.21875 28.421875 74.21875 
Q 39.75 74.21875 46.484375 68.546875 
Q 53.21875 62.890625 53.21875 53.421875 
Q 53.21875 48.921875 51.53125 44.890625 
Q 49.859375 40.875 45.40625 35.40625 
Q 44.1875 33.984375 37.640625 27.21875 
Q 31.109375 20.453125 19.1875 8.296875 
z
" id="DejaVuSans-50"/>
       <path d="M 31.78125 34.625 
Q 24.75 34.625 20.71875 30.859375 
Q 16.703125 27.09375 16.703125 20.515625 
Q 16.703125 13.921875 20.71875 10.15625 
Q 24.75 6.390625 31.78125 6.390625 
Q 38.8125 6.390625 42.859375 10.171875 
Q 46.921875 13.96875 46.921875 20.515625 
Q 46.921875 27.09375 42.890625 30.859375 
Q 38.875 34.625 31.78125 34.625 
z
M 21.921875 38.8125 
Q 15.578125 40.375 12.03125 44.71875 
Q 8.5 49.078125 8.5 55.328125 
Q 8.5 64.0625 14.71875 69.140625 
Q 20.953125 74.21875 31.78125 74.21875 
Q 42.671875 74.21875 48.875 69.140625 
Q 55.078125 64.0625 55.078125 55.328125 
Q 55.078125 49.078125 51.53125 44.71875 
Q 48 40.375 41.703125 38.8125 
Q 48.828125 37.15625 52.796875 32.3125 
Q 56.78125 27.484375 56.78125 20.515625 
Q 56.78125 9.90625 50.3125 4.234375 
Q 43.84375 -1.421875 31.78125 -1.421875 
Q 19.734375 -1.421875 13.25 4.234375 
Q 6.78125 9.90625 6.78125 20.515625 
Q 6.78125 27.484375 10.78125 32.3125 
Q 14.796875 37.15625 21.921875 38.8125 
z
M 18.3125 54.390625 
Q 18.3125 48.734375 21.84375 45.5625 
Q 25.390625 42.390625 31.78125 42.390625 
Q 38.140625 42.390625 41.71875 45.5625 
Q 45.3125 48.734375 45.3125 54.390625 
Q 45.3125 60.0625 41.71875 63.234375 
Q 38.140625 66.40625 31.78125 66.40625 
Q 25.390625 66.40625 21.84375 63.234375 
Q 18.3125 60.0625 18.3125 54.390625 
z
" id="DejaVuSans-56"/>
      </defs>
      <g transform="translate(247.219228 587.677187)scale(0.18 -0.18)">
       <use xlink:href="#DejaVuSans-50"/>
       <use x="63.623047" xlink:href="#DejaVuSans-48"/>
       <use x="127.246094" xlink:href="#DejaVuSans-48"/>
       <use x="190.869141" xlink:href="#DejaVuSans-49"/>
       <use x="254.492188" xlink:href="#DejaVuSans-45"/>
       <use x="290.576172" xlink:href="#DejaVuSans-48"/>
       <use x="354.199219" xlink:href="#DejaVuSans-56"/>
      </g>
     </g>
    </g>
    <g id="xtick_3">
     <g id="line2d_3">
      <g>
       <use style="stroke:#000000;stroke-width:0.8;" x="385.065701" xlink:href="#m2aa0637a1a" y="567"/>
      </g>
     </g>
     <g id="text_3">
      <!-- 2004-03 -->
      <defs>
       <path d="M 37.796875 64.3125 
L 12.890625 25.390625 
L 37.796875 25.390625 
z
M 35.203125 72.90625 
L 47.609375 72.90625 
L 47.609375 25.390625 
L 58.015625 25.390625 
L 58.015625 17.1875 
L 47.609375 17.1875 
L 47.609375 0 
L 37.796875 0 
L 37.796875 17.1875 
L 4.890625 17.1875 
L 4.890625 26.703125 
z
" id="DejaVuSans-52"/>
       <path d="M 40.578125 39.3125 
Q 47.65625 37.796875 51.625 33 
Q 55.609375 28.21875 55.609375 21.1875 
Q 55.609375 10.40625 48.1875 4.484375 
Q 40.765625 -1.421875 27.09375 -1.421875 
Q 22.515625 -1.421875 17.65625 -0.515625 
Q 12.796875 0.390625 7.625 2.203125 
L 7.625 11.71875 
Q 11.71875 9.328125 16.59375 8.109375 
Q 21.484375 6.890625 26.8125 6.890625 
Q 36.078125 6.890625 40.9375 10.546875 
Q 45.796875 14.203125 45.796875 21.1875 
Q 45.796875 27.640625 41.28125 31.265625 
Q 36.765625 34.90625 28.71875 34.90625 
L 20.21875 34.90625 
L 20.21875 43.015625 
L 29.109375 43.015625 
Q 36.375 43.015625 40.234375 45.921875 
Q 44.09375 48.828125 44.09375 54.296875 
Q 44.09375 59.90625 40.109375 62.90625 
Q 36.140625 65.921875 28.71875 65.921875 
Q 24.65625 65.921875 20.015625 65.03125 
Q 15.375 64.15625 9.8125 62.3125 
L 9.8125 71.09375 
Q 15.4375 72.65625 20.34375 73.4375 
Q 25.25 74.21875 29.59375 74.21875 
Q 40.828125 74.21875 47.359375 69.109375 
Q 53.90625 64.015625 53.90625 55.328125 
Q 53.90625 49.265625 50.4375 45.09375 
Q 46.96875 40.921875 40.578125 39.3125 
z
" id="DejaVuSans-51"/>
      </defs>
      <g transform="translate(347.46117 587.677187)scale(0.18 -0.18)">
       <use xlink:href="#DejaVuSans-50"/>
       <use x="63.623047" xlink:href="#DejaVuSans-48"/>
       <use x="127.246094" xlink:href="#DejaVuSans-48"/>
       <use x="190.869141" xlink:href="#DejaVuSans-52"/>
       <use x="254.492188" xlink:href="#DejaVuSans-45"/>
       <use x="290.576172" xlink:href="#DejaVuSans-48"/>
       <use x="354.199219" xlink:href="#DejaVuSans-51"/>
      </g>
     </g>
    </g>
    <g id="xtick_4">
     <g id="line2d_4">
      <g>
       <use style="stroke:#000000;stroke-width:0.8;" x="485.307642" xlink:href="#m2aa0637a1a" y="567"/>
      </g>
     </g>
     <g id="text_4">
      <!-- 2006-10 -->
      <defs>
       <path d="M 33.015625 40.375 
Q 26.375 40.375 22.484375 35.828125 
Q 18.609375 31.296875 18.609375 23.390625 
Q 18.609375 15.53125 22.484375 10.953125 
Q 26.375 6.390625 33.015625 6.390625 
Q 39.65625 6.390625 43.53125 10.953125 
Q 47.40625 15.53125 47.40625 23.390625 
Q 47.40625 31.296875 43.53125 35.828125 
Q 39.65625 40.375 33.015625 40.375 
z
M 52.59375 71.296875 
L 52.59375 62.3125 
Q 48.875 64.0625 45.09375 64.984375 
Q 41.3125 65.921875 37.59375 65.921875 
Q 27.828125 65.921875 22.671875 59.328125 
Q 17.53125 52.734375 16.796875 39.40625 
Q 19.671875 43.65625 24.015625 45.921875 
Q 28.375 48.1875 33.59375 48.1875 
Q 44.578125 48.1875 50.953125 41.515625 
Q 57.328125 34.859375 57.328125 23.390625 
Q 57.328125 12.15625 50.6875 5.359375 
Q 44.046875 -1.421875 33.015625 -1.421875 
Q 20.359375 -1.421875 13.671875 8.265625 
Q 6.984375 17.96875 6.984375 36.375 
Q 6.984375 53.65625 15.1875 63.9375 
Q 23.390625 74.21875 37.203125 74.21875 
Q 40.921875 74.21875 44.703125 73.484375 
Q 48.484375 72.75 52.59375 71.296875 
z
" id="DejaVuSans-54"/>
      </defs>
      <g transform="translate(447.703111 587.677187)scale(0.18 -0.18)">
       <use xlink:href="#DejaVuSans-50"/>
       <use x="63.623047" xlink:href="#DejaVuSans-48"/>
       <use x="127.246094" xlink:href="#DejaVuSans-48"/>
       <use x="190.869141" xlink:href="#DejaVuSans-54"/>
       <use x="254.492188" xlink:href="#DejaVuSans-45"/>
       <use x="290.576172" xlink:href="#DejaVuSans-49"/>
       <use x="354.199219" xlink:href="#DejaVuSans-48"/>
      </g>
     </g>
    </g>
    <g id="xtick_5">
     <g id="line2d_5">
      <g>
       <use style="stroke:#000000;stroke-width:0.8;" x="585.549583" xlink:href="#m2aa0637a1a" y="567"/>
      </g>
     </g>
     <g id="text_5">
      <!-- 2009-05 -->
      <defs>
       <path d="M 10.796875 72.90625 
L 49.515625 72.90625 
L 49.515625 64.59375 
L 19.828125 64.59375 
L 19.828125 46.734375 
Q 21.96875 47.46875 24.109375 47.828125 
Q 26.265625 48.1875 28.421875 48.1875 
Q 40.625 48.1875 47.75 41.5 
Q 54.890625 34.8125 54.890625 23.390625 
Q 54.890625 11.625 47.5625 5.09375 
Q 40.234375 -1.421875 26.90625 -1.421875 
Q 22.3125 -1.421875 17.546875 -0.640625 
Q 12.796875 0.140625 7.71875 1.703125 
L 7.71875 11.625 
Q 12.109375 9.234375 16.796875 8.0625 
Q 21.484375 6.890625 26.703125 6.890625 
Q 35.15625 6.890625 40.078125 11.328125 
Q 45.015625 15.765625 45.015625 23.390625 
Q 45.015625 31 40.078125 35.4375 
Q 35.15625 39.890625 26.703125 39.890625 
Q 22.75 39.890625 18.8125 39.015625 
Q 14.890625 38.140625 10.796875 36.28125 
z
" id="DejaVuSans-53"/>
      </defs>
      <g transform="translate(547.945052 587.677187)scale(0.18 -0.18)">
       <use xlink:href="#DejaVuSans-50"/>
       <use x="63.623047" xlink:href="#DejaVuSans-48"/>
       <use x="127.246094" xlink:href="#DejaVuSans-48"/>
       <use x="190.869141" xlink:href="#DejaVuSans-57"/>
       <use x="254.492188" xlink:href="#DejaVuSans-45"/>
       <use x="290.576172" xlink:href="#DejaVuSans-48"/>
       <use x="354.199219" xlink:href="#DejaVuSans-53"/>
      </g>
     </g>
    </g>
    <g id="xtick_6">
     <g id="line2d_6">
      <g>
       <use style="stroke:#000000;stroke-width:0.8;" x="685.791525" xlink:href="#m2aa0637a1a" y="567"/>
      </g>
     </g>
     <g id="text_6">
      <!-- 2011-12 -->
      <g transform="translate(648.186994 587.677187)scale(0.18 -0.18)">
       <use xlink:href="#DejaVuSans-50"/>
       <use x="63.623047" xlink:href="#DejaVuSans-48"/>
       <use x="127.246094" xlink:href="#DejaVuSans-49"/>
       <use x="190.869141" xlink:href="#DejaVuSans-49"/>
       <use x="254.492188" xlink:href="#DejaVuSans-45"/>
       <use x="290.576172" xlink:href="#DejaVuSans-49"/>
       <use x="354.199219" xlink:href="#DejaVuSans-50"/>
      </g>
     </g>
    </g>
    <g id="xtick_7">
     <g id="line2d_7">
      <g>
       <use style="stroke:#000000;stroke-width:0.8;" x="786.033466" xlink:href="#m2aa0637a1a" y="567"/>
      </g>
     </g>
     <g id="text_7">
      <!-- 2014-07 -->
      <defs>
       <path d="M 8.203125 72.90625 
L 55.078125 72.90625 
L 55.078125 68.703125 
L 28.609375 0 
L 18.3125 0 
L 43.21875 64.59375 
L 8.203125 64.59375 
z
" id="DejaVuSans-55"/>
      </defs>
      <g transform="translate(748.428935 587.677187)scale(0.18 -0.18)">
       <use xlink:href="#DejaVuSans-50"/>
       <use x="63.623047" xlink:href="#DejaVuSans-48"/>
       <use x="127.246094" xlink:href="#DejaVuSans-49"/>
       <use x="190.869141" xlink:href="#DejaVuSans-52"/>
       <use x="254.492188" xlink:href="#DejaVuSans-45"/>
       <use x="290.576172" xlink:href="#DejaVuSans-48"/>
       <use x="354.199219" xlink:href="#DejaVuSans-55"/>
      </g>
     </g>
    </g>
    <g id="xtick_8">
     <g id="line2d_8">
      <g>
       <use style="stroke:#000000;stroke-width:0.8;" x="886.275407" xlink:href="#m2aa0637a1a" y="567"/>
      </g>
     </g>
     <g id="text_8">
      <!-- 2017-02 -->
      <g transform="translate(848.670876 587.677187)scale(0.18 -0.18)">
       <use xlink:href="#DejaVuSans-50"/>
       <use x="63.623047" xlink:href="#DejaVuSans-48"/>
       <use x="127.246094" xlink:href="#DejaVuSans-49"/>
       <use x="190.869141" xlink:href="#DejaVuSans-55"/>
       <use x="254.492188" xlink:href="#DejaVuSans-45"/>
       <use x="290.576172" xlink:href="#DejaVuSans-48"/>
       <use x="354.199219" xlink:href="#DejaVuSans-50"/>
      </g>
     </g>
    </g>
    <g id="xtick_9">
     <g id="line2d_9">
      <g>
       <use style="stroke:#000000;stroke-width:0.8;" x="986.517349" xlink:href="#m2aa0637a1a" y="567"/>
      </g>
     </g>
     <g id="text_9">
      <!-- 2019-09 -->
      <g transform="translate(948.912818 587.677187)scale(0.18 -0.18)">
       <use xlink:href="#DejaVuSans-50"/>
       <use x="63.623047" xlink:href="#DejaVuSans-48"/>
       <use x="127.246094" xlink:href="#DejaVuSans-49"/>
       <use x="190.869141" xlink:href="#DejaVuSans-57"/>
       <use x="254.492188" xlink:href="#DejaVuSans-45"/>
       <use x="290.576172" xlink:href="#DejaVuSans-48"/>
       <use x="354.199219" xlink:href="#DejaVuSans-57"/>
      </g>
     </g>
    </g>
    <g id="text_10">
     <!-- Time -->
     <defs>
      <path d="M -0.296875 72.90625 
L 61.375 72.90625 
L 61.375 64.59375 
L 35.5 64.59375 
L 35.5 0 
L 25.59375 0 
L 25.59375 64.59375 
L -0.296875 64.59375 
z
" id="DejaVuSans-84"/>
      <path d="M 9.421875 54.6875 
L 18.40625 54.6875 
L 18.40625 0 
L 9.421875 0 
z
M 9.421875 75.984375 
L 18.40625 75.984375 
L 18.40625 64.59375 
L 9.421875 64.59375 
z
" id="DejaVuSans-105"/>
      <path d="M 52 44.1875 
Q 55.375 50.25 60.0625 53.125 
Q 64.75 56 71.09375 56 
Q 79.640625 56 84.28125 50.015625 
Q 88.921875 44.046875 88.921875 33.015625 
L 88.921875 0 
L 79.890625 0 
L 79.890625 32.71875 
Q 79.890625 40.578125 77.09375 44.375 
Q 74.3125 48.1875 68.609375 48.1875 
Q 61.625 48.1875 57.5625 43.546875 
Q 53.515625 38.921875 53.515625 30.90625 
L 53.515625 0 
L 44.484375 0 
L 44.484375 32.71875 
Q 44.484375 40.625 41.703125 44.40625 
Q 38.921875 48.1875 33.109375 48.1875 
Q 26.21875 48.1875 22.15625 43.53125 
Q 18.109375 38.875 18.109375 30.90625 
L 18.109375 0 
L 9.078125 0 
L 9.078125 54.6875 
L 18.109375 54.6875 
L 18.109375 46.1875 
Q 21.1875 51.21875 25.484375 53.609375 
Q 29.78125 56 35.6875 56 
Q 41.65625 56 45.828125 52.96875 
Q 50 49.953125 52 44.1875 
z
" id="DejaVuSans-109"/>
      <path d="M 56.203125 29.59375 
L 56.203125 25.203125 
L 14.890625 25.203125 
Q 15.484375 15.921875 20.484375 11.0625 
Q 25.484375 6.203125 34.421875 6.203125 
Q 39.59375 6.203125 44.453125 7.46875 
Q 49.3125 8.734375 54.109375 11.28125 
L 54.109375 2.78125 
Q 49.265625 0.734375 44.1875 -0.34375 
Q 39.109375 -1.421875 33.890625 -1.421875 
Q 20.796875 -1.421875 13.15625 6.1875 
Q 5.515625 13.8125 5.515625 26.8125 
Q 5.515625 40.234375 12.765625 48.109375 
Q 20.015625 56 32.328125 56 
Q 43.359375 56 49.78125 48.890625 
Q 56.203125 41.796875 56.203125 29.59375 
z
M 47.21875 32.234375 
Q 47.125 39.59375 43.09375 43.984375 
Q 39.0625 48.390625 32.421875 48.390625 
Q 24.90625 48.390625 20.390625 44.140625 
Q 15.875 39.890625 15.1875 32.171875 
z
" id="DejaVuSans-101"/>
     </defs>
     <g transform="translate(568.1025 609.097813)scale(0.18 -0.18)">
      <use xlink:href="#DejaVuSans-84"/>
      <use x="61.037109" xlink:href="#DejaVuSans-105"/>
      <use x="88.820312" xlink:href="#DejaVuSans-109"/>
      <use x="186.232422" xlink:href="#DejaVuSans-101"/>
     </g>
    </g>
   </g>
   <g id="matplotlib.axis_2">
    <g id="ytick_1">
     <g id="line2d_10">
      <defs>
       <path d="M 0 0 
L -3.5 0 
" id="m20448de620" style="stroke:#000000;stroke-width:0.8;"/>
      </defs>
      <g>
       <use style="stroke:#000000;stroke-width:0.8;" x="144" xlink:href="#m20448de620" y="544.761818"/>
      </g>
     </g>
     <g id="text_11">
      <!-- 0 -->
      <g transform="translate(125.5475 551.600412)scale(0.18 -0.18)">
       <use xlink:href="#DejaVuSans-48"/>
      </g>
     </g>
    </g>
    <g id="ytick_2">
     <g id="line2d_11">
      <g>
       <use style="stroke:#000000;stroke-width:0.8;" x="144" xlink:href="#m20448de620" y="471.765758"/>
      </g>
     </g>
     <g id="text_12">
      <!-- 10 -->
      <g transform="translate(114.095 478.604352)scale(0.18 -0.18)">
       <use xlink:href="#DejaVuSans-49"/>
       <use x="63.623047" xlink:href="#DejaVuSans-48"/>
      </g>
     </g>
    </g>
    <g id="ytick_3">
     <g id="line2d_12">
      <g>
       <use style="stroke:#000000;stroke-width:0.8;" x="144" xlink:href="#m20448de620" y="398.769698"/>
      </g>
     </g>
     <g id="text_13">
      <!-- 20 -->
      <g transform="translate(114.095 405.608291)scale(0.18 -0.18)">
       <use xlink:href="#DejaVuSans-50"/>
       <use x="63.623047" xlink:href="#DejaVuSans-48"/>
      </g>
     </g>
    </g>
    <g id="ytick_4">
     <g id="line2d_13">
      <g>
       <use style="stroke:#000000;stroke-width:0.8;" x="144" xlink:href="#m20448de620" y="325.773637"/>
      </g>
     </g>
     <g id="text_14">
      <!-- 30 -->
      <g transform="translate(114.095 332.612231)scale(0.18 -0.18)">
       <use xlink:href="#DejaVuSans-51"/>
       <use x="63.623047" xlink:href="#DejaVuSans-48"/>
      </g>
     </g>
    </g>
    <g id="ytick_5">
     <g id="line2d_14">
      <g>
       <use style="stroke:#000000;stroke-width:0.8;" x="144" xlink:href="#m20448de620" y="252.777577"/>
      </g>
     </g>
     <g id="text_15">
      <!-- 40 -->
      <g transform="translate(114.095 259.616171)scale(0.18 -0.18)">
       <use xlink:href="#DejaVuSans-52"/>
       <use x="63.623047" xlink:href="#DejaVuSans-48"/>
      </g>
     </g>
    </g>
    <g id="ytick_6">
     <g id="line2d_15">
      <g>
       <use style="stroke:#000000;stroke-width:0.8;" x="144" xlink:href="#m20448de620" y="179.781517"/>
      </g>
     </g>
     <g id="text_16">
      <!-- 50 -->
      <g transform="translate(114.095 186.62011)scale(0.18 -0.18)">
       <use xlink:href="#DejaVuSans-53"/>
       <use x="63.623047" xlink:href="#DejaVuSans-48"/>
      </g>
     </g>
    </g>
    <g id="ytick_7">
     <g id="line2d_16">
      <g>
       <use style="stroke:#000000;stroke-width:0.8;" x="144" xlink:href="#m20448de620" y="106.785456"/>
      </g>
     </g>
     <g id="text_17">
      <!-- 60 -->
      <g transform="translate(114.095 113.62405)scale(0.18 -0.18)">
       <use xlink:href="#DejaVuSans-54"/>
       <use x="63.623047" xlink:href="#DejaVuSans-48"/>
      </g>
     </g>
    </g>
   </g>
   <g id="line2d_17">
    <path clip-path="url(#pc309ef680e)" d="M 184.581818 544.761818 
L 187.815429 544.761818 
L 191.04904 534.459178 
L 200.749873 534.459178 
L 203.983484 524.156538 
L 207.217095 544.761818 
L 210.450706 544.761818 
L 213.684317 534.459178 
L 216.917928 544.761818 
L 220.151539 524.156538 
L 223.38515 534.235129 
L 226.618761 502.655063 
L 229.852372 534.235129 
L 233.085983 513.181752 
L 236.319594 513.181752 
L 239.553205 534.235129 
L 242.786816 544.761818 
L 262.188482 544.761818 
L 265.422093 533.907547 
L 268.655704 544.761818 
L 271.889315 533.907547 
L 275.122926 533.907547 
L 278.356537 544.761818 
L 297.758204 544.761818 
L 300.991815 500.670689 
L 304.225426 489.647907 
L 307.459037 467.602343 
L 310.692648 511.693472 
L 313.926259 511.693472 
L 317.15987 533.739036 
L 320.393481 533.739036 
L 323.627092 544.761818 
L 326.860703 533.739036 
L 330.094314 467.602343 
L 333.327925 511.693472 
L 336.561536 533.739036 
L 339.795147 544.761818 
L 343.028758 544.761818 
L 346.262369 414.187869 
L 349.49598 522.999493 
L 352.729591 479.474844 
L 355.963202 522.999493 
L 359.196813 512.118331 
L 368.897646 512.118331 
L 372.131257 522.999493 
L 375.364868 501.237169 
L 378.598479 513.124448 
L 381.83209 492.032868 
L 385.065701 523.670238 
L 388.299312 481.487078 
L 391.532923 534.216028 
L 394.766534 470.941288 
L 398.000145 523.670238 
L 401.233756 544.761818 
L 404.467367 544.761818 
L 407.700978 534.216028 
L 410.934589 544.761818 
L 417.401811 544.761818 
L 420.635422 534.486385 
L 423.869033 544.761818 
L 427.102644 544.761818 
L 430.336255 534.486385 
L 433.569866 544.761818 
L 440.037088 544.761818 
L 443.270699 513.935519 
L 446.50431 513.935519 
L 449.737921 544.761818 
L 452.971532 524.210952 
L 456.205143 514.564299 
L 459.438754 474.30094 
L 462.672365 504.498459 
L 465.905976 383.708383 
L 469.139587 293.115826 
L 472.373198 373.642543 
L 475.606809 494.43262 
L 478.84042 494.43262 
L 482.074031 534.695978 
L 485.307642 534.695978 
L 488.541253 544.761818 
L 491.774864 544.761818 
L 495.008475 534.97332 
L 504.709308 534.97332 
L 507.942919 446.876838 
L 511.17653 437.088339 
L 514.410141 417.511343 
L 517.643752 388.145849 
L 520.877363 446.876838 
L 524.110974 456.665336 
L 527.344585 368.568853 
L 530.578196 417.511343 
L 533.811807 525.871183 
L 537.045418 421.972687 
L 540.279029 412.52737 
L 543.51264 421.972687 
L 546.746251 403.082052 
L 549.979862 469.199276 
L 553.213473 450.308641 
L 556.447084 440.863323 
L 559.680695 488.089912 
L 562.914306 469.199276 
L 566.147917 431.418005 
L 569.381528 488.089912 
L 572.615139 498.295925 
L 575.84875 433.243673 
L 579.082361 433.243673 
L 582.315972 321.725529 
L 585.549583 358.898244 
L 588.783194 470.416388 
L 595.250417 526.175461 
L 598.484028 544.761818 
L 601.717639 535.468639 
L 608.184861 535.468639 
L 614.652083 516.945353 
L 617.885694 535.489663 
L 624.352916 516.945353 
L 627.586527 489.128888 
L 630.820138 489.128888 
L 634.053749 424.223803 
L 637.28736 535.489663 
L 640.520971 516.945353 
L 643.754582 544.761818 
L 650.221804 544.761818 
L 653.455415 508.102855 
L 656.689026 489.773374 
L 659.922637 453.114411 
L 663.156248 434.784929 
L 666.389859 453.114411 
L 669.62347 480.608633 
L 672.857081 526.432337 
L 676.090692 508.102855 
L 679.324303 544.761818 
L 682.557914 526.432337 
L 685.791525 535.597077 
L 689.025136 526.70504 
L 692.258747 364.194037 
L 695.492358 364.194037 
L 698.725969 409.335982 
L 701.95958 300.995314 
L 705.193191 328.080481 
L 708.426802 427.392761 
L 711.660413 355.165648 
L 714.894024 445.449539 
L 718.127635 418.364372 
L 721.361246 300.995314 
L 724.594857 328.080481 
L 727.828468 299.687978 
L 731.062079 272.457551 
L 734.29569 281.53436 
L 737.529301 99.998182 
L 740.762912 390.456067 
L 743.996523 435.840111 
L 747.230134 526.6082 
L 750.463745 526.6082 
L 753.697356 535.685009 
L 756.930967 535.685009 
L 760.164578 544.761818 
L 763.398189 544.761818 
L 766.6318 507.585554 
L 769.865411 479.703355 
L 773.099022 507.585554 
L 776.332633 544.761818 
L 782.799855 544.761818 
L 786.033466 498.291487 
L 789.267077 544.761818 
L 811.902354 544.761818 
L 815.135965 535.37339 
L 818.369576 516.596534 
L 821.603187 525.984962 
L 824.836798 544.761818 
L 837.771242 544.761818 
L 841.004853 525.984962 
L 844.238464 526.035517 
L 847.472075 544.761818 
L 850.705686 488.582913 
L 853.939297 497.946064 
L 857.172908 526.035517 
L 860.406519 516.672366 
L 863.64013 479.219762 
L 866.873741 535.398667 
L 870.107352 544.761818 
L 873.340963 516.672366 
L 876.574574 544.761818 
L 883.041796 544.761818 
L 886.275407 535.316476 
L 889.509018 544.761818 
L 899.209852 516.425792 
L 902.443463 525.871134 
L 905.677074 544.761818 
L 908.910685 535.316476 
L 912.144296 544.761818 
L 915.377907 365.300316 
L 918.611518 431.417712 
L 921.845129 487.765632 
L 925.07874 468.766904 
L 928.312351 421.270082 
L 931.545962 307.27771 
L 934.779573 440.268811 
L 938.013184 459.267539 
L 944.480406 535.262454 
L 950.947628 516.263725 
L 954.181239 497.264997 
L 957.41485 535.262454 
L 960.648461 459.267539 
L 963.882072 364.273896 
L 967.115683 364.273896 
L 970.349294 392.771989 
L 973.582905 478.266268 
L 976.816516 478.266268 
L 980.050127 506.764361 
L 983.283738 525.76309 
L 986.517349 535.262454 
L 989.75096 525.76309 
L 992.984571 544.761818 
L 996.218182 535.262454 
L 996.218182 535.262454 
" style="fill:none;stroke:#1f77b4;stroke-linecap:square;stroke-width:2.5;"/>
   </g>
   <g id="line2d_18">
    <path clip-path="url(#pc309ef680e)" d="M 184.581818 542.256035 
L 187.815429 537.244467 
L 191.04904 544.761818 
L 194.282651 539.750251 
L 197.516262 539.750251 
L 200.749873 542.256035 
L 203.983484 542.256035 
L 207.217095 539.750251 
L 210.450706 539.750251 
L 213.684317 544.761818 
L 216.917928 532.2329 
L 220.151539 517.198197 
L 223.38515 534.63235 
L 226.618761 514.373415 
L 229.852372 534.63235 
L 233.085983 532.099983 
L 236.319594 511.841048 
L 239.553205 537.164717 
L 242.786816 544.761818 
L 246.020427 544.761818 
L 249.254038 542.229451 
L 252.487649 544.761818 
L 262.188482 537.062037 
L 265.422093 539.62863 
L 268.655704 539.62863 
L 271.889315 542.195224 
L 275.122926 539.62863 
L 278.356537 539.62863 
L 284.82376 544.761818 
L 291.290982 544.761818 
L 294.524593 542.195224 
L 297.758204 524.229067 
L 300.991815 476.784741 
L 304.225426 502.929771 
L 307.459037 502.929771 
L 310.692648 526.460297 
L 313.926259 500.315268 
L 317.15987 539.532812 
L 320.393481 536.918309 
L 323.627092 542.147315 
L 326.860703 536.918309 
L 330.094314 510.77328 
L 333.327925 508.158777 
L 336.561536 536.918309 
L 339.795147 518.155809 
L 343.028758 494.210401 
L 346.262369 475.586195 
L 349.49598 520.81641 
L 352.729591 491.5498 
L 355.963202 496.871002 
L 359.196813 536.780015 
L 362.430424 520.81641 
L 365.664035 515.495208 
L 368.897646 515.495208 
L 372.131257 520.81641 
L 375.364868 523.477011 
L 378.598479 536.689899 
L 381.83209 533.999259 
L 385.065701 525.92734 
L 388.299312 485.567744 
L 391.532923 496.330303 
L 394.766534 515.164781 
L 398.000145 520.546061 
L 401.233756 542.071179 
L 404.467367 544.761818 
L 410.934589 544.761818 
L 414.1682 542.071179 
L 417.401811 544.761818 
L 420.635422 531.315657 
L 423.869033 539.383354 
L 427.102644 523.247961 
L 430.336255 528.626425 
L 433.569866 544.761818 
L 440.037088 544.761818 
L 443.270699 534.00489 
L 446.50431 542.072586 
L 449.737921 531.315657 
L 452.971532 539.383354 
L 456.205143 520.846979 
L 459.438754 478.33171 
L 462.672365 478.33171 
L 465.905976 422.530419 
L 469.139587 390.643967 
L 472.373198 433.159236 
L 475.606809 483.646119 
L 478.84042 531.475797 
L 482.074031 534.133001 
L 485.307642 534.133001 
L 488.541253 542.104614 
L 491.774864 542.104614 
L 495.008475 539.559601 
L 498.242086 544.761818 
L 501.475697 539.559601 
L 504.709308 521.351839 
L 511.17653 438.116358 
L 514.410141 430.313032 
L 517.643752 383.493074 
L 520.877363 440.717467 
L 524.110974 456.32412 
L 527.344585 477.13299 
L 530.578196 474.531881 
L 533.811807 489.076983 
L 537.045418 481.483597 
L 540.279029 476.421339 
L 543.51264 458.703437 
L 546.746251 425.798762 
L 549.979862 448.578922 
L 553.213473 484.014726 
L 556.447084 468.827953 
L 559.680695 499.201499 
L 562.914306 466.296824 
L 566.147917 466.296824 
L 569.381528 489.076983 
L 572.615139 470.953647 
L 575.84875 453.73174 
L 579.082361 443.89065 
L 582.315972 372.542751 
L 585.549583 370.082479 
L 588.783194 421.748199 
L 592.016806 510.318005 
L 595.250417 520.159094 
L 598.484028 539.841273 
L 601.717639 539.841273 
L 604.95125 542.301546 
L 608.184861 542.301546 
L 611.418472 539.966525 
L 614.652083 542.364172 
L 617.885694 537.568879 
L 621.119305 530.375939 
L 624.352916 511.194767 
L 627.586527 515.99006 
L 630.820138 506.399474 
L 634.053749 501.604181 
L 637.28736 527.978293 
L 640.520971 535.171232 
L 646.988193 539.966525 
L 650.221804 540.055786 
L 653.455415 523.584675 
L 656.689026 514.172611 
L 659.922637 483.583404 
L 663.156248 485.93642 
L 666.389859 514.172611 
L 669.62347 497.7015 
L 672.857081 516.525627 
L 676.090692 518.878643 
L 679.324303 516.525627 
L 682.557914 490.642452 
L 685.791525 525.937691 
L 689.025136 528.556343 
L 692.258747 477.624848 
L 695.492358 470.679644 
L 698.725969 470.679644 
L 701.95958 410.487877 
L 705.193191 482.254984 
L 708.426802 484.570051 
L 711.660413 475.30978 
L 714.894024 503.090595 
L 718.127635 468.364576 
L 721.361246 442.898828 
L 724.594857 429.008421 
L 727.828468 423.89114 
L 731.062079 430.732877 
L 734.29569 401.085352 
L 737.529301 387.401879 
L 740.762912 474.063874 
L 743.996523 474.063874 
L 747.230134 508.272557 
L 750.463745 535.639503 
L 753.697356 542.481239 
L 756.930967 540.200661 
L 760.164578 542.481239 
L 763.398189 542.481239 
L 766.6318 528.964463 
L 769.865411 526.707697 
L 773.099022 528.964463 
L 776.332633 537.991523 
L 779.566244 542.505053 
L 782.799855 537.991523 
L 786.033466 528.964463 
L 789.267077 542.505053 
L 792.500688 544.761818 
L 798.96791 540.248288 
L 805.435132 544.761818 
L 808.668743 540.26861 
L 811.902354 544.761818 
L 815.135965 544.761818 
L 818.369576 535.775401 
L 821.603187 540.26861 
L 824.836798 540.26861 
L 828.070409 544.761818 
L 834.537631 544.761818 
L 837.771242 538.022005 
L 841.004853 540.26861 
L 844.238464 544.761818 
L 847.472075 542.509615 
L 850.705686 531.248596 
L 853.939297 531.248596 
L 857.172908 526.744189 
L 863.64013 526.744189 
L 866.873741 528.996393 
L 870.107352 528.996393 
L 873.340963 540.257411 
L 876.574574 540.257411 
L 879.808185 544.761818 
L 883.041796 542.491125 
L 886.275407 544.761818 
L 892.742629 531.13766 
L 895.97624 535.679046 
L 899.209852 533.408353 
L 902.443463 544.761818 
L 908.910685 540.220432 
L 912.144296 531.13766 
L 915.377907 506.160036 
L 918.611518 517.513502 
L 921.845129 517.218933 
L 925.07874 519.514173 
L 928.312351 494.266528 
L 931.545962 496.561769 
L 934.779573 482.790326 
L 938.013184 512.628452 
L 941.246795 533.285616 
L 944.480406 528.695135 
L 947.714017 540.171337 
L 950.947628 535.580856 
L 954.181239 517.218933 
L 957.41485 526.399895 
L 960.648461 466.723643 
L 963.882072 498.857009 
L 967.115683 501.152249 
L 970.349294 489.676047 
L 973.582905 505.74273 
L 976.816516 530.990375 
L 980.050127 524.104654 
L 983.283738 542.466578 
L 986.517349 537.876097 
L 989.75096 530.990375 
L 992.984571 542.466578 
L 996.218182 533.285616 
L 996.218182 533.285616 
" style="fill:none;stroke:#ff7f0e;stroke-linecap:square;stroke-width:2.5;"/>
   </g>
   <g id="line2d_19">
    <path clip-path="url(#pc309ef680e)" d="M 184.581818 544.761818 
L 191.04904 544.761818 
L 194.282651 542.873041 
L 197.516262 544.761818 
L 200.749873 544.761818 
L 203.983484 542.873041 
L 207.217095 542.873041 
L 210.450706 544.761818 
L 216.917928 540.984264 
L 220.151539 518.318939 
L 223.38515 539.044087 
L 226.618761 531.420446 
L 229.852372 542.855908 
L 236.319594 542.855908 
L 239.553205 544.761818 
L 242.786816 540.949998 
L 246.020427 544.761818 
L 249.254038 540.949998 
L 255.72126 544.761818 
L 275.122926 544.761818 
L 278.356537 542.825126 
L 284.82376 542.825126 
L 288.057371 538.951743 
L 291.290982 544.761818 
L 294.524593 542.825126 
L 297.758204 542.825126 
L 300.991815 519.236764 
L 304.225426 532.981024 
L 307.459037 544.761818 
L 310.692648 544.761818 
L 313.926259 529.054092 
L 317.15987 540.834887 
L 320.393481 544.761818 
L 323.627092 542.798352 
L 326.860703 529.054092 
L 333.327925 540.834887 
L 336.561536 529.054092 
L 339.795147 532.891372 
L 343.028758 521.020927 
L 346.262369 511.128888 
L 349.49598 524.977742 
L 352.729591 493.32322 
L 355.963202 526.956149 
L 359.196813 536.848188 
L 362.430424 530.912965 
L 365.664035 536.848188 
L 368.897646 534.86978 
L 372.131257 517.064111 
L 375.364868 540.805003 
L 381.83209 544.761818 
L 385.065701 536.793923 
L 388.299312 538.785897 
L 391.532923 528.826028 
L 394.766534 530.818001 
L 398.000145 528.826028 
L 401.233756 538.785897 
L 404.467367 542.769844 
L 407.700978 544.761818 
L 410.934589 544.761818 
L 417.401811 540.742409 
L 420.635422 544.761818 
L 423.869033 544.761818 
L 427.102644 540.742409 
L 430.336255 540.742409 
L 433.569866 544.761818 
L 436.803477 544.761818 
L 440.037088 540.742409 
L 443.270699 540.742409 
L 446.50431 544.761818 
L 449.737921 544.761818 
L 456.205143 540.691809 
L 459.438754 526.446777 
L 462.672365 493.886705 
L 465.905976 463.361637 
L 469.139587 477.606669 
L 472.373198 481.676678 
L 475.606809 522.376768 
L 478.84042 538.656805 
L 482.074031 544.761818 
L 485.307642 542.726814 
L 488.541253 544.761818 
L 495.008475 540.62493 
L 498.242086 536.488041 
L 501.475697 542.693374 
L 504.709308 524.077375 
L 507.942919 495.119156 
L 511.17653 472.366269 
L 514.410141 428.928939 
L 517.643752 466.160936 
L 520.877363 501.324489 
L 524.110974 493.050711 
L 530.578196 526.14582 
L 533.811807 502.807564 
L 537.045418 515.39384 
L 540.279029 492.319 
L 543.51264 486.025862 
L 546.746251 450.364746 
L 549.979862 431.485331 
L 553.213473 492.319 
L 556.447084 507.002989 
L 559.680695 511.198415 
L 562.914306 492.319 
L 566.147917 488.123575 
L 569.381528 515.39384 
L 572.615139 491.999344 
L 575.84875 454.010362 
L 579.082361 477.225851 
L 582.315972 445.568366 
L 585.549583 407.579385 
L 588.783194 454.010362 
L 592.016806 517.325332 
L 595.250417 529.988325 
L 598.484028 540.54082 
L 604.95125 544.761818 
L 617.885694 544.761818 
L 624.352916 532.126636 
L 627.586527 536.338363 
L 630.820138 513.173862 
L 634.053749 527.914908 
L 637.28736 527.914908 
L 640.520971 544.761818 
L 643.754582 542.655954 
L 646.988193 544.761818 
L 650.221804 534.354464 
L 653.455415 538.517406 
L 656.689026 509.376813 
L 659.922637 492.725046 
L 663.156248 465.665924 
L 666.389859 494.806517 
L 672.857081 511.458284 
L 676.090692 534.354464 
L 679.324303 519.784167 
L 682.557914 523.947109 
L 685.791525 519.784167 
L 689.025136 524.422308 
L 692.258747 514.252553 
L 695.492358 493.913043 
L 698.725969 449.166122 
L 701.95958 428.826612 
L 705.193191 485.77724 
L 708.426802 489.845142 
L 711.660413 500.014896 
L 714.894024 493.913043 
L 718.127635 493.913043 
L 724.594857 449.166122 
L 727.828468 473.762707 
L 731.062079 436.290953 
L 734.29569 463.901719 
L 737.529301 461.929521 
L 740.762912 497.429077 
L 743.996523 513.206657 
L 747.230134 515.178855 
L 750.463745 542.789621 
L 753.697356 540.817423 
L 756.930967 532.928633 
L 760.164578 542.789621 
L 763.398189 538.845226 
L 766.6318 539.014634 
L 769.865411 542.84609 
L 773.099022 540.930362 
L 776.332633 544.761818 
L 782.799855 544.761818 
L 786.033466 540.930362 
L 789.267077 544.761818 
L 805.435132 544.761818 
L 808.668743 541.025 
L 811.902354 544.761818 
L 815.135965 539.15659 
L 818.369576 537.288181 
L 821.603187 544.761818 
L 837.771242 544.761818 
L 841.004853 542.893409 
L 844.238464 542.935069 
L 847.472075 544.761818 
L 850.705686 535.628074 
L 853.939297 531.974577 
L 857.172908 537.454823 
L 860.406519 533.801325 
L 866.873741 533.801325 
L 870.107352 541.108321 
L 873.340963 541.108321 
L 876.574574 539.281572 
L 879.808185 544.761818 
L 886.275407 544.761818 
L 889.509018 542.970703 
L 895.97624 542.970703 
L 899.209852 539.388472 
L 902.443463 539.388472 
L 905.677074 542.970703 
L 908.910685 537.597357 
L 912.144296 530.432896 
L 915.377907 528.641781 
L 918.611518 541.179588 
L 921.845129 537.687072 
L 925.07874 527.074954 
L 928.312351 521.768894 
L 931.545962 518.231521 
L 934.779573 509.388089 
L 938.013184 521.768894 
L 941.246795 539.455759 
L 944.480406 532.381013 
L 947.714017 544.761818 
L 950.947628 534.149699 
L 954.181239 541.224445 
L 957.41485 542.993132 
L 960.648461 521.768894 
L 963.882072 532.381013 
L 967.115683 520.000208 
L 970.349294 518.231521 
L 973.582905 525.306267 
L 976.816516 512.925462 
L 980.050127 527.074954 
L 983.283738 542.993132 
L 986.517349 541.224445 
L 989.75096 535.918386 
L 992.984571 544.761818 
L 996.218182 542.993132 
L 996.218182 542.993132 
" style="fill:none;stroke:#2ca02c;stroke-linecap:square;stroke-width:2.5;"/>
   </g>
   <g id="line2d_20">
    <path clip-path="url(#pc309ef680e)" d="M 184.581818 544.761818 
L 194.282651 544.761818 
L 197.516262 540.921501 
L 200.749873 542.84166 
L 203.983484 539.001342 
L 207.217095 544.761818 
L 216.917928 544.761818 
L 220.151539 537.081184 
L 223.38515 542.860011 
L 226.618761 533.350978 
L 229.852372 542.860011 
L 233.085983 537.154591 
L 236.319594 544.761818 
L 239.553205 544.761818 
L 242.786816 542.860011 
L 246.020427 544.761818 
L 271.889315 544.761818 
L 275.122926 542.875285 
L 278.356537 542.875285 
L 281.590148 544.761818 
L 288.057371 544.761818 
L 291.290982 542.875285 
L 297.758204 542.875285 
L 300.991815 537.274162 
L 304.225426 539.146076 
L 307.459037 544.761818 
L 310.692648 544.761818 
L 313.926259 537.274162 
L 317.15987 544.761818 
L 320.393481 542.889904 
L 323.627092 542.889904 
L 326.860703 537.274162 
L 330.094314 529.786505 
L 333.327925 535.402247 
L 336.561536 539.146076 
L 339.795147 535.408745 
L 343.028758 533.53813 
L 346.262369 527.926286 
L 349.49598 539.149974 
L 352.729591 535.408745 
L 355.963202 541.020589 
L 359.196813 531.667516 
L 362.430424 533.53813 
L 368.897646 541.020589 
L 375.364868 544.761818 
L 378.598479 544.761818 
L 385.065701 537.251528 
L 388.299312 535.373955 
L 391.532923 537.251528 
L 394.766534 537.251528 
L 398.000145 541.006673 
L 401.233756 541.006673 
L 404.467367 544.761818 
L 407.700978 542.884246 
L 410.934589 544.761818 
L 420.635422 544.761818 
L 423.869033 540.985027 
L 427.102644 544.761818 
L 436.803477 544.761818 
L 440.037088 542.873423 
L 443.270699 544.761818 
L 446.50431 542.873423 
L 449.737921 544.761818 
L 452.971532 544.761818 
L 456.205143 540.948458 
L 459.438754 527.601699 
L 462.672365 510.441579 
L 465.905976 518.068299 
L 469.139587 512.348259 
L 472.373198 529.508378 
L 475.606809 533.321738 
L 478.84042 544.761818 
L 495.008475 544.761818 
L 498.242086 542.83877 
L 501.475697 542.83877 
L 504.709308 535.146578 
L 507.942919 523.608289 
L 511.17653 515.916096 
L 514.410141 492.839519 
L 517.643752 496.685615 
L 520.877363 529.377433 
L 524.110974 519.762193 
L 527.344585 525.531337 
L 530.578196 517.839145 
L 533.811807 525.422496 
L 537.045418 523.488563 
L 540.279029 471.272392 
L 543.51264 492.545647 
L 546.746251 480.942054 
L 549.979862 494.47958 
L 553.213473 502.215309 
L 556.447084 523.488563 
L 559.680695 523.488563 
L 562.914306 500.281376 
L 566.147917 486.743851 
L 569.381528 523.488563 
L 572.615139 499.973559 
L 575.84875 499.973559 
L 579.082361 476.605772 
L 582.315972 420.133619 
L 585.549583 431.817513 
L 588.783194 486.34235 
L 592.016806 533.077925 
L 595.250417 540.867187 
L 598.484028 538.919871 
L 601.717639 542.814503 
L 604.95125 544.761818 
L 608.184861 544.761818 
L 611.418472 542.799393 
L 614.652083 544.761818 
L 621.119305 540.836969 
L 624.352916 513.363021 
L 627.586527 534.949694 
L 630.820138 507.475747 
L 634.053749 531.024845 
L 637.28736 532.987269 
L 640.520971 542.799393 
L 643.754582 542.799393 
L 646.988193 538.874544 
L 650.221804 536.825439 
L 653.455415 540.793628 
L 656.689026 483.254877 
L 659.922637 471.350308 
L 663.156248 481.270783 
L 666.389859 461.429834 
L 669.62347 505.079921 
L 672.857081 528.889059 
L 679.324303 513.0163 
L 682.557914 511.032206 
L 685.791525 511.032206 
L 689.025136 532.64457 
L 692.258747 508.410074 
L 695.492358 494.273284 
L 698.725969 431.667501 
L 701.95958 417.530712 
L 705.193191 445.804291 
L 708.426802 480.136494 
L 711.660413 504.370991 
L 714.894024 490.234201 
L 718.127635 480.136494 
L 721.361246 457.921539 
L 724.594857 409.452546 
L 727.828468 394.836605 
L 731.062079 394.836605 
L 734.29569 322.954653 
L 737.529301 283.933022 
L 740.762912 423.589385 
L 743.996523 520.116578 
L 747.230134 520.116578 
L 750.463745 534.492968 
L 753.697356 538.600508 
L 756.930967 520.116578 
L 760.164578 534.492968 
L 763.398189 542.708048 
L 766.6318 534.413847 
L 769.865411 542.692224 
L 773.099022 542.692224 
L 776.332633 544.761818 
L 782.799855 544.761818 
L 786.033466 542.692224 
L 789.267077 544.761818 
L 802.201521 544.761818 
L 805.435132 536.503467 
L 808.668743 538.568055 
L 811.902354 542.69723 
L 818.369576 542.69723 
L 821.603187 540.632643 
L 824.836798 542.69723 
L 828.070409 542.69723 
L 831.30402 544.761818 
L 834.537631 542.69723 
L 837.771242 542.69723 
L 841.004853 536.503467 
L 844.238464 544.761818 
L 847.472075 540.691966 
L 850.705686 528.482408 
L 853.939297 526.447482 
L 857.172908 538.657039 
L 860.406519 528.482408 
L 863.64013 512.202998 
L 866.873741 510.168072 
L 870.107352 534.587187 
L 873.340963 532.552261 
L 876.574574 542.726892 
L 879.808185 544.761818 
L 883.041796 538.809804 
L 886.275407 544.761818 
L 889.509018 542.777813 
L 892.742629 542.777813 
L 895.97624 536.825799 
L 899.209852 538.809804 
L 902.443463 528.88978 
L 905.677074 538.809804 
L 908.910685 542.777813 
L 912.144296 534.841794 
L 915.377907 532.857789 
L 918.611518 542.777813 
L 921.845129 537.069239 
L 925.07874 535.146094 
L 928.312351 519.760935 
L 931.545962 517.83779 
L 934.779573 517.83779 
L 938.013184 540.915528 
L 941.246795 531.299804 
L 944.480406 535.146094 
L 947.714017 542.838673 
L 950.947628 538.992384 
L 954.181239 542.838673 
L 957.41485 544.761818 
L 960.648461 521.68408 
L 963.882072 544.761818 
L 967.115683 531.299804 
L 970.349294 529.376659 
L 973.582905 513.9915 
L 976.816516 508.222065 
L 980.050127 527.453514 
L 983.283738 540.915528 
L 986.517349 540.915528 
L 989.75096 533.222949 
L 992.984571 531.299804 
L 996.218182 531.299804 
L 996.218182 531.299804 
" style="fill:none;stroke:#d62728;stroke-linecap:square;stroke-width:2.5;"/>
   </g>
   <g id="line2d_21">
    <path clip-path="url(#pc309ef680e)" d="M 184.581818 544.761818 
L 187.815429 542.744028 
L 191.04904 544.761818 
L 216.917928 544.761818 
L 220.151539 542.744028 
L 223.38515 542.750399 
L 226.618761 540.73898 
L 229.852372 544.761818 
L 233.085983 542.750399 
L 236.319594 542.750399 
L 239.553205 544.761818 
L 246.020427 544.761818 
L 249.254038 542.750399 
L 258.954871 542.750399 
L 262.188482 544.761818 
L 271.889315 544.761818 
L 275.122926 542.764832 
L 278.356537 544.761818 
L 281.590148 542.764832 
L 284.82376 542.764832 
L 288.057371 544.761818 
L 291.290982 544.761818 
L 297.758204 536.773875 
L 300.991815 532.962006 
L 304.225426 534.928641 
L 307.459037 542.795183 
L 313.926259 542.795183 
L 320.393481 538.861912 
L 323.627092 542.795183 
L 336.561536 542.795183 
L 339.795147 540.90404 
L 343.028758 542.832929 
L 346.262369 537.046263 
L 349.49598 544.761818 
L 352.729591 535.117374 
L 355.963202 540.90404 
L 359.196813 538.975152 
L 362.430424 538.975152 
L 365.664035 544.761818 
L 378.598479 544.761818 
L 381.83209 542.864292 
L 391.532923 542.864292 
L 394.766534 544.761818 
L 398.000145 544.761818 
L 401.233756 542.864292 
L 404.467367 544.761818 
L 436.803477 544.761818 
L 440.037088 542.883054 
L 443.270699 544.761818 
L 446.50431 544.761818 
L 449.737921 542.883054 
L 452.971532 544.761818 
L 456.205143 539.180395 
L 459.438754 539.180395 
L 462.672365 528.01755 
L 465.905976 524.296602 
L 469.139587 511.273282 
L 472.373198 526.157076 
L 475.606809 535.459447 
L 478.84042 539.180395 
L 482.074031 541.04087 
L 485.307642 544.761818 
L 488.541253 542.901344 
L 491.774864 544.761818 
L 501.475697 544.761818 
L 504.709308 533.730246 
L 507.942919 533.730246 
L 511.17653 515.344292 
L 514.410141 526.375865 
L 517.643752 500.635529 
L 520.877363 537.407437 
L 524.110974 535.568841 
L 527.344585 537.407437 
L 530.578196 535.568841 
L 533.811807 535.625939 
L 537.045418 530.144411 
L 540.279029 519.181356 
L 543.51264 513.699828 
L 546.746251 530.144411 
L 549.979862 515.527004 
L 556.447084 522.835708 
L 559.680695 519.181356 
L 562.914306 530.144411 
L 566.147917 517.35418 
L 569.381528 530.144411 
L 572.615139 517.434035 
L 575.84875 533.830705 
L 579.082361 521.07774 
L 582.315972 501.037366 
L 585.549583 510.146627 
L 588.783194 521.07774 
L 592.016806 539.296262 
L 595.250417 544.761818 
L 611.418472 544.761818 
L 614.652083 542.94117 
L 617.885694 542.94117 
L 621.119305 541.120522 
L 624.352916 530.196634 
L 627.586527 541.120522 
L 630.820138 493.783674 
L 634.053749 535.658578 
L 637.28736 541.120522 
L 640.520971 539.299874 
L 643.754582 535.658578 
L 646.988193 544.761818 
L 650.221804 531.947087 
L 653.455415 541.100466 
L 656.689026 493.502893 
L 659.922637 504.486948 
L 663.156248 495.333568 
L 666.389859 504.486948 
L 669.62347 524.624383 
L 672.857081 530.116411 
L 676.090692 513.640328 
L 679.324303 517.301679 
L 682.557914 535.608439 
L 685.791525 531.947087 
L 689.025136 529.975377 
L 692.258747 518.885545 
L 695.492358 529.975377 
L 698.725969 520.73385 
L 701.95958 493.009272 
L 705.193191 494.857578 
L 708.426802 504.099104 
L 711.660413 509.644019 
L 714.894024 483.767746 
L 718.127635 511.492324 
L 721.361246 478.222831 
L 724.594857 504.099104 
L 727.828468 469.979546 
L 731.062079 507.370682 
L 734.29569 410.153728 
L 737.529301 387.719046 
L 740.762912 458.762205 
L 743.996523 520.45758 
L 747.230134 526.06625 
L 750.463745 537.283591 
L 753.697356 535.414034 
L 760.164578 539.153148 
L 763.398189 539.153148 
L 766.6318 531.546257 
L 769.865411 540.985943 
L 776.332633 544.761818 
L 779.566244 542.873881 
L 782.799855 544.761818 
L 802.201521 544.761818 
L 805.435132 540.956748 
L 808.668743 542.859283 
L 811.902354 542.859283 
L 815.135965 544.761818 
L 818.369576 544.761818 
L 824.836798 540.956748 
L 828.070409 540.956748 
L 831.30402 544.761818 
L 834.537631 542.859283 
L 837.771242 542.859283 
L 841.004853 540.956748 
L 844.238464 544.761818 
L 847.472075 537.08086 
L 850.705686 533.240381 
L 853.939297 533.240381 
L 857.172908 539.0011 
L 860.406519 506.357029 
L 863.64013 483.314155 
L 866.873741 494.835592 
L 870.107352 533.240381 
L 873.340963 527.479663 
L 876.574574 539.0011 
L 879.808185 544.761818 
L 883.041796 536.958056 
L 886.275407 544.761818 
L 889.509018 544.761818 
L 892.742629 542.810878 
L 895.97624 533.056175 
L 899.209852 544.761818 
L 902.443463 544.761818 
L 905.677074 542.810878 
L 908.910685 538.908997 
L 912.144296 540.859937 
L 915.377907 538.908997 
L 918.611518 535.007115 
L 921.845129 530.872365 
L 925.07874 520.951327 
L 928.312351 507.061874 
L 931.545962 485.235591 
L 934.779573 495.156629 
L 938.013184 530.872365 
L 941.246795 522.935535 
L 944.480406 524.919742 
L 947.714017 540.793403 
L 950.947628 542.777611 
L 954.181239 542.777611 
L 957.41485 544.761818 
L 960.648461 536.824988 
L 963.882072 534.84078 
L 967.115683 530.872365 
L 970.349294 532.856573 
L 973.582905 507.061874 
L 976.816516 513.014497 
L 983.283738 528.888158 
L 986.517349 542.777611 
L 989.75096 522.935535 
L 992.984571 538.809195 
L 996.218182 536.824988 
L 996.218182 536.824988 
" style="fill:none;stroke:#9467bd;stroke-linecap:square;stroke-width:2.5;"/>
   </g>
   <g id="line2d_22">
    <path clip-path="url(#pc309ef680e)" d="M 184.581818 544.761818 
L 187.815429 542.861724 
L 191.04904 537.161443 
L 194.282651 543.811771 
L 197.516262 544.761818 
L 200.749873 539.061536 
L 203.983484 539.061536 
L 207.217095 541.911677 
L 210.450706 541.911677 
L 213.684317 544.761818 
L 223.38515 544.761818 
L 226.618761 542.838381 
L 229.852372 544.761818 
L 233.085983 541.876663 
L 236.319594 543.8001 
L 239.553205 544.761818 
L 242.786816 541.876663 
L 246.020427 544.761818 
L 249.254038 544.761818 
L 255.72126 542.838381 
L 258.954871 542.838381 
L 265.422093 544.761818 
L 268.655704 544.761818 
L 271.889315 543.792414 
L 275.122926 544.761818 
L 281.590148 544.761818 
L 284.82376 543.792414 
L 288.057371 540.884201 
L 291.290982 543.792414 
L 294.524593 542.82301 
L 297.758204 537.006583 
L 304.225426 538.901453 
L 307.459037 542.808363 
L 310.692648 541.831635 
L 313.926259 544.761818 
L 317.15987 544.761818 
L 320.393481 542.808363 
L 323.627092 543.785091 
L 330.094314 541.831635 
L 333.327925 542.808363 
L 336.561536 544.761818 
L 339.795147 539.863479 
L 343.028758 539.863479 
L 346.262369 537.904143 
L 352.729591 539.863479 
L 355.963202 544.761818 
L 359.196813 544.761818 
L 362.430424 540.843147 
L 365.664035 542.802483 
L 368.897646 541.822815 
L 372.131257 541.822815 
L 375.364868 543.78215 
L 378.598479 542.816541 
L 381.83209 544.761818 
L 385.065701 540.871263 
L 388.299312 542.816541 
L 391.532923 542.816541 
L 394.766534 541.843902 
L 398.000145 541.843902 
L 401.233756 544.761818 
L 404.467367 544.761818 
L 410.934589 542.816541 
L 414.1682 544.761818 
L 417.401811 543.809042 
L 420.635422 544.761818 
L 427.102644 542.856266 
L 430.336255 544.761818 
L 433.569866 543.809042 
L 436.803477 544.761818 
L 440.037088 544.761818 
L 443.270699 542.856266 
L 446.50431 543.809042 
L 449.737921 542.856266 
L 452.971532 543.809042 
L 456.205143 542.904098 
L 459.438754 541.046379 
L 462.672365 529.90006 
L 465.905976 532.68664 
L 469.139587 529.90006 
L 472.373198 530.82892 
L 475.606809 541.046379 
L 478.84042 543.832958 
L 482.074031 542.904098 
L 485.307642 542.904098 
L 488.541253 544.761818 
L 498.242086 544.761818 
L 507.942919 542.044497 
L 511.17653 539.327176 
L 514.410141 530.269439 
L 517.643752 536.609855 
L 520.877363 532.080986 
L 524.110974 536.609855 
L 527.344585 542.044497 
L 530.578196 539.327176 
L 533.811807 536.805712 
L 537.045418 538.573736 
L 540.279029 534.153677 
L 543.51264 538.573736 
L 546.746251 537.689724 
L 553.213473 530.61763 
L 556.447084 535.037689 
L 559.680695 534.153677 
L 562.914306 528.849606 
L 566.147917 540.341759 
L 569.381528 535.921701 
L 572.615139 538.657576 
L 575.84875 540.401645 
L 582.315972 531.6813 
L 585.549583 530.809265 
L 588.783194 536.913507 
L 592.016806 540.401645 
L 595.250417 541.27368 
L 598.484028 543.889784 
L 601.717639 544.761818 
L 611.418472 544.761818 
L 614.652083 543.031414 
L 617.885694 543.896616 
L 621.119305 543.896616 
L 624.352916 541.30101 
L 627.586527 543.896616 
L 630.820138 531.783787 
L 634.053749 533.514191 
L 637.28736 540.435808 
L 640.520971 536.975 
L 643.754582 541.30101 
L 646.988193 544.761818 
L 650.221804 539.637544 
L 653.455415 539.637544 
L 656.689026 515.724266 
L 659.922637 523.410677 
L 663.156248 527.680905 
L 666.389859 535.367316 
L 669.62347 532.805179 
L 672.857081 538.783499 
L 676.090692 543.053727 
L 679.324303 537.929453 
L 682.557914 541.345636 
L 685.791525 538.783499 
L 689.025136 544.761818 
L 692.258747 537.151355 
L 695.492358 530.386499 
L 698.725969 532.077713 
L 701.95958 516.856787 
L 705.193191 532.92332 
L 708.426802 528.695285 
L 711.660413 529.540892 
L 714.894024 524.46725 
L 718.127635 530.386499 
L 721.361246 521.084822 
L 724.594857 520.239215 
L 727.828468 520.311718 
L 731.062079 525.37036 
L 734.29569 527.056573 
L 737.529301 487.430549 
L 740.762912 527.056573 
L 743.996523 530.429001 
L 750.463745 542.232498 
L 753.697356 543.918711 
L 756.930967 542.232498 
L 760.164578 543.075604 
L 763.398189 543.075604 
L 766.6318 539.719321 
L 769.865411 543.080986 
L 773.099022 540.559737 
L 776.332633 540.559737 
L 779.566244 543.921402 
L 782.799855 544.761818 
L 786.033466 543.080986 
L 789.267077 544.761818 
L 805.435132 544.761818 
L 808.668743 543.924824 
L 811.902354 544.761818 
L 815.135965 543.087829 
L 818.369576 543.924824 
L 821.603187 540.576846 
L 824.836798 543.087829 
L 828.070409 543.087829 
L 831.30402 542.250835 
L 834.537631 544.761818 
L 837.771242 543.924824 
L 841.004853 544.761818 
L 844.238464 544.761818 
L 847.472075 536.419566 
L 850.705686 538.088016 
L 853.939297 533.082665 
L 857.172908 532.24844 
L 860.406519 528.077313 
L 863.64013 517.232385 
L 866.873741 519.735061 
L 870.107352 540.590692 
L 873.340963 535.585341 
L 876.574574 542.259142 
L 879.808185 543.927593 
L 883.041796 543.094636 
L 886.275407 544.761818 
L 889.509018 543.928227 
L 892.742629 542.261044 
L 895.97624 535.592313 
L 899.209852 541.427453 
L 902.443463 542.261044 
L 905.677074 540.593861 
L 908.910685 541.427453 
L 912.144296 544.761818 
L 918.611518 538.093087 
L 921.845129 535.574008 
L 928.312351 520.539409 
L 931.545962 506.340065 
L 934.779573 526.386197 
L 938.013184 527.221453 
L 941.246795 518.868898 
L 944.480406 534.738752 
L 947.714017 538.91503 
L 950.947628 544.761818 
L 954.181239 542.256052 
L 957.41485 543.926563 
L 960.648461 542.256052 
L 963.882072 531.39773 
L 967.115683 532.232986 
L 970.349294 530.562475 
L 973.582905 523.880431 
L 976.816516 525.550942 
L 980.050127 531.39773 
L 983.283738 531.39773 
L 986.517349 538.079774 
L 989.75096 539.750285 
L 992.984571 543.926563 
L 996.218182 541.420796 
L 996.218182 541.420796 
" style="fill:none;stroke:#8c564b;stroke-linecap:square;stroke-width:2.5;"/>
   </g>
   <g id="line2d_23">
    <path clip-path="url(#pc309ef680e)" d="M 184.581818 544.761818 
L 191.04904 544.35618 
L 197.516262 544.761818 
L 200.749873 544.761818 
L 203.983484 544.35618 
L 207.217095 544.761818 
L 210.450706 544.558999 
L 213.684317 544.761818 
L 216.917928 544.558999 
L 220.151539 544.761818 
L 229.852372 544.761818 
L 233.085983 544.158907 
L 236.319594 544.359877 
L 239.553205 544.761818 
L 242.786816 544.761818 
L 246.020427 544.560848 
L 249.254038 544.761818 
L 255.72126 544.761818 
L 258.954871 544.359877 
L 262.188482 544.761818 
L 265.422093 544.562699 
L 268.655704 544.562699 
L 271.889315 544.761818 
L 275.122926 544.562699 
L 278.356537 544.761818 
L 281.590148 544.562699 
L 284.82376 544.761818 
L 288.057371 544.761818 
L 291.290982 544.363579 
L 294.524593 544.761818 
L 300.991815 543.972306 
L 304.225426 544.56444 
L 307.459037 544.761818 
L 310.692648 544.56444 
L 313.926259 544.169684 
L 317.15987 544.761818 
L 320.393481 544.169684 
L 323.627092 544.761818 
L 326.860703 544.761818 
L 330.094314 544.367062 
L 333.327925 544.367062 
L 336.561536 544.761818 
L 339.795147 544.369994 
L 343.028758 544.369994 
L 346.262369 543.194522 
L 349.49598 543.97817 
L 352.729591 543.586346 
L 359.196813 544.761818 
L 365.664035 544.369994 
L 372.131257 544.761818 
L 375.364868 543.97817 
L 378.598479 544.372344 
L 381.83209 544.567081 
L 388.299312 544.567081 
L 391.532923 544.372344 
L 394.766534 544.372344 
L 398.000145 544.761818 
L 401.233756 544.372344 
L 404.467367 544.761818 
L 407.700978 544.567081 
L 410.934589 544.761818 
L 420.635422 544.761818 
L 423.869033 544.374703 
L 427.102644 544.568261 
L 430.336255 544.568261 
L 433.569866 544.761818 
L 449.737921 544.761818 
L 452.971532 544.181146 
L 456.205143 544.184781 
L 459.438754 544.377127 
L 462.672365 543.030706 
L 465.905976 539.760826 
L 469.139587 542.261322 
L 472.373198 542.261322 
L 475.606809 543.800089 
L 478.84042 544.569472 
L 482.074031 544.761818 
L 485.307642 544.569472 
L 488.541253 544.569472 
L 491.774864 544.761818 
L 495.008475 544.379311 
L 498.242086 544.570564 
L 501.475697 544.188057 
L 504.709308 544.570564 
L 507.942919 544.188057 
L 511.17653 543.040535 
L 514.410141 542.658028 
L 517.643752 543.231789 
L 520.877363 542.466774 
L 524.110974 543.996803 
L 527.344585 543.231789 
L 530.578196 543.996803 
L 533.811807 543.431446 
L 537.045418 543.621499 
L 540.279029 542.861286 
L 543.51264 541.530913 
L 546.746251 542.101073 
L 549.979862 542.861286 
L 553.213473 542.671233 
L 556.447084 543.811552 
L 559.680695 544.381712 
L 562.914306 543.621499 
L 566.147917 543.621499 
L 569.381528 542.48118 
L 572.615139 543.630247 
L 575.84875 543.818842 
L 579.082361 542.498675 
L 582.315972 542.875866 
L 585.549583 542.875866 
L 588.783194 543.441651 
L 592.016806 544.573223 
L 595.250417 544.196032 
L 598.484028 544.384628 
L 601.717639 544.761818 
L 614.652083 544.761818 
L 617.885694 544.200975 
L 621.119305 544.014027 
L 624.352916 543.453183 
L 627.586527 543.827079 
L 630.820138 543.827079 
L 634.053749 542.144548 
L 637.28736 544.200975 
L 640.520971 543.827079 
L 646.988193 544.57487 
L 650.221804 544.206058 
L 653.455415 543.465043 
L 656.689026 541.983015 
L 659.922637 539.945226 
L 663.156248 538.648451 
L 666.389859 542.724029 
L 669.62347 542.353522 
L 672.857081 543.465043 
L 676.090692 544.020804 
L 679.324303 543.094536 
L 682.557914 543.650297 
L 685.791525 543.835551 
L 689.025136 543.659946 
L 692.258747 543.292655 
L 695.492358 541.088911 
L 698.725969 542.007138 
L 701.95958 540.72162 
L 705.193191 540.72162 
L 708.426802 542.558074 
L 711.660413 543.292655 
L 714.894024 541.823492 
L 718.127635 542.190783 
L 721.361246 540.537975 
L 724.594857 540.354329 
L 727.828468 541.665865 
L 731.062079 541.84798 
L 734.29569 540.391061 
L 737.529301 536.384534 
L 740.762912 538.205683 
L 747.230134 542.57644 
L 750.463745 544.215474 
L 753.697356 544.397588 
L 756.930967 544.761818 
L 760.164578 544.579703 
L 763.398189 544.579703 
L 766.6318 543.678836 
L 769.865411 543.137344 
L 773.099022 543.498338 
L 776.332633 543.498338 
L 779.566244 544.761818 
L 782.799855 544.761818 
L 786.033466 544.581321 
L 795.734299 544.581321 
L 798.96791 544.761818 
L 805.435132 544.761818 
L 808.668743 544.404224 
L 815.135965 544.761818 
L 818.369576 544.583021 
L 821.603187 544.583021 
L 824.836798 544.761818 
L 834.537631 544.761818 
L 837.771242 544.225427 
L 841.004853 544.583021 
L 844.238464 544.584745 
L 847.472075 543.876452 
L 850.705686 543.876452 
L 857.172908 542.459866 
L 860.406519 542.814013 
L 863.64013 539.449622 
L 866.873741 541.043281 
L 870.107352 544.053525 
L 873.340963 544.053525 
L 879.808185 544.761818 
L 886.275407 544.761818 
L 895.97624 543.70908 
L 899.209852 543.533623 
L 902.443463 543.70908 
L 905.677074 544.586362 
L 908.910685 544.235449 
L 912.144296 544.586362 
L 915.377907 543.533623 
L 918.611518 543.70908 
L 921.845129 542.849279 
L 925.07874 542.15381 
L 928.312351 537.633264 
L 931.545962 535.894592 
L 934.779573 538.5026 
L 938.013184 538.850334 
L 941.246795 541.284475 
L 944.480406 542.675412 
L 947.714017 544.414084 
L 950.947628 544.066349 
L 957.41485 544.761818 
L 960.648461 543.718615 
L 963.882072 542.501545 
L 967.115683 539.71967 
L 970.349294 539.024201 
L 973.582905 538.850334 
L 976.816516 540.241272 
L 980.050127 540.067404 
L 983.283738 542.675412 
L 986.517349 542.675412 
L 989.75096 542.501545 
L 992.984571 544.240217 
L 996.218182 544.066349 
L 996.218182 544.066349 
" style="fill:none;stroke:#e377c2;stroke-linecap:square;stroke-width:2.5;"/>
   </g>
   <g id="patch_3">
    <path d="M 144 567 
L 144 77.76 
" style="fill:none;stroke:#000000;stroke-linecap:square;stroke-linejoin:miter;stroke-width:0.8;"/>
   </g>
   <g id="patch_4">
    <path d="M 1036.8 567 
L 1036.8 77.76 
" style="fill:none;stroke:#000000;stroke-linecap:square;stroke-linejoin:miter;stroke-width:0.8;"/>
   </g>
   <g id="patch_5">
    <path d="M 144 567 
L 1036.8 567 
" style="fill:none;stroke:#000000;stroke-linecap:square;stroke-linejoin:miter;stroke-width:0.8;"/>
   </g>
   <g id="patch_6">
    <path d="M 144 77.76 
L 1036.8 77.76 
" style="fill:none;stroke:#000000;stroke-linecap:square;stroke-linejoin:miter;stroke-width:0.8;"/>
   </g>
   <g id="text_18">
    <!-- Measles Cases Per 100k -->
    <defs>
     <path d="M 9.8125 72.90625 
L 24.515625 72.90625 
L 43.109375 23.296875 
L 61.8125 72.90625 
L 76.515625 72.90625 
L 76.515625 0 
L 66.890625 0 
L 66.890625 64.015625 
L 48.09375 14.015625 
L 38.1875 14.015625 
L 19.390625 64.015625 
L 19.390625 0 
L 9.8125 0 
z
" id="DejaVuSans-77"/>
     <path d="M 34.28125 27.484375 
Q 23.390625 27.484375 19.1875 25 
Q 14.984375 22.515625 14.984375 16.5 
Q 14.984375 11.71875 18.140625 8.90625 
Q 21.296875 6.109375 26.703125 6.109375 
Q 34.1875 6.109375 38.703125 11.40625 
Q 43.21875 16.703125 43.21875 25.484375 
L 43.21875 27.484375 
z
M 52.203125 31.203125 
L 52.203125 0 
L 43.21875 0 
L 43.21875 8.296875 
Q 40.140625 3.328125 35.546875 0.953125 
Q 30.953125 -1.421875 24.3125 -1.421875 
Q 15.921875 -1.421875 10.953125 3.296875 
Q 6 8.015625 6 15.921875 
Q 6 25.140625 12.171875 29.828125 
Q 18.359375 34.515625 30.609375 34.515625 
L 43.21875 34.515625 
L 43.21875 35.40625 
Q 43.21875 41.609375 39.140625 45 
Q 35.0625 48.390625 27.6875 48.390625 
Q 23 48.390625 18.546875 47.265625 
Q 14.109375 46.140625 10.015625 43.890625 
L 10.015625 52.203125 
Q 14.9375 54.109375 19.578125 55.046875 
Q 24.21875 56 28.609375 56 
Q 40.484375 56 46.34375 49.84375 
Q 52.203125 43.703125 52.203125 31.203125 
z
" id="DejaVuSans-97"/>
     <path d="M 44.28125 53.078125 
L 44.28125 44.578125 
Q 40.484375 46.53125 36.375 47.5 
Q 32.28125 48.484375 27.875 48.484375 
Q 21.1875 48.484375 17.84375 46.4375 
Q 14.5 44.390625 14.5 40.28125 
Q 14.5 37.15625 16.890625 35.375 
Q 19.28125 33.59375 26.515625 31.984375 
L 29.59375 31.296875 
Q 39.15625 29.25 43.1875 25.515625 
Q 47.21875 21.78125 47.21875 15.09375 
Q 47.21875 7.46875 41.1875 3.015625 
Q 35.15625 -1.421875 24.609375 -1.421875 
Q 20.21875 -1.421875 15.453125 -0.5625 
Q 10.6875 0.296875 5.421875 2 
L 5.421875 11.28125 
Q 10.40625 8.6875 15.234375 7.390625 
Q 20.0625 6.109375 24.8125 6.109375 
Q 31.15625 6.109375 34.5625 8.28125 
Q 37.984375 10.453125 37.984375 14.40625 
Q 37.984375 18.0625 35.515625 20.015625 
Q 33.0625 21.96875 24.703125 23.78125 
L 21.578125 24.515625 
Q 13.234375 26.265625 9.515625 29.90625 
Q 5.8125 33.546875 5.8125 39.890625 
Q 5.8125 47.609375 11.28125 51.796875 
Q 16.75 56 26.8125 56 
Q 31.78125 56 36.171875 55.265625 
Q 40.578125 54.546875 44.28125 53.078125 
z
" id="DejaVuSans-115"/>
     <path d="M 9.421875 75.984375 
L 18.40625 75.984375 
L 18.40625 0 
L 9.421875 0 
z
" id="DejaVuSans-108"/>
     <path id="DejaVuSans-32"/>
     <path d="M 64.40625 67.28125 
L 64.40625 56.890625 
Q 59.421875 61.53125 53.78125 63.8125 
Q 48.140625 66.109375 41.796875 66.109375 
Q 29.296875 66.109375 22.65625 58.46875 
Q 16.015625 50.828125 16.015625 36.375 
Q 16.015625 21.96875 22.65625 14.328125 
Q 29.296875 6.6875 41.796875 6.6875 
Q 48.140625 6.6875 53.78125 8.984375 
Q 59.421875 11.28125 64.40625 15.921875 
L 64.40625 5.609375 
Q 59.234375 2.09375 53.4375 0.328125 
Q 47.65625 -1.421875 41.21875 -1.421875 
Q 24.65625 -1.421875 15.125 8.703125 
Q 5.609375 18.84375 5.609375 36.375 
Q 5.609375 53.953125 15.125 64.078125 
Q 24.65625 74.21875 41.21875 74.21875 
Q 47.75 74.21875 53.53125 72.484375 
Q 59.328125 70.75 64.40625 67.28125 
z
" id="DejaVuSans-67"/>
     <path d="M 19.671875 64.796875 
L 19.671875 37.40625 
L 32.078125 37.40625 
Q 38.96875 37.40625 42.71875 40.96875 
Q 46.484375 44.53125 46.484375 51.125 
Q 46.484375 57.671875 42.71875 61.234375 
Q 38.96875 64.796875 32.078125 64.796875 
z
M 9.8125 72.90625 
L 32.078125 72.90625 
Q 44.34375 72.90625 50.609375 67.359375 
Q 56.890625 61.8125 56.890625 51.125 
Q 56.890625 40.328125 50.609375 34.8125 
Q 44.34375 29.296875 32.078125 29.296875 
L 19.671875 29.296875 
L 19.671875 0 
L 9.8125 0 
z
" id="DejaVuSans-80"/>
     <path d="M 41.109375 46.296875 
Q 39.59375 47.171875 37.8125 47.578125 
Q 36.03125 48 33.890625 48 
Q 26.265625 48 22.1875 43.046875 
Q 18.109375 38.09375 18.109375 28.8125 
L 18.109375 0 
L 9.078125 0 
L 9.078125 54.6875 
L 18.109375 54.6875 
L 18.109375 46.1875 
Q 20.953125 51.171875 25.484375 53.578125 
Q 30.03125 56 36.53125 56 
Q 37.453125 56 38.578125 55.875 
Q 39.703125 55.765625 41.0625 55.515625 
z
" id="DejaVuSans-114"/>
     <path d="M 9.078125 75.984375 
L 18.109375 75.984375 
L 18.109375 31.109375 
L 44.921875 54.6875 
L 56.390625 54.6875 
L 27.390625 29.109375 
L 57.625 0 
L 45.90625 0 
L 18.109375 26.703125 
L 18.109375 0 
L 9.078125 0 
z
" id="DejaVuSans-107"/>
    </defs>
    <g transform="translate(469.75625 71.76)scale(0.2 -0.2)">
     <use xlink:href="#DejaVuSans-77"/>
     <use x="86.279297" xlink:href="#DejaVuSans-101"/>
     <use x="147.802734" xlink:href="#DejaVuSans-97"/>
     <use x="209.082031" xlink:href="#DejaVuSans-115"/>
     <use x="261.181641" xlink:href="#DejaVuSans-108"/>
     <use x="288.964844" xlink:href="#DejaVuSans-101"/>
     <use x="350.488281" xlink:href="#DejaVuSans-115"/>
     <use x="402.587891" xlink:href="#DejaVuSans-32"/>
     <use x="434.375" xlink:href="#DejaVuSans-67"/>
     <use x="504.199219" xlink:href="#DejaVuSans-97"/>
     <use x="565.478516" xlink:href="#DejaVuSans-115"/>
     <use x="617.578125" xlink:href="#DejaVuSans-101"/>
     <use x="679.101562" xlink:href="#DejaVuSans-115"/>
     <use x="731.201172" xlink:href="#DejaVuSans-32"/>
     <use x="762.988281" xlink:href="#DejaVuSans-80"/>
     <use x="823.244141" xlink:href="#DejaVuSans-101"/>
     <use x="884.767578" xlink:href="#DejaVuSans-114"/>
     <use x="925.880859" xlink:href="#DejaVuSans-32"/>
     <use x="957.667969" xlink:href="#DejaVuSans-49"/>
     <use x="1021.291016" xlink:href="#DejaVuSans-48"/>
     <use x="1084.914062" xlink:href="#DejaVuSans-48"/>
     <use x="1148.537109" xlink:href="#DejaVuSans-107"/>
    </g>
   </g>
   <g id="legend_1">
    <g id="patch_7">
     <path d="M 909.490156 290.179062 
L 1025.5 290.179062 
Q 1029.3 290.179062 1029.3 286.379062 
L 1029.3 93.06 
Q 1029.3 89.26 1025.5 89.26 
L 909.490156 89.26 
Q 905.690156 89.26 905.690156 93.06 
L 905.690156 286.379062 
Q 905.690156 290.179062 909.490156 290.179062 
z
" style="fill:#4c4c4c;opacity:0.5;stroke:#4c4c4c;stroke-linejoin:miter;"/>
    </g>
    <g id="patch_8">
     <path d="M 907.490156 288.179062 
L 1023.5 288.179062 
Q 1027.3 288.179062 1027.3 284.379062 
L 1027.3 91.06 
Q 1027.3 87.26 1023.5 87.26 
L 907.490156 87.26 
Q 903.690156 87.26 903.690156 91.06 
L 903.690156 284.379062 
Q 903.690156 288.179062 907.490156 288.179062 
z
" style="fill:#ffffff;stroke:#cccccc;stroke-linejoin:miter;"/>
    </g>
    <g id="line2d_24">
     <path d="M 911.290156 102.647031 
L 949.290156 102.647031 
" style="fill:none;stroke:#1f77b4;stroke-linecap:square;stroke-width:2.5;"/>
    </g>
    <g id="line2d_25"/>
    <g id="text_19">
     <!-- &lt;1 -->
     <defs>
      <path d="M 73.1875 49.21875 
L 22.796875 31.296875 
L 73.1875 13.484375 
L 73.1875 4.59375 
L 10.59375 27.296875 
L 10.59375 35.40625 
L 73.1875 58.109375 
z
" id="DejaVuSans-60"/>
     </defs>
     <g transform="translate(964.490156 109.297031)scale(0.19 -0.19)">
      <use xlink:href="#DejaVuSans-60"/>
      <use x="83.789062" xlink:href="#DejaVuSans-49"/>
     </g>
    </g>
    <g id="line2d_26">
     <path d="M 911.290156 130.535469 
L 949.290156 130.535469 
" style="fill:none;stroke:#ff7f0e;stroke-linecap:square;stroke-width:2.5;"/>
    </g>
    <g id="line2d_27"/>
    <g id="text_20">
     <!-- 1-4 -->
     <g transform="translate(964.490156 137.185469)scale(0.19 -0.19)">
      <use xlink:href="#DejaVuSans-49"/>
      <use x="63.623047" xlink:href="#DejaVuSans-45"/>
      <use x="99.707031" xlink:href="#DejaVuSans-52"/>
     </g>
    </g>
    <g id="line2d_28">
     <path d="M 911.290156 158.423906 
L 949.290156 158.423906 
" style="fill:none;stroke:#2ca02c;stroke-linecap:square;stroke-width:2.5;"/>
    </g>
    <g id="line2d_29"/>
    <g id="text_21">
     <!-- 5-9 -->
     <g transform="translate(964.490156 165.073906)scale(0.19 -0.19)">
      <use xlink:href="#DejaVuSans-53"/>
      <use x="63.623047" xlink:href="#DejaVuSans-45"/>
      <use x="99.707031" xlink:href="#DejaVuSans-57"/>
     </g>
    </g>
    <g id="line2d_30">
     <path d="M 911.290156 186.312344 
L 949.290156 186.312344 
" style="fill:none;stroke:#d62728;stroke-linecap:square;stroke-width:2.5;"/>
    </g>
    <g id="line2d_31"/>
    <g id="text_22">
     <!-- 10-14 -->
     <g transform="translate(964.490156 192.962344)scale(0.19 -0.19)">
      <use xlink:href="#DejaVuSans-49"/>
      <use x="63.623047" xlink:href="#DejaVuSans-48"/>
      <use x="127.246094" xlink:href="#DejaVuSans-45"/>
      <use x="163.330078" xlink:href="#DejaVuSans-49"/>
      <use x="226.953125" xlink:href="#DejaVuSans-52"/>
     </g>
    </g>
    <g id="line2d_32">
     <path d="M 911.290156 214.200781 
L 949.290156 214.200781 
" style="fill:none;stroke:#9467bd;stroke-linecap:square;stroke-width:2.5;"/>
    </g>
    <g id="line2d_33"/>
    <g id="text_23">
     <!-- 15-19 -->
     <g transform="translate(964.490156 220.850781)scale(0.19 -0.19)">
      <use xlink:href="#DejaVuSans-49"/>
      <use x="63.623047" xlink:href="#DejaVuSans-53"/>
      <use x="127.246094" xlink:href="#DejaVuSans-45"/>
      <use x="163.330078" xlink:href="#DejaVuSans-49"/>
      <use x="226.953125" xlink:href="#DejaVuSans-57"/>
     </g>
    </g>
    <g id="line2d_34">
     <path d="M 911.290156 242.089219 
L 949.290156 242.089219 
" style="fill:none;stroke:#8c564b;stroke-linecap:square;stroke-width:2.5;"/>
    </g>
    <g id="line2d_35"/>
    <g id="text_24">
     <!-- 20-29 -->
     <g transform="translate(964.490156 248.739219)scale(0.19 -0.19)">
      <use xlink:href="#DejaVuSans-50"/>
      <use x="63.623047" xlink:href="#DejaVuSans-48"/>
      <use x="127.246094" xlink:href="#DejaVuSans-45"/>
      <use x="163.330078" xlink:href="#DejaVuSans-50"/>
      <use x="226.953125" xlink:href="#DejaVuSans-57"/>
     </g>
    </g>
    <g id="line2d_36">
     <path d="M 911.290156 269.977656 
L 949.290156 269.977656 
" style="fill:none;stroke:#e377c2;stroke-linecap:square;stroke-width:2.5;"/>
    </g>
    <g id="line2d_37"/>
    <g id="text_25">
     <!-- 30+ -->
     <defs>
      <path d="M 46 62.703125 
L 46 35.5 
L 73.1875 35.5 
L 73.1875 27.203125 
L 46 27.203125 
L 46 0 
L 37.796875 0 
L 37.796875 27.203125 
L 10.59375 27.203125 
L 10.59375 35.5 
L 37.796875 35.5 
L 37.796875 62.703125 
z
" id="DejaVuSans-43"/>
     </defs>
     <g transform="translate(964.490156 276.627656)scale(0.19 -0.19)">
      <use xlink:href="#DejaVuSans-51"/>
      <use x="63.623047" xlink:href="#DejaVuSans-48"/>
      <use x="127.246094" xlink:href="#DejaVuSans-43"/>
     </g>
    </g>
   </g>
  </g>
 </g>
 <defs>
  <clipPath id="pc309ef680e">
   <rect height="489.24" width="892.8" x="144" y="77.76"/>
  </clipPath>
 </defs>
</svg>
