<?xml version="1.0" encoding="utf-8" standalone="no"?>
<!DOCTYPE svg PUBLIC "-//W3C//DTD SVG 1.1//EN"
  "http://www.w3.org/Graphics/SVG/1.1/DTD/svg11.dtd">
<!-- Created with matplotlib (https://matplotlib.org/) -->
<svg height="648pt" version="1.1" viewBox="0 0 1152 648" width="1152pt" xmlns="http://www.w3.org/2000/svg" xmlns:xlink="http://www.w3.org/1999/xlink">
 <defs>
  <style type="text/css">
*{stroke-linecap:butt;stroke-linejoin:round;white-space:pre;}
  </style>
 </defs>
 <g id="figure_1">
  <g id="patch_1">
   <path d="M 0 648 
L 1152 648 
L 1152 0 
L 0 0 
z
" style="fill:#ffffff;"/>
  </g>
  <g id="axes_1">
   <g id="patch_2">
    <path d="M 144 567 
L 1036.8 567 
L 1036.8 77.76 
L 144 77.76 
z
" style="fill:#ffffff;"/>
   </g>
   <g id="matplotlib.axis_1">
    <g id="xtick_1">
     <g id="line2d_1">
      <defs>
       <path d="M 0 0 
L 0 3.5 
" id="mc1456d4b83" style="stroke:#000000;stroke-width:0.8;"/>
      </defs>
      <g>
       <use style="stroke:#000000;stroke-width:0.8;" x="144" xlink:href="#mc1456d4b83" y="567"/>
      </g>
     </g>
     <g id="text_1">
      <!-- 1999-01 -->
      <defs>
       <path d="M 12.40625 8.296875 
L 28.515625 8.296875 
L 28.515625 63.921875 
L 10.984375 60.40625 
L 10.984375 69.390625 
L 28.421875 72.90625 
L 38.28125 72.90625 
L 38.28125 8.296875 
L 54.390625 8.296875 
L 54.390625 0 
L 12.40625 0 
z
" id="DejaVuSans-49"/>
       <path d="M 10.984375 1.515625 
L 10.984375 10.5 
Q 14.703125 8.734375 18.5 7.8125 
Q 22.3125 6.890625 25.984375 6.890625 
Q 35.75 6.890625 40.890625 13.453125 
Q 46.046875 20.015625 46.78125 33.40625 
Q 43.953125 29.203125 39.59375 26.953125 
Q 35.25 24.703125 29.984375 24.703125 
Q 19.046875 24.703125 12.671875 31.3125 
Q 6.296875 37.9375 6.296875 49.421875 
Q 6.296875 60.640625 12.9375 67.421875 
Q 19.578125 74.21875 30.609375 74.21875 
Q 43.265625 74.21875 49.921875 64.515625 
Q 56.59375 54.828125 56.59375 36.375 
Q 56.59375 19.140625 48.40625 8.859375 
Q 40.234375 -1.421875 26.421875 -1.421875 
Q 22.703125 -1.421875 18.890625 -0.6875 
Q 15.09375 0.046875 10.984375 1.515625 
z
M 30.609375 32.421875 
Q 37.25 32.421875 41.125 36.953125 
Q 45.015625 41.5 45.015625 49.421875 
Q 45.015625 57.28125 41.125 61.84375 
Q 37.25 66.40625 30.609375 66.40625 
Q 23.96875 66.40625 20.09375 61.84375 
Q 16.21875 57.28125 16.21875 49.421875 
Q 16.21875 41.5 20.09375 36.953125 
Q 23.96875 32.421875 30.609375 32.421875 
z
" id="DejaVuSans-57"/>
       <path d="M 4.890625 31.390625 
L 31.203125 31.390625 
L 31.203125 23.390625 
L 4.890625 23.390625 
z
" id="DejaVuSans-45"/>
       <path d="M 31.78125 66.40625 
Q 24.171875 66.40625 20.328125 58.90625 
Q 16.5 51.421875 16.5 36.375 
Q 16.5 21.390625 20.328125 13.890625 
Q 24.171875 6.390625 31.78125 6.390625 
Q 39.453125 6.390625 43.28125 13.890625 
Q 47.125 21.390625 47.125 36.375 
Q 47.125 51.421875 43.28125 58.90625 
Q 39.453125 66.40625 31.78125 66.40625 
z
M 31.78125 74.21875 
Q 44.046875 74.21875 50.515625 64.515625 
Q 56.984375 54.828125 56.984375 36.375 
Q 56.984375 17.96875 50.515625 8.265625 
Q 44.046875 -1.421875 31.78125 -1.421875 
Q 19.53125 -1.421875 13.0625 8.265625 
Q 6.59375 17.96875 6.59375 36.375 
Q 6.59375 54.828125 13.0625 64.515625 
Q 19.53125 74.21875 31.78125 74.21875 
z
" id="DejaVuSans-48"/>
      </defs>
      <g transform="translate(112.662891 585.397656)scale(0.15 -0.15)">
       <use xlink:href="#DejaVuSans-49"/>
       <use x="63.623047" xlink:href="#DejaVuSans-57"/>
       <use x="127.246094" xlink:href="#DejaVuSans-57"/>
       <use x="190.869141" xlink:href="#DejaVuSans-57"/>
       <use x="254.492188" xlink:href="#DejaVuSans-45"/>
       <use x="290.576172" xlink:href="#DejaVuSans-48"/>
       <use x="354.199219" xlink:href="#DejaVuSans-49"/>
      </g>
     </g>
    </g>
    <g id="xtick_2">
     <g id="line2d_2">
      <g>
       <use style="stroke:#000000;stroke-width:0.8;" x="321.848606" xlink:href="#mc1456d4b83" y="567"/>
      </g>
     </g>
     <g id="text_2">
      <!-- 2003-03 -->
      <defs>
       <path d="M 19.1875 8.296875 
L 53.609375 8.296875 
L 53.609375 0 
L 7.328125 0 
L 7.328125 8.296875 
Q 12.9375 14.109375 22.625 23.890625 
Q 32.328125 33.6875 34.8125 36.53125 
Q 39.546875 41.84375 41.421875 45.53125 
Q 43.3125 49.21875 43.3125 52.78125 
Q 43.3125 58.59375 39.234375 62.25 
Q 35.15625 65.921875 28.609375 65.921875 
Q 23.96875 65.921875 18.8125 64.3125 
Q 13.671875 62.703125 7.8125 59.421875 
L 7.8125 69.390625 
Q 13.765625 71.78125 18.9375 73 
Q 24.125 74.21875 28.421875 74.21875 
Q 39.75 74.21875 46.484375 68.546875 
Q 53.21875 62.890625 53.21875 53.421875 
Q 53.21875 48.921875 51.53125 44.890625 
Q 49.859375 40.875 45.40625 35.40625 
Q 44.1875 33.984375 37.640625 27.21875 
Q 31.109375 20.453125 19.1875 8.296875 
z
" id="DejaVuSans-50"/>
       <path d="M 40.578125 39.3125 
Q 47.65625 37.796875 51.625 33 
Q 55.609375 28.21875 55.609375 21.1875 
Q 55.609375 10.40625 48.1875 4.484375 
Q 40.765625 -1.421875 27.09375 -1.421875 
Q 22.515625 -1.421875 17.65625 -0.515625 
Q 12.796875 0.390625 7.625 2.203125 
L 7.625 11.71875 
Q 11.71875 9.328125 16.59375 8.109375 
Q 21.484375 6.890625 26.8125 6.890625 
Q 36.078125 6.890625 40.9375 10.546875 
Q 45.796875 14.203125 45.796875 21.1875 
Q 45.796875 27.640625 41.28125 31.265625 
Q 36.765625 34.90625 28.71875 34.90625 
L 20.21875 34.90625 
L 20.21875 43.015625 
L 29.109375 43.015625 
Q 36.375 43.015625 40.234375 45.921875 
Q 44.09375 48.828125 44.09375 54.296875 
Q 44.09375 59.90625 40.109375 62.90625 
Q 36.140625 65.921875 28.71875 65.921875 
Q 24.65625 65.921875 20.015625 65.03125 
Q 15.375 64.15625 9.8125 62.3125 
L 9.8125 71.09375 
Q 15.4375 72.65625 20.34375 73.4375 
Q 25.25 74.21875 29.59375 74.21875 
Q 40.828125 74.21875 47.359375 69.109375 
Q 53.90625 64.015625 53.90625 55.328125 
Q 53.90625 49.265625 50.4375 45.09375 
Q 46.96875 40.921875 40.578125 39.3125 
z
" id="DejaVuSans-51"/>
      </defs>
      <g transform="translate(290.511496 585.397656)scale(0.15 -0.15)">
       <use xlink:href="#DejaVuSans-50"/>
       <use x="63.623047" xlink:href="#DejaVuSans-48"/>
       <use x="127.246094" xlink:href="#DejaVuSans-48"/>
       <use x="190.869141" xlink:href="#DejaVuSans-51"/>
       <use x="254.492188" xlink:href="#DejaVuSans-45"/>
       <use x="290.576172" xlink:href="#DejaVuSans-48"/>
       <use x="354.199219" xlink:href="#DejaVuSans-51"/>
      </g>
     </g>
    </g>
    <g id="xtick_3">
     <g id="line2d_3">
      <g>
       <use style="stroke:#000000;stroke-width:0.8;" x="499.697211" xlink:href="#mc1456d4b83" y="567"/>
      </g>
     </g>
     <g id="text_3">
      <!-- 2007-05 -->
      <defs>
       <path d="M 8.203125 72.90625 
L 55.078125 72.90625 
L 55.078125 68.703125 
L 28.609375 0 
L 18.3125 0 
L 43.21875 64.59375 
L 8.203125 64.59375 
z
" id="DejaVuSans-55"/>
       <path d="M 10.796875 72.90625 
L 49.515625 72.90625 
L 49.515625 64.59375 
L 19.828125 64.59375 
L 19.828125 46.734375 
Q 21.96875 47.46875 24.109375 47.828125 
Q 26.265625 48.1875 28.421875 48.1875 
Q 40.625 48.1875 47.75 41.5 
Q 54.890625 34.8125 54.890625 23.390625 
Q 54.890625 11.625 47.5625 5.09375 
Q 40.234375 -1.421875 26.90625 -1.421875 
Q 22.3125 -1.421875 17.546875 -0.640625 
Q 12.796875 0.140625 7.71875 1.703125 
L 7.71875 11.625 
Q 12.109375 9.234375 16.796875 8.0625 
Q 21.484375 6.890625 26.703125 6.890625 
Q 35.15625 6.890625 40.078125 11.328125 
Q 45.015625 15.765625 45.015625 23.390625 
Q 45.015625 31 40.078125 35.4375 
Q 35.15625 39.890625 26.703125 39.890625 
Q 22.75 39.890625 18.8125 39.015625 
Q 14.890625 38.140625 10.796875 36.28125 
z
" id="DejaVuSans-53"/>
      </defs>
      <g transform="translate(468.360102 585.397656)scale(0.15 -0.15)">
       <use xlink:href="#DejaVuSans-50"/>
       <use x="63.623047" xlink:href="#DejaVuSans-48"/>
       <use x="127.246094" xlink:href="#DejaVuSans-48"/>
       <use x="190.869141" xlink:href="#DejaVuSans-55"/>
       <use x="254.492188" xlink:href="#DejaVuSans-45"/>
       <use x="290.576172" xlink:href="#DejaVuSans-48"/>
       <use x="354.199219" xlink:href="#DejaVuSans-53"/>
      </g>
     </g>
    </g>
    <g id="xtick_4">
     <g id="line2d_4">
      <g>
       <use style="stroke:#000000;stroke-width:0.8;" x="677.545817" xlink:href="#mc1456d4b83" y="567"/>
      </g>
     </g>
     <g id="text_4">
      <!-- 2011-07 -->
      <g transform="translate(646.208707 585.397656)scale(0.15 -0.15)">
       <use xlink:href="#DejaVuSans-50"/>
       <use x="63.623047" xlink:href="#DejaVuSans-48"/>
       <use x="127.246094" xlink:href="#DejaVuSans-49"/>
       <use x="190.869141" xlink:href="#DejaVuSans-49"/>
       <use x="254.492188" xlink:href="#DejaVuSans-45"/>
       <use x="290.576172" xlink:href="#DejaVuSans-48"/>
       <use x="354.199219" xlink:href="#DejaVuSans-55"/>
      </g>
     </g>
    </g>
    <g id="xtick_5">
     <g id="line2d_5">
      <g>
       <use style="stroke:#000000;stroke-width:0.8;" x="855.394422" xlink:href="#mc1456d4b83" y="567"/>
      </g>
     </g>
     <g id="text_5">
      <!-- 2015-09 -->
      <g transform="translate(824.057313 585.397656)scale(0.15 -0.15)">
       <use xlink:href="#DejaVuSans-50"/>
       <use x="63.623047" xlink:href="#DejaVuSans-48"/>
       <use x="127.246094" xlink:href="#DejaVuSans-49"/>
       <use x="190.869141" xlink:href="#DejaVuSans-53"/>
       <use x="254.492188" xlink:href="#DejaVuSans-45"/>
       <use x="290.576172" xlink:href="#DejaVuSans-48"/>
       <use x="354.199219" xlink:href="#DejaVuSans-57"/>
      </g>
     </g>
    </g>
    <g id="xtick_6">
     <g id="line2d_6">
      <g>
       <use style="stroke:#000000;stroke-width:0.8;" x="1033.243028" xlink:href="#mc1456d4b83" y="567"/>
      </g>
     </g>
     <g id="text_6">
      <!-- 2019-11 -->
      <g transform="translate(1001.905919 585.397656)scale(0.15 -0.15)">
       <use xlink:href="#DejaVuSans-50"/>
       <use x="63.623047" xlink:href="#DejaVuSans-48"/>
       <use x="127.246094" xlink:href="#DejaVuSans-49"/>
       <use x="190.869141" xlink:href="#DejaVuSans-57"/>
       <use x="254.492188" xlink:href="#DejaVuSans-45"/>
       <use x="290.576172" xlink:href="#DejaVuSans-49"/>
       <use x="354.199219" xlink:href="#DejaVuSans-49"/>
      </g>
     </g>
    </g>
    <g id="text_7">
     <!-- Time -->
     <defs>
      <path d="M -0.296875 72.90625 
L 61.375 72.90625 
L 61.375 64.59375 
L 35.5 64.59375 
L 35.5 0 
L 25.59375 0 
L 25.59375 64.59375 
L -0.296875 64.59375 
z
" id="DejaVuSans-84"/>
      <path d="M 9.421875 54.6875 
L 18.40625 54.6875 
L 18.40625 0 
L 9.421875 0 
z
M 9.421875 75.984375 
L 18.40625 75.984375 
L 18.40625 64.59375 
L 9.421875 64.59375 
z
" id="DejaVuSans-105"/>
      <path d="M 52 44.1875 
Q 55.375 50.25 60.0625 53.125 
Q 64.75 56 71.09375 56 
Q 79.640625 56 84.28125 50.015625 
Q 88.921875 44.046875 88.921875 33.015625 
L 88.921875 0 
L 79.890625 0 
L 79.890625 32.71875 
Q 79.890625 40.578125 77.09375 44.375 
Q 74.3125 48.1875 68.609375 48.1875 
Q 61.625 48.1875 57.5625 43.546875 
Q 53.515625 38.921875 53.515625 30.90625 
L 53.515625 0 
L 44.484375 0 
L 44.484375 32.71875 
Q 44.484375 40.625 41.703125 44.40625 
Q 38.921875 48.1875 33.109375 48.1875 
Q 26.21875 48.1875 22.15625 43.53125 
Q 18.109375 38.875 18.109375 30.90625 
L 18.109375 0 
L 9.078125 0 
L 9.078125 54.6875 
L 18.109375 54.6875 
L 18.109375 46.1875 
Q 21.1875 51.21875 25.484375 53.609375 
Q 29.78125 56 35.6875 56 
Q 41.65625 56 45.828125 52.96875 
Q 50 49.953125 52 44.1875 
z
" id="DejaVuSans-109"/>
      <path d="M 56.203125 29.59375 
L 56.203125 25.203125 
L 14.890625 25.203125 
Q 15.484375 15.921875 20.484375 11.0625 
Q 25.484375 6.203125 34.421875 6.203125 
Q 39.59375 6.203125 44.453125 7.46875 
Q 49.3125 8.734375 54.109375 11.28125 
L 54.109375 2.78125 
Q 49.265625 0.734375 44.1875 -0.34375 
Q 39.109375 -1.421875 33.890625 -1.421875 
Q 20.796875 -1.421875 13.15625 6.1875 
Q 5.515625 13.8125 5.515625 26.8125 
Q 5.515625 40.234375 12.765625 48.109375 
Q 20.015625 56 32.328125 56 
Q 43.359375 56 49.78125 48.890625 
Q 56.203125 41.796875 56.203125 29.59375 
z
M 47.21875 32.234375 
Q 47.125 39.59375 43.09375 43.984375 
Q 39.0625 48.390625 32.421875 48.390625 
Q 24.90625 48.390625 20.390625 44.140625 
Q 15.875 39.890625 15.1875 32.171875 
z
" id="DejaVuSans-101"/>
     </defs>
     <g transform="translate(568.1025 606.194375)scale(0.18 -0.18)">
      <use xlink:href="#DejaVuSans-84"/>
      <use x="61.037109" xlink:href="#DejaVuSans-105"/>
      <use x="88.820312" xlink:href="#DejaVuSans-109"/>
      <use x="186.232422" xlink:href="#DejaVuSans-101"/>
     </g>
    </g>
   </g>
   <g id="matplotlib.axis_2">
    <g id="ytick_1">
     <g id="line2d_7">
      <defs>
       <path d="M 0 0 
L -3.5 0 
" id="m7f3fc384ff" style="stroke:#000000;stroke-width:0.8;"/>
      </defs>
      <g>
       <use style="stroke:#000000;stroke-width:0.8;" x="144" xlink:href="#m7f3fc384ff" y="544.761818"/>
      </g>
     </g>
     <g id="text_8">
      <!-- 0 -->
      <g transform="translate(127.45625 550.460646)scale(0.15 -0.15)">
       <use xlink:href="#DejaVuSans-48"/>
      </g>
     </g>
    </g>
    <g id="ytick_2">
     <g id="line2d_8">
      <g>
       <use style="stroke:#000000;stroke-width:0.8;" x="144" xlink:href="#m7f3fc384ff" y="471.765758"/>
      </g>
     </g>
     <g id="text_9">
      <!-- 10 -->
      <g transform="translate(117.9125 477.464586)scale(0.15 -0.15)">
       <use xlink:href="#DejaVuSans-49"/>
       <use x="63.623047" xlink:href="#DejaVuSans-48"/>
      </g>
     </g>
    </g>
    <g id="ytick_3">
     <g id="line2d_9">
      <g>
       <use style="stroke:#000000;stroke-width:0.8;" x="144" xlink:href="#m7f3fc384ff" y="398.769698"/>
      </g>
     </g>
     <g id="text_10">
      <!-- 20 -->
      <g transform="translate(117.9125 404.468526)scale(0.15 -0.15)">
       <use xlink:href="#DejaVuSans-50"/>
       <use x="63.623047" xlink:href="#DejaVuSans-48"/>
      </g>
     </g>
    </g>
    <g id="ytick_4">
     <g id="line2d_10">
      <g>
       <use style="stroke:#000000;stroke-width:0.8;" x="144" xlink:href="#m7f3fc384ff" y="325.773637"/>
      </g>
     </g>
     <g id="text_11">
      <!-- 30 -->
      <g transform="translate(117.9125 331.472465)scale(0.15 -0.15)">
       <use xlink:href="#DejaVuSans-51"/>
       <use x="63.623047" xlink:href="#DejaVuSans-48"/>
      </g>
     </g>
    </g>
    <g id="ytick_5">
     <g id="line2d_11">
      <g>
       <use style="stroke:#000000;stroke-width:0.8;" x="144" xlink:href="#m7f3fc384ff" y="252.777577"/>
      </g>
     </g>
     <g id="text_12">
      <!-- 40 -->
      <defs>
       <path d="M 37.796875 64.3125 
L 12.890625 25.390625 
L 37.796875 25.390625 
z
M 35.203125 72.90625 
L 47.609375 72.90625 
L 47.609375 25.390625 
L 58.015625 25.390625 
L 58.015625 17.1875 
L 47.609375 17.1875 
L 47.609375 0 
L 37.796875 0 
L 37.796875 17.1875 
L 4.890625 17.1875 
L 4.890625 26.703125 
z
" id="DejaVuSans-52"/>
      </defs>
      <g transform="translate(117.9125 258.476405)scale(0.15 -0.15)">
       <use xlink:href="#DejaVuSans-52"/>
       <use x="63.623047" xlink:href="#DejaVuSans-48"/>
      </g>
     </g>
    </g>
    <g id="ytick_6">
     <g id="line2d_12">
      <g>
       <use style="stroke:#000000;stroke-width:0.8;" x="144" xlink:href="#m7f3fc384ff" y="179.781517"/>
      </g>
     </g>
     <g id="text_13">
      <!-- 50 -->
      <g transform="translate(117.9125 185.480345)scale(0.15 -0.15)">
       <use xlink:href="#DejaVuSans-53"/>
       <use x="63.623047" xlink:href="#DejaVuSans-48"/>
      </g>
     </g>
    </g>
    <g id="ytick_7">
     <g id="line2d_13">
      <g>
       <use style="stroke:#000000;stroke-width:0.8;" x="144" xlink:href="#m7f3fc384ff" y="106.785456"/>
      </g>
     </g>
     <g id="text_14">
      <!-- 60 -->
      <defs>
       <path d="M 33.015625 40.375 
Q 26.375 40.375 22.484375 35.828125 
Q 18.609375 31.296875 18.609375 23.390625 
Q 18.609375 15.53125 22.484375 10.953125 
Q 26.375 6.390625 33.015625 6.390625 
Q 39.65625 6.390625 43.53125 10.953125 
Q 47.40625 15.53125 47.40625 23.390625 
Q 47.40625 31.296875 43.53125 35.828125 
Q 39.65625 40.375 33.015625 40.375 
z
M 52.59375 71.296875 
L 52.59375 62.3125 
Q 48.875 64.0625 45.09375 64.984375 
Q 41.3125 65.921875 37.59375 65.921875 
Q 27.828125 65.921875 22.671875 59.328125 
Q 17.53125 52.734375 16.796875 39.40625 
Q 19.671875 43.65625 24.015625 45.921875 
Q 28.375 48.1875 33.59375 48.1875 
Q 44.578125 48.1875 50.953125 41.515625 
Q 57.328125 34.859375 57.328125 23.390625 
Q 57.328125 12.15625 50.6875 5.359375 
Q 44.046875 -1.421875 33.015625 -1.421875 
Q 20.359375 -1.421875 13.671875 8.265625 
Q 6.984375 17.96875 6.984375 36.375 
Q 6.984375 53.65625 15.1875 63.9375 
Q 23.390625 74.21875 37.203125 74.21875 
Q 40.921875 74.21875 44.703125 73.484375 
Q 48.484375 72.75 52.59375 71.296875 
z
" id="DejaVuSans-54"/>
      </defs>
      <g transform="translate(117.9125 112.484285)scale(0.15 -0.15)">
       <use xlink:href="#DejaVuSans-54"/>
       <use x="63.623047" xlink:href="#DejaVuSans-48"/>
      </g>
     </g>
    </g>
   </g>
   <g id="line2d_14">
    <path clip-path="url(#p46fb544173)" d="M 144 542.256035 
L 147.556972 537.244467 
L 151.113944 544.761818 
L 154.670916 539.750251 
L 158.227888 539.750251 
L 161.784861 542.256035 
L 165.341833 542.256035 
L 168.898805 539.750251 
L 172.455777 539.750251 
L 176.012749 544.761818 
L 179.569721 532.2329 
L 183.126693 517.198197 
L 186.683665 534.63235 
L 190.240637 514.373415 
L 193.79761 534.63235 
L 197.354582 532.099983 
L 200.911554 511.841048 
L 204.468526 537.164717 
L 208.025498 544.761818 
L 211.58247 544.761818 
L 215.139442 542.229451 
L 218.696414 544.761818 
L 229.367331 537.062037 
L 232.924303 539.62863 
L 236.481275 539.62863 
L 240.038247 542.195224 
L 243.595219 539.62863 
L 247.152191 539.62863 
L 254.266135 544.761818 
L 261.38008 544.761818 
L 264.937052 542.195224 
L 268.494024 524.229067 
L 272.050996 476.784741 
L 275.607968 502.929771 
L 279.16494 502.929771 
L 282.721912 526.460297 
L 286.278884 500.315268 
L 289.835857 539.532812 
L 293.392829 536.918309 
L 296.949801 542.147315 
L 300.506773 536.918309 
L 304.063745 510.77328 
L 307.620717 508.158777 
L 311.177689 536.918309 
L 314.734661 518.155809 
L 318.291633 494.210401 
L 321.848606 475.586195 
L 325.405578 520.81641 
L 328.96255 491.5498 
L 332.519522 496.871002 
L 336.076494 536.780015 
L 339.633466 520.81641 
L 343.190438 515.495208 
L 346.74741 515.495208 
L 350.304382 520.81641 
L 353.861355 523.477011 
L 357.418327 536.689899 
L 360.975299 533.999259 
L 364.532271 525.92734 
L 368.089243 485.567744 
L 371.646215 496.330303 
L 375.203187 515.164781 
L 378.760159 520.546061 
L 382.317131 542.071179 
L 385.874104 544.761818 
L 392.988048 544.761818 
L 396.54502 542.071179 
L 400.101992 544.761818 
L 403.658964 531.315657 
L 407.215936 539.383354 
L 410.772908 523.247961 
L 414.32988 528.626425 
L 417.886853 544.761818 
L 425.000797 544.761818 
L 428.557769 534.00489 
L 432.114741 542.072586 
L 435.671713 531.315657 
L 439.228685 539.383354 
L 442.785657 520.846979 
L 446.342629 478.33171 
L 449.899602 478.33171 
L 453.456574 422.530419 
L 457.013546 390.643967 
L 460.570518 433.159236 
L 464.12749 483.646119 
L 467.684462 531.475797 
L 471.241434 534.133001 
L 474.798406 534.133001 
L 478.355378 542.104614 
L 481.912351 542.104614 
L 485.469323 539.559601 
L 489.026295 544.761818 
L 492.583267 539.559601 
L 496.140239 521.351839 
L 503.254183 438.116358 
L 506.811155 430.313032 
L 510.368127 383.493074 
L 513.9251 440.717467 
L 517.482072 456.32412 
L 521.039044 477.13299 
L 524.596016 474.531881 
L 528.152988 489.076983 
L 531.70996 481.483597 
L 535.266932 476.421339 
L 538.823904 458.703437 
L 542.380876 425.798762 
L 545.937849 448.578922 
L 549.494821 484.014726 
L 553.051793 468.827953 
L 556.608765 499.201499 
L 560.165737 466.296824 
L 563.722709 466.296824 
L 567.279681 489.076983 
L 570.836653 470.953647 
L 574.393625 453.73174 
L 577.950598 443.89065 
L 581.50757 372.542751 
L 585.064542 370.082479 
L 588.621514 421.748199 
L 592.178486 510.318005 
L 595.735458 520.159094 
L 599.29243 539.841273 
L 602.849402 539.841273 
L 606.406375 542.301546 
L 609.963347 542.301546 
L 613.520319 539.966525 
L 617.077291 542.364172 
L 620.634263 537.568879 
L 624.191235 530.375939 
L 627.748207 511.194767 
L 631.305179 515.99006 
L 634.862151 506.399474 
L 638.419124 501.604181 
L 641.976096 527.978293 
L 645.533068 535.171232 
L 652.647012 539.966525 
L 656.203984 540.055786 
L 659.760956 523.584675 
L 663.317928 514.172611 
L 666.8749 483.583404 
L 670.431873 485.93642 
L 673.988845 514.172611 
L 677.545817 497.7015 
L 681.102789 516.525627 
L 684.659761 518.878643 
L 688.216733 516.525627 
L 691.773705 490.642452 
L 695.330677 525.937691 
L 698.887649 528.556343 
L 702.444622 477.624848 
L 706.001594 470.679644 
L 709.558566 470.679644 
L 713.115538 410.487877 
L 716.67251 482.254984 
L 720.229482 484.570051 
L 723.786454 475.30978 
L 727.343426 503.090595 
L 730.900398 468.364576 
L 734.457371 442.898828 
L 738.014343 429.008421 
L 741.571315 423.89114 
L 745.128287 430.732877 
L 748.685259 401.085352 
L 752.242231 387.401879 
L 755.799203 474.063874 
L 759.356175 474.063874 
L 762.913147 508.272557 
L 766.47012 535.639503 
L 770.027092 542.481239 
L 773.584064 540.200661 
L 777.141036 542.481239 
L 780.698008 542.481239 
L 784.25498 528.964463 
L 787.811952 526.707697 
L 791.368924 528.964463 
L 794.925896 537.991523 
L 798.482869 542.505053 
L 802.039841 537.991523 
L 805.596813 528.964463 
L 809.153785 542.505053 
L 812.710757 544.761818 
L 819.824701 540.248288 
L 826.938645 544.761818 
L 830.495618 540.26861 
L 834.05259 544.761818 
L 837.609562 544.761818 
L 841.166534 535.775401 
L 844.723506 540.26861 
L 848.280478 540.26861 
L 851.83745 544.761818 
L 858.951394 544.761818 
L 862.508367 538.022005 
L 866.065339 540.26861 
L 869.622311 544.761818 
L 873.179283 542.509615 
L 876.736255 531.248596 
L 880.293227 531.248596 
L 883.850199 526.744189 
L 890.964143 526.744189 
L 894.521116 528.996393 
L 898.078088 528.996393 
L 901.63506 540.257411 
L 905.192032 540.257411 
L 908.749004 544.761818 
L 912.305976 542.491125 
L 915.862948 544.761818 
L 922.976892 531.13766 
L 926.533865 535.679046 
L 930.090837 533.408353 
L 933.647809 544.761818 
L 940.761753 540.220432 
L 944.318725 531.13766 
L 947.875697 506.160036 
L 951.432669 517.513502 
L 954.989641 517.218933 
L 958.546614 519.514173 
L 962.103586 494.266528 
L 965.660558 496.561769 
L 969.21753 482.790326 
L 972.774502 512.628452 
L 976.331474 533.285616 
L 979.888446 528.695135 
L 983.445418 540.171337 
L 987.00239 535.580856 
L 990.559363 517.218933 
L 994.116335 526.399895 
L 997.673307 466.723643 
L 1001.230279 498.857009 
L 1004.787251 501.152249 
L 1008.344223 489.676047 
L 1011.901195 505.74273 
L 1015.458167 530.990375 
L 1019.015139 524.104654 
L 1022.572112 542.466578 
L 1026.129084 537.876097 
L 1029.686056 530.990375 
L 1033.243028 542.466578 
L 1036.8 533.285616 
L 1036.8 533.285616 
" style="fill:none;stroke:#1f77b4;stroke-linecap:square;stroke-width:2.5;"/>
   </g>
   <g id="line2d_15">
    <path clip-path="url(#p46fb544173)" d="M 144 544.761818 
L 154.670916 544.761818 
L 158.227888 540.921501 
L 161.784861 542.84166 
L 165.341833 539.001342 
L 168.898805 544.761818 
L 179.569721 544.761818 
L 183.126693 537.081184 
L 186.683665 542.860011 
L 190.240637 533.350978 
L 193.79761 542.860011 
L 197.354582 537.154591 
L 200.911554 544.761818 
L 204.468526 544.761818 
L 208.025498 542.860011 
L 211.58247 544.761818 
L 240.038247 544.761818 
L 243.595219 542.875285 
L 247.152191 542.875285 
L 250.709163 544.761818 
L 257.823108 544.761818 
L 261.38008 542.875285 
L 268.494024 542.875285 
L 272.050996 537.274162 
L 275.607968 539.146076 
L 279.16494 544.761818 
L 282.721912 544.761818 
L 286.278884 537.274162 
L 289.835857 544.761818 
L 293.392829 542.889904 
L 296.949801 542.889904 
L 300.506773 537.274162 
L 304.063745 529.786505 
L 307.620717 535.402247 
L 311.177689 539.146076 
L 314.734661 535.408745 
L 318.291633 533.53813 
L 321.848606 527.926286 
L 325.405578 539.149974 
L 328.96255 535.408745 
L 332.519522 541.020589 
L 336.076494 531.667516 
L 339.633466 533.53813 
L 346.74741 541.020589 
L 353.861355 544.761818 
L 357.418327 544.761818 
L 364.532271 537.251528 
L 368.089243 535.373955 
L 371.646215 537.251528 
L 375.203187 537.251528 
L 378.760159 541.006673 
L 382.317131 541.006673 
L 385.874104 544.761818 
L 389.431076 542.884246 
L 392.988048 544.761818 
L 403.658964 544.761818 
L 407.215936 540.985027 
L 410.772908 544.761818 
L 421.443825 544.761818 
L 425.000797 542.873423 
L 428.557769 544.761818 
L 432.114741 542.873423 
L 435.671713 544.761818 
L 439.228685 544.761818 
L 442.785657 540.948458 
L 446.342629 527.601699 
L 449.899602 510.441579 
L 453.456574 518.068299 
L 457.013546 512.348259 
L 460.570518 529.508378 
L 464.12749 533.321738 
L 467.684462 544.761818 
L 485.469323 544.761818 
L 489.026295 542.83877 
L 492.583267 542.83877 
L 496.140239 535.146578 
L 499.697211 523.608289 
L 503.254183 515.916096 
L 506.811155 492.839519 
L 510.368127 496.685615 
L 513.9251 529.377433 
L 517.482072 519.762193 
L 521.039044 525.531337 
L 524.596016 517.839145 
L 528.152988 525.422496 
L 531.70996 523.488563 
L 535.266932 471.272392 
L 538.823904 492.545647 
L 542.380876 480.942054 
L 545.937849 494.47958 
L 549.494821 502.215309 
L 553.051793 523.488563 
L 556.608765 523.488563 
L 560.165737 500.281376 
L 563.722709 486.743851 
L 567.279681 523.488563 
L 570.836653 499.973559 
L 574.393625 499.973559 
L 577.950598 476.605772 
L 581.50757 420.133619 
L 585.064542 431.817513 
L 588.621514 486.34235 
L 592.178486 533.077925 
L 595.735458 540.867187 
L 599.29243 538.919871 
L 602.849402 542.814503 
L 606.406375 544.761818 
L 609.963347 544.761818 
L 613.520319 542.799393 
L 617.077291 544.761818 
L 624.191235 540.836969 
L 627.748207 513.363021 
L 631.305179 534.949694 
L 634.862151 507.475747 
L 638.419124 531.024845 
L 641.976096 532.987269 
L 645.533068 542.799393 
L 649.09004 542.799393 
L 652.647012 538.874544 
L 656.203984 536.825439 
L 659.760956 540.793628 
L 663.317928 483.254877 
L 666.8749 471.350308 
L 670.431873 481.270783 
L 673.988845 461.429834 
L 677.545817 505.079921 
L 681.102789 528.889059 
L 688.216733 513.0163 
L 691.773705 511.032206 
L 695.330677 511.032206 
L 698.887649 532.64457 
L 702.444622 508.410074 
L 706.001594 494.273284 
L 709.558566 431.667501 
L 713.115538 417.530712 
L 716.67251 445.804291 
L 720.229482 480.136494 
L 723.786454 504.370991 
L 727.343426 490.234201 
L 730.900398 480.136494 
L 734.457371 457.921539 
L 738.014343 409.452546 
L 741.571315 394.836605 
L 745.128287 394.836605 
L 748.685259 322.954653 
L 752.242231 283.933022 
L 755.799203 423.589385 
L 759.356175 520.116578 
L 762.913147 520.116578 
L 766.47012 534.492968 
L 770.027092 538.600508 
L 773.584064 520.116578 
L 777.141036 534.492968 
L 780.698008 542.708048 
L 784.25498 534.413847 
L 787.811952 542.692224 
L 791.368924 542.692224 
L 794.925896 544.761818 
L 802.039841 544.761818 
L 805.596813 542.692224 
L 809.153785 544.761818 
L 823.381673 544.761818 
L 826.938645 536.503467 
L 830.495618 538.568055 
L 834.05259 542.69723 
L 841.166534 542.69723 
L 844.723506 540.632643 
L 848.280478 542.69723 
L 851.83745 542.69723 
L 855.394422 544.761818 
L 858.951394 542.69723 
L 862.508367 542.69723 
L 866.065339 536.503467 
L 869.622311 544.761818 
L 873.179283 540.691966 
L 876.736255 528.482408 
L 880.293227 526.447482 
L 883.850199 538.657039 
L 887.407171 528.482408 
L 890.964143 512.202998 
L 894.521116 510.168072 
L 898.078088 534.587187 
L 901.63506 532.552261 
L 905.192032 542.726892 
L 908.749004 544.761818 
L 912.305976 538.809804 
L 915.862948 544.761818 
L 919.41992 542.777813 
L 922.976892 542.777813 
L 926.533865 536.825799 
L 930.090837 538.809804 
L 933.647809 528.88978 
L 937.204781 538.809804 
L 940.761753 542.777813 
L 944.318725 534.841794 
L 947.875697 532.857789 
L 951.432669 542.777813 
L 954.989641 537.069239 
L 958.546614 535.146094 
L 962.103586 519.760935 
L 965.660558 517.83779 
L 969.21753 517.83779 
L 972.774502 540.915528 
L 976.331474 531.299804 
L 979.888446 535.146094 
L 983.445418 542.838673 
L 987.00239 538.992384 
L 990.559363 542.838673 
L 994.116335 544.761818 
L 997.673307 521.68408 
L 1001.230279 544.761818 
L 1004.787251 531.299804 
L 1008.344223 529.376659 
L 1011.901195 513.9915 
L 1015.458167 508.222065 
L 1019.015139 527.453514 
L 1022.572112 540.915528 
L 1026.129084 540.915528 
L 1029.686056 533.222949 
L 1033.243028 531.299804 
L 1036.8 531.299804 
L 1036.8 531.299804 
" style="fill:none;stroke:#ff7f0e;stroke-linecap:square;stroke-width:2.5;"/>
   </g>
   <g id="line2d_16">
    <path clip-path="url(#p46fb544173)" d="M 144 544.761818 
L 147.556972 542.744028 
L 151.113944 544.761818 
L 179.569721 544.761818 
L 183.126693 542.744028 
L 186.683665 542.750399 
L 190.240637 540.73898 
L 193.79761 544.761818 
L 197.354582 542.750399 
L 200.911554 542.750399 
L 204.468526 544.761818 
L 211.58247 544.761818 
L 215.139442 542.750399 
L 225.810359 542.750399 
L 229.367331 544.761818 
L 240.038247 544.761818 
L 243.595219 542.764832 
L 247.152191 544.761818 
L 250.709163 542.764832 
L 254.266135 542.764832 
L 257.823108 544.761818 
L 261.38008 544.761818 
L 268.494024 536.773875 
L 272.050996 532.962006 
L 275.607968 534.928641 
L 279.16494 542.795183 
L 286.278884 542.795183 
L 293.392829 538.861912 
L 296.949801 542.795183 
L 311.177689 542.795183 
L 314.734661 540.90404 
L 318.291633 542.832929 
L 321.848606 537.046263 
L 325.405578 544.761818 
L 328.96255 535.117374 
L 332.519522 540.90404 
L 336.076494 538.975152 
L 339.633466 538.975152 
L 343.190438 544.761818 
L 357.418327 544.761818 
L 360.975299 542.864292 
L 371.646215 542.864292 
L 375.203187 544.761818 
L 378.760159 544.761818 
L 382.317131 542.864292 
L 385.874104 544.761818 
L 421.443825 544.761818 
L 425.000797 542.883054 
L 428.557769 544.761818 
L 432.114741 544.761818 
L 435.671713 542.883054 
L 439.228685 544.761818 
L 442.785657 539.180395 
L 446.342629 539.180395 
L 449.899602 528.01755 
L 453.456574 524.296602 
L 457.013546 511.273282 
L 460.570518 526.157076 
L 464.12749 535.459447 
L 467.684462 539.180395 
L 471.241434 541.04087 
L 474.798406 544.761818 
L 478.355378 542.901344 
L 481.912351 544.761818 
L 492.583267 544.761818 
L 496.140239 533.730246 
L 499.697211 533.730246 
L 503.254183 515.344292 
L 506.811155 526.375865 
L 510.368127 500.635529 
L 513.9251 537.407437 
L 517.482072 535.568841 
L 521.039044 537.407437 
L 524.596016 535.568841 
L 528.152988 535.625939 
L 531.70996 530.144411 
L 535.266932 519.181356 
L 538.823904 513.699828 
L 542.380876 530.144411 
L 545.937849 515.527004 
L 553.051793 522.835708 
L 556.608765 519.181356 
L 560.165737 530.144411 
L 563.722709 517.35418 
L 567.279681 530.144411 
L 570.836653 517.434035 
L 574.393625 533.830705 
L 577.950598 521.07774 
L 581.50757 501.037366 
L 585.064542 510.146627 
L 588.621514 521.07774 
L 592.178486 539.296262 
L 595.735458 544.761818 
L 613.520319 544.761818 
L 617.077291 542.94117 
L 620.634263 542.94117 
L 624.191235 541.120522 
L 627.748207 530.196634 
L 631.305179 541.120522 
L 634.862151 493.783674 
L 638.419124 535.658578 
L 641.976096 541.120522 
L 645.533068 539.299874 
L 649.09004 535.658578 
L 652.647012 544.761818 
L 656.203984 531.947087 
L 659.760956 541.100466 
L 663.317928 493.502893 
L 666.8749 504.486948 
L 670.431873 495.333568 
L 673.988845 504.486948 
L 677.545817 524.624383 
L 681.102789 530.116411 
L 684.659761 513.640328 
L 688.216733 517.301679 
L 691.773705 535.608439 
L 695.330677 531.947087 
L 698.887649 529.975377 
L 702.444622 518.885545 
L 706.001594 529.975377 
L 709.558566 520.73385 
L 713.115538 493.009272 
L 716.67251 494.857578 
L 720.229482 504.099104 
L 723.786454 509.644019 
L 727.343426 483.767746 
L 730.900398 511.492324 
L 734.457371 478.222831 
L 738.014343 504.099104 
L 741.571315 469.979546 
L 745.128287 507.370682 
L 748.685259 410.153728 
L 752.242231 387.719046 
L 755.799203 458.762205 
L 759.356175 520.45758 
L 762.913147 526.06625 
L 766.47012 537.283591 
L 770.027092 535.414034 
L 777.141036 539.153148 
L 780.698008 539.153148 
L 784.25498 531.546257 
L 787.811952 540.985943 
L 794.925896 544.761818 
L 798.482869 542.873881 
L 802.039841 544.761818 
L 823.381673 544.761818 
L 826.938645 540.956748 
L 830.495618 542.859283 
L 834.05259 542.859283 
L 837.609562 544.761818 
L 841.166534 544.761818 
L 848.280478 540.956748 
L 851.83745 540.956748 
L 855.394422 544.761818 
L 858.951394 542.859283 
L 862.508367 542.859283 
L 866.065339 540.956748 
L 869.622311 544.761818 
L 873.179283 537.08086 
L 876.736255 533.240381 
L 880.293227 533.240381 
L 883.850199 539.0011 
L 887.407171 506.357029 
L 890.964143 483.314155 
L 894.521116 494.835592 
L 898.078088 533.240381 
L 901.63506 527.479663 
L 905.192032 539.0011 
L 908.749004 544.761818 
L 912.305976 536.958056 
L 915.862948 544.761818 
L 919.41992 544.761818 
L 922.976892 542.810878 
L 926.533865 533.056175 
L 930.090837 544.761818 
L 933.647809 544.761818 
L 937.204781 542.810878 
L 940.761753 538.908997 
L 944.318725 540.859937 
L 947.875697 538.908997 
L 951.432669 535.007115 
L 954.989641 530.872365 
L 958.546614 520.951327 
L 962.103586 507.061874 
L 965.660558 485.235591 
L 969.21753 495.156629 
L 972.774502 530.872365 
L 976.331474 522.935535 
L 979.888446 524.919742 
L 983.445418 540.793403 
L 987.00239 542.777611 
L 990.559363 542.777611 
L 994.116335 544.761818 
L 997.673307 536.824988 
L 1001.230279 534.84078 
L 1004.787251 530.872365 
L 1008.344223 532.856573 
L 1011.901195 507.061874 
L 1015.458167 513.014497 
L 1022.572112 528.888158 
L 1026.129084 542.777611 
L 1029.686056 522.935535 
L 1033.243028 538.809195 
L 1036.8 536.824988 
L 1036.8 536.824988 
" style="fill:none;stroke:#2ca02c;stroke-linecap:square;stroke-width:2.5;"/>
   </g>
   <g id="line2d_17">
    <path clip-path="url(#p46fb544173)" d="M 144 544.761818 
L 147.556972 542.861724 
L 151.113944 537.161443 
L 154.670916 543.811771 
L 158.227888 544.761818 
L 161.784861 539.061536 
L 165.341833 539.061536 
L 168.898805 541.911677 
L 172.455777 541.911677 
L 176.012749 544.761818 
L 186.683665 544.761818 
L 190.240637 542.838381 
L 193.79761 544.761818 
L 197.354582 541.876663 
L 200.911554 543.8001 
L 204.468526 544.761818 
L 208.025498 541.876663 
L 211.58247 544.761818 
L 215.139442 544.761818 
L 222.253386 542.838381 
L 225.810359 542.838381 
L 232.924303 544.761818 
L 236.481275 544.761818 
L 240.038247 543.792414 
L 243.595219 544.761818 
L 250.709163 544.761818 
L 254.266135 543.792414 
L 257.823108 540.884201 
L 261.38008 543.792414 
L 264.937052 542.82301 
L 268.494024 537.006583 
L 275.607968 538.901453 
L 279.16494 542.808363 
L 282.721912 541.831635 
L 286.278884 544.761818 
L 289.835857 544.761818 
L 293.392829 542.808363 
L 296.949801 543.785091 
L 304.063745 541.831635 
L 307.620717 542.808363 
L 311.177689 544.761818 
L 314.734661 539.863479 
L 318.291633 539.863479 
L 321.848606 537.904143 
L 328.96255 539.863479 
L 332.519522 544.761818 
L 336.076494 544.761818 
L 339.633466 540.843147 
L 343.190438 542.802483 
L 346.74741 541.822815 
L 350.304382 541.822815 
L 353.861355 543.78215 
L 357.418327 542.816541 
L 360.975299 544.761818 
L 364.532271 540.871263 
L 368.089243 542.816541 
L 371.646215 542.816541 
L 375.203187 541.843902 
L 378.760159 541.843902 
L 382.317131 544.761818 
L 385.874104 544.761818 
L 392.988048 542.816541 
L 396.54502 544.761818 
L 400.101992 543.809042 
L 403.658964 544.761818 
L 410.772908 542.856266 
L 414.32988 544.761818 
L 417.886853 543.809042 
L 421.443825 544.761818 
L 425.000797 544.761818 
L 428.557769 542.856266 
L 432.114741 543.809042 
L 435.671713 542.856266 
L 439.228685 543.809042 
L 442.785657 542.904098 
L 446.342629 541.046379 
L 449.899602 529.90006 
L 453.456574 532.68664 
L 457.013546 529.90006 
L 460.570518 530.82892 
L 464.12749 541.046379 
L 467.684462 543.832958 
L 471.241434 542.904098 
L 474.798406 542.904098 
L 478.355378 544.761818 
L 489.026295 544.761818 
L 499.697211 542.044497 
L 503.254183 539.327176 
L 506.811155 530.269439 
L 510.368127 536.609855 
L 513.9251 532.080986 
L 517.482072 536.609855 
L 521.039044 542.044497 
L 524.596016 539.327176 
L 528.152988 536.805712 
L 531.70996 538.573736 
L 535.266932 534.153677 
L 538.823904 538.573736 
L 542.380876 537.689724 
L 549.494821 530.61763 
L 553.051793 535.037689 
L 556.608765 534.153677 
L 560.165737 528.849606 
L 563.722709 540.341759 
L 567.279681 535.921701 
L 570.836653 538.657576 
L 574.393625 540.401645 
L 581.50757 531.6813 
L 585.064542 530.809265 
L 588.621514 536.913507 
L 592.178486 540.401645 
L 595.735458 541.27368 
L 599.29243 543.889784 
L 602.849402 544.761818 
L 613.520319 544.761818 
L 617.077291 543.031414 
L 620.634263 543.896616 
L 624.191235 543.896616 
L 627.748207 541.30101 
L 631.305179 543.896616 
L 634.862151 531.783787 
L 638.419124 533.514191 
L 641.976096 540.435808 
L 645.533068 536.975 
L 649.09004 541.30101 
L 652.647012 544.761818 
L 656.203984 539.637544 
L 659.760956 539.637544 
L 663.317928 515.724266 
L 666.8749 523.410677 
L 670.431873 527.680905 
L 673.988845 535.367316 
L 677.545817 532.805179 
L 681.102789 538.783499 
L 684.659761 543.053727 
L 688.216733 537.929453 
L 691.773705 541.345636 
L 695.330677 538.783499 
L 698.887649 544.761818 
L 702.444622 537.151355 
L 706.001594 530.386499 
L 709.558566 532.077713 
L 713.115538 516.856787 
L 716.67251 532.92332 
L 720.229482 528.695285 
L 723.786454 529.540892 
L 727.343426 524.46725 
L 730.900398 530.386499 
L 734.457371 521.084822 
L 738.014343 520.239215 
L 741.571315 520.311718 
L 745.128287 525.37036 
L 748.685259 527.056573 
L 752.242231 487.430549 
L 755.799203 527.056573 
L 759.356175 530.429001 
L 766.47012 542.232498 
L 770.027092 543.918711 
L 773.584064 542.232498 
L 777.141036 543.075604 
L 780.698008 543.075604 
L 784.25498 539.719321 
L 787.811952 543.080986 
L 791.368924 540.559737 
L 794.925896 540.559737 
L 798.482869 543.921402 
L 802.039841 544.761818 
L 805.596813 543.080986 
L 809.153785 544.761818 
L 826.938645 544.761818 
L 830.495618 543.924824 
L 834.05259 544.761818 
L 837.609562 543.087829 
L 841.166534 543.924824 
L 844.723506 540.576846 
L 848.280478 543.087829 
L 851.83745 543.087829 
L 855.394422 542.250835 
L 858.951394 544.761818 
L 862.508367 543.924824 
L 866.065339 544.761818 
L 869.622311 544.761818 
L 873.179283 536.419566 
L 876.736255 538.088016 
L 880.293227 533.082665 
L 883.850199 532.24844 
L 887.407171 528.077313 
L 890.964143 517.232385 
L 894.521116 519.735061 
L 898.078088 540.590692 
L 901.63506 535.585341 
L 905.192032 542.259142 
L 908.749004 543.927593 
L 912.305976 543.094636 
L 915.862948 544.761818 
L 919.41992 543.928227 
L 922.976892 542.261044 
L 926.533865 535.592313 
L 930.090837 541.427453 
L 933.647809 542.261044 
L 937.204781 540.593861 
L 940.761753 541.427453 
L 944.318725 544.761818 
L 951.432669 538.093087 
L 954.989641 535.574008 
L 962.103586 520.539409 
L 965.660558 506.340065 
L 969.21753 526.386197 
L 972.774502 527.221453 
L 976.331474 518.868898 
L 979.888446 534.738752 
L 983.445418 538.91503 
L 987.00239 544.761818 
L 990.559363 542.256052 
L 994.116335 543.926563 
L 997.673307 542.256052 
L 1001.230279 531.39773 
L 1004.787251 532.232986 
L 1008.344223 530.562475 
L 1011.901195 523.880431 
L 1015.458167 525.550942 
L 1019.015139 531.39773 
L 1022.572112 531.39773 
L 1026.129084 538.079774 
L 1029.686056 539.750285 
L 1033.243028 543.926563 
L 1036.8 541.420796 
L 1036.8 541.420796 
" style="fill:none;stroke:#d62728;stroke-linecap:square;stroke-width:2.5;"/>
   </g>
   <g id="line2d_18">
    <path clip-path="url(#p46fb544173)" d="M 144 544.761818 
L 151.113944 544.35618 
L 158.227888 544.761818 
L 161.784861 544.761818 
L 165.341833 544.35618 
L 168.898805 544.761818 
L 172.455777 544.558999 
L 176.012749 544.761818 
L 179.569721 544.558999 
L 183.126693 544.761818 
L 193.79761 544.761818 
L 197.354582 544.158907 
L 200.911554 544.359877 
L 204.468526 544.761818 
L 208.025498 544.761818 
L 211.58247 544.560848 
L 215.139442 544.761818 
L 222.253386 544.761818 
L 225.810359 544.359877 
L 229.367331 544.761818 
L 232.924303 544.562699 
L 236.481275 544.562699 
L 240.038247 544.761818 
L 243.595219 544.562699 
L 247.152191 544.761818 
L 250.709163 544.562699 
L 254.266135 544.761818 
L 257.823108 544.761818 
L 261.38008 544.363579 
L 264.937052 544.761818 
L 272.050996 543.972306 
L 275.607968 544.56444 
L 279.16494 544.761818 
L 282.721912 544.56444 
L 286.278884 544.169684 
L 289.835857 544.761818 
L 293.392829 544.169684 
L 296.949801 544.761818 
L 300.506773 544.761818 
L 304.063745 544.367062 
L 307.620717 544.367062 
L 311.177689 544.761818 
L 314.734661 544.369994 
L 318.291633 544.369994 
L 321.848606 543.194522 
L 325.405578 543.97817 
L 328.96255 543.586346 
L 336.076494 544.761818 
L 343.190438 544.369994 
L 350.304382 544.761818 
L 353.861355 543.97817 
L 357.418327 544.372344 
L 360.975299 544.567081 
L 368.089243 544.567081 
L 371.646215 544.372344 
L 375.203187 544.372344 
L 378.760159 544.761818 
L 382.317131 544.372344 
L 385.874104 544.761818 
L 389.431076 544.567081 
L 392.988048 544.761818 
L 403.658964 544.761818 
L 407.215936 544.374703 
L 410.772908 544.568261 
L 414.32988 544.568261 
L 417.886853 544.761818 
L 435.671713 544.761818 
L 439.228685 544.181146 
L 442.785657 544.184781 
L 446.342629 544.377127 
L 449.899602 543.030706 
L 453.456574 539.760826 
L 457.013546 542.261322 
L 460.570518 542.261322 
L 464.12749 543.800089 
L 467.684462 544.569472 
L 471.241434 544.761818 
L 474.798406 544.569472 
L 478.355378 544.569472 
L 481.912351 544.761818 
L 485.469323 544.379311 
L 489.026295 544.570564 
L 492.583267 544.188057 
L 496.140239 544.570564 
L 499.697211 544.188057 
L 503.254183 543.040535 
L 506.811155 542.658028 
L 510.368127 543.231789 
L 513.9251 542.466774 
L 517.482072 543.996803 
L 521.039044 543.231789 
L 524.596016 543.996803 
L 528.152988 543.431446 
L 531.70996 543.621499 
L 535.266932 542.861286 
L 538.823904 541.530913 
L 542.380876 542.101073 
L 545.937849 542.861286 
L 549.494821 542.671233 
L 553.051793 543.811552 
L 556.608765 544.381712 
L 560.165737 543.621499 
L 563.722709 543.621499 
L 567.279681 542.48118 
L 570.836653 543.630247 
L 574.393625 543.818842 
L 577.950598 542.498675 
L 581.50757 542.875866 
L 585.064542 542.875866 
L 588.621514 543.441651 
L 592.178486 544.573223 
L 595.735458 544.196032 
L 599.29243 544.384628 
L 602.849402 544.761818 
L 617.077291 544.761818 
L 620.634263 544.200975 
L 624.191235 544.014027 
L 627.748207 543.453183 
L 631.305179 543.827079 
L 634.862151 543.827079 
L 638.419124 542.144548 
L 641.976096 544.200975 
L 645.533068 543.827079 
L 652.647012 544.57487 
L 656.203984 544.206058 
L 659.760956 543.465043 
L 663.317928 541.983015 
L 666.8749 539.945226 
L 670.431873 538.648451 
L 673.988845 542.724029 
L 677.545817 542.353522 
L 681.102789 543.465043 
L 684.659761 544.020804 
L 688.216733 543.094536 
L 691.773705 543.650297 
L 695.330677 543.835551 
L 698.887649 543.659946 
L 702.444622 543.292655 
L 706.001594 541.088911 
L 709.558566 542.007138 
L 713.115538 540.72162 
L 716.67251 540.72162 
L 720.229482 542.558074 
L 723.786454 543.292655 
L 727.343426 541.823492 
L 730.900398 542.190783 
L 734.457371 540.537975 
L 738.014343 540.354329 
L 741.571315 541.665865 
L 745.128287 541.84798 
L 748.685259 540.391061 
L 752.242231 536.384534 
L 755.799203 538.205683 
L 762.913147 542.57644 
L 766.47012 544.215474 
L 770.027092 544.397588 
L 773.584064 544.761818 
L 777.141036 544.579703 
L 780.698008 544.579703 
L 784.25498 543.678836 
L 787.811952 543.137344 
L 791.368924 543.498338 
L 794.925896 543.498338 
L 798.482869 544.761818 
L 802.039841 544.761818 
L 805.596813 544.581321 
L 816.267729 544.581321 
L 819.824701 544.761818 
L 826.938645 544.761818 
L 830.495618 544.404224 
L 837.609562 544.761818 
L 841.166534 544.583021 
L 844.723506 544.583021 
L 848.280478 544.761818 
L 858.951394 544.761818 
L 862.508367 544.225427 
L 866.065339 544.583021 
L 869.622311 544.584745 
L 873.179283 543.876452 
L 876.736255 543.876452 
L 883.850199 542.459866 
L 887.407171 542.814013 
L 890.964143 539.449622 
L 894.521116 541.043281 
L 898.078088 544.053525 
L 901.63506 544.053525 
L 908.749004 544.761818 
L 915.862948 544.761818 
L 926.533865 543.70908 
L 930.090837 543.533623 
L 933.647809 543.70908 
L 937.204781 544.586362 
L 940.761753 544.235449 
L 944.318725 544.586362 
L 947.875697 543.533623 
L 951.432669 543.70908 
L 954.989641 542.849279 
L 958.546614 542.15381 
L 962.103586 537.633264 
L 965.660558 535.894592 
L 969.21753 538.5026 
L 972.774502 538.850334 
L 976.331474 541.284475 
L 979.888446 542.675412 
L 983.445418 544.414084 
L 987.00239 544.066349 
L 994.116335 544.761818 
L 997.673307 543.718615 
L 1001.230279 542.501545 
L 1004.787251 539.71967 
L 1008.344223 539.024201 
L 1011.901195 538.850334 
L 1015.458167 540.241272 
L 1019.015139 540.067404 
L 1022.572112 542.675412 
L 1026.129084 542.675412 
L 1029.686056 542.501545 
L 1033.243028 544.240217 
L 1036.8 544.066349 
L 1036.8 544.066349 
" style="fill:none;stroke:#9467bd;stroke-linecap:square;stroke-width:2.5;"/>
   </g>
   <g id="line2d_19">
    <path clip-path="url(#p46fb544173)" d="M 144 544.761818 
L 151.113944 544.761818 
L 154.670916 542.873041 
L 158.227888 544.761818 
L 161.784861 544.761818 
L 165.341833 542.873041 
L 168.898805 542.873041 
L 172.455777 544.761818 
L 179.569721 540.984264 
L 183.126693 518.318939 
L 186.683665 539.044087 
L 190.240637 531.420446 
L 193.79761 542.855908 
L 200.911554 542.855908 
L 204.468526 544.761818 
L 208.025498 540.949998 
L 211.58247 544.761818 
L 215.139442 540.949998 
L 222.253386 544.761818 
L 243.595219 544.761818 
L 247.152191 542.825126 
L 254.266135 542.825126 
L 257.823108 538.951743 
L 261.38008 544.761818 
L 264.937052 542.825126 
L 268.494024 542.825126 
L 272.050996 519.236764 
L 275.607968 532.981024 
L 279.16494 544.761818 
L 282.721912 544.761818 
L 286.278884 529.054092 
L 289.835857 540.834887 
L 293.392829 544.761818 
L 296.949801 542.798352 
L 300.506773 529.054092 
L 307.620717 540.834887 
L 311.177689 529.054092 
L 314.734661 532.891372 
L 318.291633 521.020927 
L 321.848606 511.128888 
L 325.405578 524.977742 
L 328.96255 493.32322 
L 332.519522 526.956149 
L 336.076494 536.848188 
L 339.633466 530.912965 
L 343.190438 536.848188 
L 346.74741 534.86978 
L 350.304382 517.064111 
L 353.861355 540.805003 
L 360.975299 544.761818 
L 364.532271 536.793923 
L 368.089243 538.785897 
L 371.646215 528.826028 
L 375.203187 530.818001 
L 378.760159 528.826028 
L 382.317131 538.785897 
L 385.874104 542.769844 
L 389.431076 544.761818 
L 392.988048 544.761818 
L 400.101992 540.742409 
L 403.658964 544.761818 
L 407.215936 544.761818 
L 410.772908 540.742409 
L 414.32988 540.742409 
L 417.886853 544.761818 
L 421.443825 544.761818 
L 425.000797 540.742409 
L 428.557769 540.742409 
L 432.114741 544.761818 
L 435.671713 544.761818 
L 442.785657 540.691809 
L 446.342629 526.446777 
L 449.899602 493.886705 
L 453.456574 463.361637 
L 457.013546 477.606669 
L 460.570518 481.676678 
L 464.12749 522.376768 
L 467.684462 538.656805 
L 471.241434 544.761818 
L 474.798406 542.726814 
L 478.355378 544.761818 
L 485.469323 540.62493 
L 489.026295 536.488041 
L 492.583267 542.693374 
L 496.140239 524.077375 
L 499.697211 495.119156 
L 503.254183 472.366269 
L 506.811155 428.928939 
L 510.368127 466.160936 
L 513.9251 501.324489 
L 517.482072 493.050711 
L 524.596016 526.14582 
L 528.152988 502.807564 
L 531.70996 515.39384 
L 535.266932 492.319 
L 538.823904 486.025862 
L 542.380876 450.364746 
L 545.937849 431.485331 
L 549.494821 492.319 
L 553.051793 507.002989 
L 556.608765 511.198415 
L 560.165737 492.319 
L 563.722709 488.123575 
L 567.279681 515.39384 
L 570.836653 491.999344 
L 574.393625 454.010362 
L 577.950598 477.225851 
L 581.50757 445.568366 
L 585.064542 407.579385 
L 588.621514 454.010362 
L 592.178486 517.325332 
L 595.735458 529.988325 
L 599.29243 540.54082 
L 606.406375 544.761818 
L 620.634263 544.761818 
L 627.748207 532.126636 
L 631.305179 536.338363 
L 634.862151 513.173862 
L 638.419124 527.914908 
L 641.976096 527.914908 
L 645.533068 544.761818 
L 649.09004 542.655954 
L 652.647012 544.761818 
L 656.203984 534.354464 
L 659.760956 538.517406 
L 663.317928 509.376813 
L 666.8749 492.725046 
L 670.431873 465.665924 
L 673.988845 494.806517 
L 681.102789 511.458284 
L 684.659761 534.354464 
L 688.216733 519.784167 
L 691.773705 523.947109 
L 695.330677 519.784167 
L 698.887649 524.422308 
L 702.444622 514.252553 
L 706.001594 493.913043 
L 709.558566 449.166122 
L 713.115538 428.826612 
L 716.67251 485.77724 
L 720.229482 489.845142 
L 723.786454 500.014896 
L 727.343426 493.913043 
L 730.900398 493.913043 
L 738.014343 449.166122 
L 741.571315 473.762707 
L 745.128287 436.290953 
L 748.685259 463.901719 
L 752.242231 461.929521 
L 755.799203 497.429077 
L 759.356175 513.206657 
L 762.913147 515.178855 
L 766.47012 542.789621 
L 770.027092 540.817423 
L 773.584064 532.928633 
L 777.141036 542.789621 
L 780.698008 538.845226 
L 784.25498 539.014634 
L 787.811952 542.84609 
L 791.368924 540.930362 
L 794.925896 544.761818 
L 802.039841 544.761818 
L 805.596813 540.930362 
L 809.153785 544.761818 
L 826.938645 544.761818 
L 830.495618 541.025 
L 834.05259 544.761818 
L 837.609562 539.15659 
L 841.166534 537.288181 
L 844.723506 544.761818 
L 862.508367 544.761818 
L 866.065339 542.893409 
L 869.622311 542.935069 
L 873.179283 544.761818 
L 876.736255 535.628074 
L 880.293227 531.974577 
L 883.850199 537.454823 
L 887.407171 533.801325 
L 894.521116 533.801325 
L 898.078088 541.108321 
L 901.63506 541.108321 
L 905.192032 539.281572 
L 908.749004 544.761818 
L 915.862948 544.761818 
L 919.41992 542.970703 
L 926.533865 542.970703 
L 930.090837 539.388472 
L 933.647809 539.388472 
L 937.204781 542.970703 
L 940.761753 537.597357 
L 944.318725 530.432896 
L 947.875697 528.641781 
L 951.432669 541.179588 
L 954.989641 537.687072 
L 958.546614 527.074954 
L 962.103586 521.768894 
L 965.660558 518.231521 
L 969.21753 509.388089 
L 972.774502 521.768894 
L 976.331474 539.455759 
L 979.888446 532.381013 
L 983.445418 544.761818 
L 987.00239 534.149699 
L 990.559363 541.224445 
L 994.116335 542.993132 
L 997.673307 521.768894 
L 1001.230279 532.381013 
L 1004.787251 520.000208 
L 1008.344223 518.231521 
L 1011.901195 525.306267 
L 1015.458167 512.925462 
L 1019.015139 527.074954 
L 1022.572112 542.993132 
L 1026.129084 541.224445 
L 1029.686056 535.918386 
L 1033.243028 544.761818 
L 1036.8 542.993132 
L 1036.8 542.993132 
" style="fill:none;stroke:#8c564b;stroke-linecap:square;stroke-width:2.5;"/>
   </g>
   <g id="line2d_20">
    <path clip-path="url(#p46fb544173)" d="M 144 544.761818 
L 147.556972 544.761818 
L 151.113944 534.459178 
L 161.784861 534.459178 
L 165.341833 524.156538 
L 168.898805 544.761818 
L 172.455777 544.761818 
L 176.012749 534.459178 
L 179.569721 544.761818 
L 183.126693 524.156538 
L 186.683665 534.235129 
L 190.240637 502.655063 
L 193.79761 534.235129 
L 197.354582 513.181752 
L 200.911554 513.181752 
L 204.468526 534.235129 
L 208.025498 544.761818 
L 229.367331 544.761818 
L 232.924303 533.907547 
L 236.481275 544.761818 
L 240.038247 533.907547 
L 243.595219 533.907547 
L 247.152191 544.761818 
L 268.494024 544.761818 
L 272.050996 500.670689 
L 275.607968 489.647907 
L 279.16494 467.602343 
L 282.721912 511.693472 
L 286.278884 511.693472 
L 289.835857 533.739036 
L 293.392829 533.739036 
L 296.949801 544.761818 
L 300.506773 533.739036 
L 304.063745 467.602343 
L 307.620717 511.693472 
L 311.177689 533.739036 
L 314.734661 544.761818 
L 318.291633 544.761818 
L 321.848606 414.187869 
L 325.405578 522.999493 
L 328.96255 479.474844 
L 332.519522 522.999493 
L 336.076494 512.118331 
L 346.74741 512.118331 
L 350.304382 522.999493 
L 353.861355 501.237169 
L 357.418327 513.124448 
L 360.975299 492.032868 
L 364.532271 523.670238 
L 368.089243 481.487078 
L 371.646215 534.216028 
L 375.203187 470.941288 
L 378.760159 523.670238 
L 382.317131 544.761818 
L 385.874104 544.761818 
L 389.431076 534.216028 
L 392.988048 544.761818 
L 400.101992 544.761818 
L 403.658964 534.486385 
L 407.215936 544.761818 
L 410.772908 544.761818 
L 414.32988 534.486385 
L 417.886853 544.761818 
L 425.000797 544.761818 
L 428.557769 513.935519 
L 432.114741 513.935519 
L 435.671713 544.761818 
L 439.228685 524.210952 
L 442.785657 514.564299 
L 446.342629 474.30094 
L 449.899602 504.498459 
L 453.456574 383.708383 
L 457.013546 293.115826 
L 460.570518 373.642543 
L 464.12749 494.43262 
L 467.684462 494.43262 
L 471.241434 534.695978 
L 474.798406 534.695978 
L 478.355378 544.761818 
L 481.912351 544.761818 
L 485.469323 534.97332 
L 496.140239 534.97332 
L 499.697211 446.876838 
L 503.254183 437.088339 
L 506.811155 417.511343 
L 510.368127 388.145849 
L 513.9251 446.876838 
L 517.482072 456.665336 
L 521.039044 368.568853 
L 524.596016 417.511343 
L 528.152988 525.871183 
L 531.70996 421.972687 
L 535.266932 412.52737 
L 538.823904 421.972687 
L 542.380876 403.082052 
L 545.937849 469.199276 
L 549.494821 450.308641 
L 553.051793 440.863323 
L 556.608765 488.089912 
L 560.165737 469.199276 
L 563.722709 431.418005 
L 567.279681 488.089912 
L 570.836653 498.295925 
L 574.393625 433.243673 
L 577.950598 433.243673 
L 581.50757 321.725529 
L 585.064542 358.898244 
L 588.621514 470.416388 
L 595.735458 526.175461 
L 599.29243 544.761818 
L 602.849402 535.468639 
L 609.963347 535.468639 
L 617.077291 516.945353 
L 620.634263 535.489663 
L 627.748207 516.945353 
L 631.305179 489.128888 
L 634.862151 489.128888 
L 638.419124 424.223803 
L 641.976096 535.489663 
L 645.533068 516.945353 
L 649.09004 544.761818 
L 656.203984 544.761818 
L 659.760956 508.102855 
L 663.317928 489.773374 
L 666.8749 453.114411 
L 670.431873 434.784929 
L 673.988845 453.114411 
L 677.545817 480.608633 
L 681.102789 526.432337 
L 684.659761 508.102855 
L 688.216733 544.761818 
L 691.773705 526.432337 
L 695.330677 535.597077 
L 698.887649 526.70504 
L 702.444622 364.194037 
L 706.001594 364.194037 
L 709.558566 409.335982 
L 713.115538 300.995314 
L 716.67251 328.080481 
L 720.229482 427.392761 
L 723.786454 355.165648 
L 727.343426 445.449539 
L 730.900398 418.364372 
L 734.457371 300.995314 
L 738.014343 328.080481 
L 741.571315 299.687978 
L 745.128287 272.457551 
L 748.685259 281.53436 
L 752.242231 99.998182 
L 755.799203 390.456067 
L 759.356175 435.840111 
L 762.913147 526.6082 
L 766.47012 526.6082 
L 770.027092 535.685009 
L 773.584064 535.685009 
L 777.141036 544.761818 
L 780.698008 544.761818 
L 784.25498 507.585554 
L 787.811952 479.703355 
L 791.368924 507.585554 
L 794.925896 544.761818 
L 802.039841 544.761818 
L 805.596813 498.291487 
L 809.153785 544.761818 
L 834.05259 544.761818 
L 837.609562 535.37339 
L 841.166534 516.596534 
L 844.723506 525.984962 
L 848.280478 544.761818 
L 862.508367 544.761818 
L 866.065339 525.984962 
L 869.622311 526.035517 
L 873.179283 544.761818 
L 876.736255 488.582913 
L 880.293227 497.946064 
L 883.850199 526.035517 
L 887.407171 516.672366 
L 890.964143 479.219762 
L 894.521116 535.398667 
L 898.078088 544.761818 
L 901.63506 516.672366 
L 905.192032 544.761818 
L 912.305976 544.761818 
L 915.862948 535.316476 
L 919.41992 544.761818 
L 930.090837 516.425792 
L 933.647809 525.871134 
L 937.204781 544.761818 
L 940.761753 535.316476 
L 944.318725 544.761818 
L 947.875697 365.300316 
L 951.432669 431.417712 
L 954.989641 487.765632 
L 958.546614 468.766904 
L 962.103586 421.270082 
L 965.660558 307.27771 
L 969.21753 440.268811 
L 972.774502 459.267539 
L 979.888446 535.262454 
L 987.00239 516.263725 
L 990.559363 497.264997 
L 994.116335 535.262454 
L 997.673307 459.267539 
L 1001.230279 364.273896 
L 1004.787251 364.273896 
L 1008.344223 392.771989 
L 1011.901195 478.266268 
L 1015.458167 478.266268 
L 1019.015139 506.764361 
L 1022.572112 525.76309 
L 1026.129084 535.262454 
L 1029.686056 525.76309 
L 1033.243028 544.761818 
L 1036.8 535.262454 
L 1036.8 535.262454 
" style="fill:none;stroke:#e377c2;stroke-linecap:square;stroke-width:2.5;"/>
   </g>
   <g id="patch_3">
    <path d="M 144 567 
L 144 77.76 
" style="fill:none;stroke:#000000;stroke-linecap:square;stroke-linejoin:miter;stroke-width:0.8;"/>
   </g>
   <g id="patch_4">
    <path d="M 1036.8 567 
L 1036.8 77.76 
" style="fill:none;stroke:#000000;stroke-linecap:square;stroke-linejoin:miter;stroke-width:0.8;"/>
   </g>
   <g id="patch_5">
    <path d="M 144 567 
L 1036.8 567 
" style="fill:none;stroke:#000000;stroke-linecap:square;stroke-linejoin:miter;stroke-width:0.8;"/>
   </g>
   <g id="patch_6">
    <path d="M 144 77.76 
L 1036.8 77.76 
" style="fill:none;stroke:#000000;stroke-linecap:square;stroke-linejoin:miter;stroke-width:0.8;"/>
   </g>
   <g id="text_15">
    <!-- Measles Cases Per 100k -->
    <defs>
     <path d="M 9.8125 72.90625 
L 24.515625 72.90625 
L 43.109375 23.296875 
L 61.8125 72.90625 
L 76.515625 72.90625 
L 76.515625 0 
L 66.890625 0 
L 66.890625 64.015625 
L 48.09375 14.015625 
L 38.1875 14.015625 
L 19.390625 64.015625 
L 19.390625 0 
L 9.8125 0 
z
" id="DejaVuSans-77"/>
     <path d="M 34.28125 27.484375 
Q 23.390625 27.484375 19.1875 25 
Q 14.984375 22.515625 14.984375 16.5 
Q 14.984375 11.71875 18.140625 8.90625 
Q 21.296875 6.109375 26.703125 6.109375 
Q 34.1875 6.109375 38.703125 11.40625 
Q 43.21875 16.703125 43.21875 25.484375 
L 43.21875 27.484375 
z
M 52.203125 31.203125 
L 52.203125 0 
L 43.21875 0 
L 43.21875 8.296875 
Q 40.140625 3.328125 35.546875 0.953125 
Q 30.953125 -1.421875 24.3125 -1.421875 
Q 15.921875 -1.421875 10.953125 3.296875 
Q 6 8.015625 6 15.921875 
Q 6 25.140625 12.171875 29.828125 
Q 18.359375 34.515625 30.609375 34.515625 
L 43.21875 34.515625 
L 43.21875 35.40625 
Q 43.21875 41.609375 39.140625 45 
Q 35.0625 48.390625 27.6875 48.390625 
Q 23 48.390625 18.546875 47.265625 
Q 14.109375 46.140625 10.015625 43.890625 
L 10.015625 52.203125 
Q 14.9375 54.109375 19.578125 55.046875 
Q 24.21875 56 28.609375 56 
Q 40.484375 56 46.34375 49.84375 
Q 52.203125 43.703125 52.203125 31.203125 
z
" id="DejaVuSans-97"/>
     <path d="M 44.28125 53.078125 
L 44.28125 44.578125 
Q 40.484375 46.53125 36.375 47.5 
Q 32.28125 48.484375 27.875 48.484375 
Q 21.1875 48.484375 17.84375 46.4375 
Q 14.5 44.390625 14.5 40.28125 
Q 14.5 37.15625 16.890625 35.375 
Q 19.28125 33.59375 26.515625 31.984375 
L 29.59375 31.296875 
Q 39.15625 29.25 43.1875 25.515625 
Q 47.21875 21.78125 47.21875 15.09375 
Q 47.21875 7.46875 41.1875 3.015625 
Q 35.15625 -1.421875 24.609375 -1.421875 
Q 20.21875 -1.421875 15.453125 -0.5625 
Q 10.6875 0.296875 5.421875 2 
L 5.421875 11.28125 
Q 10.40625 8.6875 15.234375 7.390625 
Q 20.0625 6.109375 24.8125 6.109375 
Q 31.15625 6.109375 34.5625 8.28125 
Q 37.984375 10.453125 37.984375 14.40625 
Q 37.984375 18.0625 35.515625 20.015625 
Q 33.0625 21.96875 24.703125 23.78125 
L 21.578125 24.515625 
Q 13.234375 26.265625 9.515625 29.90625 
Q 5.8125 33.546875 5.8125 39.890625 
Q 5.8125 47.609375 11.28125 51.796875 
Q 16.75 56 26.8125 56 
Q 31.78125 56 36.171875 55.265625 
Q 40.578125 54.546875 44.28125 53.078125 
z
" id="DejaVuSans-115"/>
     <path d="M 9.421875 75.984375 
L 18.40625 75.984375 
L 18.40625 0 
L 9.421875 0 
z
" id="DejaVuSans-108"/>
     <path id="DejaVuSans-32"/>
     <path d="M 64.40625 67.28125 
L 64.40625 56.890625 
Q 59.421875 61.53125 53.78125 63.8125 
Q 48.140625 66.109375 41.796875 66.109375 
Q 29.296875 66.109375 22.65625 58.46875 
Q 16.015625 50.828125 16.015625 36.375 
Q 16.015625 21.96875 22.65625 14.328125 
Q 29.296875 6.6875 41.796875 6.6875 
Q 48.140625 6.6875 53.78125 8.984375 
Q 59.421875 11.28125 64.40625 15.921875 
L 64.40625 5.609375 
Q 59.234375 2.09375 53.4375 0.328125 
Q 47.65625 -1.421875 41.21875 -1.421875 
Q 24.65625 -1.421875 15.125 8.703125 
Q 5.609375 18.84375 5.609375 36.375 
Q 5.609375 53.953125 15.125 64.078125 
Q 24.65625 74.21875 41.21875 74.21875 
Q 47.75 74.21875 53.53125 72.484375 
Q 59.328125 70.75 64.40625 67.28125 
z
" id="DejaVuSans-67"/>
     <path d="M 19.671875 64.796875 
L 19.671875 37.40625 
L 32.078125 37.40625 
Q 38.96875 37.40625 42.71875 40.96875 
Q 46.484375 44.53125 46.484375 51.125 
Q 46.484375 57.671875 42.71875 61.234375 
Q 38.96875 64.796875 32.078125 64.796875 
z
M 9.8125 72.90625 
L 32.078125 72.90625 
Q 44.34375 72.90625 50.609375 67.359375 
Q 56.890625 61.8125 56.890625 51.125 
Q 56.890625 40.328125 50.609375 34.8125 
Q 44.34375 29.296875 32.078125 29.296875 
L 19.671875 29.296875 
L 19.671875 0 
L 9.8125 0 
z
" id="DejaVuSans-80"/>
     <path d="M 41.109375 46.296875 
Q 39.59375 47.171875 37.8125 47.578125 
Q 36.03125 48 33.890625 48 
Q 26.265625 48 22.1875 43.046875 
Q 18.109375 38.09375 18.109375 28.8125 
L 18.109375 0 
L 9.078125 0 
L 9.078125 54.6875 
L 18.109375 54.6875 
L 18.109375 46.1875 
Q 20.953125 51.171875 25.484375 53.578125 
Q 30.03125 56 36.53125 56 
Q 37.453125 56 38.578125 55.875 
Q 39.703125 55.765625 41.0625 55.515625 
z
" id="DejaVuSans-114"/>
     <path d="M 9.078125 75.984375 
L 18.109375 75.984375 
L 18.109375 31.109375 
L 44.921875 54.6875 
L 56.390625 54.6875 
L 27.390625 29.109375 
L 57.625 0 
L 45.90625 0 
L 18.109375 26.703125 
L 18.109375 0 
L 9.078125 0 
z
" id="DejaVuSans-107"/>
    </defs>
    <g transform="translate(469.75625 71.76)scale(0.2 -0.2)">
     <use xlink:href="#DejaVuSans-77"/>
     <use x="86.279297" xlink:href="#DejaVuSans-101"/>
     <use x="147.802734" xlink:href="#DejaVuSans-97"/>
     <use x="209.082031" xlink:href="#DejaVuSans-115"/>
     <use x="261.181641" xlink:href="#DejaVuSans-108"/>
     <use x="288.964844" xlink:href="#DejaVuSans-101"/>
     <use x="350.488281" xlink:href="#DejaVuSans-115"/>
     <use x="402.587891" xlink:href="#DejaVuSans-32"/>
     <use x="434.375" xlink:href="#DejaVuSans-67"/>
     <use x="504.199219" xlink:href="#DejaVuSans-97"/>
     <use x="565.478516" xlink:href="#DejaVuSans-115"/>
     <use x="617.578125" xlink:href="#DejaVuSans-101"/>
     <use x="679.101562" xlink:href="#DejaVuSans-115"/>
     <use x="731.201172" xlink:href="#DejaVuSans-32"/>
     <use x="762.988281" xlink:href="#DejaVuSans-80"/>
     <use x="823.244141" xlink:href="#DejaVuSans-101"/>
     <use x="884.767578" xlink:href="#DejaVuSans-114"/>
     <use x="925.880859" xlink:href="#DejaVuSans-32"/>
     <use x="957.667969" xlink:href="#DejaVuSans-49"/>
     <use x="1021.291016" xlink:href="#DejaVuSans-48"/>
     <use x="1084.914062" xlink:href="#DejaVuSans-48"/>
     <use x="1148.537109" xlink:href="#DejaVuSans-107"/>
    </g>
   </g>
   <g id="legend_1">
    <g id="patch_7">
     <path d="M 909.490156 290.179062 
L 1025.5 290.179062 
Q 1029.3 290.179062 1029.3 286.379062 
L 1029.3 93.06 
Q 1029.3 89.26 1025.5 89.26 
L 909.490156 89.26 
Q 905.690156 89.26 905.690156 93.06 
L 905.690156 286.379062 
Q 905.690156 290.179062 909.490156 290.179062 
z
" style="fill:#4c4c4c;opacity:0.5;stroke:#4c4c4c;stroke-linejoin:miter;"/>
    </g>
    <g id="patch_8">
     <path d="M 907.490156 288.179062 
L 1023.5 288.179062 
Q 1027.3 288.179062 1027.3 284.379062 
L 1027.3 91.06 
Q 1027.3 87.26 1023.5 87.26 
L 907.490156 87.26 
Q 903.690156 87.26 903.690156 91.06 
L 903.690156 284.379062 
Q 903.690156 288.179062 907.490156 288.179062 
z
" style="fill:#ffffff;stroke:#cccccc;stroke-linejoin:miter;"/>
    </g>
    <g id="line2d_21">
     <path d="M 911.290156 102.647031 
L 949.290156 102.647031 
" style="fill:none;stroke:#1f77b4;stroke-linecap:square;stroke-width:2.5;"/>
    </g>
    <g id="line2d_22"/>
    <g id="text_16">
     <!-- &lt;1 -->
     <defs>
      <path d="M 73.1875 49.21875 
L 22.796875 31.296875 
L 73.1875 13.484375 
L 73.1875 4.59375 
L 10.59375 27.296875 
L 10.59375 35.40625 
L 73.1875 58.109375 
z
" id="DejaVuSans-60"/>
     </defs>
     <g transform="translate(964.490156 109.297031)scale(0.19 -0.19)">
      <use xlink:href="#DejaVuSans-60"/>
      <use x="83.789062" xlink:href="#DejaVuSans-49"/>
     </g>
    </g>
    <g id="line2d_23">
     <path d="M 911.290156 130.535469 
L 949.290156 130.535469 
" style="fill:none;stroke:#ff7f0e;stroke-linecap:square;stroke-width:2.5;"/>
    </g>
    <g id="line2d_24"/>
    <g id="text_17">
     <!-- 1-4 -->
     <g transform="translate(964.490156 137.185469)scale(0.19 -0.19)">
      <use xlink:href="#DejaVuSans-49"/>
      <use x="63.623047" xlink:href="#DejaVuSans-45"/>
      <use x="99.707031" xlink:href="#DejaVuSans-52"/>
     </g>
    </g>
    <g id="line2d_25">
     <path d="M 911.290156 158.423906 
L 949.290156 158.423906 
" style="fill:none;stroke:#2ca02c;stroke-linecap:square;stroke-width:2.5;"/>
    </g>
    <g id="line2d_26"/>
    <g id="text_18">
     <!-- 5-9 -->
     <g transform="translate(964.490156 165.073906)scale(0.19 -0.19)">
      <use xlink:href="#DejaVuSans-53"/>
      <use x="63.623047" xlink:href="#DejaVuSans-45"/>
      <use x="99.707031" xlink:href="#DejaVuSans-57"/>
     </g>
    </g>
    <g id="line2d_27">
     <path d="M 911.290156 186.312344 
L 949.290156 186.312344 
" style="fill:none;stroke:#d62728;stroke-linecap:square;stroke-width:2.5;"/>
    </g>
    <g id="line2d_28"/>
    <g id="text_19">
     <!-- 10-14 -->
     <g transform="translate(964.490156 192.962344)scale(0.19 -0.19)">
      <use xlink:href="#DejaVuSans-49"/>
      <use x="63.623047" xlink:href="#DejaVuSans-48"/>
      <use x="127.246094" xlink:href="#DejaVuSans-45"/>
      <use x="163.330078" xlink:href="#DejaVuSans-49"/>
      <use x="226.953125" xlink:href="#DejaVuSans-52"/>
     </g>
    </g>
    <g id="line2d_29">
     <path d="M 911.290156 214.200781 
L 949.290156 214.200781 
" style="fill:none;stroke:#9467bd;stroke-linecap:square;stroke-width:2.5;"/>
    </g>
    <g id="line2d_30"/>
    <g id="text_20">
     <!-- 15-19 -->
     <g transform="translate(964.490156 220.850781)scale(0.19 -0.19)">
      <use xlink:href="#DejaVuSans-49"/>
      <use x="63.623047" xlink:href="#DejaVuSans-53"/>
      <use x="127.246094" xlink:href="#DejaVuSans-45"/>
      <use x="163.330078" xlink:href="#DejaVuSans-49"/>
      <use x="226.953125" xlink:href="#DejaVuSans-57"/>
     </g>
    </g>
    <g id="line2d_31">
     <path d="M 911.290156 242.089219 
L 949.290156 242.089219 
" style="fill:none;stroke:#8c564b;stroke-linecap:square;stroke-width:2.5;"/>
    </g>
    <g id="line2d_32"/>
    <g id="text_21">
     <!-- 20-29 -->
     <g transform="translate(964.490156 248.739219)scale(0.19 -0.19)">
      <use xlink:href="#DejaVuSans-50"/>
      <use x="63.623047" xlink:href="#DejaVuSans-48"/>
      <use x="127.246094" xlink:href="#DejaVuSans-45"/>
      <use x="163.330078" xlink:href="#DejaVuSans-50"/>
      <use x="226.953125" xlink:href="#DejaVuSans-57"/>
     </g>
    </g>
    <g id="line2d_33">
     <path d="M 911.290156 269.977656 
L 949.290156 269.977656 
" style="fill:none;stroke:#e377c2;stroke-linecap:square;stroke-width:2.5;"/>
    </g>
    <g id="line2d_34"/>
    <g id="text_22">
     <!-- 30+ -->
     <defs>
      <path d="M 46 62.703125 
L 46 35.5 
L 73.1875 35.5 
L 73.1875 27.203125 
L 46 27.203125 
L 46 0 
L 37.796875 0 
L 37.796875 27.203125 
L 10.59375 27.203125 
L 10.59375 35.5 
L 37.796875 35.5 
L 37.796875 62.703125 
z
" id="DejaVuSans-43"/>
     </defs>
     <g transform="translate(964.490156 276.627656)scale(0.19 -0.19)">
      <use xlink:href="#DejaVuSans-51"/>
      <use x="63.623047" xlink:href="#DejaVuSans-48"/>
      <use x="127.246094" xlink:href="#DejaVuSans-43"/>
     </g>
    </g>
   </g>
  </g>
 </g>
 <defs>
  <clipPath id="p46fb544173">
   <rect height="489.24" width="892.8" x="144" y="77.76"/>
  </clipPath>
 </defs>
</svg>
