<?xml version="1.0" encoding="utf-8" standalone="no"?>
<!DOCTYPE svg PUBLIC "-//W3C//DTD SVG 1.1//EN"
  "http://www.w3.org/Graphics/SVG/1.1/DTD/svg11.dtd">
<!-- Created with matplotlib (https://matplotlib.org/) -->
<svg height="648pt" version="1.1" viewBox="0 0 1152 648" width="1152pt" xmlns="http://www.w3.org/2000/svg" xmlns:xlink="http://www.w3.org/1999/xlink">
 <defs>
  <style type="text/css">
*{stroke-linecap:butt;stroke-linejoin:round;white-space:pre;}
  </style>
 </defs>
 <g id="figure_1">
  <g id="patch_1">
   <path d="M 0 648 
L 1152 648 
L 1152 0 
L 0 0 
z
" style="fill:#ffffff;"/>
  </g>
  <g id="axes_1">
   <g id="patch_2">
    <path d="M 144 567 
L 1036.8 567 
L 1036.8 77.76 
L 144 77.76 
z
" style="fill:#ffffff;"/>
   </g>
   <g id="matplotlib.axis_1">
    <g id="xtick_1">
     <g id="line2d_1">
      <defs>
       <path d="M 0 0 
L 0 3.5 
" id="m999ccccfd1" style="stroke:#000000;stroke-width:0.8;"/>
      </defs>
      <g>
       <use style="stroke:#000000;stroke-width:0.8;" x="184.581818" xlink:href="#m999ccccfd1" y="567"/>
      </g>
     </g>
     <g id="text_1">
      <!-- 2000.0 -->
      <defs>
       <path d="M 19.1875 8.296875 
L 53.609375 8.296875 
L 53.609375 0 
L 7.328125 0 
L 7.328125 8.296875 
Q 12.9375 14.109375 22.625 23.890625 
Q 32.328125 33.6875 34.8125 36.53125 
Q 39.546875 41.84375 41.421875 45.53125 
Q 43.3125 49.21875 43.3125 52.78125 
Q 43.3125 58.59375 39.234375 62.25 
Q 35.15625 65.921875 28.609375 65.921875 
Q 23.96875 65.921875 18.8125 64.3125 
Q 13.671875 62.703125 7.8125 59.421875 
L 7.8125 69.390625 
Q 13.765625 71.78125 18.9375 73 
Q 24.125 74.21875 28.421875 74.21875 
Q 39.75 74.21875 46.484375 68.546875 
Q 53.21875 62.890625 53.21875 53.421875 
Q 53.21875 48.921875 51.53125 44.890625 
Q 49.859375 40.875 45.40625 35.40625 
Q 44.1875 33.984375 37.640625 27.21875 
Q 31.109375 20.453125 19.1875 8.296875 
z
" id="DejaVuSans-50"/>
       <path d="M 31.78125 66.40625 
Q 24.171875 66.40625 20.328125 58.90625 
Q 16.5 51.421875 16.5 36.375 
Q 16.5 21.390625 20.328125 13.890625 
Q 24.171875 6.390625 31.78125 6.390625 
Q 39.453125 6.390625 43.28125 13.890625 
Q 47.125 21.390625 47.125 36.375 
Q 47.125 51.421875 43.28125 58.90625 
Q 39.453125 66.40625 31.78125 66.40625 
z
M 31.78125 74.21875 
Q 44.046875 74.21875 50.515625 64.515625 
Q 56.984375 54.828125 56.984375 36.375 
Q 56.984375 17.96875 50.515625 8.265625 
Q 44.046875 -1.421875 31.78125 -1.421875 
Q 19.53125 -1.421875 13.0625 8.265625 
Q 6.59375 17.96875 6.59375 36.375 
Q 6.59375 54.828125 13.0625 64.515625 
Q 19.53125 74.21875 31.78125 74.21875 
z
" id="DejaVuSans-48"/>
       <path d="M 10.6875 12.40625 
L 21 12.40625 
L 21 0 
L 10.6875 0 
z
" id="DejaVuSans-46"/>
      </defs>
      <g transform="translate(153.090256 587.677187)scale(0.18 -0.18)">
       <use xlink:href="#DejaVuSans-50"/>
       <use x="63.623047" xlink:href="#DejaVuSans-48"/>
       <use x="127.246094" xlink:href="#DejaVuSans-48"/>
       <use x="190.869141" xlink:href="#DejaVuSans-48"/>
       <use x="254.492188" xlink:href="#DejaVuSans-46"/>
       <use x="286.279297" xlink:href="#DejaVuSans-48"/>
      </g>
     </g>
    </g>
    <g id="xtick_2">
     <g id="line2d_2">
      <g>
       <use style="stroke:#000000;stroke-width:0.8;" x="297.309091" xlink:href="#m999ccccfd1" y="567"/>
      </g>
     </g>
     <g id="text_2">
      <!-- 2002.5 -->
      <defs>
       <path d="M 10.796875 72.90625 
L 49.515625 72.90625 
L 49.515625 64.59375 
L 19.828125 64.59375 
L 19.828125 46.734375 
Q 21.96875 47.46875 24.109375 47.828125 
Q 26.265625 48.1875 28.421875 48.1875 
Q 40.625 48.1875 47.75 41.5 
Q 54.890625 34.8125 54.890625 23.390625 
Q 54.890625 11.625 47.5625 5.09375 
Q 40.234375 -1.421875 26.90625 -1.421875 
Q 22.3125 -1.421875 17.546875 -0.640625 
Q 12.796875 0.140625 7.71875 1.703125 
L 7.71875 11.625 
Q 12.109375 9.234375 16.796875 8.0625 
Q 21.484375 6.890625 26.703125 6.890625 
Q 35.15625 6.890625 40.078125 11.328125 
Q 45.015625 15.765625 45.015625 23.390625 
Q 45.015625 31 40.078125 35.4375 
Q 35.15625 39.890625 26.703125 39.890625 
Q 22.75 39.890625 18.8125 39.015625 
Q 14.890625 38.140625 10.796875 36.28125 
z
" id="DejaVuSans-53"/>
      </defs>
      <g transform="translate(265.817528 587.677187)scale(0.18 -0.18)">
       <use xlink:href="#DejaVuSans-50"/>
       <use x="63.623047" xlink:href="#DejaVuSans-48"/>
       <use x="127.246094" xlink:href="#DejaVuSans-48"/>
       <use x="190.869141" xlink:href="#DejaVuSans-50"/>
       <use x="254.492188" xlink:href="#DejaVuSans-46"/>
       <use x="286.279297" xlink:href="#DejaVuSans-53"/>
      </g>
     </g>
    </g>
    <g id="xtick_3">
     <g id="line2d_3">
      <g>
       <use style="stroke:#000000;stroke-width:0.8;" x="410.036364" xlink:href="#m999ccccfd1" y="567"/>
      </g>
     </g>
     <g id="text_3">
      <!-- 2005.0 -->
      <g transform="translate(378.544801 587.677187)scale(0.18 -0.18)">
       <use xlink:href="#DejaVuSans-50"/>
       <use x="63.623047" xlink:href="#DejaVuSans-48"/>
       <use x="127.246094" xlink:href="#DejaVuSans-48"/>
       <use x="190.869141" xlink:href="#DejaVuSans-53"/>
       <use x="254.492188" xlink:href="#DejaVuSans-46"/>
       <use x="286.279297" xlink:href="#DejaVuSans-48"/>
      </g>
     </g>
    </g>
    <g id="xtick_4">
     <g id="line2d_4">
      <g>
       <use style="stroke:#000000;stroke-width:0.8;" x="522.763636" xlink:href="#m999ccccfd1" y="567"/>
      </g>
     </g>
     <g id="text_4">
      <!-- 2007.5 -->
      <defs>
       <path d="M 8.203125 72.90625 
L 55.078125 72.90625 
L 55.078125 68.703125 
L 28.609375 0 
L 18.3125 0 
L 43.21875 64.59375 
L 8.203125 64.59375 
z
" id="DejaVuSans-55"/>
      </defs>
      <g transform="translate(491.272074 587.677187)scale(0.18 -0.18)">
       <use xlink:href="#DejaVuSans-50"/>
       <use x="63.623047" xlink:href="#DejaVuSans-48"/>
       <use x="127.246094" xlink:href="#DejaVuSans-48"/>
       <use x="190.869141" xlink:href="#DejaVuSans-55"/>
       <use x="254.492188" xlink:href="#DejaVuSans-46"/>
       <use x="286.279297" xlink:href="#DejaVuSans-53"/>
      </g>
     </g>
    </g>
    <g id="xtick_5">
     <g id="line2d_5">
      <g>
       <use style="stroke:#000000;stroke-width:0.8;" x="635.490909" xlink:href="#m999ccccfd1" y="567"/>
      </g>
     </g>
     <g id="text_5">
      <!-- 2010.0 -->
      <defs>
       <path d="M 12.40625 8.296875 
L 28.515625 8.296875 
L 28.515625 63.921875 
L 10.984375 60.40625 
L 10.984375 69.390625 
L 28.421875 72.90625 
L 38.28125 72.90625 
L 38.28125 8.296875 
L 54.390625 8.296875 
L 54.390625 0 
L 12.40625 0 
z
" id="DejaVuSans-49"/>
      </defs>
      <g transform="translate(603.999347 587.677187)scale(0.18 -0.18)">
       <use xlink:href="#DejaVuSans-50"/>
       <use x="63.623047" xlink:href="#DejaVuSans-48"/>
       <use x="127.246094" xlink:href="#DejaVuSans-49"/>
       <use x="190.869141" xlink:href="#DejaVuSans-48"/>
       <use x="254.492188" xlink:href="#DejaVuSans-46"/>
       <use x="286.279297" xlink:href="#DejaVuSans-48"/>
      </g>
     </g>
    </g>
    <g id="xtick_6">
     <g id="line2d_6">
      <g>
       <use style="stroke:#000000;stroke-width:0.8;" x="748.218182" xlink:href="#m999ccccfd1" y="567"/>
      </g>
     </g>
     <g id="text_6">
      <!-- 2012.5 -->
      <g transform="translate(716.726619 587.677187)scale(0.18 -0.18)">
       <use xlink:href="#DejaVuSans-50"/>
       <use x="63.623047" xlink:href="#DejaVuSans-48"/>
       <use x="127.246094" xlink:href="#DejaVuSans-49"/>
       <use x="190.869141" xlink:href="#DejaVuSans-50"/>
       <use x="254.492188" xlink:href="#DejaVuSans-46"/>
       <use x="286.279297" xlink:href="#DejaVuSans-53"/>
      </g>
     </g>
    </g>
    <g id="xtick_7">
     <g id="line2d_7">
      <g>
       <use style="stroke:#000000;stroke-width:0.8;" x="860.945455" xlink:href="#m999ccccfd1" y="567"/>
      </g>
     </g>
     <g id="text_7">
      <!-- 2015.0 -->
      <g transform="translate(829.453892 587.677187)scale(0.18 -0.18)">
       <use xlink:href="#DejaVuSans-50"/>
       <use x="63.623047" xlink:href="#DejaVuSans-48"/>
       <use x="127.246094" xlink:href="#DejaVuSans-49"/>
       <use x="190.869141" xlink:href="#DejaVuSans-53"/>
       <use x="254.492188" xlink:href="#DejaVuSans-46"/>
       <use x="286.279297" xlink:href="#DejaVuSans-48"/>
      </g>
     </g>
    </g>
    <g id="xtick_8">
     <g id="line2d_8">
      <g>
       <use style="stroke:#000000;stroke-width:0.8;" x="973.672727" xlink:href="#m999ccccfd1" y="567"/>
      </g>
     </g>
     <g id="text_8">
      <!-- 2017.5 -->
      <g transform="translate(942.181165 587.677187)scale(0.18 -0.18)">
       <use xlink:href="#DejaVuSans-50"/>
       <use x="63.623047" xlink:href="#DejaVuSans-48"/>
       <use x="127.246094" xlink:href="#DejaVuSans-49"/>
       <use x="190.869141" xlink:href="#DejaVuSans-55"/>
       <use x="254.492188" xlink:href="#DejaVuSans-46"/>
       <use x="286.279297" xlink:href="#DejaVuSans-53"/>
      </g>
     </g>
    </g>
    <g id="text_9">
     <!-- Time -->
     <defs>
      <path d="M -0.296875 72.90625 
L 61.375 72.90625 
L 61.375 64.59375 
L 35.5 64.59375 
L 35.5 0 
L 25.59375 0 
L 25.59375 64.59375 
L -0.296875 64.59375 
z
" id="DejaVuSans-84"/>
      <path d="M 9.421875 54.6875 
L 18.40625 54.6875 
L 18.40625 0 
L 9.421875 0 
z
M 9.421875 75.984375 
L 18.40625 75.984375 
L 18.40625 64.59375 
L 9.421875 64.59375 
z
" id="DejaVuSans-105"/>
      <path d="M 52 44.1875 
Q 55.375 50.25 60.0625 53.125 
Q 64.75 56 71.09375 56 
Q 79.640625 56 84.28125 50.015625 
Q 88.921875 44.046875 88.921875 33.015625 
L 88.921875 0 
L 79.890625 0 
L 79.890625 32.71875 
Q 79.890625 40.578125 77.09375 44.375 
Q 74.3125 48.1875 68.609375 48.1875 
Q 61.625 48.1875 57.5625 43.546875 
Q 53.515625 38.921875 53.515625 30.90625 
L 53.515625 0 
L 44.484375 0 
L 44.484375 32.71875 
Q 44.484375 40.625 41.703125 44.40625 
Q 38.921875 48.1875 33.109375 48.1875 
Q 26.21875 48.1875 22.15625 43.53125 
Q 18.109375 38.875 18.109375 30.90625 
L 18.109375 0 
L 9.078125 0 
L 9.078125 54.6875 
L 18.109375 54.6875 
L 18.109375 46.1875 
Q 21.1875 51.21875 25.484375 53.609375 
Q 29.78125 56 35.6875 56 
Q 41.65625 56 45.828125 52.96875 
Q 50 49.953125 52 44.1875 
z
" id="DejaVuSans-109"/>
      <path d="M 56.203125 29.59375 
L 56.203125 25.203125 
L 14.890625 25.203125 
Q 15.484375 15.921875 20.484375 11.0625 
Q 25.484375 6.203125 34.421875 6.203125 
Q 39.59375 6.203125 44.453125 7.46875 
Q 49.3125 8.734375 54.109375 11.28125 
L 54.109375 2.78125 
Q 49.265625 0.734375 44.1875 -0.34375 
Q 39.109375 -1.421875 33.890625 -1.421875 
Q 20.796875 -1.421875 13.15625 6.1875 
Q 5.515625 13.8125 5.515625 26.8125 
Q 5.515625 40.234375 12.765625 48.109375 
Q 20.015625 56 32.328125 56 
Q 43.359375 56 49.78125 48.890625 
Q 56.203125 41.796875 56.203125 29.59375 
z
M 47.21875 32.234375 
Q 47.125 39.59375 43.09375 43.984375 
Q 39.0625 48.390625 32.421875 48.390625 
Q 24.90625 48.390625 20.390625 44.140625 
Q 15.875 39.890625 15.1875 32.171875 
z
" id="DejaVuSans-101"/>
     </defs>
     <g transform="translate(568.1025 609.097813)scale(0.18 -0.18)">
      <use xlink:href="#DejaVuSans-84"/>
      <use x="61.037109" xlink:href="#DejaVuSans-105"/>
      <use x="88.820312" xlink:href="#DejaVuSans-109"/>
      <use x="186.232422" xlink:href="#DejaVuSans-101"/>
     </g>
    </g>
   </g>
   <g id="matplotlib.axis_2">
    <g id="ytick_1">
     <g id="line2d_9">
      <defs>
       <path d="M 0 0 
L -3.5 0 
" id="m7174c33dfe" style="stroke:#000000;stroke-width:0.8;"/>
      </defs>
      <g>
       <use style="stroke:#000000;stroke-width:0.8;" x="144" xlink:href="#m7174c33dfe" y="544.761818"/>
      </g>
     </g>
     <g id="text_10">
      <!-- 0 -->
      <g transform="translate(125.5475 551.600412)scale(0.18 -0.18)">
       <use xlink:href="#DejaVuSans-48"/>
      </g>
     </g>
    </g>
    <g id="ytick_2">
     <g id="line2d_10">
      <g>
       <use style="stroke:#000000;stroke-width:0.8;" x="144" xlink:href="#m7174c33dfe" y="474.890767"/>
      </g>
     </g>
     <g id="text_11">
      <!-- 100 -->
      <g transform="translate(102.6425 481.729361)scale(0.18 -0.18)">
       <use xlink:href="#DejaVuSans-49"/>
       <use x="63.623047" xlink:href="#DejaVuSans-48"/>
       <use x="127.246094" xlink:href="#DejaVuSans-48"/>
      </g>
     </g>
    </g>
    <g id="ytick_3">
     <g id="line2d_11">
      <g>
       <use style="stroke:#000000;stroke-width:0.8;" x="144" xlink:href="#m7174c33dfe" y="405.019716"/>
      </g>
     </g>
     <g id="text_12">
      <!-- 200 -->
      <g transform="translate(102.6425 411.85831)scale(0.18 -0.18)">
       <use xlink:href="#DejaVuSans-50"/>
       <use x="63.623047" xlink:href="#DejaVuSans-48"/>
       <use x="127.246094" xlink:href="#DejaVuSans-48"/>
      </g>
     </g>
    </g>
    <g id="ytick_4">
     <g id="line2d_12">
      <g>
       <use style="stroke:#000000;stroke-width:0.8;" x="144" xlink:href="#m7174c33dfe" y="335.148666"/>
      </g>
     </g>
     <g id="text_13">
      <!-- 300 -->
      <defs>
       <path d="M 40.578125 39.3125 
Q 47.65625 37.796875 51.625 33 
Q 55.609375 28.21875 55.609375 21.1875 
Q 55.609375 10.40625 48.1875 4.484375 
Q 40.765625 -1.421875 27.09375 -1.421875 
Q 22.515625 -1.421875 17.65625 -0.515625 
Q 12.796875 0.390625 7.625 2.203125 
L 7.625 11.71875 
Q 11.71875 9.328125 16.59375 8.109375 
Q 21.484375 6.890625 26.8125 6.890625 
Q 36.078125 6.890625 40.9375 10.546875 
Q 45.796875 14.203125 45.796875 21.1875 
Q 45.796875 27.640625 41.28125 31.265625 
Q 36.765625 34.90625 28.71875 34.90625 
L 20.21875 34.90625 
L 20.21875 43.015625 
L 29.109375 43.015625 
Q 36.375 43.015625 40.234375 45.921875 
Q 44.09375 48.828125 44.09375 54.296875 
Q 44.09375 59.90625 40.109375 62.90625 
Q 36.140625 65.921875 28.71875 65.921875 
Q 24.65625 65.921875 20.015625 65.03125 
Q 15.375 64.15625 9.8125 62.3125 
L 9.8125 71.09375 
Q 15.4375 72.65625 20.34375 73.4375 
Q 25.25 74.21875 29.59375 74.21875 
Q 40.828125 74.21875 47.359375 69.109375 
Q 53.90625 64.015625 53.90625 55.328125 
Q 53.90625 49.265625 50.4375 45.09375 
Q 46.96875 40.921875 40.578125 39.3125 
z
" id="DejaVuSans-51"/>
      </defs>
      <g transform="translate(102.6425 341.987259)scale(0.18 -0.18)">
       <use xlink:href="#DejaVuSans-51"/>
       <use x="63.623047" xlink:href="#DejaVuSans-48"/>
       <use x="127.246094" xlink:href="#DejaVuSans-48"/>
      </g>
     </g>
    </g>
    <g id="ytick_5">
     <g id="line2d_13">
      <g>
       <use style="stroke:#000000;stroke-width:0.8;" x="144" xlink:href="#m7174c33dfe" y="265.277615"/>
      </g>
     </g>
     <g id="text_14">
      <!-- 400 -->
      <defs>
       <path d="M 37.796875 64.3125 
L 12.890625 25.390625 
L 37.796875 25.390625 
z
M 35.203125 72.90625 
L 47.609375 72.90625 
L 47.609375 25.390625 
L 58.015625 25.390625 
L 58.015625 17.1875 
L 47.609375 17.1875 
L 47.609375 0 
L 37.796875 0 
L 37.796875 17.1875 
L 4.890625 17.1875 
L 4.890625 26.703125 
z
" id="DejaVuSans-52"/>
      </defs>
      <g transform="translate(102.6425 272.116208)scale(0.18 -0.18)">
       <use xlink:href="#DejaVuSans-52"/>
       <use x="63.623047" xlink:href="#DejaVuSans-48"/>
       <use x="127.246094" xlink:href="#DejaVuSans-48"/>
      </g>
     </g>
    </g>
    <g id="ytick_6">
     <g id="line2d_14">
      <g>
       <use style="stroke:#000000;stroke-width:0.8;" x="144" xlink:href="#m7174c33dfe" y="195.406564"/>
      </g>
     </g>
     <g id="text_15">
      <!-- 500 -->
      <g transform="translate(102.6425 202.245157)scale(0.18 -0.18)">
       <use xlink:href="#DejaVuSans-53"/>
       <use x="63.623047" xlink:href="#DejaVuSans-48"/>
       <use x="127.246094" xlink:href="#DejaVuSans-48"/>
      </g>
     </g>
    </g>
    <g id="ytick_7">
     <g id="line2d_15">
      <g>
       <use style="stroke:#000000;stroke-width:0.8;" x="144" xlink:href="#m7174c33dfe" y="125.535513"/>
      </g>
     </g>
     <g id="text_16">
      <!-- 600 -->
      <defs>
       <path d="M 33.015625 40.375 
Q 26.375 40.375 22.484375 35.828125 
Q 18.609375 31.296875 18.609375 23.390625 
Q 18.609375 15.53125 22.484375 10.953125 
Q 26.375 6.390625 33.015625 6.390625 
Q 39.65625 6.390625 43.53125 10.953125 
Q 47.40625 15.53125 47.40625 23.390625 
Q 47.40625 31.296875 43.53125 35.828125 
Q 39.65625 40.375 33.015625 40.375 
z
M 52.59375 71.296875 
L 52.59375 62.3125 
Q 48.875 64.0625 45.09375 64.984375 
Q 41.3125 65.921875 37.59375 65.921875 
Q 27.828125 65.921875 22.671875 59.328125 
Q 17.53125 52.734375 16.796875 39.40625 
Q 19.671875 43.65625 24.015625 45.921875 
Q 28.375 48.1875 33.59375 48.1875 
Q 44.578125 48.1875 50.953125 41.515625 
Q 57.328125 34.859375 57.328125 23.390625 
Q 57.328125 12.15625 50.6875 5.359375 
Q 44.046875 -1.421875 33.015625 -1.421875 
Q 20.359375 -1.421875 13.671875 8.265625 
Q 6.984375 17.96875 6.984375 36.375 
Q 6.984375 53.65625 15.1875 63.9375 
Q 23.390625 74.21875 37.203125 74.21875 
Q 40.921875 74.21875 44.703125 73.484375 
Q 48.484375 72.75 52.59375 71.296875 
z
" id="DejaVuSans-54"/>
      </defs>
      <g transform="translate(102.6425 132.374107)scale(0.18 -0.18)">
       <use xlink:href="#DejaVuSans-54"/>
       <use x="63.623047" xlink:href="#DejaVuSans-48"/>
       <use x="127.246094" xlink:href="#DejaVuSans-48"/>
      </g>
     </g>
    </g>
   </g>
   <g id="line2d_16">
    <path clip-path="url(#pb0daae2da4)" d="M 184.581818 544.661058 
L 229.672727 544.761818 
L 274.763636 544.761818 
L 319.854545 544.449358 
L 364.945455 544.660875 
L 410.036364 542.598 
L 455.127273 538.499124 
L 500.218182 543.262707 
L 545.309091 543.134446 
L 590.4 541.559499 
L 635.490909 543.696793 
L 680.581818 544.410923 
L 725.672727 543.379118 
L 770.763636 543.979878 
L 815.854545 544.317009 
L 860.945455 544.492223 
L 906.036364 544.761818 
L 951.127273 544.400179 
L 996.218182 544.579964 
" style="fill:none;stroke:#1f77b4;stroke-linecap:square;stroke-width:2.5;"/>
    <defs>
     <path d="M 0 3.5 
C 0.928211 3.5 1.81853 3.131218 2.474874 2.474874 
C 3.131218 1.81853 3.5 0.928211 3.5 0 
C 3.5 -0.928211 3.131218 -1.81853 2.474874 -2.474874 
C 1.81853 -3.131218 0.928211 -3.5 0 -3.5 
C -0.928211 -3.5 -1.81853 -3.131218 -2.474874 -2.474874 
C -3.131218 -1.81853 -3.5 -0.928211 -3.5 0 
C -3.5 0.928211 -3.131218 1.81853 -2.474874 2.474874 
C -1.81853 3.131218 -0.928211 3.5 0 3.5 
z
" id="md73ee438b4" style="stroke:#1f77b4;"/>
    </defs>
    <g clip-path="url(#pb0daae2da4)">
     <use style="fill:#1f77b4;stroke:#1f77b4;" x="184.581818" xlink:href="#md73ee438b4" y="544.661058"/>
     <use style="fill:#1f77b4;stroke:#1f77b4;" x="229.672727" xlink:href="#md73ee438b4" y="544.761818"/>
     <use style="fill:#1f77b4;stroke:#1f77b4;" x="274.763636" xlink:href="#md73ee438b4" y="544.761818"/>
     <use style="fill:#1f77b4;stroke:#1f77b4;" x="319.854545" xlink:href="#md73ee438b4" y="544.449358"/>
     <use style="fill:#1f77b4;stroke:#1f77b4;" x="364.945455" xlink:href="#md73ee438b4" y="544.660875"/>
     <use style="fill:#1f77b4;stroke:#1f77b4;" x="410.036364" xlink:href="#md73ee438b4" y="542.598"/>
     <use style="fill:#1f77b4;stroke:#1f77b4;" x="455.127273" xlink:href="#md73ee438b4" y="538.499124"/>
     <use style="fill:#1f77b4;stroke:#1f77b4;" x="500.218182" xlink:href="#md73ee438b4" y="543.262707"/>
     <use style="fill:#1f77b4;stroke:#1f77b4;" x="545.309091" xlink:href="#md73ee438b4" y="543.134446"/>
     <use style="fill:#1f77b4;stroke:#1f77b4;" x="590.4" xlink:href="#md73ee438b4" y="541.559499"/>
     <use style="fill:#1f77b4;stroke:#1f77b4;" x="635.490909" xlink:href="#md73ee438b4" y="543.696793"/>
     <use style="fill:#1f77b4;stroke:#1f77b4;" x="680.581818" xlink:href="#md73ee438b4" y="544.410923"/>
     <use style="fill:#1f77b4;stroke:#1f77b4;" x="725.672727" xlink:href="#md73ee438b4" y="543.379118"/>
     <use style="fill:#1f77b4;stroke:#1f77b4;" x="770.763636" xlink:href="#md73ee438b4" y="543.979878"/>
     <use style="fill:#1f77b4;stroke:#1f77b4;" x="815.854545" xlink:href="#md73ee438b4" y="544.317009"/>
     <use style="fill:#1f77b4;stroke:#1f77b4;" x="860.945455" xlink:href="#md73ee438b4" y="544.492223"/>
     <use style="fill:#1f77b4;stroke:#1f77b4;" x="906.036364" xlink:href="#md73ee438b4" y="544.761818"/>
     <use style="fill:#1f77b4;stroke:#1f77b4;" x="951.127273" xlink:href="#md73ee438b4" y="544.400179"/>
     <use style="fill:#1f77b4;stroke:#1f77b4;" x="996.218182" xlink:href="#md73ee438b4" y="544.579964"/>
    </g>
   </g>
   <g id="line2d_17">
    <path clip-path="url(#pb0daae2da4)" d="M 184.581818 544.301267 
L 229.672727 544.245908 
L 274.763636 544.511561 
L 319.854545 544.048743 
L 364.945455 542.959002 
L 410.036364 539.12453 
L 455.127273 542.701626 
L 500.218182 543.741019 
L 545.309091 543.526206 
L 590.4 542.92496 
L 635.490909 543.224167 
L 680.581818 543.725769 
L 725.672727 543.875435 
L 770.763636 543.648516 
L 815.854545 544.048968 
L 860.945455 543.815631 
L 906.036364 544.416893 
L 951.127273 544.348856 
L 996.218182 544.432271 
" style="fill:none;stroke:#ff7f0e;stroke-linecap:square;stroke-width:2.5;"/>
    <defs>
     <path d="M 0 3.5 
C 0.928211 3.5 1.81853 3.131218 2.474874 2.474874 
C 3.131218 1.81853 3.5 0.928211 3.5 0 
C 3.5 -0.928211 3.131218 -1.81853 2.474874 -2.474874 
C 1.81853 -3.131218 0.928211 -3.5 0 -3.5 
C -0.928211 -3.5 -1.81853 -3.131218 -2.474874 -2.474874 
C -3.131218 -1.81853 -3.5 -0.928211 -3.5 0 
C -3.5 0.928211 -3.131218 1.81853 -2.474874 2.474874 
C -1.81853 3.131218 -0.928211 3.5 0 3.5 
z
" id="m00f6d96612" style="stroke:#ff7f0e;"/>
    </defs>
    <g clip-path="url(#pb0daae2da4)">
     <use style="fill:#ff7f0e;stroke:#ff7f0e;" x="184.581818" xlink:href="#m00f6d96612" y="544.301267"/>
     <use style="fill:#ff7f0e;stroke:#ff7f0e;" x="229.672727" xlink:href="#m00f6d96612" y="544.245908"/>
     <use style="fill:#ff7f0e;stroke:#ff7f0e;" x="274.763636" xlink:href="#m00f6d96612" y="544.511561"/>
     <use style="fill:#ff7f0e;stroke:#ff7f0e;" x="319.854545" xlink:href="#m00f6d96612" y="544.048743"/>
     <use style="fill:#ff7f0e;stroke:#ff7f0e;" x="364.945455" xlink:href="#m00f6d96612" y="542.959002"/>
     <use style="fill:#ff7f0e;stroke:#ff7f0e;" x="410.036364" xlink:href="#m00f6d96612" y="539.12453"/>
     <use style="fill:#ff7f0e;stroke:#ff7f0e;" x="455.127273" xlink:href="#m00f6d96612" y="542.701626"/>
     <use style="fill:#ff7f0e;stroke:#ff7f0e;" x="500.218182" xlink:href="#m00f6d96612" y="543.741019"/>
     <use style="fill:#ff7f0e;stroke:#ff7f0e;" x="545.309091" xlink:href="#m00f6d96612" y="543.526206"/>
     <use style="fill:#ff7f0e;stroke:#ff7f0e;" x="590.4" xlink:href="#m00f6d96612" y="542.92496"/>
     <use style="fill:#ff7f0e;stroke:#ff7f0e;" x="635.490909" xlink:href="#m00f6d96612" y="543.224167"/>
     <use style="fill:#ff7f0e;stroke:#ff7f0e;" x="680.581818" xlink:href="#m00f6d96612" y="543.725769"/>
     <use style="fill:#ff7f0e;stroke:#ff7f0e;" x="725.672727" xlink:href="#m00f6d96612" y="543.875435"/>
     <use style="fill:#ff7f0e;stroke:#ff7f0e;" x="770.763636" xlink:href="#m00f6d96612" y="543.648516"/>
     <use style="fill:#ff7f0e;stroke:#ff7f0e;" x="815.854545" xlink:href="#m00f6d96612" y="544.048968"/>
     <use style="fill:#ff7f0e;stroke:#ff7f0e;" x="860.945455" xlink:href="#m00f6d96612" y="543.815631"/>
     <use style="fill:#ff7f0e;stroke:#ff7f0e;" x="906.036364" xlink:href="#m00f6d96612" y="544.416893"/>
     <use style="fill:#ff7f0e;stroke:#ff7f0e;" x="951.127273" xlink:href="#m00f6d96612" y="544.348856"/>
     <use style="fill:#ff7f0e;stroke:#ff7f0e;" x="996.218182" xlink:href="#m00f6d96612" y="544.432271"/>
    </g>
   </g>
   <g id="line2d_18">
    <path clip-path="url(#pb0daae2da4)" d="M 184.581818 543.539526 
L 229.672727 544.094457 
L 274.763636 544.555083 
L 319.854545 543.96646 
L 364.945455 542.283113 
L 410.036364 536.624704 
L 455.127273 542.677582 
L 500.218182 543.455089 
L 545.309091 543.63739 
L 590.4 541.731597 
L 635.490909 542.907365 
L 680.581818 543.825408 
L 725.672727 543.807849 
L 770.763636 542.798541 
L 815.854545 543.808287 
L 860.945455 543.813955 
L 906.036364 544.25474 
L 951.127273 543.973177 
L 996.218182 544.355506 
" style="fill:none;stroke:#2ca02c;stroke-linecap:square;stroke-width:2.5;"/>
    <defs>
     <path d="M 0 3.5 
C 0.928211 3.5 1.81853 3.131218 2.474874 2.474874 
C 3.131218 1.81853 3.5 0.928211 3.5 0 
C 3.5 -0.928211 3.131218 -1.81853 2.474874 -2.474874 
C 1.81853 -3.131218 0.928211 -3.5 0 -3.5 
C -0.928211 -3.5 -1.81853 -3.131218 -2.474874 -2.474874 
C -3.131218 -1.81853 -3.5 -0.928211 -3.5 0 
C -3.5 0.928211 -3.131218 1.81853 -2.474874 2.474874 
C -1.81853 3.131218 -0.928211 3.5 0 3.5 
z
" id="m0347378c0f" style="stroke:#2ca02c;"/>
    </defs>
    <g clip-path="url(#pb0daae2da4)">
     <use style="fill:#2ca02c;stroke:#2ca02c;" x="184.581818" xlink:href="#m0347378c0f" y="543.539526"/>
     <use style="fill:#2ca02c;stroke:#2ca02c;" x="229.672727" xlink:href="#m0347378c0f" y="544.094457"/>
     <use style="fill:#2ca02c;stroke:#2ca02c;" x="274.763636" xlink:href="#m0347378c0f" y="544.555083"/>
     <use style="fill:#2ca02c;stroke:#2ca02c;" x="319.854545" xlink:href="#m0347378c0f" y="543.96646"/>
     <use style="fill:#2ca02c;stroke:#2ca02c;" x="364.945455" xlink:href="#m0347378c0f" y="542.283113"/>
     <use style="fill:#2ca02c;stroke:#2ca02c;" x="410.036364" xlink:href="#m0347378c0f" y="536.624704"/>
     <use style="fill:#2ca02c;stroke:#2ca02c;" x="455.127273" xlink:href="#m0347378c0f" y="542.677582"/>
     <use style="fill:#2ca02c;stroke:#2ca02c;" x="500.218182" xlink:href="#m0347378c0f" y="543.455089"/>
     <use style="fill:#2ca02c;stroke:#2ca02c;" x="545.309091" xlink:href="#m0347378c0f" y="543.63739"/>
     <use style="fill:#2ca02c;stroke:#2ca02c;" x="590.4" xlink:href="#m0347378c0f" y="541.731597"/>
     <use style="fill:#2ca02c;stroke:#2ca02c;" x="635.490909" xlink:href="#m0347378c0f" y="542.907365"/>
     <use style="fill:#2ca02c;stroke:#2ca02c;" x="680.581818" xlink:href="#m0347378c0f" y="543.825408"/>
     <use style="fill:#2ca02c;stroke:#2ca02c;" x="725.672727" xlink:href="#m0347378c0f" y="543.807849"/>
     <use style="fill:#2ca02c;stroke:#2ca02c;" x="770.763636" xlink:href="#m0347378c0f" y="542.798541"/>
     <use style="fill:#2ca02c;stroke:#2ca02c;" x="815.854545" xlink:href="#m0347378c0f" y="543.808287"/>
     <use style="fill:#2ca02c;stroke:#2ca02c;" x="860.945455" xlink:href="#m0347378c0f" y="543.813955"/>
     <use style="fill:#2ca02c;stroke:#2ca02c;" x="906.036364" xlink:href="#m0347378c0f" y="544.25474"/>
     <use style="fill:#2ca02c;stroke:#2ca02c;" x="951.127273" xlink:href="#m0347378c0f" y="543.973177"/>
     <use style="fill:#2ca02c;stroke:#2ca02c;" x="996.218182" xlink:href="#m0347378c0f" y="544.355506"/>
    </g>
   </g>
   <g id="line2d_19">
    <path clip-path="url(#pb0daae2da4)" d="M 184.581818 537.261815 
L 229.672727 537.70126 
L 274.763636 542.486262 
L 319.854545 540.267582 
L 364.945455 533.547337 
L 410.036364 514.61185 
L 455.127273 538.757391 
L 500.218182 541.558963 
L 545.309091 543.05877 
L 590.4 538.834458 
L 635.490909 540.366334 
L 680.581818 542.900647 
L 725.672727 541.262937 
L 770.763636 540.495931 
L 815.854545 542.067667 
L 860.945455 542.726331 
L 906.036364 543.339917 
L 951.127273 542.881741 
L 996.218182 543.16031 
" style="fill:none;stroke:#d62728;stroke-linecap:square;stroke-width:2.5;"/>
    <defs>
     <path d="M 0 3.5 
C 0.928211 3.5 1.81853 3.131218 2.474874 2.474874 
C 3.131218 1.81853 3.5 0.928211 3.5 0 
C 3.5 -0.928211 3.131218 -1.81853 2.474874 -2.474874 
C 1.81853 -3.131218 0.928211 -3.5 0 -3.5 
C -0.928211 -3.5 -1.81853 -3.131218 -2.474874 -2.474874 
C -3.131218 -1.81853 -3.5 -0.928211 -3.5 0 
C -3.5 0.928211 -3.131218 1.81853 -2.474874 2.474874 
C -1.81853 3.131218 -0.928211 3.5 0 3.5 
z
" id="m1d828af527" style="stroke:#d62728;"/>
    </defs>
    <g clip-path="url(#pb0daae2da4)">
     <use style="fill:#d62728;stroke:#d62728;" x="184.581818" xlink:href="#m1d828af527" y="537.261815"/>
     <use style="fill:#d62728;stroke:#d62728;" x="229.672727" xlink:href="#m1d828af527" y="537.70126"/>
     <use style="fill:#d62728;stroke:#d62728;" x="274.763636" xlink:href="#m1d828af527" y="542.486262"/>
     <use style="fill:#d62728;stroke:#d62728;" x="319.854545" xlink:href="#m1d828af527" y="540.267582"/>
     <use style="fill:#d62728;stroke:#d62728;" x="364.945455" xlink:href="#m1d828af527" y="533.547337"/>
     <use style="fill:#d62728;stroke:#d62728;" x="410.036364" xlink:href="#m1d828af527" y="514.61185"/>
     <use style="fill:#d62728;stroke:#d62728;" x="455.127273" xlink:href="#m1d828af527" y="538.757391"/>
     <use style="fill:#d62728;stroke:#d62728;" x="500.218182" xlink:href="#m1d828af527" y="541.558963"/>
     <use style="fill:#d62728;stroke:#d62728;" x="545.309091" xlink:href="#m1d828af527" y="543.05877"/>
     <use style="fill:#d62728;stroke:#d62728;" x="590.4" xlink:href="#m1d828af527" y="538.834458"/>
     <use style="fill:#d62728;stroke:#d62728;" x="635.490909" xlink:href="#m1d828af527" y="540.366334"/>
     <use style="fill:#d62728;stroke:#d62728;" x="680.581818" xlink:href="#m1d828af527" y="542.900647"/>
     <use style="fill:#d62728;stroke:#d62728;" x="725.672727" xlink:href="#m1d828af527" y="541.262937"/>
     <use style="fill:#d62728;stroke:#d62728;" x="770.763636" xlink:href="#m1d828af527" y="540.495931"/>
     <use style="fill:#d62728;stroke:#d62728;" x="815.854545" xlink:href="#m1d828af527" y="542.067667"/>
     <use style="fill:#d62728;stroke:#d62728;" x="860.945455" xlink:href="#m1d828af527" y="542.726331"/>
     <use style="fill:#d62728;stroke:#d62728;" x="906.036364" xlink:href="#m1d828af527" y="543.339917"/>
     <use style="fill:#d62728;stroke:#d62728;" x="951.127273" xlink:href="#m1d828af527" y="542.881741"/>
     <use style="fill:#d62728;stroke:#d62728;" x="996.218182" xlink:href="#m1d828af527" y="543.16031"/>
    </g>
   </g>
   <g id="line2d_20">
    <path clip-path="url(#pb0daae2da4)" d="M 184.581818 542.143398 
L 229.672727 540.728567 
L 274.763636 539.603926 
L 319.854545 528.477348 
L 364.945455 457.162072 
L 410.036364 99.998182 
L 455.127273 503.589118 
L 500.218182 530.418765 
L 545.309091 532.414208 
L 590.4 505.280885 
L 635.490909 528.537236 
L 680.581818 535.597271 
L 725.672727 531.846818 
L 770.763636 522.589667 
L 815.854545 531.786743 
L 860.945455 536.730828 
L 906.036364 539.780749 
L 951.127273 533.370559 
L 996.218182 539.367913 
" style="fill:none;stroke:#9467bd;stroke-linecap:square;stroke-width:2.5;"/>
    <defs>
     <path d="M 0 3.5 
C 0.928211 3.5 1.81853 3.131218 2.474874 2.474874 
C 3.131218 1.81853 3.5 0.928211 3.5 0 
C 3.5 -0.928211 3.131218 -1.81853 2.474874 -2.474874 
C 1.81853 -3.131218 0.928211 -3.5 0 -3.5 
C -0.928211 -3.5 -1.81853 -3.131218 -2.474874 -2.474874 
C -3.131218 -1.81853 -3.5 -0.928211 -3.5 0 
C -3.5 0.928211 -3.131218 1.81853 -2.474874 2.474874 
C -1.81853 3.131218 -0.928211 3.5 0 3.5 
z
" id="m21ea991a73" style="stroke:#9467bd;"/>
    </defs>
    <g clip-path="url(#pb0daae2da4)">
     <use style="fill:#9467bd;stroke:#9467bd;" x="184.581818" xlink:href="#m21ea991a73" y="542.143398"/>
     <use style="fill:#9467bd;stroke:#9467bd;" x="229.672727" xlink:href="#m21ea991a73" y="540.728567"/>
     <use style="fill:#9467bd;stroke:#9467bd;" x="274.763636" xlink:href="#m21ea991a73" y="539.603926"/>
     <use style="fill:#9467bd;stroke:#9467bd;" x="319.854545" xlink:href="#m21ea991a73" y="528.477348"/>
     <use style="fill:#9467bd;stroke:#9467bd;" x="364.945455" xlink:href="#m21ea991a73" y="457.162072"/>
     <use style="fill:#9467bd;stroke:#9467bd;" x="410.036364" xlink:href="#m21ea991a73" y="99.998182"/>
     <use style="fill:#9467bd;stroke:#9467bd;" x="455.127273" xlink:href="#m21ea991a73" y="503.589118"/>
     <use style="fill:#9467bd;stroke:#9467bd;" x="500.218182" xlink:href="#m21ea991a73" y="530.418765"/>
     <use style="fill:#9467bd;stroke:#9467bd;" x="545.309091" xlink:href="#m21ea991a73" y="532.414208"/>
     <use style="fill:#9467bd;stroke:#9467bd;" x="590.4" xlink:href="#m21ea991a73" y="505.280885"/>
     <use style="fill:#9467bd;stroke:#9467bd;" x="635.490909" xlink:href="#m21ea991a73" y="528.537236"/>
     <use style="fill:#9467bd;stroke:#9467bd;" x="680.581818" xlink:href="#m21ea991a73" y="535.597271"/>
     <use style="fill:#9467bd;stroke:#9467bd;" x="725.672727" xlink:href="#m21ea991a73" y="531.846818"/>
     <use style="fill:#9467bd;stroke:#9467bd;" x="770.763636" xlink:href="#m21ea991a73" y="522.589667"/>
     <use style="fill:#9467bd;stroke:#9467bd;" x="815.854545" xlink:href="#m21ea991a73" y="531.786743"/>
     <use style="fill:#9467bd;stroke:#9467bd;" x="860.945455" xlink:href="#m21ea991a73" y="536.730828"/>
     <use style="fill:#9467bd;stroke:#9467bd;" x="906.036364" xlink:href="#m21ea991a73" y="539.780749"/>
     <use style="fill:#9467bd;stroke:#9467bd;" x="951.127273" xlink:href="#m21ea991a73" y="533.370559"/>
     <use style="fill:#9467bd;stroke:#9467bd;" x="996.218182" xlink:href="#m21ea991a73" y="539.367913"/>
    </g>
   </g>
   <g id="line2d_21">
    <path clip-path="url(#pb0daae2da4)" d="M 184.581818 544.513271 
L 229.672727 544.344262 
L 274.763636 543.967142 
L 319.854545 541.357867 
L 364.945455 511.283079 
L 410.036364 394.274811 
L 455.127273 523.503562 
L 500.218182 535.034112 
L 545.309091 534.836284 
L 590.4 511.306954 
L 635.490909 526.376617 
L 680.581818 533.030931 
L 725.672727 534.951817 
L 770.763636 527.096305 
L 815.854545 534.304132 
L 860.945455 538.304451 
L 906.036364 541.759415 
L 951.127273 537.484927 
L 996.218182 540.884255 
" style="fill:none;stroke:#8c564b;stroke-linecap:square;stroke-width:2.5;"/>
    <defs>
     <path d="M 0 3.5 
C 0.928211 3.5 1.81853 3.131218 2.474874 2.474874 
C 3.131218 1.81853 3.5 0.928211 3.5 0 
C 3.5 -0.928211 3.131218 -1.81853 2.474874 -2.474874 
C 1.81853 -3.131218 0.928211 -3.5 0 -3.5 
C -0.928211 -3.5 -1.81853 -3.131218 -2.474874 -2.474874 
C -3.131218 -1.81853 -3.5 -0.928211 -3.5 0 
C -3.5 0.928211 -3.131218 1.81853 -2.474874 2.474874 
C -1.81853 3.131218 -0.928211 3.5 0 3.5 
z
" id="m6eee159099" style="stroke:#8c564b;"/>
    </defs>
    <g clip-path="url(#pb0daae2da4)">
     <use style="fill:#8c564b;stroke:#8c564b;" x="184.581818" xlink:href="#m6eee159099" y="544.513271"/>
     <use style="fill:#8c564b;stroke:#8c564b;" x="229.672727" xlink:href="#m6eee159099" y="544.344262"/>
     <use style="fill:#8c564b;stroke:#8c564b;" x="274.763636" xlink:href="#m6eee159099" y="543.967142"/>
     <use style="fill:#8c564b;stroke:#8c564b;" x="319.854545" xlink:href="#m6eee159099" y="541.357867"/>
     <use style="fill:#8c564b;stroke:#8c564b;" x="364.945455" xlink:href="#m6eee159099" y="511.283079"/>
     <use style="fill:#8c564b;stroke:#8c564b;" x="410.036364" xlink:href="#m6eee159099" y="394.274811"/>
     <use style="fill:#8c564b;stroke:#8c564b;" x="455.127273" xlink:href="#m6eee159099" y="523.503562"/>
     <use style="fill:#8c564b;stroke:#8c564b;" x="500.218182" xlink:href="#m6eee159099" y="535.034112"/>
     <use style="fill:#8c564b;stroke:#8c564b;" x="545.309091" xlink:href="#m6eee159099" y="534.836284"/>
     <use style="fill:#8c564b;stroke:#8c564b;" x="590.4" xlink:href="#m6eee159099" y="511.306954"/>
     <use style="fill:#8c564b;stroke:#8c564b;" x="635.490909" xlink:href="#m6eee159099" y="526.376617"/>
     <use style="fill:#8c564b;stroke:#8c564b;" x="680.581818" xlink:href="#m6eee159099" y="533.030931"/>
     <use style="fill:#8c564b;stroke:#8c564b;" x="725.672727" xlink:href="#m6eee159099" y="534.951817"/>
     <use style="fill:#8c564b;stroke:#8c564b;" x="770.763636" xlink:href="#m6eee159099" y="527.096305"/>
     <use style="fill:#8c564b;stroke:#8c564b;" x="815.854545" xlink:href="#m6eee159099" y="534.304132"/>
     <use style="fill:#8c564b;stroke:#8c564b;" x="860.945455" xlink:href="#m6eee159099" y="538.304451"/>
     <use style="fill:#8c564b;stroke:#8c564b;" x="906.036364" xlink:href="#m6eee159099" y="541.759415"/>
     <use style="fill:#8c564b;stroke:#8c564b;" x="951.127273" xlink:href="#m6eee159099" y="537.484927"/>
     <use style="fill:#8c564b;stroke:#8c564b;" x="996.218182" xlink:href="#m6eee159099" y="540.884255"/>
    </g>
   </g>
   <g id="line2d_22">
    <path clip-path="url(#pb0daae2da4)" d="M 184.581818 544.642551 
L 229.672727 544.613154 
L 274.763636 544.656018 
L 319.854545 544.536788 
L 364.945455 543.50921 
L 410.036364 540.696969 
L 455.127273 543.218965 
L 500.218182 543.936191 
L 545.309091 543.764913 
L 590.4 542.795941 
L 635.490909 543.366051 
L 680.581818 543.866338 
L 725.672727 543.933878 
L 770.763636 543.506726 
L 815.854545 543.744203 
L 860.945455 544.162819 
L 906.036364 544.365205 
L 951.127273 544.165613 
L 996.218182 544.275861 
" style="fill:none;stroke:#e377c2;stroke-linecap:square;stroke-width:2.5;"/>
    <defs>
     <path d="M 0 3.5 
C 0.928211 3.5 1.81853 3.131218 2.474874 2.474874 
C 3.131218 1.81853 3.5 0.928211 3.5 0 
C 3.5 -0.928211 3.131218 -1.81853 2.474874 -2.474874 
C 1.81853 -3.131218 0.928211 -3.5 0 -3.5 
C -0.928211 -3.5 -1.81853 -3.131218 -2.474874 -2.474874 
C -3.131218 -1.81853 -3.5 -0.928211 -3.5 0 
C -3.5 0.928211 -3.131218 1.81853 -2.474874 2.474874 
C -1.81853 3.131218 -0.928211 3.5 0 3.5 
z
" id="m860883e524" style="stroke:#e377c2;"/>
    </defs>
    <g clip-path="url(#pb0daae2da4)">
     <use style="fill:#e377c2;stroke:#e377c2;" x="184.581818" xlink:href="#m860883e524" y="544.642551"/>
     <use style="fill:#e377c2;stroke:#e377c2;" x="229.672727" xlink:href="#m860883e524" y="544.613154"/>
     <use style="fill:#e377c2;stroke:#e377c2;" x="274.763636" xlink:href="#m860883e524" y="544.656018"/>
     <use style="fill:#e377c2;stroke:#e377c2;" x="319.854545" xlink:href="#m860883e524" y="544.536788"/>
     <use style="fill:#e377c2;stroke:#e377c2;" x="364.945455" xlink:href="#m860883e524" y="543.50921"/>
     <use style="fill:#e377c2;stroke:#e377c2;" x="410.036364" xlink:href="#m860883e524" y="540.696969"/>
     <use style="fill:#e377c2;stroke:#e377c2;" x="455.127273" xlink:href="#m860883e524" y="543.218965"/>
     <use style="fill:#e377c2;stroke:#e377c2;" x="500.218182" xlink:href="#m860883e524" y="543.936191"/>
     <use style="fill:#e377c2;stroke:#e377c2;" x="545.309091" xlink:href="#m860883e524" y="543.764913"/>
     <use style="fill:#e377c2;stroke:#e377c2;" x="590.4" xlink:href="#m860883e524" y="542.795941"/>
     <use style="fill:#e377c2;stroke:#e377c2;" x="635.490909" xlink:href="#m860883e524" y="543.366051"/>
     <use style="fill:#e377c2;stroke:#e377c2;" x="680.581818" xlink:href="#m860883e524" y="543.866338"/>
     <use style="fill:#e377c2;stroke:#e377c2;" x="725.672727" xlink:href="#m860883e524" y="543.933878"/>
     <use style="fill:#e377c2;stroke:#e377c2;" x="770.763636" xlink:href="#m860883e524" y="543.506726"/>
     <use style="fill:#e377c2;stroke:#e377c2;" x="815.854545" xlink:href="#m860883e524" y="543.744203"/>
     <use style="fill:#e377c2;stroke:#e377c2;" x="860.945455" xlink:href="#m860883e524" y="544.162819"/>
     <use style="fill:#e377c2;stroke:#e377c2;" x="906.036364" xlink:href="#m860883e524" y="544.365205"/>
     <use style="fill:#e377c2;stroke:#e377c2;" x="951.127273" xlink:href="#m860883e524" y="544.165613"/>
     <use style="fill:#e377c2;stroke:#e377c2;" x="996.218182" xlink:href="#m860883e524" y="544.275861"/>
    </g>
   </g>
   <g id="patch_3">
    <path d="M 144 567 
L 144 77.76 
" style="fill:none;stroke:#000000;stroke-linecap:square;stroke-linejoin:miter;stroke-width:0.8;"/>
   </g>
   <g id="patch_4">
    <path d="M 1036.8 567 
L 1036.8 77.76 
" style="fill:none;stroke:#000000;stroke-linecap:square;stroke-linejoin:miter;stroke-width:0.8;"/>
   </g>
   <g id="patch_5">
    <path d="M 144 567 
L 1036.8 567 
" style="fill:none;stroke:#000000;stroke-linecap:square;stroke-linejoin:miter;stroke-width:0.8;"/>
   </g>
   <g id="patch_6">
    <path d="M 144 77.76 
L 1036.8 77.76 
" style="fill:none;stroke:#000000;stroke-linecap:square;stroke-linejoin:miter;stroke-width:0.8;"/>
   </g>
   <g id="text_17">
    <!-- Mumps Cases Per 100k -->
    <defs>
     <path d="M 9.8125 72.90625 
L 24.515625 72.90625 
L 43.109375 23.296875 
L 61.8125 72.90625 
L 76.515625 72.90625 
L 76.515625 0 
L 66.890625 0 
L 66.890625 64.015625 
L 48.09375 14.015625 
L 38.1875 14.015625 
L 19.390625 64.015625 
L 19.390625 0 
L 9.8125 0 
z
" id="DejaVuSans-77"/>
     <path d="M 8.5 21.578125 
L 8.5 54.6875 
L 17.484375 54.6875 
L 17.484375 21.921875 
Q 17.484375 14.15625 20.5 10.265625 
Q 23.53125 6.390625 29.59375 6.390625 
Q 36.859375 6.390625 41.078125 11.03125 
Q 45.3125 15.671875 45.3125 23.6875 
L 45.3125 54.6875 
L 54.296875 54.6875 
L 54.296875 0 
L 45.3125 0 
L 45.3125 8.40625 
Q 42.046875 3.421875 37.71875 1 
Q 33.40625 -1.421875 27.6875 -1.421875 
Q 18.265625 -1.421875 13.375 4.4375 
Q 8.5 10.296875 8.5 21.578125 
z
M 31.109375 56 
z
" id="DejaVuSans-117"/>
     <path d="M 18.109375 8.203125 
L 18.109375 -20.796875 
L 9.078125 -20.796875 
L 9.078125 54.6875 
L 18.109375 54.6875 
L 18.109375 46.390625 
Q 20.953125 51.265625 25.265625 53.625 
Q 29.59375 56 35.59375 56 
Q 45.5625 56 51.78125 48.09375 
Q 58.015625 40.1875 58.015625 27.296875 
Q 58.015625 14.40625 51.78125 6.484375 
Q 45.5625 -1.421875 35.59375 -1.421875 
Q 29.59375 -1.421875 25.265625 0.953125 
Q 20.953125 3.328125 18.109375 8.203125 
z
M 48.6875 27.296875 
Q 48.6875 37.203125 44.609375 42.84375 
Q 40.53125 48.484375 33.40625 48.484375 
Q 26.265625 48.484375 22.1875 42.84375 
Q 18.109375 37.203125 18.109375 27.296875 
Q 18.109375 17.390625 22.1875 11.75 
Q 26.265625 6.109375 33.40625 6.109375 
Q 40.53125 6.109375 44.609375 11.75 
Q 48.6875 17.390625 48.6875 27.296875 
z
" id="DejaVuSans-112"/>
     <path d="M 44.28125 53.078125 
L 44.28125 44.578125 
Q 40.484375 46.53125 36.375 47.5 
Q 32.28125 48.484375 27.875 48.484375 
Q 21.1875 48.484375 17.84375 46.4375 
Q 14.5 44.390625 14.5 40.28125 
Q 14.5 37.15625 16.890625 35.375 
Q 19.28125 33.59375 26.515625 31.984375 
L 29.59375 31.296875 
Q 39.15625 29.25 43.1875 25.515625 
Q 47.21875 21.78125 47.21875 15.09375 
Q 47.21875 7.46875 41.1875 3.015625 
Q 35.15625 -1.421875 24.609375 -1.421875 
Q 20.21875 -1.421875 15.453125 -0.5625 
Q 10.6875 0.296875 5.421875 2 
L 5.421875 11.28125 
Q 10.40625 8.6875 15.234375 7.390625 
Q 20.0625 6.109375 24.8125 6.109375 
Q 31.15625 6.109375 34.5625 8.28125 
Q 37.984375 10.453125 37.984375 14.40625 
Q 37.984375 18.0625 35.515625 20.015625 
Q 33.0625 21.96875 24.703125 23.78125 
L 21.578125 24.515625 
Q 13.234375 26.265625 9.515625 29.90625 
Q 5.8125 33.546875 5.8125 39.890625 
Q 5.8125 47.609375 11.28125 51.796875 
Q 16.75 56 26.8125 56 
Q 31.78125 56 36.171875 55.265625 
Q 40.578125 54.546875 44.28125 53.078125 
z
" id="DejaVuSans-115"/>
     <path id="DejaVuSans-32"/>
     <path d="M 64.40625 67.28125 
L 64.40625 56.890625 
Q 59.421875 61.53125 53.78125 63.8125 
Q 48.140625 66.109375 41.796875 66.109375 
Q 29.296875 66.109375 22.65625 58.46875 
Q 16.015625 50.828125 16.015625 36.375 
Q 16.015625 21.96875 22.65625 14.328125 
Q 29.296875 6.6875 41.796875 6.6875 
Q 48.140625 6.6875 53.78125 8.984375 
Q 59.421875 11.28125 64.40625 15.921875 
L 64.40625 5.609375 
Q 59.234375 2.09375 53.4375 0.328125 
Q 47.65625 -1.421875 41.21875 -1.421875 
Q 24.65625 -1.421875 15.125 8.703125 
Q 5.609375 18.84375 5.609375 36.375 
Q 5.609375 53.953125 15.125 64.078125 
Q 24.65625 74.21875 41.21875 74.21875 
Q 47.75 74.21875 53.53125 72.484375 
Q 59.328125 70.75 64.40625 67.28125 
z
" id="DejaVuSans-67"/>
     <path d="M 34.28125 27.484375 
Q 23.390625 27.484375 19.1875 25 
Q 14.984375 22.515625 14.984375 16.5 
Q 14.984375 11.71875 18.140625 8.90625 
Q 21.296875 6.109375 26.703125 6.109375 
Q 34.1875 6.109375 38.703125 11.40625 
Q 43.21875 16.703125 43.21875 25.484375 
L 43.21875 27.484375 
z
M 52.203125 31.203125 
L 52.203125 0 
L 43.21875 0 
L 43.21875 8.296875 
Q 40.140625 3.328125 35.546875 0.953125 
Q 30.953125 -1.421875 24.3125 -1.421875 
Q 15.921875 -1.421875 10.953125 3.296875 
Q 6 8.015625 6 15.921875 
Q 6 25.140625 12.171875 29.828125 
Q 18.359375 34.515625 30.609375 34.515625 
L 43.21875 34.515625 
L 43.21875 35.40625 
Q 43.21875 41.609375 39.140625 45 
Q 35.0625 48.390625 27.6875 48.390625 
Q 23 48.390625 18.546875 47.265625 
Q 14.109375 46.140625 10.015625 43.890625 
L 10.015625 52.203125 
Q 14.9375 54.109375 19.578125 55.046875 
Q 24.21875 56 28.609375 56 
Q 40.484375 56 46.34375 49.84375 
Q 52.203125 43.703125 52.203125 31.203125 
z
" id="DejaVuSans-97"/>
     <path d="M 19.671875 64.796875 
L 19.671875 37.40625 
L 32.078125 37.40625 
Q 38.96875 37.40625 42.71875 40.96875 
Q 46.484375 44.53125 46.484375 51.125 
Q 46.484375 57.671875 42.71875 61.234375 
Q 38.96875 64.796875 32.078125 64.796875 
z
M 9.8125 72.90625 
L 32.078125 72.90625 
Q 44.34375 72.90625 50.609375 67.359375 
Q 56.890625 61.8125 56.890625 51.125 
Q 56.890625 40.328125 50.609375 34.8125 
Q 44.34375 29.296875 32.078125 29.296875 
L 19.671875 29.296875 
L 19.671875 0 
L 9.8125 0 
z
" id="DejaVuSans-80"/>
     <path d="M 41.109375 46.296875 
Q 39.59375 47.171875 37.8125 47.578125 
Q 36.03125 48 33.890625 48 
Q 26.265625 48 22.1875 43.046875 
Q 18.109375 38.09375 18.109375 28.8125 
L 18.109375 0 
L 9.078125 0 
L 9.078125 54.6875 
L 18.109375 54.6875 
L 18.109375 46.1875 
Q 20.953125 51.171875 25.484375 53.578125 
Q 30.03125 56 36.53125 56 
Q 37.453125 56 38.578125 55.875 
Q 39.703125 55.765625 41.0625 55.515625 
z
" id="DejaVuSans-114"/>
     <path d="M 9.078125 75.984375 
L 18.109375 75.984375 
L 18.109375 31.109375 
L 44.921875 54.6875 
L 56.390625 54.6875 
L 27.390625 29.109375 
L 57.625 0 
L 45.90625 0 
L 18.109375 26.703125 
L 18.109375 0 
L 9.078125 0 
z
" id="DejaVuSans-107"/>
    </defs>
    <g transform="translate(473.751562 71.76)scale(0.2 -0.2)">
     <use xlink:href="#DejaVuSans-77"/>
     <use x="86.279297" xlink:href="#DejaVuSans-117"/>
     <use x="149.658203" xlink:href="#DejaVuSans-109"/>
     <use x="247.070312" xlink:href="#DejaVuSans-112"/>
     <use x="310.546875" xlink:href="#DejaVuSans-115"/>
     <use x="362.646484" xlink:href="#DejaVuSans-32"/>
     <use x="394.433594" xlink:href="#DejaVuSans-67"/>
     <use x="464.257812" xlink:href="#DejaVuSans-97"/>
     <use x="525.537109" xlink:href="#DejaVuSans-115"/>
     <use x="577.636719" xlink:href="#DejaVuSans-101"/>
     <use x="639.160156" xlink:href="#DejaVuSans-115"/>
     <use x="691.259766" xlink:href="#DejaVuSans-32"/>
     <use x="723.046875" xlink:href="#DejaVuSans-80"/>
     <use x="783.302734" xlink:href="#DejaVuSans-101"/>
     <use x="844.826172" xlink:href="#DejaVuSans-114"/>
     <use x="885.939453" xlink:href="#DejaVuSans-32"/>
     <use x="917.726562" xlink:href="#DejaVuSans-49"/>
     <use x="981.349609" xlink:href="#DejaVuSans-48"/>
     <use x="1044.972656" xlink:href="#DejaVuSans-48"/>
     <use x="1108.595703" xlink:href="#DejaVuSans-107"/>
    </g>
   </g>
   <g id="legend_1">
    <g id="patch_7">
     <path d="M 909.490156 290.179062 
L 1025.5 290.179062 
Q 1029.3 290.179062 1029.3 286.379062 
L 1029.3 93.06 
Q 1029.3 89.26 1025.5 89.26 
L 909.490156 89.26 
Q 905.690156 89.26 905.690156 93.06 
L 905.690156 286.379062 
Q 905.690156 290.179062 909.490156 290.179062 
z
" style="fill:#4c4c4c;opacity:0.5;stroke:#4c4c4c;stroke-linejoin:miter;"/>
    </g>
    <g id="patch_8">
     <path d="M 907.490156 288.179062 
L 1023.5 288.179062 
Q 1027.3 288.179062 1027.3 284.379062 
L 1027.3 91.06 
Q 1027.3 87.26 1023.5 87.26 
L 907.490156 87.26 
Q 903.690156 87.26 903.690156 91.06 
L 903.690156 284.379062 
Q 903.690156 288.179062 907.490156 288.179062 
z
" style="fill:#ffffff;stroke:#cccccc;stroke-linejoin:miter;"/>
    </g>
    <g id="line2d_23">
     <path d="M 911.290156 102.647031 
L 949.290156 102.647031 
" style="fill:none;stroke:#1f77b4;stroke-linecap:square;stroke-width:2.5;"/>
    </g>
    <g id="line2d_24">
     <g>
      <use style="fill:#1f77b4;stroke:#1f77b4;" x="930.290156" xlink:href="#md73ee438b4" y="102.647031"/>
     </g>
    </g>
    <g id="text_18">
     <!-- &lt;1 -->
     <defs>
      <path d="M 73.1875 49.21875 
L 22.796875 31.296875 
L 73.1875 13.484375 
L 73.1875 4.59375 
L 10.59375 27.296875 
L 10.59375 35.40625 
L 73.1875 58.109375 
z
" id="DejaVuSans-60"/>
     </defs>
     <g transform="translate(964.490156 109.297031)scale(0.19 -0.19)">
      <use xlink:href="#DejaVuSans-60"/>
      <use x="83.789062" xlink:href="#DejaVuSans-49"/>
     </g>
    </g>
    <g id="line2d_25">
     <path d="M 911.290156 130.535469 
L 949.290156 130.535469 
" style="fill:none;stroke:#ff7f0e;stroke-linecap:square;stroke-width:2.5;"/>
    </g>
    <g id="line2d_26">
     <g>
      <use style="fill:#ff7f0e;stroke:#ff7f0e;" x="930.290156" xlink:href="#m00f6d96612" y="130.535469"/>
     </g>
    </g>
    <g id="text_19">
     <!-- 1-4 -->
     <defs>
      <path d="M 4.890625 31.390625 
L 31.203125 31.390625 
L 31.203125 23.390625 
L 4.890625 23.390625 
z
" id="DejaVuSans-45"/>
     </defs>
     <g transform="translate(964.490156 137.185469)scale(0.19 -0.19)">
      <use xlink:href="#DejaVuSans-49"/>
      <use x="63.623047" xlink:href="#DejaVuSans-45"/>
      <use x="99.707031" xlink:href="#DejaVuSans-52"/>
     </g>
    </g>
    <g id="line2d_27">
     <path d="M 911.290156 158.423906 
L 949.290156 158.423906 
" style="fill:none;stroke:#2ca02c;stroke-linecap:square;stroke-width:2.5;"/>
    </g>
    <g id="line2d_28">
     <g>
      <use style="fill:#2ca02c;stroke:#2ca02c;" x="930.290156" xlink:href="#m0347378c0f" y="158.423906"/>
     </g>
    </g>
    <g id="text_20">
     <!-- 5-9 -->
     <defs>
      <path d="M 10.984375 1.515625 
L 10.984375 10.5 
Q 14.703125 8.734375 18.5 7.8125 
Q 22.3125 6.890625 25.984375 6.890625 
Q 35.75 6.890625 40.890625 13.453125 
Q 46.046875 20.015625 46.78125 33.40625 
Q 43.953125 29.203125 39.59375 26.953125 
Q 35.25 24.703125 29.984375 24.703125 
Q 19.046875 24.703125 12.671875 31.3125 
Q 6.296875 37.9375 6.296875 49.421875 
Q 6.296875 60.640625 12.9375 67.421875 
Q 19.578125 74.21875 30.609375 74.21875 
Q 43.265625 74.21875 49.921875 64.515625 
Q 56.59375 54.828125 56.59375 36.375 
Q 56.59375 19.140625 48.40625 8.859375 
Q 40.234375 -1.421875 26.421875 -1.421875 
Q 22.703125 -1.421875 18.890625 -0.6875 
Q 15.09375 0.046875 10.984375 1.515625 
z
M 30.609375 32.421875 
Q 37.25 32.421875 41.125 36.953125 
Q 45.015625 41.5 45.015625 49.421875 
Q 45.015625 57.28125 41.125 61.84375 
Q 37.25 66.40625 30.609375 66.40625 
Q 23.96875 66.40625 20.09375 61.84375 
Q 16.21875 57.28125 16.21875 49.421875 
Q 16.21875 41.5 20.09375 36.953125 
Q 23.96875 32.421875 30.609375 32.421875 
z
" id="DejaVuSans-57"/>
     </defs>
     <g transform="translate(964.490156 165.073906)scale(0.19 -0.19)">
      <use xlink:href="#DejaVuSans-53"/>
      <use x="63.623047" xlink:href="#DejaVuSans-45"/>
      <use x="99.707031" xlink:href="#DejaVuSans-57"/>
     </g>
    </g>
    <g id="line2d_29">
     <path d="M 911.290156 186.312344 
L 949.290156 186.312344 
" style="fill:none;stroke:#d62728;stroke-linecap:square;stroke-width:2.5;"/>
    </g>
    <g id="line2d_30">
     <g>
      <use style="fill:#d62728;stroke:#d62728;" x="930.290156" xlink:href="#m1d828af527" y="186.312344"/>
     </g>
    </g>
    <g id="text_21">
     <!-- 10-14 -->
     <g transform="translate(964.490156 192.962344)scale(0.19 -0.19)">
      <use xlink:href="#DejaVuSans-49"/>
      <use x="63.623047" xlink:href="#DejaVuSans-48"/>
      <use x="127.246094" xlink:href="#DejaVuSans-45"/>
      <use x="163.330078" xlink:href="#DejaVuSans-49"/>
      <use x="226.953125" xlink:href="#DejaVuSans-52"/>
     </g>
    </g>
    <g id="line2d_31">
     <path d="M 911.290156 214.200781 
L 949.290156 214.200781 
" style="fill:none;stroke:#9467bd;stroke-linecap:square;stroke-width:2.5;"/>
    </g>
    <g id="line2d_32">
     <g>
      <use style="fill:#9467bd;stroke:#9467bd;" x="930.290156" xlink:href="#m21ea991a73" y="214.200781"/>
     </g>
    </g>
    <g id="text_22">
     <!-- 15-19 -->
     <g transform="translate(964.490156 220.850781)scale(0.19 -0.19)">
      <use xlink:href="#DejaVuSans-49"/>
      <use x="63.623047" xlink:href="#DejaVuSans-53"/>
      <use x="127.246094" xlink:href="#DejaVuSans-45"/>
      <use x="163.330078" xlink:href="#DejaVuSans-49"/>
      <use x="226.953125" xlink:href="#DejaVuSans-57"/>
     </g>
    </g>
    <g id="line2d_33">
     <path d="M 911.290156 242.089219 
L 949.290156 242.089219 
" style="fill:none;stroke:#8c564b;stroke-linecap:square;stroke-width:2.5;"/>
    </g>
    <g id="line2d_34">
     <g>
      <use style="fill:#8c564b;stroke:#8c564b;" x="930.290156" xlink:href="#m6eee159099" y="242.089219"/>
     </g>
    </g>
    <g id="text_23">
     <!-- 20-29 -->
     <g transform="translate(964.490156 248.739219)scale(0.19 -0.19)">
      <use xlink:href="#DejaVuSans-50"/>
      <use x="63.623047" xlink:href="#DejaVuSans-48"/>
      <use x="127.246094" xlink:href="#DejaVuSans-45"/>
      <use x="163.330078" xlink:href="#DejaVuSans-50"/>
      <use x="226.953125" xlink:href="#DejaVuSans-57"/>
     </g>
    </g>
    <g id="line2d_35">
     <path d="M 911.290156 269.977656 
L 949.290156 269.977656 
" style="fill:none;stroke:#e377c2;stroke-linecap:square;stroke-width:2.5;"/>
    </g>
    <g id="line2d_36">
     <g>
      <use style="fill:#e377c2;stroke:#e377c2;" x="930.290156" xlink:href="#m860883e524" y="269.977656"/>
     </g>
    </g>
    <g id="text_24">
     <!-- 30+ -->
     <defs>
      <path d="M 46 62.703125 
L 46 35.5 
L 73.1875 35.5 
L 73.1875 27.203125 
L 46 27.203125 
L 46 0 
L 37.796875 0 
L 37.796875 27.203125 
L 10.59375 27.203125 
L 10.59375 35.5 
L 37.796875 35.5 
L 37.796875 62.703125 
z
" id="DejaVuSans-43"/>
     </defs>
     <g transform="translate(964.490156 276.627656)scale(0.19 -0.19)">
      <use xlink:href="#DejaVuSans-51"/>
      <use x="63.623047" xlink:href="#DejaVuSans-48"/>
      <use x="127.246094" xlink:href="#DejaVuSans-43"/>
     </g>
    </g>
   </g>
  </g>
 </g>
 <defs>
  <clipPath id="pb0daae2da4">
   <rect height="489.24" width="892.8" x="144" y="77.76"/>
  </clipPath>
 </defs>
</svg>
